<?xml version="1.0" encoding="UTF-8"?>
<!-- Generator: visioncortex VTracer -->
<svg id="svg" version="1.1" xmlns="http://www.w3.org/2000/svg" style="display: block;" viewBox="0 0 512 512"><path d="M0 0 C0.71833008 0.31565918 1.43666016 0.63131836 2.17675781 0.95654297 C20.22453428 9.06467065 33.40900151 20.21793597 41 39 C46.38790905 54.81859418 45.2800725 72.00772574 38.57421875 87.23828125 C36.51688073 91.16689313 34.49363636 94.4619057 31.484375 97.7421875 C28.36475009 101.42174508 27.38797928 105.40117828 26.1875 110 C25.67817839 111.80220217 25.16366575 113.6029437 24.64453125 115.40234375 C24.24355225 116.79235596 24.24355225 116.79235596 23.83447266 118.21044922 C11.68237917 158.83356807 -9.13243231 197.16625256 -33 232 C-31.90566015 233.11136207 -30.80881055 234.22025311 -29.7109375 235.328125 C-29.10040527 235.9459082 -28.48987305 236.56369141 -27.86083984 237.20019531 C-26.17943027 238.82645501 -24.45788563 240.29964455 -22.625 241.75 C4.45229682 264.72650354 16.55450152 303.31099076 19.80151367 337.40625 C22.85423223 377.29810979 13.05625858 419.49711322 -13.11328125 450.50390625 C-15.35962164 453.05348264 -17.6628835 455.53346662 -20 458 C-20.83273437 458.8971875 -21.66546875 459.794375 -22.5234375 460.71875 C-51.45638983 490.92441284 -96.62449645 505.22138202 -137.7175293 506.16113281 C-139.33636922 506.18060183 -140.95528525 506.19440344 -142.57421875 506.203125 C-143.45256378 506.21013931 -144.33090881 506.21715363 -145.23587036 506.22438049 C-148.0531331 506.24177561 -150.87018554 506.24823234 -153.6875 506.25 C-154.65086273 506.25067474 -155.61422546 506.25134949 -156.60678101 506.25204468 C-170.94201474 506.23608499 -184.89902996 505.80215089 -199 503 C-199.90331055 502.82839355 -200.80662109 502.65678711 -201.73730469 502.47998047 C-241.8010462 494.71025313 -279.20774596 475.71947131 -302.82080078 441.43505859 C-326.96660789 405.30918538 -333.84985538 360.13701031 -326 317.6796875 C-319.96386298 288.08515619 -306.17990103 260.73338575 -284 240 C-286.36331373 235.79675481 -288.80489052 231.67756146 -291.39819336 227.61279297 C-317.17922788 187.15324308 -338.05528833 140.3672176 -347 93 C-347.15791016 92.19852539 -347.31582031 91.39705078 -347.47851562 90.57128906 C-351.86959555 67.72141018 -353.26986319 41.34554434 -340.625 20.76171875 C-339.17771614 18.73630792 -337.63996502 16.87199844 -336 15 C-335.47277344 14.34515625 -334.94554687 13.6903125 -334.40234375 13.015625 C-326.18689348 3.69876271 -311.71444931 -2.87455677 -299.43115234 -4.29760742 C-296.82064281 -4.43522372 -294.2388467 -4.46821699 -291.625 -4.4375 C-290.705979 -4.42920166 -289.78695801 -4.42090332 -288.84008789 -4.41235352 C-273.54361596 -4.03294592 -260.53524972 2.93321742 -249.5 13.3671875 C-210.76730108 54.15756105 -193.00926767 116.82606013 -183.125 170.875 C-182.92148926 171.98536621 -182.71797852 173.09573242 -182.50830078 174.23974609 C-181.14104351 182.13853246 -180.44310324 189.99860699 -180 198 C-179.01 197.67 -178.02 197.34 -177 197 C-172.77954485 196.64099781 -168.54477986 196.53235103 -164.3125 196.375 C-163.15298828 196.3234375 -161.99347656 196.271875 -160.79882812 196.21875 C-154.72111425 195.98379574 -149.00503098 196.00780006 -143 197 C-142.9575415 196.35095703 -142.91508301 195.70191406 -142.87133789 195.03320312 C-142.3081596 187.69430635 -141.06210629 180.67326977 -139.4375 173.5 C-139.17428955 172.33291504 -138.9110791 171.16583008 -138.63989258 169.96337891 C-131.76667872 140.26106289 -121.56997996 111.73883863 -109 84 C-108.47623779 82.8248584 -108.47623779 82.8248584 -107.94189453 81.62597656 C-104.30130331 73.46351874 -100.32824539 65.79064324 -95.625 58.1875 C-92.05750587 52.3862957 -90.09276002 47.6962883 -89.3984375 40.828125 C-87.61072028 28.13883807 -78.82551489 14.96795486 -69 7 C-47.76631357 -8.00954488 -23.81256005 -10.55341864 0 0 Z " transform="translate(409,6)" style="fill: #FEDDE3;"/><path d="M0 0 C0.919021 0.00829834 1.83804199 0.01659668 2.78491211 0.02514648 C18.08138404 0.40455408 31.08975028 7.37071742 42.125 17.8046875 C80.85769892 58.59506105 98.61573233 121.26356013 108.5 175.3125 C108.70351074 176.42286621 108.90702148 177.53323242 109.11669922 178.67724609 C110.47699944 186.53584086 111.48776492 194.45330741 111.625 202.4375 C110.04080569 204.02169431 108.22814938 203.86431677 106.0390625 204.15625 C105.10835937 204.28386719 104.17765625 204.41148437 103.21875 204.54296875 C101.74921875 204.73826172 101.74921875 204.73826172 100.25 204.9375 C98.32517323 205.19533488 96.40067612 205.45564607 94.4765625 205.71875 C93.18999756 205.88987305 93.18999756 205.88987305 91.87744141 206.06445312 C89.46603032 206.40328454 89.46603032 206.40328454 86.625 207.4375 C85.04472217 209.58820137 85.04472217 209.58820137 83.5859375 212.30078125 C83.00996826 213.32220215 82.43399902 214.34362305 81.84057617 215.39599609 C81.23318604 216.50281738 80.6257959 217.60963867 80 218.75 C79.37262939 219.88775879 78.74525879 221.02551758 78.09887695 222.19775391 C61.55062392 252.56351112 45.54736233 291.10232791 46.625 326.4375 C47.14449219 325.95539063 47.66398437 325.47328125 48.19921875 324.9765625 C49.24529297 324.02910156 49.24529297 324.02910156 50.3125 323.0625 C50.99699219 322.43601562 51.68148437 321.80953125 52.38671875 321.1640625 C57.95805486 316.86645244 63.82946683 316.5630078 70.625 317.4375 C79.20878064 320.19218032 84.31846642 325.13197064 88.5 332.9375 C90.13427233 338.0219028 90.59467975 341.53854382 88.125 346.375 C85.09279617 348.87656816 83.37342842 349.18274508 79.5234375 348.91796875 C77.625 348.4375 77.625 348.4375 75.25 346.375 C73.45447887 343.12925026 72.56961773 340.01355285 71.625 336.4375 C69.62942887 334.0092978 69.62942887 334.0092978 65.6875 334.125 C63.26547419 334.20821608 61.90064639 334.29048859 59.75 335.4375 C58.59733857 337.48667588 58.15306866 339.15758453 57.625 341.4375 C57.09693134 343.71741547 56.65266143 345.38832412 55.5 347.4375 C52.32484367 349.13091671 49.1719574 348.61194053 45.625 348.4375 C45.295 349.4275 44.965 350.4175 44.625 351.4375 C43.17480469 351.67533203 43.17480469 351.67533203 41.6953125 351.91796875 C29.87975708 353.97774241 21.28351875 356.76938801 13.21875 366.15625 C8.97814698 372.22613276 8.90304957 378.24612362 9.625 385.4375 C11.71712711 393.62347384 18.7391868 399.00886675 25.625 403.3125 C33.76308576 406.36428216 41.99599282 406.93069587 50.625 407.4375 C50.9653125 408.68660156 51.305625 409.93570312 51.65625 411.22265625 C60.74890706 444.11160252 72.85124986 475.30721303 93.04296875 503.06640625 C94.625 505.4375 94.625 505.4375 94.625 507.4375 C54.61442207 501.06710072 16.34173251 483.4301265 -8.21557617 450.15917969 C-34.15929453 413.65221944 -42.08803175 368.34584493 -34.80273438 324.43066406 C-29.17709068 294.00338114 -15.08453514 265.6659785 7.625 244.4375 C5.26168627 240.23425481 2.82010948 236.11506146 0.22680664 232.05029297 C-25.55422788 191.59074308 -46.43028833 144.8047176 -55.375 97.4375 C-55.53291016 96.63602539 -55.69082031 95.83455078 -55.85351562 95.00878906 C-60.24459555 72.15891018 -61.64486319 45.78304434 -49 25.19921875 C-47.55271614 23.17380792 -46.01496502 21.30949844 -44.375 19.4375 C-43.84777344 18.78265625 -43.32054688 18.1278125 -42.77734375 17.453125 C-32.5441124 5.84796593 -15.13542999 -0.17786616 0 0 Z " transform="translate(117.375,1.5625)" style="fill: #FEB3C2;"/><path d="M0 0 C0.71833008 0.31565918 1.43666016 0.63131836 2.17675781 0.95654297 C20.22453428 9.06467065 33.40900151 20.21793597 41 39 C46.38790905 54.81859418 45.2800725 72.00772574 38.57421875 87.23828125 C36.51688073 91.16689313 34.49363636 94.4619057 31.484375 97.7421875 C28.36475009 101.42174508 27.38797928 105.40117828 26.1875 110 C25.67817839 111.80220217 25.16366575 113.6029437 24.64453125 115.40234375 C24.37721191 116.32901855 24.10989258 117.25569336 23.83447266 118.21044922 C11.68237917 158.83356807 -9.13243231 197.16625256 -33 232 C-37.01709683 231.1423509 -39.89703824 229.22214855 -43.25 226.9375 C-50.82522197 221.9033335 -58.80043072 217.9081064 -67 214 C-66.63140869 213.51023682 -66.26281738 213.02047363 -65.88305664 212.51586914 C-64.25251029 210.34604208 -62.62556496 208.17356129 -61 206 C-60.5344873 205.37851074 -60.06897461 204.75702148 -59.58935547 204.11669922 C-45.24978478 184.81483435 -31.02186757 162.16840796 -24 139 C-25.794375 139.7425 -25.794375 139.7425 -27.625 140.5 C-39.41689397 144.36892596 -50.87808515 142.04347841 -61.72265625 136.64453125 C-70.13897878 131.90955643 -76.65645631 125.70710371 -81 117 C-81 116.34 -81 115.68 -81 115 C-81.66 115 -82.32 115 -83 115 C-83.40476562 116.23878906 -83.80953125 117.47757812 -84.2265625 118.75390625 C-85.79450677 123.46049629 -87.49520704 128.11181726 -89.21044922 132.76635742 C-96.31099971 152.1015881 -101.8444289 171.37571178 -104.5703125 191.84375 C-104.98747125 194.9079706 -105.47674883 197.95229143 -106 201 C-118.36470062 199.87823165 -130.69186929 198.63644171 -143 197 C-142.47574845 188.98601432 -141.21032297 181.32770415 -139.4375 173.5 C-139.17428955 172.33291504 -138.9110791 171.16583008 -138.63989258 169.96337891 C-131.76667872 140.26106289 -121.56997996 111.73883863 -109 84 C-108.6508252 83.21657227 -108.30165039 82.43314453 -107.94189453 81.62597656 C-104.30130331 73.46351874 -100.32824539 65.79064324 -95.625 58.1875 C-92.05750587 52.3862957 -90.09276002 47.6962883 -89.3984375 40.828125 C-87.61072028 28.13883807 -78.82551489 14.96795486 -69 7 C-47.76631357 -8.00954488 -23.81256005 -10.55341864 0 0 Z " transform="translate(409,6)" style="fill: #FFDEE3;"/><path d="M0 0 C6.71982363 5.21928049 11.12468914 12.15866989 15.2265625 19.5 C15.73936768 20.41096436 16.25217285 21.32192871 16.78051758 22.26049805 C29.03739897 44.4070357 38.64972357 68.48481832 45.4140625 92.875 C45.65753418 93.7505957 45.90100586 94.62619141 46.15185547 95.52832031 C51.93236406 116.65559662 55.0558611 136.95876638 54.4140625 158.875 C50.40430288 160.38033993 46.39394128 161.88378581 42.37890625 163.375 C41.38213867 163.74625 41.38213867 163.74625 40.36523438 164.125 C39.01935547 164.62627788 37.67299768 165.12627183 36.32617188 165.625 C35.66294922 165.8725 34.99972656 166.12 34.31640625 166.375 C33.3416333 166.73851562 33.3416333 166.73851562 32.34716797 167.109375 C30.41347948 167.87523091 28.55053933 168.74215315 26.66796875 169.625 C23.4140625 170.875 23.4140625 170.875 21.26171875 170.87109375 C11.00649145 165.34237713 3.94216816 149.607881 -1.5859375 139.875 C-2.26873779 138.67423828 -2.26873779 138.67423828 -2.96533203 137.44921875 C-16.01025469 114.20469583 -24.95668584 89.34685634 -32.5859375 63.875 C-32.93543457 62.71605225 -32.93543457 62.71605225 -33.29199219 61.53369141 C-35.58814007 53.80807148 -37.26044309 45.96065686 -38.8359375 38.0625 C-39.01165283 37.20213135 -39.18736816 36.3417627 -39.3684082 35.45532227 C-41.5546255 23.97409116 -41.14030163 15.8797893 -34.5859375 5.875 C-25.59593066 -4.57229105 -12.07342584 -6.14336862 0 0 Z " transform="translate(136.5859375,52.125)" style="fill: #FFF7E5;"/><path d="M0 0 C0.33 0 0.66 0 1 0 C1.07516846 0.74757568 1.15033691 1.49515137 1.2277832 2.26538086 C2.58900085 15.74894646 3.97765404 29.22813656 5.5625 42.6875 C5.73422729 44.17914673 5.73422729 44.17914673 5.90942383 45.70092773 C6.02310303 46.64911377 6.13678223 47.5972998 6.25390625 48.57421875 C6.41765747 49.94622437 6.41765747 49.94622437 6.5847168 51.34594727 C6.94731206 53.99491313 6.94731206 53.99491313 7.69067383 56.49584961 C9.7948477 64.11446254 7.65588842 69.10895477 4.5625 76.1875 C3.61741399 78.49092131 2.678718 80.79697372 1.74609375 83.10546875 C1.27800293 84.25837402 0.80991211 85.4112793 0.32763672 86.59912109 C-6.58821794 104.3147988 -11.1699034 123.13719637 -13.60546875 141.984375 C-14.00051444 145.00393213 -14.48337659 147.99909186 -15 151 C-27.36470062 149.87823165 -39.69186929 148.63644171 -52 147 C-51.47574845 138.98601432 -50.21032297 131.32770415 -48.4375 123.5 C-48.17428955 122.33291504 -47.9110791 121.16583008 -47.63989258 119.96337891 C-40.76667872 90.26106289 -30.56997996 61.73883863 -18 34 C-17.6508252 33.21657227 -17.30165039 32.43314453 -16.94189453 31.62597656 C-12.04734178 20.65205009 -6.49723818 10.11948012 0 0 Z " transform="translate(318,56)" style="fill: #FFB3C2;"/><path d="M0 0 C0.66 0 1.32 0 2 0 C3.08067776 1.62850055 4.08860872 3.30547522 5.0625 5 C11.11651443 14.71138809 18.37864137 19.97008359 29 24 C30.6396875 24.6496875 30.6396875 24.6496875 32.3125 25.3125 C41.30976025 26.9899553 50.21525558 26.42337777 59 24 C58.43450932 28.35544711 57.36591451 31.8291999 55.48046875 35.7890625 C54.95912354 36.88541016 54.43777832 37.98175781 53.90063477 39.11132812 C53.05263306 40.8505957 53.05263306 40.8505957 52.1875 42.625 C51.75158035 43.52255005 51.75158035 43.52255005 51.30685425 44.43823242 C42.2627324 63.00428812 31.74315663 83.25684337 17 98 C13.16284219 97.80814211 10.02555789 96.63501733 6.5390625 95.1484375 C0.77375481 92.81134985 -5.09710856 91.25313832 -11.125 89.75 C-12.176875 89.481875 -13.22875 89.21375 -14.3125 88.9375 C-16.87353109 88.28560118 -19.43594749 87.63989107 -22 87 C-22.2987449 57.21181418 -12.66295041 26.73692472 0 0 Z " transform="translate(326,121)" style="fill: #FFF7E5;"/><path d="M0 0 C1.52358987 3.93523569 0.42896838 6.64419703 -0.8515625 10.5546875 C-1.16653435 11.52247383 -1.16653435 11.52247383 -1.48786926 12.5098114 C-2.1866876 14.63632583 -2.90392884 16.75593434 -3.625 18.875 C-3.87097931 19.60596893 -4.11695862 20.33693787 -4.37039185 21.09005737 C-17.60932425 60.27224943 -36.64566785 96.91529902 -60 131 C-64.01709683 130.1423509 -66.89703824 128.22214855 -70.25 125.9375 C-77.82522197 120.9033335 -85.80043072 116.9081064 -94 113 C-93.63140869 112.51023682 -93.26281738 112.02047363 -92.88305664 111.51586914 C-91.25251029 109.34604208 -89.62556496 107.17356129 -88 105 C-87.5344873 104.37851074 -87.06897461 103.75702148 -86.58935547 103.11669922 C-72.82952486 84.59519694 -60.31569807 63.65096049 -52.23925781 41.95654297 C-51.11595758 38.95559234 -50.31320852 37.22749943 -47.6875 35.3203125 C-46.800625 34.92585938 -45.91375 34.53140625 -45 34.125 C-39.77991864 31.52855328 -35.71398283 28.45960209 -31.2890625 24.69140625 C-27.14615031 21.22572634 -22.74400214 18.10905944 -18.375 14.9375 C-11.94096563 10.25238339 -5.73073538 5.54143181 0 0 Z " transform="translate(436,107)" style="fill: #FFB3C2;"/><path d="M0 0 C0.71285156 0.4125 1.42570312 0.825 2.16015625 1.25 C7.77965053 4.94731212 11.65498471 9.67865443 14 16 C15.39438388 24.2155591 14.66197862 31.00394649 9.82421875 37.8828125 C2.99350507 45.81053587 -7.19769554 50.28322203 -17.59375 51.23828125 C-28.85224578 51.5257966 -38.66310792 48.79402469 -47 41 C-51.81782671 36.13172484 -55.11158516 31.20284983 -55.4375 24.25 C-55.12348325 16.20634024 -52.66538144 10.14193606 -46.75 4.625 C-34.38523872 -5.44170532 -14.11554252 -8.53870247 0 0 Z " transform="translate(369,358)" style="fill: #FFFEFE;"/><path d="M0 0 C7.16773063 3.64177337 14.59295667 9.78158948 17.7578125 17.33203125 C19.4915279 24.30352065 19.35413411 31.50150648 15.62890625 37.7578125 C10.0467747 45.41046762 2.67021445 50.55896999 -6.6875 52.5625 C-9.74706669 52.802352 -12.80691717 52.79348787 -15.875 52.8125 C-17.09413086 52.8434375 -17.09413086 52.8434375 -18.33789062 52.875 C-28.04439973 52.93677571 -35.49750431 50.05620137 -42.6875 43.5625 C-48.05544606 38.1707493 -50.96002912 33.56852814 -51.0625 25.75 C-50.90371486 18.12831339 -48.63005954 13.45770152 -43.5625 7.875 C-32.67690271 -2.42154981 -14.00449984 -4.95336007 0 0 Z " transform="translate(176.6875,355.4375)" style="fill: #FFFEFE;"/><path d="M0 0 C4.12804743 0.86000988 5.47968464 2.26457952 8 5.625 C8.88515897 8.27036082 9.41668608 10.88791163 10 13.625 C12.41486943 16.03986943 13.12707789 15.9211925 16.4375 15.9375 C17.21996094 15.95425781 18.00242188 15.97101563 18.80859375 15.98828125 C21.55915616 15.53230566 22.34930345 14.84728103 24 12.625 C24.88751546 10.46260919 24.88751546 10.46260919 25.5 8.125 C26.42547208 4.81974259 27.23409736 2.75107938 30 0.625 C33.80832954 0.14030351 36.04870401 0.00794314 39.3125 2.125 C41.24289747 4.98484811 41.83502869 7.3558983 42.41015625 10.72265625 C43.15533443 13.12597925 43.9879416 14.12052906 46 15.625 C49.0677324 16.30295191 51.91856515 16.2111425 55 15.625 C58.95322863 12.27996039 59.65043076 8.48344927 61 3.625 C62.25 1.6875 62.25 1.6875 64 0.625 C67.66471874 0.06732541 69.5525633 0.40128165 72.875 2.0625 C75.5297945 5.26386984 75.72865986 7.04941791 75.48046875 11.12109375 C74.1295974 18.16100054 70.57808738 24.10900033 64.87109375 28.44140625 C58.39096617 32.54052662 51.6180598 33.84778517 44 32.625 C41.4662625 31.4778658 39.26021046 30.19886478 36.97265625 28.62109375 C35.06680473 27.43381004 35.06680473 27.43381004 33 27.84375 C30.89417262 28.66633882 28.9417238 29.64230665 26.9375 30.6875 C20.71266988 33.46316195 14.80200325 33.86311633 8.2890625 31.7421875 C1.76241045 28.78265459 -3.00758722 24.96588412 -6.02734375 18.38671875 C-7.56247115 14.17749847 -8.81408594 10.10247264 -8 5.625 C-5.54405875 2.30225596 -4.0743356 0.84881992 0 0 Z " transform="translate(221,348.375)" style="fill: #3F4758;"/><path d="M0 0 C6.99751976 3.94304685 11.219927 9.26060623 13.6875 16.9375 C14.18414537 21.0525616 14.07503767 23.17857205 12.1875 26.875 C9.15529617 29.37656816 7.43592842 29.68274508 3.5859375 29.41796875 C1.6875 28.9375 1.6875 28.9375 -0.6875 26.875 C-2.48302113 23.62925026 -3.36788227 20.51355285 -4.3125 16.9375 C-6.30807113 14.5092978 -6.30807113 14.5092978 -10.25 14.625 C-12.67202581 14.70821608 -14.03685361 14.79048859 -16.1875 15.9375 C-17.34016143 17.98667588 -17.78443134 19.65758453 -18.3125 21.9375 C-18.84056866 24.21741547 -19.28483857 25.88832412 -20.4375 27.9375 C-23.63543406 29.64306483 -26.84877296 29.66927332 -30.3125 28.9375 C-33.42603131 26.36883667 -34.17676392 24.70667113 -34.875 20.75 C-33.65247663 12.46400825 -29.71635558 6.6310563 -23.375 1.3125 C-16.15154947 -3.50313368 -7.79261125 -3.57848009 0 0 Z " transform="translate(193.3125,321.0625)" style="fill: #404759;"/><path d="M0 0 C5.6592261 3.44718733 9.88105636 8.93613784 11.96875 15.19921875 C12.33521277 19.74335707 12.51708483 22.14641587 10.40625 26.19921875 C7.96875 28.19921875 7.96875 28.19921875 4.46875 28.76171875 C0.96875 28.19921875 0.96875 28.19921875 -1.34375 26.63671875 C-3.42469636 23.63090734 -4.0740673 20.70888863 -5.03125 17.19921875 C-6.01173938 15.1351919 -6.01173938 15.1351919 -8.03125 14.19921875 C-11.52491436 13.68028534 -14.74119205 13.51118785 -17.90625 15.19921875 C-19.37117062 17.80352208 -19.85371356 20.42658018 -20.51953125 23.32421875 C-21.03125 25.19921875 -21.03125 25.19921875 -22.21875 27.19921875 C-25.25096182 28.8721632 -27.65467356 28.61388603 -31.03125 28.19921875 C-33.46875 26.76171875 -33.46875 26.76171875 -35.03125 24.19921875 C-36.17186124 17.48516624 -34.54903556 12.01624622 -30.8125 6.3515625 C-23.12763398 -3.70280387 -11.07364416 -5.55631793 0 0 Z " transform="translate(338.03125,321.80078125)" style="fill: #3E4658;"/></svg>