<?xml version="1.0" encoding="UTF-8"?>
<!-- Generator: visioncortex VTracer -->
<svg id="svg" version="1.1" xmlns="http://www.w3.org/2000/svg" style="display: block;" viewBox="0 0 512 512"><path d="M0 0 C9.81331554 5.57862899 17.97557302 13.15273274 26 21 C26.63244629 21.6172998 27.26489258 22.23459961 27.91650391 22.87060547 C29.86759452 24.78220228 31.81112079 26.70102187 33.75 28.625 C34.6635022 29.53125122 34.6635022 29.53125122 35.59545898 30.45581055 C39.87755614 34.75511229 39.87755614 34.75511229 41 37 C45.9622418 36.50377582 50.83992042 35.87493439 55.75 35 C72.56856316 32.17583025 90.05526234 32.07607828 107 33.875 C107.78238037 33.95121582 108.56476074 34.02743164 109.37084961 34.10595703 C113.03083503 34.50215501 116.19654087 35.06194639 119.73046875 36.17578125 C123.67184355 37.32924574 125.95494875 37.83360854 130 37 C135.57968009 32.9795919 139.84113765 27.39972852 144.19140625 22.13476562 C152.30159806 12.56193663 166.07222176 -0.29897655 179 -2 C182.3125 -1.75 182.3125 -1.75 185 0 C192.8714072 11.94999113 192.19375373 28.87349497 191.81640625 42.54296875 C191.77452556 44.94071834 191.73488246 47.33850786 191.69726562 49.73632812 C191.63584161 53.45823194 191.56278692 57.17791428 191.45141602 60.89868164 C190.99931521 76.64285729 191.70687422 87.55494356 200 101 C201.33447093 104.19375949 202.30665837 107.40607075 203.1875 110.75 C203.5421936 112.02170044 203.5421936 112.02170044 203.90405273 113.3190918 C206.27124336 122.21766668 207.75604661 131.30242124 209.08862305 140.40722656 C210.62820838 150.16651399 213.67882277 156.32959408 221 163 C222.0828125 164.00160156 222.0828125 164.00160156 223.1875 165.0234375 C227.36929625 168.85239469 231.61583001 172.54395116 236.0625 176.0625 C248.60471016 186.02942876 259.40060456 196.43189076 262 213 C263.40627409 233.21807179 257.85026136 252.20034973 244.75 267.875 C218.63624978 297.56467907 179.25182059 306.825538 142 314 C142.81082031 314.54527344 143.62164062 315.09054687 144.45703125 315.65234375 C159.79340079 326.05533568 175.03391457 337.3961381 184 354 C184.35964844 354.65226562 184.71929687 355.30453125 185.08984375 355.9765625 C188.72468189 363.8492534 188.06617875 373.74517557 185.4375 381.8125 C180.98894786 392.38947711 173.54929748 399.42919349 163 403.8125 C154.73205737 406.49931133 145.92127175 406.14863573 137.3269043 406.14526367 C135.4665303 406.15030159 135.4665303 406.15030159 133.568573 406.15544128 C130.19028991 406.16327435 126.81206831 406.16661654 123.43378043 406.16725707 C121.31648039 406.16797136 119.19918666 406.1701128 117.0818882 406.17275429 C109.67641419 406.18198529 102.27095809 406.18609197 94.86547852 406.18530273 C87.9928142 406.18470245 81.12022849 406.19525037 74.24758404 406.2110464 C68.3211457 406.22417601 62.39473289 406.22948437 56.46828014 406.22884732 C52.940141 406.22859394 49.41207185 406.23135609 45.88394737 406.24202538 C41.94302754 406.25361952 38.00221333 406.24892652 34.0612793 406.24291992 C32.91231674 406.24853943 31.76335419 406.25415894 30.57957458 406.25994873 C20.57273563 406.22140251 9.46385591 405.9937177 1 400 C0.46117187 399.38898438 -0.07765625 398.77796875 -0.6328125 398.1484375 C-2.68461455 395.83901008 -4.22942076 394.41196927 -7 393 C-11.52042023 392.82255465 -15.83466429 393.21323619 -20.328125 393.64453125 C-36.16533286 395.08988759 -51.45720074 389.48357993 -64 380 C-78.67774206 367.5803721 -86.4903329 349.90351666 -88.18603516 330.91699219 C-88.3779838 328.13983562 -88.52596592 325.36184394 -88.66381836 322.58154297 C-89.13583348 313.43780649 -90.40915815 307.10093539 -96.6875 300.125 C-100.40738012 298.31532859 -103.95249229 298.37952645 -108 299 C-111.14744519 300.23453709 -111.14744519 300.23453709 -113 303 C-113.82127537 306.01315599 -114.22406075 308.8803849 -114 312 C-113.01 313.485 -113.01 313.485 -112 315 C-110.58297487 314.85769192 -109.1663904 314.71099254 -107.75 314.5625 C-106.96109375 314.48128906 -106.1721875 314.40007812 -105.359375 314.31640625 C-103.17635361 314.02365007 -101.1226818 313.57935581 -99 313 C-94.68921532 324.18751263 -93.83780527 338.75482143 -97.5625 350.25 C-102.44440615 360.98683827 -110.48409862 365.65150012 -121 370 C-131.48119289 373.87236191 -143.98545452 373.21408909 -154.29296875 369.25390625 C-168.98483226 362.44858419 -178.52544337 350.3519364 -184.3125 335.4375 C-190.90894551 315.47829791 -189.45569515 294.64526603 -180.4375 275.75 C-170.07055519 255.41493372 -149.40056072 241.48543541 -128.203125 234.25390625 C-115.69469266 230.32663504 -103.02306332 229.52094999 -90 230 C-90.16757813 229.319375 -90.33515625 228.63875 -90.5078125 227.9375 C-92.44414896 216.38095222 -89.62671527 204.34289637 -83.4296875 194.5078125 C-81.72460535 192.21586486 -79.92965226 190.10578685 -78 188 C-77.35417969 187.28585938 -76.70835937 186.57171875 -76.04296875 185.8359375 C-71.16795548 180.71672134 -65.81825285 176.40606924 -60.24414062 172.09301758 C-46.55837054 161.48877471 -40.16704778 154.51919534 -37.37255859 137.24902344 C-34.69252889 121.0704955 -31.40856733 103.23437895 -22.5 89.25 C-17.92984414 80.79883877 -20.12263844 70.2851773 -20.79638672 61.0546875 C-23.99955658 12.99945805 -23.99955658 12.99945805 -13.55859375 0.23828125 C-9.25742406 -3.17893878 -4.71040959 -1.7918561 0 0 Z " transform="translate(219,54)" style="fill: #FECB77;"/><path d="M0 0 C1.48957473 3.92428899 2.96260143 7.84172177 4.2890625 11.82421875 C10.56777146 30.27309169 22.3844576 44.67272692 39 55 C39.97839844 55.62261719 40.95679688 56.24523437 41.96484375 56.88671875 C57.7031988 66.41207276 75.14221769 72.78401738 93 77 C93.7425 77.17869629 94.485 77.35739258 95.25 77.54150391 C108.35969226 80.64776018 121.61323592 82.54548574 135 84 C136.25200195 84.14683228 136.25200195 84.14683228 137.52929688 84.29663086 C148.51794138 85.41647363 159.59264663 85.1949381 170.625 85.1875 C172.26190796 85.18858765 172.26190796 85.18858765 173.93188477 85.18969727 C188.4189659 85.18863196 202.73612028 84.89929867 217.15625 83.4375 C218.77031822 83.28607186 220.38489675 83.13995782 222 83 C222.79164551 82.92789307 223.58329102 82.85578613 224.39892578 82.78149414 C230.23468754 82.47728042 233.37051819 83.81265018 237.875 87.4375 C238.47159424 87.8919751 239.06818848 88.3464502 239.68286133 88.81469727 C241.4728039 90.18887425 243.23694744 91.59158154 245 93 C245.97582031 93.7528125 246.95164062 94.505625 247.95703125 95.28125 C258.35286643 103.49083658 267.65740985 112.25446269 274 124 C274.35964844 124.65226562 274.71929687 125.30453125 275.08984375 125.9765625 C278.72468189 133.8492534 278.06617875 143.74517557 275.4375 151.8125 C270.98894786 162.38947711 263.54929748 169.42919349 253 173.8125 C244.73205737 176.49931133 235.92127175 176.14863573 227.3269043 176.14526367 C225.4665303 176.15030159 225.4665303 176.15030159 223.568573 176.15544128 C220.19028991 176.16327435 216.81206831 176.16661654 213.43378043 176.16725707 C211.31648039 176.16797136 209.19918666 176.1701128 207.0818882 176.17275429 C199.67641419 176.18198529 192.27095809 176.18609197 184.86547852 176.18530273 C177.9928142 176.18470245 171.12022849 176.19525037 164.24758404 176.2110464 C158.3211457 176.22417601 152.39473289 176.22948437 146.46828014 176.22884732 C142.940141 176.22859394 139.41207185 176.23135609 135.88394737 176.24202538 C131.94302754 176.25361952 128.00221333 176.24892652 124.0612793 176.24291992 C122.91231674 176.24853943 121.76335419 176.25415894 120.57957458 176.25994873 C110.57273563 176.22140251 99.46385591 175.9937177 91 170 C90.46117187 169.38898438 89.92234375 168.77796875 89.3671875 168.1484375 C87.31538545 165.83901008 85.77057924 164.41196927 83 163 C78.47957977 162.82255465 74.16533571 163.21323619 69.671875 163.64453125 C53.83466714 165.08988759 38.54279926 159.48357993 26 150 C11.32225794 137.5803721 3.5096671 119.90351666 1.81396484 100.91699219 C1.6220162 98.13983562 1.47403408 95.36184394 1.33618164 92.58154297 C0.86416652 83.43780649 -0.40915815 77.10093539 -6.6875 70.125 C-10.40738012 68.31532859 -13.95249229 68.37952645 -18 69 C-21.14744519 70.23453709 -21.14744519 70.23453709 -23 73 C-23.82127537 76.01315599 -24.22406075 78.8803849 -24 82 C-23.01 83.485 -23.01 83.485 -22 85 C-20.58297487 84.85769192 -19.1663904 84.71099254 -17.75 84.5625 C-16.96109375 84.48128906 -16.1721875 84.40007812 -15.359375 84.31640625 C-13.17635361 84.02365007 -11.1226818 83.57935581 -9 83 C-4.68921532 94.18751263 -3.83780527 108.75482143 -7.5625 120.25 C-12.44440615 130.98683827 -20.48409862 135.65150012 -31 140 C-41.48119289 143.87236191 -53.98545452 143.21408909 -64.29296875 139.25390625 C-78.98483226 132.44858419 -88.52544337 120.3519364 -94.3125 105.4375 C-100.90894551 85.47829791 -99.45569515 64.64526603 -90.4375 45.75 C-80.07055519 25.41493372 -59.40056072 11.48543541 -38.203125 4.25390625 C-25.69469266 0.32663504 -13.02306332 -0.47905001 0 0 Z " transform="translate(129,284)" style="fill: #B26805;"/><path d="M0 0 C9.81331554 5.57862899 17.97557302 13.15273274 26 21 C26.63244629 21.6172998 27.26489258 22.23459961 27.91650391 22.87060547 C29.86759452 24.78220228 31.81112079 26.70102187 33.75 28.625 C34.35900146 29.22916748 34.96800293 29.83333496 35.59545898 30.45581055 C39.87755614 34.75511229 39.87755614 34.75511229 41 37 C45.9622418 36.50377582 50.83992042 35.87493439 55.75 35 C72.56856316 32.17583025 90.05526234 32.07607828 107 33.875 C107.78238037 33.95121582 108.56476074 34.02743164 109.37084961 34.10595703 C113.03083503 34.50215501 116.19654087 35.06194639 119.73046875 36.17578125 C123.67184355 37.32924574 125.95494875 37.83360854 130 37 C135.57968009 32.9795919 139.84113765 27.39972852 144.19140625 22.13476562 C152.30159806 12.56193663 166.07222176 -0.29897655 179 -2 C182.3125 -1.75 182.3125 -1.75 185 0 C192.8714072 11.94999113 192.19375373 28.87349497 191.81640625 42.54296875 C191.77452556 44.94071834 191.73488246 47.33850786 191.69726562 49.73632812 C191.63584161 53.45823194 191.56278692 57.17791428 191.45141602 60.89868164 C190.89635818 80.20620878 190.89635818 80.20620878 198.02026367 97.73266602 C200.75190812 102.24094048 202.07940963 106.80391624 203.375 111.875 C203.60832031 112.720625 203.84164062 113.56625 204.08203125 114.4375 C208.17598305 129.56430496 208.17598305 129.56430496 208 137 C205.81503519 134.19810394 204.00099844 131.33883995 202.25 128.25 C194.94102692 116.0683782 185.76390881 109.61766222 172.234375 105.45703125 C159.84270251 102.92237097 150.46305584 105.15574543 140 112 C124.55894099 122.81346334 115.88866506 142.4568909 109.51879883 159.61938477 C107.30120152 165.50150863 104.56456262 170.80331163 101 176 C101.61875 176.268125 102.2375 176.53625 102.875 176.8125 C105 178 105 178 107 181 C106.79458733 186.44343567 105.44945064 189.8047222 102 194 C95.50969493 198.9712975 90.09493242 200.8542391 82 200 C75.90337337 198.65896752 71.20048396 195.58446172 67 191 C64.89532015 187.33968722 64.55427154 184.18984751 65 180 C66.375 177.625 66.375 177.625 68 176 C68.66 176 69.32 176 70 176 C69.50693359 175.19175781 69.50693359 175.19175781 69.00390625 174.3671875 C65.23350622 167.84817607 62.39469666 161.17994618 59.625 154.1875 C51.94691174 134.98744631 41.68209206 116.04955105 22.1640625 106.91015625 C13.86963509 103.42170573 2.4985826 103.71568408 -6 106.625 C-21.16411672 113.18617607 -28.95916179 123.61871343 -36 138 C-37.3522344 133.94329681 -36.37629246 130.69127572 -35.5 126.625 C-35.32130371 125.79154053 -35.14260742 124.95808105 -34.95849609 124.09936523 C-32.27700947 112.18767464 -29.10171553 99.61315811 -22.5 89.25 C-17.92984414 80.79883877 -20.12263844 70.2851773 -20.79638672 61.0546875 C-23.99955658 12.99945805 -23.99955658 12.99945805 -13.55859375 0.23828125 C-9.25742406 -3.17893878 -4.71040959 -1.7918561 0 0 Z " transform="translate(219,54)" style="fill: #E08307;"/><path d="M0 0 C0.56130615 0.09087891 1.1226123 0.18175781 1.70092773 0.27539062 C32.90928941 5.06298471 65.78656521 4.62749326 97.15625 1.4375 C98.77031822 1.28607186 100.38489675 1.13995782 102 1 C102.79164551 0.92789307 103.58329102 0.85578613 104.39892578 0.78149414 C110.23468754 0.47728042 113.37051819 1.81265018 117.875 5.4375 C118.47159424 5.8919751 119.06818848 6.3464502 119.68286133 6.81469727 C121.4728039 8.18887425 123.23694744 9.59158154 125 11 C125.97582031 11.7528125 126.95164062 12.505625 127.95703125 13.28125 C138.35286643 21.49083658 147.65740985 30.25446269 154 42 C154.35964844 42.65226562 154.71929687 43.30453125 155.08984375 43.9765625 C158.72468189 51.8492534 158.06617875 61.74517557 155.4375 69.8125 C150.98894786 80.38947711 143.54929748 87.42919349 133 91.8125 C124.73205737 94.49931133 115.92127175 94.14863573 107.3269043 94.14526367 C105.4665303 94.15030159 105.4665303 94.15030159 103.568573 94.15544128 C100.19028991 94.16327435 96.81206831 94.16661654 93.43378043 94.16725707 C91.31648039 94.16797136 89.19918666 94.1701128 87.0818882 94.17275429 C79.67641419 94.18198529 72.27095809 94.18609197 64.86547852 94.18530273 C57.9928142 94.18470245 51.12022849 94.19525037 44.24758404 94.2110464 C38.3211457 94.22417601 32.39473289 94.22948437 26.46828014 94.22884732 C22.940141 94.22859394 19.41207185 94.23135609 15.88394737 94.24202538 C11.94302754 94.25361952 8.00221333 94.24892652 4.0612793 94.24291992 C2.91231674 94.24853943 1.76335419 94.25415894 0.57957458 94.25994873 C-13.91331723 94.20412229 -25.1225252 92.27545089 -35.953125 82.28515625 C-39.24076427 78.61479561 -41.15883231 74.53267386 -43 70 C-43.54333984 68.84757812 -43.54333984 68.84757812 -44.09765625 67.671875 C-46.78979196 59.70035627 -46.0955466 50.15806095 -42.5 42.625 C-36.3191322 31.90664807 -27.8055789 22.52521171 -18 15 C-17.34 15 -16.68 15 -16 15 C-16 14.34 -16 13.68 -16 13 C-14.53125 11.79492188 -14.53125 11.79492188 -12.5 10.46875 C-11.778125 9.98792969 -11.05625 9.50710938 -10.3125 9.01171875 C-8.77083333 8.00390625 -7.22916667 6.99609375 -5.6875 5.98828125 C-4.965625 5.50746094 -4.24375 5.02664063 -3.5 4.53125 C-2.8296875 4.09361328 -2.159375 3.65597656 -1.46875 3.20507812 C-0.9840625 2.80740234 -0.499375 2.40972656 0 2 C0 1.34 0 0.68 0 0 Z " transform="translate(249,366)" style="fill: #FA8E00;"/><path d="M0 0 C5.5196139 5.18167836 5.5196139 5.18167836 6.0546875 9.640625 C5.9309375 10.589375 5.8071875 11.538125 5.6796875 12.515625 C2.09985066 14.90218289 -0.50549651 14.75419712 -4.6328125 14.828125 C-22.62975814 15.6263602 -38.34183473 24.99846876 -50.3828125 38.046875 C-64.03684279 53.70885092 -72.87654881 72.9917503 -79.87109375 92.38671875 C-81.64012493 96.20610951 -83.30510768 98.56277301 -86.3203125 101.515625 C-88.95703125 102.09375 -88.95703125 102.09375 -91.3203125 101.515625 C-96.54550681 97.16353514 -98.68869848 89.30428217 -101.0703125 83.140625 C-107.12034575 67.49056313 -114.4554455 53.35592237 -125.3203125 40.515625 C-125.98675781 39.68675781 -126.65320313 38.85789062 -127.33984375 38.00390625 C-136.67908223 26.80062424 -151.47608415 16.79817094 -166.32519531 15.31542969 C-169.12015853 15.16929642 -171.91278965 15.09072352 -174.7109375 15.03710938 C-177.59697352 14.92505684 -179.81219425 14.82869786 -182.3046875 13.29296875 C-183.75708191 10.75127854 -183.83870037 9.40745816 -183.3203125 6.515625 C-168.65430855 -13.33378991 -141.49604492 -23.5115785 -118.0703125 -27.734375 C-76.314313 -33.69951779 -32.6619302 -28.37763588 0 0 Z " transform="translate(393.3203125,116.484375)" style="fill: #FA8F00;"/><path d="M0 0 C0 4.04589797 -1.47364949 7.42267125 -2.8125 11.1875 C-6.13732147 20.85087001 -8.31999827 30.44081668 -9.375 40.6171875 C-11.08932623 56.65328076 -18.98508334 68.75189725 -31.40234375 78.80859375 C-33.77980135 80.6877565 -36.183088 82.53091658 -38.59375 84.3671875 C-48.96318793 92.29505196 -60.58605557 101.42845288 -62.41796875 115.125 C-63.08172848 130.91171784 -57.01079504 145.02412297 -47 157 C-24.17959194 181.30621092 12.24658587 190.10014121 43.9375 194.8125 C44.67919434 194.92432617 45.42088867 195.03615234 46.18505859 195.15136719 C62.00583933 197.27255133 78.12046746 197.18654365 94.05004883 197.18530273 C97.16696931 197.18748562 100.28353233 197.2057223 103.40039062 197.22460938 C121.66810404 197.27613878 140.04159932 196.43955498 158.0625 193.25 C159.52490112 192.99512817 159.52490112 192.99512817 161.0168457 192.73510742 C192.94996429 186.93771814 225.83937655 176.3057919 246.31640625 149.61328125 C249.26575064 145.03529657 251.19568205 140.11922766 253 135 C253.36351562 134.08089844 253.72703125 133.16179687 254.1015625 132.21484375 C256.57382229 123.3684533 256.72644464 111.97333653 252.4375 103.75 C247.31565724 96.03766402 240.57091373 90.79945688 233.33935547 85.19189453 C215.76825177 71.53794563 205.06897287 59.110598 202.1875 36.6875 C201.34740666 30.56015252 200.05688963 24.62524271 198.5625 18.625 C198.35713623 17.79315186 198.15177246 16.96130371 197.94018555 16.10424805 C196.61375198 10.91532298 194.96446585 5.98275594 193 1 C204.22604959 4.14459734 210.44675708 13.329953 216 23 C216.41121094 23.60457031 216.82242187 24.20914063 217.24609375 24.83203125 C219.66293529 28.47057291 220.35494983 31.70077152 220.9375 35.9375 C222.12313799 44.25776661 225.85151908 49.39805072 232 55 C233.0828125 56.00160156 233.0828125 56.00160156 234.1875 57.0234375 C238.36929625 60.85239469 242.61583001 64.54395116 247.0625 68.0625 C259.60471016 78.02942876 270.40060456 88.43189076 273 105 C274.40627409 125.21807179 268.85026136 144.20034973 255.75 159.875 C235.22471185 183.21095185 206.39860507 193.73249474 177 201 C176.16404297 201.21140625 175.32808594 201.4228125 174.46679688 201.640625 C147.58977775 208.23184096 118.8220011 208.27361063 91.3125 208.3125 C90.29313354 208.31608521 89.27376709 208.31967041 88.22351074 208.32336426 C40.11660489 208.4147151 -19.38600853 200.93012646 -55.3828125 165.65625 C-69.41757815 151.41201024 -79.65544289 133.4861841 -80.1328125 112.90625 C-79.31174313 94.93932022 -71.20259649 83.50012631 -58.3125 71.5625 C-54.88332334 68.52920333 -51.34297293 65.69521627 -47.71289062 62.91088867 C-37.19373827 54.83567859 -29.71446095 47.75892726 -26.75 34.375 C-23.5085696 21.12813393 -15.93586497 10.20417568 -4.73828125 2.4296875 C-2.8125 1.3125 -2.8125 1.3125 0 0 Z " transform="translate(208,162)" style="fill: #FEB94A;"/><path d="M0 0 C0.56130615 0.09087891 1.1226123 0.18175781 1.70092773 0.27539062 C32.90928941 5.06298471 65.78656521 4.62749326 97.15625 1.4375 C98.77031822 1.28607186 100.38489675 1.13995782 102 1 C102.79164551 0.92789307 103.58329102 0.85578613 104.39892578 0.78149414 C110.23468754 0.47728042 113.37051819 1.81265018 117.875 5.4375 C118.47159424 5.8919751 119.06818848 6.3464502 119.68286133 6.81469727 C121.4728039 8.18887425 123.23694744 9.59158154 125 11 C125.97582031 11.7528125 126.95164062 12.505625 127.95703125 13.28125 C138.35286643 21.49083658 147.65740985 30.25446269 154 42 C154.35964844 42.65226562 154.71929687 43.30453125 155.08984375 43.9765625 C158.72468189 51.8492534 158.06617875 61.74517557 155.4375 69.8125 C150.98894786 80.38947711 143.54929748 87.42919349 133 91.8125 C124.73205737 94.49931133 115.92127175 94.14863573 107.3269043 94.14526367 C105.4665303 94.15030159 105.4665303 94.15030159 103.568573 94.15544128 C100.19028991 94.16327435 96.81206831 94.16661654 93.43378043 94.16725707 C91.31648039 94.16797136 89.19918666 94.1701128 87.0818882 94.17275429 C79.67641419 94.18198529 72.27095809 94.18609197 64.86547852 94.18530273 C57.9928142 94.18470245 51.12022849 94.19525037 44.24758404 94.2110464 C38.3211457 94.22417601 32.39473289 94.22948437 26.46828014 94.22884732 C22.940141 94.22859394 19.41207185 94.23135609 15.88394737 94.24202538 C11.94302754 94.25361952 8.00221333 94.24892652 4.0612793 94.24291992 C2.91231674 94.24853943 1.76335419 94.25415894 0.57957458 94.25994873 C-13.91331723 94.20412229 -25.1225252 92.27545089 -35.953125 82.28515625 C-39.24076427 78.61479561 -41.15883231 74.53267386 -43 70 C-43.54333984 68.84757812 -43.54333984 68.84757812 -44.09765625 67.671875 C-46.78979196 59.70035627 -46.0955466 50.15806095 -42.5 42.625 C-36.3191322 31.90664807 -27.8055789 22.52521171 -18 15 C-17.34 15 -16.68 15 -16 15 C-16 14.34 -16 13.68 -16 13 C-14.53125 11.79492188 -14.53125 11.79492188 -12.5 10.46875 C-11.778125 9.98792969 -11.05625 9.50710938 -10.3125 9.01171875 C-8.77083333 8.00390625 -7.22916667 6.99609375 -5.6875 5.98828125 C-4.965625 5.50746094 -4.24375 5.02664063 -3.5 4.53125 C-2.8296875 4.09361328 -2.159375 3.65597656 -1.46875 3.20507812 C-0.9840625 2.80740234 -0.499375 2.40972656 0 2 C0 1.34 0 0.68 0 0 Z M-20 23 C-21.0391017 23.8596018 -22.07916348 24.71804768 -23.12109375 25.57421875 C-23.88550781 26.27160156 -24.64992187 26.96898437 -25.4375 27.6875 C-26.21996094 28.39261719 -27.00242188 29.09773438 -27.80859375 29.82421875 C-34.06139855 36.03244027 -35.32735484 40.35826115 -35.3894043 49.08935547 C-35.22881406 56.90474688 -32.48105209 62.15586712 -27.4375 67.9375 C-22.70751135 71.93979809 -19.67160949 74.15466101 -13.3125 74.0625 C-12.50425781 74.05347656 -11.69601563 74.04445313 -10.86328125 74.03515625 C-10.24839844 74.02355469 -9.63351563 74.01195312 -9 74 C-8.98582031 73.27296875 -8.97164062 72.5459375 -8.95703125 71.796875 C-8.47004654 61.53071082 -5.78420306 51.18541821 2 44 C3.32 44 4.64 44 6 44 C5.7592619 47.85180958 4.40071067 49.95081439 2.0625 52.875 C-3.36855106 59.85591934 -3 64.91154727 -3 74 C15.15 74 33.3 74 52 74 C52.28925507 60.26792824 52.28925507 60.26792824 52.56811523 46.53564453 C52.60623019 44.81802543 52.64469863 43.10041411 52.68359375 41.3828125 C52.70006958 40.48618896 52.71654541 39.58956543 52.73352051 38.66577148 C52.75370239 37.81329834 52.77388428 36.9608252 52.79467773 36.08251953 C52.81022202 35.34083527 52.8257663 34.599151 52.84178162 33.83499146 C53 32 53 32 54 30 C55.32 30.33 56.64 30.66 58 31 C58.33 45.19 58.66 59.38 59 74 C77.15 74 95.3 74 114 74 C114.08552447 60.02616137 114.08552447 60.02616137 107.1875 49.6875 C106.465625 48.800625 105.74375 47.91375 105 47 C105.33 46.01 105.66 45.02 106 44 C109.56372969 44.55418691 110.92619664 45.62880828 113.0625 48.5 C118.63782089 56.44060853 119.53241789 64.47099897 120 74 C127.67243266 74.40939858 132.51477699 73.97519038 138.5625 68.8125 C145.33412903 60.99908188 147.39962093 54.79077145 147.26171875 44.4375 C146.56743752 35.31858238 139.38556696 29.87393448 133 24 C132.32710937 23.23558594 131.65421875 22.47117187 130.9609375 21.68359375 C126.04831851 18.89027081 121.0762093 19.88620812 115.5625 20.25 C112.78260277 20.38479221 110.00330467 20.51250657 107.22265625 20.62890625 C106.06614059 20.67879448 106.06614059 20.67879448 104.88626099 20.72969055 C94.27980754 21.15485371 83.66753368 21.16790817 73.05392456 21.18127441 C70.71889054 21.18536481 68.38385932 21.19377716 66.04885864 21.20690918 C44.09400872 21.32771267 22.68240179 20.13282144 1.15234375 15.62109375 C-8.47913742 13.99637862 -12.93959383 16.50544157 -20 23 Z " transform="translate(249,366)" style="fill: #E08306;"/><path d="M0 0 C9.57321043 6.9727264 13.59429637 17.15901785 15.64306641 28.52734375 C16.49489532 34.42838567 16.8037434 40.39133135 17.22094727 46.33544922 C18.47871171 62.9284174 24.41763566 77.65651461 37 89 C48.49078607 97.40082679 60.94433479 100.53991276 75 101 C75.37125 102.7015625 75.37125 102.7015625 75.75 104.4375 C76.7547224 108.50698712 78.29766248 112.1452843 80.09765625 115.921875 C80.97235491 117.93633252 81.53212588 119.8583906 82 122 C62.45775845 125.1095366 45.45364102 123.32919976 28.5625 111.9375 C12.60244139 99.87013861 4.71912231 82.47740095 2 63 C1.69022747 59.5315233 1.50860629 56.0591196 1.33618164 52.58154297 C0.86416652 43.43780649 -0.40915815 37.10093539 -6.6875 30.125 C-10.40738012 28.31532859 -13.95249229 28.37952645 -18 29 C-21.14744519 30.23453709 -21.14744519 30.23453709 -23 33 C-23.82127537 36.01315599 -24.22406075 38.8803849 -24 42 C-23.34 42.99 -22.68 43.98 -22 45 C-20.58297487 44.85769192 -19.1663904 44.71099254 -17.75 44.5625 C-16.96109375 44.48128906 -16.1721875 44.40007812 -15.359375 44.31640625 C-13.17635361 44.02365007 -11.1226818 43.57935581 -9 43 C-4.68921532 54.18751263 -3.83780527 68.75482143 -7.5625 80.25 C-12.44440615 90.98683827 -20.48409862 95.65150012 -31 100 C-41.48119289 103.87236191 -53.98545452 103.21408909 -64.29296875 99.25390625 C-78.98483226 92.44858419 -88.52544337 80.3519364 -94.3125 65.4375 C-99.08989109 50.9823038 -99.87631762 34.77846093 -96 20 C-95.67 20 -95.34 20 -95 20 C-94.97421875 20.90878906 -94.9484375 21.81757813 -94.921875 22.75390625 C-94.17865672 39.22294768 -90.4701568 54.85972133 -78.9140625 67.28125 C-71.60973635 73.84023674 -62.48821487 76.59301085 -52.7890625 76.3828125 C-46.23558881 75.48331611 -38.74039344 73.09256341 -33.8125 68.5 C-29.81242048 62.98264894 -29.49011182 57.64230497 -29 51 C-29.825 50.938125 -30.65 50.87625 -31.5 50.8125 C-39.31435074 48.99845429 -43.63706762 44.84035962 -47.87109375 38.18359375 C-51.57304105 31.02307978 -51.09665888 20.88150883 -49.0625 13.25 C-46.26626552 6.19346487 -40.40396948 -0.09106634 -33.6875 -3.5625 C-21.72770461 -8.22479312 -10.75685308 -6.98954984 0 0 Z " transform="translate(129,324)" style="fill: #99551E;"/><path d="M0 0 C3.875 0.875 3.875 0.875 5 2 C5.09268999 3.35094982 5.11747326 4.70667091 5.11352539 6.06079102 C5.11340454 6.93368774 5.11328369 7.80658447 5.11315918 8.70593262 C5.10804321 9.62926392 5.10292725 10.55259521 5.09765625 11.50390625 C5.09664917 12.3482019 5.09564209 13.19249756 5.09460449 14.06237793 C5.0893557 17.22909902 5.07539456 20.39580081 5.0625 23.5625 C5.041875 30.636875 5.02125 37.71125 5 45 C23.15 45 41.3 45 60 45 C59.01216629 32.15816173 57.96644681 26.85160757 50 18 C50.66 16.68 51.32 15.36 52 14 C57.04882898 14.83965406 59.10300119 18.03697073 62 22 C66.55315726 29.85027113 66.83812428 38.08274751 66 47 C63.86566414 54.29065193 59.11762086 60.5363858 53 65 C49.54049657 66.07733037 46.319135 66.06885334 42.71606445 65.98754883 C41.71830994 65.9967485 40.72055542 66.00594818 39.69256592 66.01542664 C36.41487003 66.03524515 33.14074312 65.99754121 29.86328125 65.95703125 C27.57740886 65.95480024 25.29153214 65.95538697 23.00566101 65.95866394 C18.22488314 65.95692385 13.44530951 65.92788134 8.66479492 65.87817383 C2.53765269 65.81570188 -3.58785179 65.81091488 -9.71524334 65.8251543 C-14.43110492 65.831564 -19.1465962 65.8128164 -23.86237526 65.78589439 C-26.1217919 65.77501842 -28.38125026 65.77073764 -30.64069176 65.77317238 C-33.79599358 65.77174548 -36.94927729 65.73774996 -40.10424805 65.69458008 C-41.03682938 65.6999881 -41.96941071 65.70539612 -42.93025208 65.71096802 C-47.45256892 65.61425106 -49.37447388 65.49978993 -53.0103302 62.59477234 C-53.99521675 61.31036003 -53.99521675 61.31036003 -55 60 C-55.57105469 59.27039063 -56.14210937 58.54078125 -56.73046875 57.7890625 C-62.05261618 49.88431805 -64.21796372 42.55536485 -63 33 C-60.79586017 25.42267809 -57.49417653 19.62194808 -52 14 C-50.35 14.33 -48.7 14.66 -47 15 C-47.2407381 18.85180958 -48.59928933 20.95081439 -50.9375 23.875 C-56.15245731 30.5621223 -56.14215105 36.42151047 -57 45 C-38.85 45 -20.7 45 -2 45 C-2.07912662 31.31278721 -2.07912662 31.31278721 -2.18017578 17.62573242 C-2.18601665 15.91064706 -2.19111317 14.19555892 -2.1953125 12.48046875 C-2.20554443 11.58896118 -2.21577637 10.69745361 -2.22631836 9.77893066 C-2.22656006 8.92657837 -2.22680176 8.07422607 -2.22705078 7.19604492 C-2.231492 6.45658127 -2.23593323 5.71711761 -2.24050903 4.95524597 C-2 3 -2 3 0 0 Z " transform="translate(303,395)" style="fill: #DE8205;"/><path d="M0 0 C9.8187936 5.58174313 17.9619248 13.16036763 26 21 C26.62712891 21.60666504 27.25425781 22.21333008 27.90039062 22.83837891 C29.83774493 24.71730353 31.76480729 26.60608194 33.6875 28.5 C34.58843384 29.3811145 34.58843384 29.3811145 35.50756836 30.2800293 C36.06581299 30.83730713 36.62405762 31.39458496 37.19921875 31.96875 C37.69252686 32.45794922 38.18583496 32.94714844 38.6940918 33.45117188 C40.15609923 35.18513619 41.0623772 36.94216908 42 39 C40.75605469 39.43570313 39.51210938 39.87140625 38.23046875 40.3203125 C16.39033867 48.082861 -2.23820577 58.95615251 -15.08276367 78.83496094 C-16.00962084 80.25412502 -16.9996453 81.63165012 -18 83 C-18.66 83 -19.32 83 -20 83 C-23.26488966 12.1015318 -23.26488966 12.1015318 -13.55859375 0.23828125 C-9.25742406 -3.17893878 -4.71040959 -1.7918561 0 0 Z " transform="translate(219,54)" style="fill: #99551E;"/><path d="M0 0 C8.91614861 13.5360672 7.16437113 33.15853396 7.13037109 48.59716797 C7.12501255 51.49321732 7.13034088 54.38911162 7.13671875 57.28515625 C7.14249739 75.20355088 7.14249739 75.20355088 6 84 C4.00974239 81.51328615 2.02053857 79.02576508 0.03515625 76.53515625 C-0.61582031 75.71917969 -1.26679688 74.90320313 -1.9375 74.0625 C-2.58589844 73.24910156 -3.23429687 72.43570313 -3.90234375 71.59765625 C-4.59457031 70.74042969 -5.28679687 69.88320312 -6 69 C-6.78375 68.00742188 -7.5675 67.01484375 -8.375 65.9921875 C-20.63582448 52.01630721 -37.85644891 44.8998204 -55 39 C-53.69173923 36.14214502 -52.26724929 33.97769984 -50.12890625 31.6796875 C-49.56034912 31.06689941 -48.99179199 30.45411133 -48.40600586 29.82275391 C-47.79764893 29.17999512 -47.18929199 28.53723633 -46.5625 27.875 C-45.93287354 27.20774902 -45.30324707 26.54049805 -44.65454102 25.85302734 C-12.36979232 -8.05474848 -12.36979232 -8.05474848 0 0 Z " transform="translate(404,54)" style="fill: #99551E;"/><path d="M0 0 C9.8187936 5.58174313 17.9619248 13.16036763 26 21 C26.62712891 21.60666504 27.25425781 22.21333008 27.90039062 22.83837891 C29.83774493 24.71730353 31.76480729 26.60608194 33.6875 28.5 C34.58843384 29.3811145 34.58843384 29.3811145 35.50756836 30.2800293 C36.06581299 30.83730713 36.62405762 31.39458496 37.19921875 31.96875 C37.69252686 32.45794922 38.18583496 32.94714844 38.6940918 33.45117188 C40.15609923 35.18513619 41.0623772 36.94216908 42 39 C41.47156494 39.19110352 40.94312988 39.38220703 40.39868164 39.57910156 C37.95206354 40.466064 35.50728839 41.35800721 33.0625 42.25 C32.23169922 42.55035156 31.40089844 42.85070312 30.54492188 43.16015625 C24.91992683 45.21754743 19.44088875 47.49628642 14 50 C13.46632812 48.92363281 12.93265625 47.84726563 12.3828125 46.73828125 C5.6382529 33.40554874 -3.04979037 16.97510481 -17 10 C-16.54842977 5.14562001 -15.40802387 2.50825987 -12 -1 C-7.59367815 -2.46877395 -4.22083106 -1.60561873 0 0 Z " transform="translate(219,54)" style="fill: #B26705;"/><path d="M0 0 C2.04691423 2.97132711 3.07115809 4.84322493 2.84765625 8.4765625 C1.74585091 11.75659131 0.32764388 12.61194936 -2.5 14.5625 C-12.87335475 22.46811936 -18.81353463 33.78878108 -25 45 C-25.99173866 46.67159571 -26.98861753 48.34021589 -28 50 C-29.79244141 49.18595703 -29.79244141 49.18595703 -31.62109375 48.35546875 C-33.22645989 47.63258458 -34.83193448 46.90994122 -36.4375 46.1875 C-37.22060547 45.83107422 -38.00371094 45.47464844 -38.81054688 45.10742188 C-44.11489702 42.72810432 -49.45017529 40.73042987 -55 39 C-53.69173923 36.14214502 -52.26724929 33.97769984 -50.12890625 31.6796875 C-49.56034912 31.06689941 -48.99179199 30.45411133 -48.40600586 29.82275391 C-47.79764893 29.17999512 -47.18929199 28.53723633 -46.5625 27.875 C-45.93287354 27.20774902 -45.30324707 26.54049805 -44.65454102 25.85302734 C-12.79019494 -7.61321127 -12.79019494 -7.61321127 0 0 Z " transform="translate(404,54)" style="fill: #B26705;"/><path d="M0 0 C0.495 0.495 0.495 0.495 1 1 C0.86058289 7.69202132 -2.01149164 11.78493708 -6 17 C-6.52078125 17.71027344 -7.0415625 18.42054688 -7.578125 19.15234375 C-16.04087304 29.69265831 -31.76368775 41.42586301 -45.1484375 44.4921875 C-48.45210588 44.72915949 -49.88323862 44.09580421 -52.4375 42 C-52.953125 41.34 -53.46875 40.68 -54 40 C-43.75184979 27.47836937 -17.44201036 -0.74221321 0 0 Z " transform="translate(453,296)" style="fill: #FFDDA4;"/><path d="M0 0 C3.60055675 2.10822073 6.36259015 4.06209983 8.375 7.8125 C9.07160344 11.01687582 8.97678546 12.81519476 7.26953125 15.64453125 C3.96202831 19.8564988 0.55196563 22.25333053 -4.625 23.8125 C-7.37731438 24.11831271 -9.8243548 24.29100002 -12.5625 24.25 C-13.2647168 24.24315186 -13.96693359 24.23630371 -14.69042969 24.22924805 C-21.81492621 24.00836549 -25.81916258 22.33775368 -31.125 17.5625 C-33.1387844 13.87056193 -33.5696039 10.92528868 -32.625 6.8125 C-25.12663344 -3.49775402 -11.17347134 -5.22310199 0 0 Z " transform="translate(208.625,245.1875)" style="fill: #F0772A;"/><path d="M0 0 C3.82182005 2.62479717 5.70621618 4.74703193 6.6953125 9.296875 C5.78076609 13.86960703 3.57504412 16.42430757 0.0703125 19.421875 C-7.42820029 23.64830948 -17.28808843 23.99509453 -25.53515625 21.6953125 C-29.64084034 19.80038138 -32.73413436 17.44705575 -34.9296875 13.421875 C-35.53034972 10.60734344 -35.5846956 8.22986625 -34.9296875 5.421875 C-26.71928834 -5.44482977 -11.22069313 -6.42213304 0 0 Z " transform="translate(427.9296875,246.578125)" style="fill: #F0772A;"/><path d="M0 0 C0.66914429 -0.00241196 1.33828857 -0.00482391 2.02770996 -0.00730896 C3.43633985 -0.00633354 4.84500951 0.00698777 6.25341797 0.03198242 C8.40074807 0.06631827 10.54396249 0.05262699 12.69140625 0.03320312 C14.06512155 0.04010214 15.43882631 0.04977506 16.8125 0.0625 C18.05322266 0.07337646 19.29394531 0.08425293 20.57226562 0.09545898 C24.48928286 0.72219322 26.14945786 1.81926926 28.90625 4.62890625 C30.09766718 8.07077812 30.45257931 10.29426615 29.05078125 13.71875 C25.57538165 19.75852212 20.68142162 23.73816068 13.90625 25.62890625 C5.8346998 26.51367233 -0.62232944 24.84153265 -6.96875 19.75390625 C-10.65049595 16.34892025 -11.80921069 13.58003295 -12.53125 8.62890625 C-11.50376884 1.58332114 -6.40450388 -0.00374289 0 0 Z " transform="translate(296.09375,228.37109375)" style="fill: #616160;"/><path d="M0 0 C4.0930942 3.50836645 5.89944461 7.11466148 6.75 12.3125 C5.81859872 18.21137476 3.26977299 22.36061964 -1.5625 25.875 C-7.19697804 27.60868555 -11.734974 27.85496509 -17.125 25.3125 C-21.35480114 21.47616874 -23.4491977 18.09518073 -24.375 12.4375 C-23.62733521 7.70228968 -21.99205055 4.4570253 -18.8125 0.875 C-12.57018105 -3.08647164 -6.66036731 -2.66414693 0 0 Z " transform="translate(379.8125,203.125)" style="fill: #636260;"/><path d="M0 0 C5.34740414 1.95385921 8.45618143 4.91236287 11 10 C11.73711239 14.50643711 11.96325851 18.41178556 9.54296875 22.40234375 C6.23412911 26.25452969 3.97733669 28.53462588 -1.19921875 29.34375 C-6.49920972 29.67655948 -9.45896982 29.20586974 -13.5625 25.6875 C-17.09152912 22.30048413 -18.15301151 19.54770176 -18.3125 14.6875 C-18.24473369 10.04927229 -17.12648359 7.53786301 -14 4 C-9.44787756 0.06862153 -5.81719888 -0.95402062 0 0 Z " transform="translate(242,201)" style="fill: #626160;"/><path d="M0 0 C-0.58752025 13.51296571 -12.9407892 25.49820785 -22.15234375 34.3984375 C-24.63033718 36.54638107 -26.86733387 38.0032426 -30 39 C-32.375 38.1875 -32.375 38.1875 -34 37 C-33.16707956 25.755574 -28.90681828 17.06442927 -21 9 C-7.64588529 -2.18453865 -7.64588529 -2.18453865 0 0 Z " transform="translate(76,307)" style="fill: #C67305;"/><path d="M0 0 C50.61927622 -0.98265394 50.61927622 -0.98265394 66 12 C65.67 12.99 65.34 13.98 65 15 C44.07202471 15.63525051 18.77551925 12.08143645 0 2 C0 1.34 0 0.68 0 0 Z " transform="translate(290,97)" style="fill: #FAAD48;"/><path d="M0 0 C3.69230769 0.69230769 3.69230769 0.69230769 5 2 C5.0940067 3.96369153 5.11743381 5.93079199 5.11352539 7.89672852 C5.11344986 9.15796036 5.11337433 10.4191922 5.11329651 11.71864319 C5.1081891 13.10539794 5.10297309 14.49215229 5.09765625 15.87890625 C5.09579201 17.28995209 5.09436814 18.70099857 5.09336853 20.11204529 C5.08954379 23.83240535 5.0797139 27.5527266 5.06866455 31.27307129 C5.05844948 35.06680781 5.05387071 38.86055058 5.04882812 42.65429688 C5.03809158 50.10288231 5.0210157 57.55143572 5 65 C3.02 65 1.04 65 -1 65 C-1.02312684 56.67271053 -1.04091683 48.34543437 -1.05181217 40.01812077 C-1.05704026 36.15179882 -1.06413654 32.28549879 -1.07543945 28.41918945 C-1.086271 24.69096599 -1.0922774 20.96276366 -1.09487724 17.23452568 C-1.09673101 15.80910344 -1.10035071 14.38368241 -1.10573006 12.95826912 C-1.11294393 10.96836592 -1.11340808 8.97844166 -1.11352539 6.98852539 C-1.115746 5.85379288 -1.11796661 4.71906036 -1.12025452 3.54994202 C-1 1 -1 1 0 0 Z " transform="translate(303,395)" style="fill: #B66904;"/><path d="M0 0 C2.125 0 2.125 0 5 1 C6.421875 2.70703125 6.421875 2.70703125 7.875 4.8125 C10.68861491 8.7402782 13.20746226 11.71714899 18 13 C25.62076295 13.72538991 32.31775207 14.12755115 39 10 C40.84397927 8.34789509 40.84397927 8.34789509 42.25 6.5 C42.96929687 5.61828125 42.96929687 5.61828125 43.703125 4.71875 C44.85885328 3.18706191 45.93564375 1.59653438 47 0 C49.625 -0.1875 49.625 -0.1875 52 0 C52.45957944 5.43835675 50.41547198 7.77381466 47.078125 11.84375 C41.64425371 17.48190217 35.91751376 20.09673258 28.09716797 20.29272461 C18.26950734 20.37778985 12.49760402 19.46564977 5.1875 12.5625 C2.70026252 9.89882234 0.46017012 7.3766434 -1 4 C-0.6875 1.6875 -0.6875 1.6875 0 0 Z " transform="translate(279,255)" style="fill: #656462;"/><path d="M0 0 C0.6496875 0.16242188 1.299375 0.32484375 1.96875 0.4921875 C5.83934209 1.14061143 9.58345126 1.145293 13.5 1.125 C14.24636719 1.12886719 14.99273437 1.13273437 15.76171875 1.13671875 C19.64139586 1.12985206 23.21080898 0.94729776 27 0 C27.38160272 4.77003402 27.4609004 8.09465992 25.25 12.4375 C22.46225358 15.61243342 20.58930087 16.81762121 16.37890625 17.30078125 C6.56439289 17.34161834 6.56439289 17.34161834 3 14 C-0.22557511 9.2172507 -0.28792938 5.56663461 0 0 Z " transform="translate(291,273)" style="fill: #FEFCF9;"/><path d="M0 0 C1.65 0.33 3.3 0.66 5 1 C4.7592619 4.85180958 3.40071067 6.95081439 1.0625 9.875 C-3.36841841 15.57037715 -4.54842721 21.31311867 -4.375 28.4453125 C-3.33974105 35.4980141 0.92198862 40.49687331 6.3515625 44.80859375 C7.87486197 45.90955664 9.43615255 46.95743503 11 48 C11 48.99 11 49.98 11 51 C3.07739421 51.77672606 3.07739421 51.77672606 -0.6875 49.0625 C-7.91493348 39.49103404 -12.58169268 31.40894978 -11 19 C-8.79586017 11.42267809 -5.49417653 5.62194808 0 0 Z " transform="translate(251,409)" style="fill: #B66904;"/><path d="M0 0 C5.04882898 0.83965406 7.10300119 4.03697073 10 8 C14.55315726 15.85027113 14.83812428 24.08274751 14 33 C11.91927807 40.10751277 7.25724291 46.93944875 1 51 C-2.12681989 51.61176911 -4.86724773 51.52212538 -8 51 C-7.765625 49.1640625 -7.765625 49.1640625 -7 47 C-5.109375 45.6484375 -5.109375 45.6484375 -2.75 44.375 C2.65674576 40.91709721 5.24050324 37.16669779 7 31 C8.20863448 22.01078105 7.07576544 15.36892614 1.62109375 8.18359375 C0.45643451 6.75348511 -0.76619219 5.37089757 -2 4 C-1.34 2.68 -0.68 1.36 0 0 Z " transform="translate(355,409)" style="fill: #B56904;"/><path d="M0 0 C9.60933486 1.36290387 19.12382768 9.45737335 26 16 C29.04393479 20.37026803 29.04393479 20.37026803 28.8125 23.6875 C28 26 28 26 26 28 C22.80844778 28.48648451 21.40182852 28.26135737 18.67578125 26.48828125 C13.86156278 22.0560173 9.49158839 17.44001132 5.4375 12.3125 C5.00800049 11.77858643 4.57850098 11.24467285 4.13598633 10.69458008 C1.4678126 7.18559303 0.37458293 4.3832774 0 0 Z " transform="translate(365,389)" style="fill: #FBA42F;"/><path d="M0 0 C0.33 0 0.66 0 1 0 C1 20.46 1 40.92 1 62 C-3.29 62 -7.58 62 -12 62 C-13.84276473 56.47170581 -14.14762006 54.16477259 -13.625 48.625 C-13.51414062 47.37976563 -13.40328125 46.13453125 -13.2890625 44.8515625 C-13.19367188 43.91054688 -13.09828125 42.96953125 -13 42 C-8.71 42 -4.42 42 0 42 C0 28.14 0 14.28 0 0 Z " transform="translate(301,398)" style="fill: #E08204;"/><path d="M0 0 C7.92 0 15.84 0 24 0 C22.78775682 6.06121591 20.32759918 10.74997367 15.08203125 14.296875 C13.39096325 15.20342692 11.69575559 16.10224704 10 17 C9.67 17.99 9.34 18.98 9 20 C6.36 20 3.72 20 1 20 C1.14308594 18.71416016 1.14308594 18.71416016 1.2890625 17.40234375 C1.39992188 16.25894531 1.51078125 15.11554688 1.625 13.9375 C1.74101562 12.81214844 1.85703125 11.68679688 1.9765625 10.52734375 C2.1695715 6.35195853 2.1695715 6.35195853 0 0 Z " transform="translate(338,440)" style="fill: #DF8205;"/><path d="M0 0 C3.3 0 6.6 0 10 0 C11.42765939 7.13829695 11.73739157 13.15652108 9 20 C6.03 20 3.06 20 0 20 C0 13.4 0 6.8 0 0 Z " transform="translate(308,440)" style="fill: #E08305;"/><path d="M0 0 C0.37815626 4.7269532 0.40323141 8.13150158 -1.625 12.5 C-4 15 -4 15 -10 16 C-10 11.38 -10 6.76 -10 2 C-2.25 0 -2.25 0 0 0 Z " transform="translate(318,273)" style="fill: #FEFDFC;"/><path d="M0 0 C1.65 0.33 3.3 0.66 5 1 C4.87431641 2.30324219 4.87431641 2.30324219 4.74609375 3.6328125 C4.64425781 4.78523438 4.54242188 5.93765625 4.4375 7.125 C4.33308594 8.26195312 4.22867187 9.39890625 4.12109375 10.5703125 C4.00391984 13.88897993 4.3344928 16.7562686 5 20 C3.02 20 1.04 20 -1 20 C-3.54952505 15.21964053 -3.59748565 10.28211955 -3 5 C-1.5 1.875 -1.5 1.875 0 0 Z " transform="translate(284,440)" style="fill: #B66A04;"/><path d="M0 0 C2.4375 0.1875 2.4375 0.1875 5 1 C7.84701797 5.33368606 7.4195343 10.00592821 7 15 C6 18.125 6 18.125 5 20 C3.02 20 1.04 20 -1 20 C-0.835 19.175 -0.67 18.35 -0.5 17.5 C0.31093092 11.82348355 0.19448973 6.63116588 -1 1 C-0.67 0.67 -0.34 0.34 0 0 Z " transform="translate(318,440)" style="fill: #B66904;"/><path d="M0 0 C1.67542976 0.28604898 3.34385343 0.61781233 5 1 C7.15166811 6.51364954 7.93903047 11.24159799 6 16.9375 C5.505 17.9584375 5.505 17.9584375 5 19 C3.02 19 1.04 19 -1 19 C-0.91621094 18.20335937 -0.83242188 17.40671875 -0.74609375 16.5859375 C-0.22480534 11.16189859 0.16186112 6.3736077 -1 1 C-0.67 0.67 -0.34 0.34 0 0 Z " transform="translate(334,440)" style="fill: #B46905;"/><path d="M0 0 C0 6.27 0 12.54 0 19 C-1.65 19 -3.3 19 -5 19 C-7.29000466 15.56499301 -7.29748064 14.11271981 -7.3125 10.0625 C-7.32925781 9.02222656 -7.34601563 7.98195313 -7.36328125 6.91015625 C-6.70246937 1.61655568 -5.38200767 0 0 0 Z " transform="translate(273,440)" style="fill: #B46905;"/><path d="M0 0 C1.98 0 3.96 0 6 0 C6 4.62 6 9.24 6 14 C6.66 14.33 7.32 14.66 8 15 C4.37 15 0.74 15 -3 15 C-2.01 14.67 -1.02 14.34 0 14 C0 9.38 0 4.76 0 0 Z " transform="translate(302,275)" style="fill: #E2E0DB;"/><path d="M0 0 C2.4375 0.8125 2.4375 0.8125 4.4375 3.8125 C4.0625 6.5 4.0625 6.5 3.4375 8.8125 C0.0625 9.4375 0.0625 9.4375 -3.5625 9.8125 C-5.5625 7.8125 -5.5625 7.8125 -5.875 4.8125 C-5.771875 3.8225 -5.66875 2.8325 -5.5625 1.8125 C-2.5625 -0.1875 -2.5625 -0.1875 0 0 Z " transform="translate(84.5625,296.1875)" style="fill: #C67305;"/><path d="M0 0 C4.55555556 0.55555556 4.55555556 0.55555556 6 2 C6.1875 4.4375 6.1875 4.4375 6 7 C5.34 7.66 4.68 8.32 4 9 C-0.55555556 8.44444444 -0.55555556 8.44444444 -2 7 C-2.1875 4.5625 -2.1875 4.5625 -2 2 C-1.34 1.34 -0.68 0.68 0 0 Z " transform="translate(366,110)" style="fill: #FBAC44;"/></svg>