<?xml version="1.0" encoding="UTF-8"?>
<!-- Generator: visioncortex VTracer -->
<svg id="svg" version="1.1" xmlns="http://www.w3.org/2000/svg" style="display: block;" viewBox="0 0 1216 205"><path d="M0 0 C0.89345825 -0.00338286 1.78691651 -0.00676573 2.70744926 -0.0102511 C4.18108877 -0.00049436 4.18108877 -0.00049436 5.68449879 0.0094595 C7.26478549 0.00798455 7.26478549 0.00798455 8.87699717 0.0064798 C12.46800025 0.00565707 16.0588088 0.01934083 19.64978504 0.03275967 C22.27620815 0.03523323 24.90262107 0.03690792 27.52904415 0.03763294 C33.34231829 0.04088899 39.15554137 0.05179752 44.96879482 0.06742573 C53.80197496 0.09113118 62.63514594 0.10327115 71.46835082 0.11332301 C87.14007391 0.13154015 102.81176589 0.16003999 118.48346424 0.19297695 C135.93629769 0.22958529 153.38913201 0.26028442 170.84198475 0.2861166 C172.59085117 0.28871297 172.59085117 0.28871297 174.37504824 0.29136179 C179.16374499 0.29846352 183.95244178 0.30554354 188.74113861 0.31259548 C239.55327336 0.38752141 290.36536561 0.4804114 341.17745113 0.58282948 C342.53791374 0.58557072 343.89837634 0.58831183 345.25883894 0.59105281 C345.93281723 0.59241076 346.60679552 0.59376871 347.30119739 0.5951678 C350.02768726 0.60066069 352.75417712 0.60615172 355.48066699 0.61164285 C357.52838739 0.61576883 359.57610777 0.61990055 361.62382816 0.62403245 C381.50756137 0.66412179 401.39129822 0.70154942 421.27504007 0.73708876 C454.16860046 0.79590488 487.06215236 0.85805106 519.95569324 0.92704678 C521.90387308 0.9311324 521.90387308 0.9311324 523.89141008 0.93530056 C587.48125459 1.06936007 651.06759154 1.2622788 714.65489662 1.86043692 C752.92530483 2.21906953 791.19344723 2.34857697 829.46524122 2.40757034 C837.45497368 2.42002429 845.44469999 2.43526839 853.43442685 2.45085972 C860.55805151 2.46471573 867.68167713 2.47807804 874.80530262 2.4914999 C875.58929449 2.49298407 876.37328636 2.49446824 877.18103556 2.49599738 C896.63182996 2.53272848 916.08258569 2.55985483 935.53341234 2.57078276 C949.24907522 2.57884067 962.96465638 2.6019896 976.68027252 2.63873643 C985.0179099 2.66055653 993.35537913 2.67049074 1001.69304364 2.66423609 C1007.32050337 2.66107282 1012.94781564 2.67231509 1018.57522965 2.6951305 C1021.80728056 2.70779196 1025.03893544 2.71179177 1028.27100849 2.70271397 C1031.76788978 2.69387606 1035.2638352 2.70943074 1038.76064014 2.73120022 C1039.777127 2.72275768 1040.79361385 2.71431514 1041.84090334 2.70561677 C1047.71928658 2.77357703 1051.07283389 3.3426505 1055.56116199 7.24345303 C1057.04664426 9.54174634 1057.65489261 11.62534146 1058.56116199 14.24345303 C1059.80252918 14.25763271 1061.04389637 14.2718124 1062.32288074 14.28642178 C1063.96484442 14.33333502 1065.60677037 14.38158234 1067.24866199 14.43095303 C1068.47359364 14.4396542 1068.47359364 14.4396542 1069.72327137 14.44853115 C1073.82600567 14.59802349 1076.04701169 14.89774298 1079.51819324 17.23173428 C1084.65081474 24.79818011 1083.86940865 33.91908426 1083.81116199 42.74345303 C1083.81889637 43.91521084 1083.82663074 45.08696865 1083.83459949 46.29423428 C1083.80058381 61.44822237 1083.80058381 61.44822237 1080.07678699 67.75907803 C1076.03773836 70.14236759 1071.91903271 69.92246342 1067.31116199 69.99345303 C1066.37530262 70.02310146 1065.43944324 70.0527499 1064.47522449 70.08329678 C1062.17045107 70.15385106 1059.86668032 70.20661554 1057.56116199 70.24345303 C1057.44772449 71.17544521 1057.33428699 72.1074374 1057.21741199 73.06767178 C1056.38109133 77.11486644 1054.6195728 78.56734357 1051.56116199 81.24345303 C1051.23116199 81.57345303 1050.90116199 81.90345303 1050.56116199 82.24345303 C1044.87580695 83.24224104 1039.12717638 83.38611949 1033.36992455 83.35654449 C1032.19188211 83.3566982 1032.19188211 83.3566982 1030.99004084 83.35685501 C1028.33660195 83.35601271 1025.68323196 83.34799187 1023.02980518 83.34014797 C1021.0602915 83.33818218 1019.09077729 83.33669952 1017.12126291 83.33564603 C1012.74128001 83.33238318 1008.36131588 83.32598097 1003.98134029 83.31735504 C996.55360742 83.30293757 989.12587745 83.29598132 981.69813347 83.29016113 C978.98563664 83.28798623 976.27313983 83.28578404 973.56064302 83.28358203 C972.86889185 83.28302857 972.17714068 83.2824751 971.46442736 83.28190486 C966.33319466 83.2777291 961.20196336 83.27259326 956.07073182 83.26720351 C930.86041036 83.24130196 905.6501253 83.24184059 880.43979359 83.2487936 C878.37510966 83.24934279 876.31042573 83.24988979 874.24574181 83.25043466 C865.71450965 83.25270193 857.18327752 83.25503852 848.65204541 83.257464 C823.30310201 83.26459663 797.9541584 83.26837904 772.60521412 83.27053738 C771.407765 83.27063988 770.21031587 83.27074239 768.97658041 83.270848 C729.78480541 83.27403298 690.59303781 83.267319 651.40126514 83.25384426 C650.10579136 83.25340092 648.81031758 83.25295759 647.47558701 83.25250081 C618.82249605 83.24263659 590.16940612 83.23105926 561.51631657 83.2177892 C549.29430196 83.21214034 537.07228723 83.20678567 524.85027242 83.2015981 C522.80450937 83.20072818 520.75874632 83.19985038 518.71298327 83.19897227 C487.07633353 83.18546283 455.43969626 83.17806737 423.80304432 83.18766689 C423.1180049 83.18787462 422.43296549 83.18808236 421.7271673 83.18829638 C410.67109774 83.19168471 399.61502834 83.19556671 388.55895896 83.19951412 C342.31164645 83.21601527 296.06440988 83.2102635 249.81710189 83.17412186 C243.39558232 83.16911363 236.97406257 83.16436564 230.55254269 83.15977573 C229.28926711 83.15886454 228.02599154 83.15795336 226.72443489 83.15701455 C206.42607519 83.14304292 186.12779595 83.15312593 165.82944349 83.17231992 C145.50588917 83.19102777 125.18246927 83.18446373 104.85893141 83.15179288 C92.79380241 83.13317 80.72904129 83.13411341 68.66393021 83.16287391 C60.61294692 83.18015423 52.56224735 83.17216594 44.5112973 83.14345617 C39.92297943 83.12782116 35.33538754 83.12330991 30.74710196 83.14959013 C26.57322114 83.17328205 22.40069014 83.16473144 18.22689321 83.13057226 C16.7276202 83.12392976 15.22823743 83.12897813 13.72906091 83.147238 C5.32642768 83.24249768 -0.75176061 82.44690556 -7.62082392 77.21384338 C-10.16603033 74.45531131 -10.96933498 71.81716232 -11.54821301 68.16142178 C-12.31296714 65.95514094 -12.31296714 65.95514094 -15.03527355 65.13358974 C-18.77569059 64.15535572 -21.92330877 64.03201012 -25.78649426 64.08329678 C-26.82621632 64.09109913 -26.82621632 64.09109913 -27.88694286 64.0990591 C-30.09196284 64.1167411 -32.29650067 64.14780667 -34.50133801 64.18095303 C-62.92334998 64.54578519 -62.92334998 64.54578519 -69.43883801 61.24345303 C-73.59579064 55.00802408 -72.65837958 47.63387662 -72.67907238 40.37846279 C-72.68879314 38.31547346 -72.71986431 36.2534754 -72.75133801 34.19071865 C-72.75649426 32.87909756 -72.76165051 31.56747646 -72.76696301 30.21610928 C-72.77630871 29.02251797 -72.78565441 27.82892666 -72.79528332 26.59916592 C-72.39746973 22.85399626 -71.38090393 20.450665 -69.43883801 17.24345303 C-67.53649426 16.03642178 -67.53649426 16.03642178 -65.50133801 15.43095303 C-64.83231457 15.21825771 -64.16329113 15.0055624 -63.47399426 14.78642178 C-62.46659191 14.51765224 -62.46659191 14.51765224 -61.43883801 14.24345303 C-60.83142773 14.07338238 -60.22401745 13.90331173 -59.5982008 13.72808743 C-57.31257895 13.2151162 -55.19351756 13.04491424 -52.85387707 12.94633389 C-51.95324535 12.90636791 -51.05261364 12.86640194 -50.12469006 12.82522488 C-49.16101513 12.7866386 -48.1973402 12.74805233 -47.20446301 12.70829678 C-46.21130077 12.66531963 -45.21813854 12.62234249 -44.19488049 12.57806301 C-41.02635024 12.44183758 -37.85761398 12.3113247 -34.68883801 12.18095303 C-32.53908238 12.08953259 -30.38934254 11.99774018 -28.23961926 11.9055624 C-22.97286764 11.6805445 -17.70593553 11.46021486 -12.43883801 11.24345303 C-12.19649426 10.61696865 -11.95415051 9.99048428 -11.70446301 9.34501553 C-11.36930676 8.5277499 -11.03415051 7.71048428 -10.68883801 6.86845303 C-10.36399426 6.05634365 -10.03915051 5.24423428 -9.70446301 4.40751553 C-7.44227565 0.53945443 -4.26932026 -0.00709755 0 0 Z " transform="translate(101.43883800506592,44.75654697418213)" style="fill: #E3E3E7;"/><path d="M0 0 C1.04028351 0.00092148 2.08056702 0.00184296 3.15237427 0.00279236 C4.26498627 0.00952469 5.37759827 0.01625702 6.52392578 0.02319336 C7.70236053 0.02698502 8.88079529 0.03077667 10.09494019 0.03468323 C22.66586383 0.09000963 35.23519724 0.26517303 47.80419922 0.48535156 C51.68206101 0.55204759 55.55999926 0.61089833 59.43798828 0.66967773 C61.90935047 0.71152412 64.38070505 0.7538233 66.85205078 0.79663086 C68.58746628 0.8216996 68.58746628 0.8216996 70.35794067 0.84727478 C71.41190033 0.86722 72.46585999 0.88716522 73.55175781 0.90771484 C74.48069855 0.92325912 75.40963928 0.93880341 76.36672974 0.95481873 C78.46923828 1.11303711 78.46923828 1.11303711 79.46923828 2.11303711 C79.5563766 3.82076068 79.57623836 5.5320236 79.56689453 7.24194336 C79.56206055 8.79365234 79.56206055 8.79365234 79.55712891 10.37670898 C79.54456055 12.00962891 79.54456055 12.00962891 79.53173828 13.67553711 C79.52722656 14.76801758 79.52271484 15.86049805 79.51806641 16.98608398 C79.50623655 19.69512206 79.48975371 22.4040531 79.46923828 25.11303711 C72.3042481 25.24591101 65.13921846 25.37641534 57.9741354 25.50418854 C54.64427486 25.56363735 51.31443794 25.62402407 47.98461914 25.68579102 C34.90872007 25.92789155 21.83267712 26.15855801 8.75439453 26.20678711 C7.86691025 26.21327271 6.97942596 26.2197583 6.06504822 26.22644043 C-0.24584035 26.23095361 -6.17944857 25.69042921 -12.53076172 25.11303711 C-12.53076172 17.19303711 -12.53076172 9.27303711 -12.53076172 1.11303711 C-8.07408482 0.47636898 -4.38496838 -0.01191129 0 0 Z " transform="translate(946.53076171875,66.886962890625)" style="fill: #080808;"/><path d="M0 0 C2.34916796 0.30164414 4.64227239 0.33173563 7.0078125 0.2578125 C7.0078125 0.9178125 7.0078125 1.5778125 7.0078125 2.2578125 C7.71993896 1.93707764 8.43206543 1.61634277 9.16577148 1.28588867 C12.09853899 0.22499322 14.3758208 -0.06604423 17.48046875 -0.19140625 C18.53564697 -0.23531494 19.5908252 -0.27922363 20.67797852 -0.32446289 C21.79744873 -0.35918701 22.91691895 -0.39391113 24.0703125 -0.4296875 C25.22394287 -0.4702124 26.37757324 -0.5107373 27.56616211 -0.55249023 C36.30692347 -0.80902111 44.94753062 -0.59099253 53.66796875 0.00390625 C57.31370523 0.25219983 60.91964692 0.27196348 64.57202148 0.17993164 C67.0078125 0.2578125 67.0078125 0.2578125 70.71459961 0.78637695 C75.25473875 1.37872561 79.58445683 1.12405121 84.140625 0.828125 C101.9637016 -0.11988911 119.82195183 0.1074978 137.6640625 0.12744141 C142.81462754 0.13310059 147.9651404 0.12979029 153.11570358 0.12398148 C172.48274398 0.10568188 191.82440241 0.17964483 211.18032455 0.86957932 C221.64070693 1.23991793 232.01725858 1.23420967 242.47473145 0.84887695 C263.84252994 0.080703 285.16098181 0.40098739 306.53125 0.93945312 C317.45225335 1.20218053 328.22198762 1.30125284 339.11914062 0.50683594 C345.27111492 0.11287475 351.41507135 0.10828928 357.57763672 0.12744141 C359.66771386 0.13290371 361.75758467 0.12739353 363.84765625 0.12109375 C365.20572963 0.12175317 366.56380289 0.12303151 367.921875 0.125 C369.1176416 0.12612793 370.3134082 0.12725586 371.54541016 0.12841797 C375.09556348 0.26109187 378.49991052 0.71136211 382.0078125 1.2578125 C383.5269703 1.34045468 385.04891882 1.38841616 386.5703125 1.3828125 C387.62412109 1.38667969 387.62412109 1.38667969 388.69921875 1.390625 C391.09270705 1.30120824 391.09270705 1.30120824 393.74916077 0.75086975 C397.06098274 0.24976746 400.10797294 0.17574772 403.45483398 0.23608398 C405.3854216 0.2662133 405.3854216 0.2662133 407.35501099 0.29695129 C408.0461713 0.3102479 408.73733162 0.3235445 409.44943619 0.33724403 C411.70271392 0.38031714 413.95601558 0.41636016 416.20944214 0.45072937 C419.53115572 0.50176044 422.85281974 0.55511112 426.17446899 0.61016846 C462.63426531 1.20702265 499.09204513 1.37673117 535.55632401 1.38164139 C539.32489584 1.38281393 543.09346014 1.38617388 546.86203003 1.3901062 C552.83098257 1.39593173 558.79990996 1.39627763 564.76886368 1.39206886 C566.98567824 1.39111404 569.20249409 1.39172753 571.41930771 1.39398766 C574.46356537 1.39652793 577.50774975 1.39274 580.55200195 1.38720703 C581.44330527 1.38923347 582.33460859 1.3912599 583.2529211 1.39334774 C587.3376239 1.37932732 591.00434682 1.12630642 595.0078125 0.2578125 C596.92830946 0.20492814 598.85077105 0.20761762 600.77148438 0.25195312 C601.91426849 0.27523682 603.05705261 0.29852051 604.23446655 0.32250977 C606.08680405 0.36782837 606.08680405 0.36782837 607.9765625 0.4140625 C609.95537505 0.45441212 611.93418801 0.49474602 613.91301537 0.53436279 C616.00847366 0.57688886 618.10387651 0.62159717 620.19927979 0.66674805 C641.21212659 1.1154034 662.195127 1.52970701 683.20117188 0.57617188 C690.54249518 0.2692047 697.70403742 0.33909259 705.03515625 0.7578125 C717.51939205 1.46170005 729.93172688 1.05596573 742.42114258 0.66455078 C755.0114165 0.2818048 767.46220377 0.2980373 780.04101562 1.00927734 C791.95417841 1.66555384 803.89446373 1.37102517 815.8125 0.99609375 C816.59383301 0.97165695 817.37516602 0.94722015 818.18017578 0.92204285 C819.36861084 0.88485893 819.36861084 0.88485893 820.58105469 0.84692383 C822.2024723 0.79633348 823.82389158 0.74579652 825.4453125 0.6953125 C826.64323425 0.65765274 826.64323425 0.65765274 827.86535645 0.61923218 C840.9590476 0.21867275 853.93103882 0.36777031 867.0078125 1.2578125 C867.0078125 1.5878125 867.0078125 1.9178125 867.0078125 2.2578125 C843.40365342 3.07302565 819.83061853 3.4038474 796.21333091 3.38007869 C791.57660867 3.37656923 786.93988838 3.37902923 782.30316561 3.38065618 C774.21644073 3.3827077 766.12972328 3.38112477 758.04299927 3.37701797 C746.01874294 3.3709287 733.99449119 3.37068715 721.9702336 3.37155996 C701.73366702 3.37286741 681.49710373 3.36955717 661.2605381 3.36354256 C641.24667151 3.35760949 621.23280629 3.35377338 601.21893883 3.35268974 C599.34682047 3.35258663 599.34682047 3.35258663 597.43688153 3.35248144 C591.09757457 3.35214307 584.75826761 3.3518417 578.41896065 3.35155457 C533.60979122 3.34945856 488.80062343 3.34273434 443.99145508 3.33325195 C433.15150961 3.3309601 422.31156414 3.32868465 411.47161865 3.32647705 C410.46304795 3.32627163 410.46304795 3.32627163 409.43410209 3.32606205 C378.12170364 3.31970691 346.80930504 3.31598882 315.49690612 3.31294226 C313.46173026 3.31274419 311.42655441 3.312545 309.39137856 3.31234558 C295.90309852 3.31102569 282.41481848 3.30975106 268.92653844 3.30850672 C241.45352296 3.30597183 213.9805075 3.30314979 186.50749207 3.30015564 C185.24454621 3.30001835 183.98160035 3.29988106 182.6803834 3.29973961 C98.45619236 3.29055121 14.2320023 3.27470747 -69.9921875 3.2578125 C-69.9921875 2.9278125 -69.9921875 2.5978125 -69.9921875 2.2578125 C-68.3421875 2.2578125 -66.6921875 2.2578125 -64.9921875 2.2578125 C-64.9921875 1.5978125 -64.9921875 0.9378125 -64.9921875 0.2578125 C-64.29727707 0.26003311 -63.60236664 0.26225372 -62.88639832 0.26454163 C-56.33865195 0.28457575 -49.79091413 0.29980259 -43.24314404 0.30962467 C-39.8768451 0.31484404 -36.51057148 0.32192453 -33.14428711 0.33325195 C-29.27456995 0.34535149 -25.40488884 0.35104854 -21.53515625 0.35546875 C-20.32570847 0.36063004 -19.11626068 0.36579132 -17.87016296 0.37110901 C-16.74922745 0.37118454 -15.62829193 0.37126007 -14.47338867 0.37133789 C-13.48521652 0.3735585 -12.49704437 0.37577911 -11.47892761 0.37806702 C-0.92076047 -0.13250796 -0.92076047 -0.13250796 0 0 Z " transform="translate(176.9921875,123.7421875)" style="fill: #D0D0D3;"/><path d="M0 0 C18 0 18 0 24 4 C27.41442128 10.34247649 26.29596222 19.53672404 26.25 26.5 C26.25773437 27.67175781 26.26546875 28.84351563 26.2734375 30.05078125 C26.23592168 46.76407832 26.23592168 46.76407832 21 52 C13.74 52 6.48 52 -1 52 C-0.67 34.84 -0.34 17.68 0 0 Z " transform="translate(1159,61)" style="fill: #111111;"/><path d="M0 0 C18 0 18 0 24 4 C27.41442128 10.34247649 26.29596222 19.53672404 26.25 26.5 C26.25773437 27.67175781 26.26546875 28.84351563 26.2734375 30.05078125 C26.2586078 36.65741455 25.96274839 42.66686519 24 49 C23.01 49.66 22.02 50.32 21 51 C21.32613281 50.21238281 21.65226562 49.42476562 21.98828125 48.61328125 C23.26720089 44.04571109 23.25530806 39.90194426 23.1875 35.1875 C23.18685547 34.31673828 23.18621094 33.44597656 23.18554688 32.54882812 C23.52065655 28.44939462 23.52065655 28.44939462 22 25 C22 23.02 22 21.04 22 19 C15.07 18.67 8.14 18.34 1 18 C1.02320313 20.20300781 1.04640625 22.40601563 1.0703125 24.67578125 C1.08591194 26.81045964 1.09805499 28.94513166 1.10986328 31.07983398 C1.11991821 32.56293583 1.13356404 34.04601788 1.15087891 35.52905273 C1.17515006 37.66134531 1.18648799 39.79337569 1.1953125 41.92578125 C1.20578613 43.20880127 1.21625977 44.49182129 1.22705078 45.8137207 C1 49 1 49 -1 52 C-0.67 34.84 -0.34 17.68 0 0 Z " transform="translate(1159,61)" style="fill: #4C4C4C;"/><path d="M0 0 C7.26 0 14.52 0 22 0 C22 7.26 22 14.52 22 22 C14.74 22 7.48 22 0 22 C0 14.74 0 7.48 0 0 Z " transform="translate(1059,70)" style="fill: #0A0A0B;"/><path d="M0 0 C1.04028351 0.00092148 2.08056702 0.00184296 3.15237427 0.00279236 C4.26498627 0.00952469 5.37759827 0.01625702 6.52392578 0.02319336 C7.70236053 0.02698502 8.88079529 0.03077667 10.09494019 0.03468323 C22.66586383 0.09000963 35.23519724 0.26517303 47.80419922 0.48535156 C51.68206101 0.55204759 55.55999926 0.61089833 59.43798828 0.66967773 C61.90935047 0.71152412 64.38070505 0.7538233 66.85205078 0.79663086 C68.58746628 0.8216996 68.58746628 0.8216996 70.35794067 0.84727478 C71.41190033 0.86722 72.46585999 0.88716522 73.55175781 0.90771484 C74.48069855 0.92325912 75.40963928 0.93880341 76.36672974 0.95481873 C78.46923828 1.11303711 78.46923828 1.11303711 79.46923828 2.11303711 C79.5563766 3.82076068 79.57623836 5.5320236 79.56689453 7.24194336 C79.56206055 8.79365234 79.56206055 8.79365234 79.55712891 10.37670898 C79.54456055 12.00962891 79.54456055 12.00962891 79.53173828 13.67553711 C79.52722656 14.76801758 79.52271484 15.86049805 79.51806641 16.98608398 C79.50623655 19.69512206 79.48975371 22.4040531 79.46923828 25.11303711 C72.3042481 25.24591101 65.13921846 25.37641534 57.9741354 25.50418854 C54.64427486 25.56363735 51.31443794 25.62402407 47.98461914 25.68579102 C34.90872007 25.92789155 21.83267712 26.15855801 8.75439453 26.20678711 C7.86691025 26.21327271 6.97942596 26.2197583 6.06504822 26.22644043 C-0.24584035 26.23095361 -6.17944857 25.69042921 -12.53076172 25.11303711 C-12.53076172 17.19303711 -12.53076172 9.27303711 -12.53076172 1.11303711 C-8.07408482 0.47636898 -4.38496838 -0.01191129 0 0 Z M-2.53076172 2.11303711 C-4.98681543 4.66578585 -5.51879111 5.97194354 -5.82373047 9.56616211 C-5.78892578 10.81913086 -5.75412109 12.07209961 -5.71826172 13.36303711 C-5.69119141 14.62631836 -5.66412109 15.88959961 -5.63623047 17.19116211 C-5.60142578 18.15538086 -5.56662109 19.11959961 -5.53076172 20.11303711 C-2.53595254 20.98537831 0.10499739 21.22133477 3.21923828 21.17553711 C4.41806641 21.16200195 4.41806641 21.16200195 5.64111328 21.14819336 C6.24439453 21.1365918 6.84767578 21.12499023 7.46923828 21.11303711 C5.48923828 21.44303711 3.50923828 21.77303711 1.46923828 22.11303711 C1.46923828 22.77303711 1.46923828 23.43303711 1.46923828 24.11303711 C26.87923828 24.11303711 52.28923828 24.11303711 78.46923828 24.11303711 C78.46923828 16.85303711 78.46923828 9.59303711 78.46923828 2.11303711 C58.66923828 2.11303711 38.86923828 2.11303711 18.46923828 2.11303711 C18.46923828 2.77303711 18.46923828 3.43303711 18.46923828 4.11303711 C17.47923828 4.11303711 16.48923828 4.11303711 15.46923828 4.11303711 C15.46923828 3.45303711 15.46923828 2.79303711 15.46923828 2.11303711 C11.17923828 2.11303711 6.88923828 2.11303711 2.46923828 2.11303711 C2.46923828 2.77303711 2.46923828 3.43303711 2.46923828 4.11303711 C-0.00576172 3.12303711 -0.00576172 3.12303711 -2.53076172 2.11303711 Z " transform="translate(946.53076171875,66.886962890625)" style="fill: #2C2C2D;"/><path d="M0 0 C35.91581331 -0.02294726 71.83162531 -0.0405392 107.74744445 -0.05106533 C111.99886598 -0.05231586 116.25028748 -0.0536102 120.50170898 -0.05493164 C121.34800105 -0.05519395 122.19429312 -0.05545626 123.06623041 -0.05572652 C136.72416485 -0.06006402 150.38209504 -0.0679409 164.04002697 -0.0771528 C178.08054185 -0.08654293 192.12105451 -0.0920669 206.1615724 -0.09408849 C214.80776082 -0.09545264 223.4539372 -0.09974261 232.10012191 -0.10791647 C238.04936885 -0.11325022 243.99860967 -0.11478942 249.94785882 -0.11350138 C253.36734594 -0.11286823 256.78679557 -0.11432469 260.20628166 -0.11920547 C276.16598186 -0.14084716 292.06223123 0.13319311 308 1 C308 1.33 308 1.66 308 2 C306.82872559 1.99476318 305.65745117 1.98952637 304.45068359 1.98413086 C298.75880189 1.96109004 293.06691839 1.94757525 287.375 1.9375 C286.32487732 1.93555634 285.27475464 1.93361267 284.19281006 1.93161011 C263.77068975 1.90558067 243.36270524 2.24733852 222.94677734 2.73217773 C221.827005 2.75694183 220.70723267 2.78170593 219.55352783 2.80722046 C217.44677453 2.8539307 215.34011052 2.90492648 213.23358154 2.96084595 C212.30587952 2.98093719 211.37817749 3.00102844 210.42236328 3.02172852 C209.61227814 3.04171402 208.80219299 3.06169952 207.96755981 3.08229065 C206 3 206 3 204 2 C201.882649 1.91278372 199.76243648 1.89300408 197.64331055 1.90234375 C196.6483288 1.90450016 196.6483288 1.90450016 195.63324642 1.90670013 C194.16817564 1.91049356 192.70310957 1.91661261 191.23805618 1.92469788 C188.82572009 1.93783211 186.41343339 1.94471199 184.00106812 1.95007324 C180.44700108 1.95844958 176.8929526 1.96918523 173.33889771 1.98168945 C163.5827252 2.01479802 153.82653621 2.02642873 144.0703125 2.03125 C143.02437738 2.03179886 141.97844227 2.03234772 140.90081215 2.03291321 C111.62028682 2.04108769 82.34152217 1.76763781 53.0625 1.5 C51.72439457 1.48784408 50.38628905 1.47569809 49.04818344 1.46356201 C32.69872957 1.31508927 16.34933572 1.16095164 0 1 C0 0.67 0 0.34 0 0 Z " transform="translate(451,46)" style="fill: #FBFBFB;"/><path d="M0 0 C3.3 0 6.6 0 10 0 C10 0.99 10 1.98 10 3 C10.639375 2.505 11.27875 2.01 11.9375 1.5 C15.9808849 -0.48043342 19.56052242 -0.47696867 24 0 C25 1 25 1 25.0625 3.03125 C25.02083333 4.67708333 24.97916667 6.32291667 24.9375 7.96875 C24.76775055 9.99609236 24.76775055 9.99609236 26 11 C26.3125 13.375 26.3125 13.375 26 16 C24.5625 17.8125 24.5625 17.8125 22 19 C18.98228984 19.2389237 16.01993159 19.17422682 13 19 C13 18.34 13 17.68 13 17 C12.154375 17.33 11.30875 17.66 10.4375 18 C6.79010784 19.06105954 3.77725336 19.15109013 0 19 C0 18.34 0 17.68 0 17 C2.31 16.34 4.62 15.68 7 15 C7 13.68 7 12.36 7 11 C4.69 10.67 2.38 10.34 0 10 C0 6.7 0 3.4 0 0 Z " transform="translate(551,68)" style="fill: #DDDDDE;"/><path d="M0 0 C0.33 0 0.66 0 1 0 C1 7.92 1 15.84 1 24 C31.03 24 61.06 24 92 24 C92 24.33 92 24.66 92 25 C74.18 25.33 56.36 25.66 38 26 C38 26.99 38 27.98 38 29 C34.44350737 32.55649263 29.01801816 31.66093622 24.1875 31.875 C22.5468457 31.98328125 22.5468457 31.98328125 20.87304688 32.09375 C12.8156355 32.46691469 12.8156355 32.46691469 8.73828125 30.1328125 C7 28 7 28 7 26 C4.69 25.67 2.38 25.34 0 25 C0 16.75 0 8.5 0 0 Z " transform="translate(933,68)" style="fill: #A2A2A4;"/><path d="M0 0 C3.01147359 0.60229472 4.31014148 1.34671532 6.5 3.5 C6.99609375 6.27734375 6.99609375 6.27734375 6.9375 9.4375 C6.93621094 10.47777344 6.93492187 11.51804687 6.93359375 12.58984375 C6.45299999 15.81545053 5.84242439 17.24890867 3.5 19.5 C-0.1875 19.75 -0.1875 19.75 -3.5 19.5 C-6.51496811 14.47505315 -7.13533325 11.21799925 -6.5 5.5 C-4.65223645 2.21508703 -3.74301987 0.74860397 0 0 Z " transform="translate(610.5,67.5)" style="fill: #2B2B2D;"/><path d="M0 0 C1.83884766 0.00193359 1.83884766 0.00193359 3.71484375 0.00390625 C7.24744656 0.46145457 8.7643571 0.72306818 11.0625 3.4375 C11.453125 6.35546875 11.453125 6.35546875 11.3125 9.625 C11.27640625 10.71167969 11.2403125 11.79835938 11.203125 12.91796875 C11.13351562 14.16513672 11.13351562 14.16513672 11.0625 15.4375 C9.7425 15.4375 8.4225 15.4375 7.0625 15.4375 C6.7325 11.4775 6.4025 7.5175 6.0625 3.4375 C5.0725 3.1075 4.0825 2.7775 3.0625 2.4375 C3.0625 6.7275 3.0625 11.0175 3.0625 15.4375 C1.4125 15.4375 -0.2375 15.4375 -1.9375 15.4375 C-1.9375 11.1475 -1.9375 6.8575 -1.9375 2.4375 C-2.9275 2.4375 -3.9175 2.4375 -4.9375 2.4375 C-4.9375 6.7275 -4.9375 11.0175 -4.9375 15.4375 C-6.5875 15.4375 -8.2375 15.4375 -9.9375 15.4375 C-10.01892927 13.6882786 -10.07688541 11.93795458 -10.125 10.1875 C-10.15980469 9.21296875 -10.19460938 8.2384375 -10.23046875 7.234375 C-9.52653971 0.51419913 -6.24211992 -0.09824953 0 0 Z " transform="translate(476.9375,70.5625)" style="fill: #6E6E70;"/><path d="M0 0 C0.74958984 0.01353516 1.49917969 0.02707031 2.27148438 0.04101562 C4.11879767 0.07631461 5.96574066 0.13012083 7.8125 0.1875 C9.25457941 3.07165883 8.90644887 5.60471528 8.875 8.8125 C8.86597656 10.00101563 8.85695313 11.18953125 8.84765625 12.4140625 C8.83605469 13.32929687 8.82445312 14.24453125 8.8125 15.1875 C7.8225 15.1875 6.8325 15.1875 5.8125 15.1875 C5.4825 11.2275 5.1525 7.2675 4.8125 3.1875 C3.8225 3.1875 2.8325 3.1875 1.8125 3.1875 C1.4825 7.1475 1.1525 11.1075 0.8125 15.1875 C-0.5075 15.1875 -1.8275 15.1875 -3.1875 15.1875 C-3.1875 10.8975 -3.1875 6.6075 -3.1875 2.1875 C-4.1775 2.5175 -5.1675 2.8475 -6.1875 3.1875 C-6.5175 7.1475 -6.8475 11.1075 -7.1875 15.1875 C-8.5075 15.1875 -9.8275 15.1875 -11.1875 15.1875 C-11.26857583 13.25068839 -11.32672475 11.3129066 -11.375 9.375 C-11.40980469 8.29605469 -11.44460938 7.21710938 -11.48046875 6.10546875 C-11.1875 3.1875 -11.1875 3.1875 -10.1875 1.3125 C-6.96224416 -0.50170641 -3.59197712 -0.12234682 0 0 Z " transform="translate(410.1875,70.8125)" style="fill: #2B2B2D;"/><path d="M0 0 C2.375 0.9375 2.375 0.9375 4 3 C4.50786669 6.06431924 4.61329775 8.95008689 4 12 C2.69140625 13.76171875 2.69140625 13.76171875 1 15 C-3.36706908 15.38991688 -5.30513897 15.46324069 -9 13 C-9.3984375 10.72265625 -9.3984375 10.72265625 -9.375 8.0625 C-9.38273437 7.18722656 -9.39046875 6.31195313 -9.3984375 5.41015625 C-8.49025685 -0.08344629 -5.03538875 -0.61657821 0 0 Z " transform="translate(431,71)" style="fill: #28282A;"/><path d="M0 0 C0.33 0 0.66 0 1 0 C1.33 2.31 1.66 4.62 2 7 C7.94 7 13.88 7 20 7 C20.33 8.98 20.66 10.96 21 13 C14.4 13 7.8 13 1 13 C1.02320313 15.27519531 1.04640625 17.55039063 1.0703125 19.89453125 C1.08591111 22.09870852 1.09805464 24.30287963 1.10986328 26.50708008 C1.11991935 28.03868361 1.133566 29.57026795 1.15087891 31.10180664 C1.17514498 33.30359636 1.18648688 35.50513219 1.1953125 37.70703125 C1.20563507 38.39150833 1.21595764 39.07598541 1.22659302 39.78120422 C1.22745382 43.43061661 1.08567666 44.87148502 -1 48 C-0.67 32.16 -0.34 16.32 0 0 Z " transform="translate(1159,65)" style="fill: #545455;"/><path d="M0 0 C1.67578125 1.1328125 1.67578125 1.1328125 3 3 C3.29296875 5.91796875 3.29296875 5.91796875 3.1875 9.1875 C3.16042969 10.27417969 3.13335937 11.36085938 3.10546875 12.48046875 C3.07066406 13.31191406 3.03585937 14.14335938 3 15 C1.68 15 0.36 15 -1 15 C-1 13.68 -1 12.36 -1 11 C-2.32 11 -3.64 11 -5 11 C-5 12.32 -5 13.64 -5 15 C-6.32 15 -7.64 15 -9 15 C-9.08078641 12.87561661 -9.13909141 10.7503677 -9.1875 8.625 C-9.22230469 7.44164063 -9.25710938 6.25828125 -9.29296875 5.0390625 C-9.19628906 4.03617187 -9.09960938 3.03328125 -9 2 C-5.53076119 -0.31282587 -4.07794425 -0.42478586 0 0 Z " transform="translate(462,71)" style="fill: #3D3D3F;"/><path d="M0 0 C4 0 4 0 6 1 C7.87056791 1.2275015 9.74685958 1.40962811 11.625 1.5625 C12.62789062 1.64628906 13.63078125 1.73007813 14.6640625 1.81640625 C15.43492187 1.87699219 16.20578125 1.93757813 17 2 C16.57576756 3.46224799 16.13509755 4.91973412 15.6875 6.375 C15.44386719 7.18710938 15.20023438 7.99921875 14.94921875 8.8359375 C14 11 14 11 11 13 C8.67612053 13.39387788 6.34206251 13.73486085 4 14 C1.90284215 10.85426323 1.47995441 8.98543749 0.875 5.3125 C0.70742188 4.31863281 0.53984375 3.32476562 0.3671875 2.30078125 C0.24601563 1.54152344 0.12484375 0.78226562 0 0 Z " transform="translate(616,69)" style="fill: #E8E8EC;"/><path d="M0 0 C2.34916796 0.30164414 4.64227239 0.33173563 7.0078125 0.2578125 C7.0078125 0.9178125 7.0078125 1.5778125 7.0078125 2.2578125 C-16.7521875 2.2578125 -40.5121875 2.2578125 -64.9921875 2.2578125 C-64.9921875 1.5978125 -64.9921875 0.9378125 -64.9921875 0.2578125 C-64.29727707 0.26003311 -63.60236664 0.26225372 -62.88639832 0.26454163 C-56.33865195 0.28457575 -49.79091413 0.29980259 -43.24314404 0.30962467 C-39.8768451 0.31484404 -36.51057148 0.32192453 -33.14428711 0.33325195 C-29.27456995 0.34535149 -25.40488884 0.35104854 -21.53515625 0.35546875 C-20.32570847 0.36063004 -19.11626068 0.36579132 -17.87016296 0.37110901 C-16.74922745 0.37118454 -15.62829193 0.37126007 -14.47338867 0.37133789 C-13.48521652 0.3735585 -12.49704437 0.37577911 -11.47892761 0.37806702 C-0.92076047 -0.13250796 -0.92076047 -0.13250796 0 0 Z " transform="translate(176.9921875,123.7421875)" style="fill: #C9C8CC;"/><path d="M0 0 C3.5625 0.25 3.5625 0.25 6.5625 2.25 C6.85546875 5.2890625 6.85546875 5.2890625 6.75 8.875 C6.72292969 10.06351563 6.69585937 11.25203125 6.66796875 12.4765625 C6.63316406 13.39179687 6.59835937 14.30703125 6.5625 15.25 C5.2425 15.25 3.9225 15.25 2.5625 15.25 C2.2325 11.29 1.9025 7.33 1.5625 3.25 C0.5725 3.25 -0.4175 3.25 -1.4375 3.25 C-1.7675 7.21 -2.0975 11.17 -2.4375 15.25 C-3.4275 15.25 -4.4175 15.25 -5.4375 15.25 C-5.49136629 13.12527424 -5.53023071 11.00016348 -5.5625 8.875 C-5.58570313 7.69164063 -5.60890625 6.50828125 -5.6328125 5.2890625 C-5.34619389 0.8292769 -4.40870955 0.32063342 0 0 Z " transform="translate(443.4375,70.75)" style="fill: #262627;"/><path d="M0 0 C3.12827979 0.13899032 6.24110403 0.05026715 9.36914062 -0.07348633 C11.296875 0.10205078 11.296875 0.10205078 14.296875 2.10205078 C-5.173125 2.10205078 -24.643125 2.10205078 -44.703125 2.10205078 C-44.373125 1.44205078 -44.043125 0.78205078 -43.703125 0.10205078 C-29.05021718 -0.70217229 -14.6456392 -0.96828099 0 0 Z " transform="translate(232.703125,123.89794921875)" style="fill: #C8C7CB;"/><path d="M0 0 C3.3 0 6.6 0 10 0 C10 0.99 10 1.98 10 3 C7.69 3 5.38 3 3 3 C3 4.32 3 5.64 3 7 C3.94875 7.12375 4.8975 7.2475 5.875 7.375 C9 8 9 8 11 10 C11.5109181 13.23581461 11.28519568 14.57791039 9.4375 17.3125 C6.185351 19.56398777 3.86806995 19.29754384 0 19 C0 18.34 0 17.68 0 17 C2.31 16.34 4.62 15.68 7 15 C7 13.68 7 12.36 7 11 C4.69 10.67 2.38 10.34 0 10 C0 6.7 0 3.4 0 0 Z " transform="translate(551,68)" style="fill: #424243;"/><path d="M0 0 C1.47906892 -0.02689216 2.95827483 -0.04634621 4.4375 -0.0625 C5.26121094 -0.07410156 6.08492187 -0.08570312 6.93359375 -0.09765625 C9 0 9 0 10 1 C10.07164161 3.32835228 9.9964482 5.6402961 9.9375 7.96875 C9.76775055 9.99609236 9.76775055 9.99609236 11 11 C11.3125 13.375 11.3125 13.375 11 16 C9.5 17.8125 9.5 17.8125 7 19 C4.27920155 19.23884872 1.74185932 19.13709297 -1 19 C-1 18.01 -1 17.02 -1 16 C1.97 16 4.94 16 8 16 C7.29660434 13.49034386 7.29660434 13.49034386 6 11 C3.95894361 10.11306697 3.95894361 10.11306697 2 10 C2 9.34 2 8.68 2 8 C3.32 7.67 4.64 7.34 6 7 C6.33 5.68 6.66 4.36 7 3 C4.69 3 2.38 3 0 3 C0 2.01 0 1.02 0 0 Z " transform="translate(566,68)" style="fill: #2E2D30;"/><path d="M0 0 C1.2065625 0.0309375 1.2065625 0.0309375 2.4375 0.0625 C3.0625 2.4375 3.0625 2.4375 3.4375 5.0625 C1.4375 7.0625 1.4375 7.0625 -2.5625 7.0625 C-2.5625 11.6825 -2.5625 16.3025 -2.5625 21.0625 C-3.8825 21.0625 -5.2025 21.0625 -6.5625 21.0625 C-6.5625 16.1125 -6.5625 11.1625 -6.5625 6.0625 C-5.5725 6.0625 -4.5825 6.0625 -3.5625 6.0625 C-3.583125 5.258125 -3.60375 4.45375 -3.625 3.625 C-3.54067676 0.16774696 -3.45725304 0.08432324 0 0 Z " transform="translate(496.5625,64.9375)" style="fill: #2A2A2C;"/><path d="M0 0 C2.64 0 5.28 0 8 0 C8 4.29 8 8.58 8 13 C5.36 13 2.72 13 0 13 C-1.0161692 8.37078475 -0.83796731 4.65537393 0 0 Z " transform="translate(1017,71)" style="fill: #141414;"/><path d="M0 0 C3.96 0 7.92 0 12 0 C11.16687476 4.1656262 10.13800153 7.78020634 8.6875 11.75 C8.27886719 12.89984375 7.87023437 14.0496875 7.44921875 15.234375 C6 18 6 18 3.83203125 18.890625 C2.92517578 18.94476563 2.92517578 18.94476563 2 19 C3.43823491 13.36691325 5.54144009 8.26322777 8 3 C5.36 3 2.72 3 0 3 C0 2.01 0 1.02 0 0 Z " transform="translate(625,68)" style="fill: #3F3E43;"/><path d="M0 0 C1.98 0 3.96 0 6 0 C6.05389087 1.95803507 6.09274217 3.91648909 6.125 5.875 C6.14820313 6.96554688 6.17140625 8.05609375 6.1953125 9.1796875 C6 12 6 12 4 14 C2.68 13.67 1.36 13.34 0 13 C0 8.71 0 4.42 0 0 Z " transform="translate(608,71)" style="fill: #EAE9EC;"/><path d="M0 0 C2.89684158 -0.10829314 5.78961019 -0.18743954 8.6875 -0.25 C9.50412109 -0.28351562 10.32074219 -0.31703125 11.16210938 -0.3515625 C15.40735834 -0.42031147 17.4321814 -0.37134905 21.08203125 2.015625 C21.71496094 2.67046875 22.34789062 3.3253125 23 4 C22.67 5.32 22.34 6.64 22 8 C22 7.01 22 6.02 22 5 C21.34 5 20.68 5 20 5 C19.67 5.66 19.34 6.32 19 7 C19 5.68 19 4.36 19 3 C17.30230469 3.01740234 17.30230469 3.01740234 15.5703125 3.03515625 C14.08854331 3.04453454 12.60677235 3.0536347 11.125 3.0625 C10.37863281 3.07087891 9.63226562 3.07925781 8.86328125 3.08789062 C3.2265625 3.11328125 3.2265625 3.11328125 1 2 C0.67 2.66 0.34 3.32 0 4 C0 2.68 0 1.36 0 0 Z " transform="translate(1159,61)" style="fill: #3C3C3C;"/><path d="M0 0 C0 0.99 0 1.98 0 3 C-15.345 3.495 -15.345 3.495 -31 4 C-30.67 3.01 -30.34 2.02 -30 1 C-26.1250877 0.83125237 -22.25005773 0.66537155 -18.375 0.5 C-16.73337891 0.42845703 -16.73337891 0.42845703 -15.05859375 0.35546875 C-13.99511719 0.31035156 -12.93164062 0.26523438 -11.8359375 0.21875 C-10.86188965 0.17685547 -9.8878418 0.13496094 -8.88427734 0.09179688 C-5.9208325 -0.00251964 -2.96473674 -0.01538125 0 0 Z " transform="translate(964,64)" style="fill: #CBCACE;"/><path d="M0 0 C1.32 0 2.64 0 4 0 C4 6.27 4 12.54 4 19 C3.01 19 2.02 19 1 19 C1 14.05 1 9.1 1 4 C0.01 4 -0.98 4 -2 4 C-1.34 2.68 -0.68 1.36 0 0 Z " transform="translate(539,68)" style="fill: #2A2A2D;"/><path d="M0 0 C0.33 0 0.66 0 1 0 C1.33 2.31 1.66 4.62 2 7 C2.33 5.02 2.66 3.04 3 1 C3.33 1 3.66 1 4 1 C4.33 4.3 4.66 7.6 5 11 C6.32 10.67 7.64 10.34 9 10 C9.33 6.7 9.66 3.4 10 0 C10.33 0 10.66 0 11 0 C11.22142255 1.95689659 11.4267568 3.91561952 11.625 5.875 C11.74101563 6.96554688 11.85703125 8.05609375 11.9765625 9.1796875 C11.98429688 10.11039063 11.99203125 11.04109375 12 12 C10 14 10 14 6.375 14.125 C5.26125 14.08375 4.1475 14.0425 3 14 C-0.00559652 8.99067246 -0.29341888 5.67276511 0 0 Z " transform="translate(604,73)" style="fill: #4E4E50;"/><path d="M0 0 C0.99 0.33 1.98 0.66 3 1 C4.44567986 1.0918277 5.89515828 1.13066598 7.34375 1.1328125 C8.17777344 1.13410156 9.01179687 1.13539062 9.87109375 1.13671875 C11.17240234 1.13091797 11.17240234 1.13091797 12.5 1.125 C13.36753906 1.12886719 14.23507812 1.13273437 15.12890625 1.13671875 C15.96292969 1.13542969 16.79695312 1.13414063 17.65625 1.1328125 C18.79803711 1.13112061 18.79803711 1.13112061 19.96289062 1.12939453 C22.20324188 1.0741715 22.20324188 1.0741715 25 0 C25 1.32 25 2.64 25 4 C16.75 4 8.5 4 0 4 C0 2.68 0 1.36 0 0 Z " transform="translate(943,93)" style="fill: #A2A2A3;"/><path d="M0 0 C1.32 0.33 2.64 0.66 4 1 C4 4.96 4 8.92 4 13 C2.02 13.66 0.04 14.32 -2 15 C-1.67 14.34 -1.34 13.68 -1 13 C-0.77049681 10.795636 -0.58924067 8.58607827 -0.4375 6.375 C-0.35371094 5.18648438 -0.26992188 3.99796875 -0.18359375 2.7734375 C-0.12300781 1.85820313 -0.06242187 0.94296875 0 0 Z " transform="translate(480,73)" style="fill: #DADADC;"/><path d="M0 0 C0.33 0 0.66 0 1 0 C1 5.94 1 11.88 1 18 C0.34 17.67 -0.32 17.34 -1 17 C-1 15.02 -1 13.04 -1 11 C-7.93 10.67 -14.86 10.34 -22 10 C-22 9.67 -22 9.34 -22 9 C-11.605 8.505 -11.605 8.505 -1 8 C-0.67 5.36 -0.34 2.72 0 0 Z " transform="translate(1182,69)" style="fill: #2B2B2B;"/><path d="M0 0 C1.98 0.495 1.98 0.495 4 1 C4 4.3 4 7.6 4 11 C2.35 11 0.7 11 -1 11 C-1.02688151 9.35425434 -1.04634123 7.70838587 -1.0625 6.0625 C-1.07410156 5.14597656 -1.08570313 4.22945313 -1.09765625 3.28515625 C-1 1 -1 1 0 0 Z " transform="translate(427,73)" style="fill: #D1D1D3;"/><path d="M0 0 C5.61 0 11.22 0 17 0 C17 0.99 17 1.98 17 3 C11.06 3 5.12 3 -1 3 C-0.67 2.01 -0.34 1.02 0 0 Z " transform="translate(1162,74)" style="fill: #777777;"/><path d="M0 0 C1.32 0.33 2.64 0.66 4 1 C4 4.96 4 8.92 4 13 C2.68 13 1.36 13 0 13 C0 8.71 0 4.42 0 0 Z " transform="translate(484,73)" style="fill: #272729;"/><path d="M0 0 C0.99 0 1.98 0 3 0 C3 4.29 3 8.58 3 13 C1.68 13 0.36 13 -1 13 C-1.02696365 11.20841511 -1.04637917 9.41671527 -1.0625 7.625 C-1.07410156 6.62726563 -1.08570313 5.62953125 -1.09765625 4.6015625 C-1 2 -1 2 0 0 Z " transform="translate(468,73)" style="fill: #29292B;"/><path d="M0 0 C10.89 0 21.78 0 33 0 C32.34 0.33 31.68 0.66 31 1 C31 1.66 31 2.32 31 3 C30.01 3 29.02 3 28 3 C28 2.34 28 1.68 28 1 C27.154375 1.185625 26.30875 1.37125 25.4375 1.5625 C21.7226718 2.03529632 18.67025727 1.66064631 15 1 C15 1.66 15 2.32 15 3 C14.01 2.67 13.02 2.34 12 2 C9.94106379 1.77674186 7.87766347 1.59294241 5.8125 1.4375 C4.72582031 1.35371094 3.63914062 1.26992187 2.51953125 1.18359375 C1.68808594 1.12300781 0.85664062 1.06242187 0 1 C0 0.67 0 0.34 0 0 Z " transform="translate(934,68)" style="fill: #232325;"/><path d="M0 0 C2.64 0 5.28 0 8 0 C8 3 8 3 7 5 C5.00116131 5.34022786 3.00109278 5.67329097 1 6 C0.34 6.66 -0.32 7.32 -1 8 C-1.125 2.25 -1.125 2.25 0 0 Z " transform="translate(549,79)" style="fill: #F2F2F3;"/><path d="M0 0 C1.32 0.33 2.64 0.66 4 1 C4 3.97 4 6.94 4 10 C2.02 10.99 2.02 10.99 0 12 C0 8.04 0 4.08 0 0 Z " transform="translate(431,73)" style="fill: #1F1F20;"/><path d="M0 0 C0 1.32 0 2.64 0 4 C8.25 4 16.5 4 25 4 C25.33 2.68 25.66 1.36 26 0 C26 1.65 26 3.3 26 5 C17.09 5 8.18 5 -1 5 C-1.66 3.68 -2.32 2.36 -3 1 C-2 0 -2 0 0 0 Z " transform="translate(943,93)" style="fill: #C1C1C3;"/><path d="M0 0 C9.9 0 19.8 0 30 0 C29.01 1.485 29.01 1.485 28 3 C25.375 3.1875 25.375 3.1875 23 3 C23 2.34 23 1.68 23 1 C15.41 1 7.82 1 0 1 C0 0.67 0 0.34 0 0 Z " transform="translate(972,74)" style="fill: #101010;"/><path d="M0 0 C0.99 0 1.98 0 3 0 C3 4.29 3 8.58 3 13 C2.01 13 1.02 13 0 13 C0 8.71 0 4.42 0 0 Z " transform="translate(453,73)" style="fill: #161617;"/><path d="M0 0 C0.99 0 1.98 0 3 0 C3 4.29 3 8.58 3 13 C2.01 13 1.02 13 0 13 C0 8.71 0 4.42 0 0 Z " transform="translate(476,73)" style="fill: #111112;"/><path d="M0 0 C1.47906892 -0.02689216 2.95827483 -0.04634621 4.4375 -0.0625 C5.26121094 -0.07410156 6.08492187 -0.08570312 6.93359375 -0.09765625 C9 0 9 0 10 1 C10.04080783 2.99958364 10.04254356 5.00045254 10 7 C9.34 7 8.68 7 8 7 C8 5.68 8 4.36 8 3 C5.36 3 2.72 3 0 3 C0 2.01 0 1.02 0 0 Z " transform="translate(566,68)" style="fill: #3F3E41;"/><path d="M0 0 C2.12472576 -0.05386629 4.24983652 -0.09273071 6.375 -0.125 C7.55835938 -0.14820312 8.74171875 -0.17140625 9.9609375 -0.1953125 C13 0 13 0 15 2 C10.05 2.33 5.1 2.66 0 3 C0 2.01 0 1.02 0 0 Z " transform="translate(941,87)" style="fill: #141414;"/><path d="M0 0 C0.66 0.33 1.32 0.66 2 1 C1.74438677 3.3431213 1.40729228 5.67843403 1 8 C-1.95664519 9.4783226 -4.74229737 9.06032783 -8 9 C-8 8.34 -8 7.68 -8 7 C-5.69 6.34 -3.38 5.68 -1 5 C-0.67 3.35 -0.34 1.7 0 0 Z " transform="translate(559,78)" style="fill: #212123;"/><path d="M0 0 C0.33 0 0.66 0 1 0 C1.10957031 0.56589844 1.21914063 1.13179688 1.33203125 1.71484375 C1.49058594 2.44832031 1.64914062 3.18179688 1.8125 3.9375 C1.96332031 4.66839844 2.11414063 5.39929688 2.26953125 6.15234375 C2.51058594 6.76207031 2.75164063 7.37179688 3 8 C3.99 8.33 4.98 8.66 6 9 C6 10.32 6 11.64 6 13 C4.68 13 3.36 13 2 13 C0.21590198 9.93753253 -0.22880021 7.77920727 -0.125 4.25 C-0.10695313 3.45078125 -0.08890625 2.6515625 -0.0703125 1.828125 C-0.04710937 1.22484375 -0.02390625 0.6215625 0 0 Z " transform="translate(617,74)" style="fill: #959498;"/><path d="M0 0 C2.475 0.99 2.475 0.99 5 2 C5 5.96 5 9.92 5 14 C4.34 14 3.68 14 3 14 C2.92652344 12.98679687 2.92652344 12.98679687 2.8515625 11.953125 C2.77679687 11.06109375 2.70203125 10.1690625 2.625 9.25 C2.55539062 8.36828125 2.48578125 7.4865625 2.4140625 6.578125 C2.00149945 4.00933618 1.28839043 2.24158985 0 0 Z " transform="translate(612,69)" style="fill: #222224;"/><path d="M0 0 C0 4.29 0 8.58 0 13 C-0.99 13 -1.98 13 -3 13 C-2.85966889 11.02043559 -2.7125877 9.04134859 -2.5625 7.0625 C-2.48128906 5.96035156 -2.40007812 4.85820313 -2.31640625 3.72265625 C-1.88378766 0 -1.88378766 0 0 0 Z " transform="translate(419,73)" style="fill: #161618;"/><path d="M0 0 C-0.33 0.66 -0.66 1.32 -1 2 C-5.95 1.67 -10.9 1.34 -16 1 C-16 0.67 -16 0.34 -16 0 C-10.59212746 -2.29834583 -5.40767829 -2.70383914 0 0 Z " transform="translate(1026,67)" style="fill: #CBCBCD;"/><path d="M0 0 C0 3.3 0 6.6 0 10 C-0.99 10 -1.98 10 -3 10 C-3.02689216 8.52093108 -3.04634621 7.04172517 -3.0625 5.5625 C-3.07410156 4.73878906 -3.08570313 3.91507812 -3.09765625 3.06640625 C-2.96728503 0.30775114 -2.7740301 0 0 0 Z " transform="translate(445,76)" style="fill: #F7F7F9;"/><path d="M0 0 C0.66 0 1.32 0 2 0 C3.32229189 2.64458379 3.09677194 4.67761301 3.0625 7.625 C3.05347656 8.62789062 3.04445313 9.63078125 3.03515625 10.6640625 C3.02355469 11.43492188 3.01195312 12.20578125 3 13 C2.67 11.68 2.34 10.36 2 9 C1.34 9 0.68 9 0 9 C0 6.03 0 3.06 0 0 Z " transform="translate(435,73)" style="fill: #AFAFB0;"/><path d="M0 0 C1.01136941 2.73069741 1.04557718 3.86001293 0.125 6.6875 C-1 9 -1 9 -2 10 C-4.33297433 10.04092937 -6.66705225 10.04241723 -9 10 C-9 9.34 -9 8.68 -9 8 C-7.6078125 7.9690625 -7.6078125 7.9690625 -6.1875 7.9375 C-2.99303786 7.37155641 -2.99303786 7.37155641 -1.93359375 5.375 C-1.20025229 3.61781467 -0.59224075 1.80962451 0 0 Z " transform="translate(92,49)" style="fill: #F9F9FB;"/><path d="M0 0 C0.99 0.33 1.98 0.66 3 1 C3 4.3 3 7.6 3 11 C2.01 11.33 1.02 11.66 0 12 C0 8.04 0 4.08 0 0 Z " transform="translate(419,74)" style="fill: #B2B2B3;"/><path d="M0 0 C-0.33 3.3 -0.66 6.6 -1 10 C-1.33 10 -1.66 10 -2 10 C-2.33 7.69 -2.66 5.38 -3 3 C-5.31 2.67 -7.62 2.34 -10 2 C-6.3558226 -0.4294516 -4.28758728 -0.16179575 0 0 Z " transform="translate(418,71)" style="fill: #333334;"/><path d="M0 0 C1.32 0.33 2.64 0.66 4 1 C4 4.96 4 8.92 4 13 C1 10 1 10 0.92578125 7.73828125 C1.05339844 6.93777344 1.18101562 6.13726562 1.3125 5.3125 C1.43238281 4.50425781 1.55226563 3.69601563 1.67578125 2.86328125 C1.78277344 2.24839844 1.88976562 1.63351563 2 1 C1.34 0.67 0.68 0.34 0 0 Z " transform="translate(412,73)" style="fill: #B5B5B6;"/><path d="M0 0 C2.0625 0.4375 2.0625 0.4375 4 1 C3.67 2.32 3.34 3.64 3 5 C3 4.34 3 3.68 3 3 C2.01 3.495 2.01 3.495 1 4 C0.53348793 6.12576782 0.53348793 6.12576782 0.375 8.5625 C0.30023438 9.38878906 0.22546875 10.21507813 0.1484375 11.06640625 C0.09945313 11.70449219 0.05046875 12.34257813 0 13 C-0.33 13 -0.66 13 -1 13 C-1.02686553 11.02090602 -1.04633375 9.04171029 -1.0625 7.0625 C-1.07410156 5.96035156 -1.08570313 4.85820313 -1.09765625 3.72265625 C-1 1 -1 1 0 0 Z " transform="translate(442,73)" style="fill: #B8B8B9;"/><path d="M0 0 C-0.33 1.65 -0.66 3.3 -1 5 C-1.66 5 -2.32 5 -3 5 C-3 7.64 -3 10.28 -3 13 C-3.33 13 -3.66 13 -4 13 C-4.02686553 11.02090602 -4.04633375 9.04171029 -4.0625 7.0625 C-4.07410156 5.96035156 -4.08570313 4.85820313 -4.09765625 3.72265625 C-3.96034102 -0.10569224 -3.86997119 0 0 0 Z " transform="translate(407,73)" style="fill: #D1D1D2;"/><path d="M0 0 C2.97 0.495 2.97 0.495 6 1 C6 2.32 6 3.64 6 5 C4.02 5 2.04 5 0 5 C0 3.35 0 1.7 0 0 Z " transform="translate(1018,72)" style="fill: #20201F;"/><path d="M0 0 C2.31 0.33 4.62 0.66 7 1 C6.01 1.66 5.02 2.32 4 3 C3.01 2.67 2.02 2.34 1 2 C1 6.29 1 10.58 1 15 C0.67 15 0.34 15 0 15 C0 10.05 0 5.1 0 0 Z " transform="translate(479,71)" style="fill: #565657;"/><path d="M0 0 C0 3.96 0 7.92 0 12 C-0.33 10.68 -0.66 9.36 -1 8 C-1.66 8 -2.32 8 -3 8 C-3.125 5.125 -3.125 5.125 -3 2 C-1 0 -1 0 0 0 Z " transform="translate(1159,96)" style="fill: #C2C2C4;"/><path d="M0 0 C1.98 0 3.96 0 6 0 C6 3.96 6 7.92 6 12 C5.67 12 5.34 12 5 12 C5 8.7 5 5.4 5 2 C3.35 2.66 1.7 3.32 0 4 C0 2.68 0 1.36 0 0 Z " transform="translate(608,71)" style="fill: #C9C9CB;"/><path d="M0 0 C1.32 0.33 2.64 0.66 4 1 C4 2.65 4 4.3 4 6 C2.68 6 1.36 6 0 6 C0 4.02 0 2.04 0 0 Z " transform="translate(457,73)" style="fill: #DADADB;"/><path d="M0 0 C0.66 0.33 1.32 0.66 2 1 C1.125 5.875 1.125 5.875 0 7 C-1.99958364 7.04080783 -4.00045254 7.04254356 -6 7 C-6.33 7.66 -6.66 8.32 -7 9 C-7 8.01 -7 7.02 -7 6 C-6.21625 5.896875 -5.4325 5.79375 -4.625 5.6875 C-1.66954819 5.22404978 -1.66954819 5.22404978 0 2 C0 1.34 0 0.68 0 0 Z " transform="translate(557,78)" style="fill: #AAAAAC;"/><path d="M0 0 C0 2.64 0 5.28 0 8 C-0.66 8 -1.32 8 -2 8 C-2.33 7.01 -2.66 6.02 -3 5 C-3.99 4.34 -4.98 3.68 -6 3 C-1.125 0 -1.125 0 0 0 Z " transform="translate(464,77)" style="fill: #09090A;"/><path d="M0 0 C0.33 0 0.66 0 1 0 C1.33 3.96 1.66 7.92 2 12 C0.68 12.33 -0.64 12.66 -2 13 C-1.34 8.71 -0.68 4.42 0 0 Z " transform="translate(614,73)" style="fill: #39383B;"/><path d="M0 0 C3.36241563 0.45438049 6.04009971 1.35561095 9 3 C6.36 3.33 3.72 3.66 1 4 C0.34 3.01 -0.32 2.02 -1 1 C-0.67 0.67 -0.34 0.34 0 0 Z " transform="translate(475,68)" style="fill: #DBDBDD;"/><path d="M0 0 C0.99 0 1.98 0 3 0 C3 1.98 3 3.96 3 6 C2.01 6.33 1.02 6.66 0 7 C0 4.69 0 2.38 0 0 Z " transform="translate(427,73)" style="fill: #E5E5E6;"/><path d="M0 0 C0.33 0 0.66 0 1 0 C1.08082094 1.95766281 1.13910778 3.91626728 1.1875 5.875 C1.23970703 7.51082031 1.23970703 7.51082031 1.29296875 9.1796875 C1.19628906 10.11039063 1.09960938 11.04109375 1 12 C-0.485 12.99 -0.485 12.99 -2 14 C-1.34 9.38 -0.68 4.76 0 0 Z " transform="translate(1158,84)" style="fill: #D6D6D8;"/><path d="M0 0 C2.3431213 0.25561323 4.67843403 0.59270772 7 1 C7.33 1.66 7.66 2.32 8 3 C5.36 3 2.72 3 0 3 C0 2.01 0 1.02 0 0 Z " transform="translate(565,84)" style="fill: #3D3D3F;"/><path d="M0 0 C0.66 0 1.32 0 2 0 C2 2.31 2 4.62 2 7 C1.34 7 0.68 7 0 7 C0 6.01 0 5.02 0 4 C-0.66 3.67 -1.32 3.34 -2 3 C-1.34 2.01 -0.68 1.02 0 0 Z " transform="translate(491,64)" style="fill: #DADADC;"/><path d="M0 0 C2.31 0 4.62 0 7 0 C7 0.66 7 1.32 7 2 C3.25 3.125 3.25 3.125 1 2 C0.67 2.66 0.34 3.32 0 4 C0 2.68 0 1.36 0 0 Z " transform="translate(1159,61)" style="fill: #393939;"/><path d="M0 0 C2.475 0.99 2.475 0.99 5 2 C5 2.33 5 2.66 5 3 C-1.0546875 3.9765625 -1.0546875 3.9765625 -3 4 C-3.66 3.34 -4.32 2.68 -5 2 C-2 1 -2 1 0 2 C0 1.34 0 0.68 0 0 Z " transform="translate(53,105)" style="fill: #CDCDD4;"/><path d="M0 0 C2 3 2 3 1.625 5.1875 C1.41875 5.785625 1.2125 6.38375 1 7 C0.01 7 -0.98 7 -2 7 C-1.34 4.69 -0.68 2.38 0 0 Z " transform="translate(629,80)" style="fill: #47464B;"/><path d="M0 0 C3.0625 0.1875 3.0625 0.1875 5.0625 2.1875 C1.6875 2.8125 1.6875 2.8125 -1.9375 3.1875 C-2.5975 2.5275 -3.2575 1.8675 -3.9375 1.1875 C-2.9375 0.1875 -2.9375 0.1875 0 0 Z " transform="translate(427.9375,70.8125)" style="fill: #3C3C3E;"/></svg>