<?xml version="1.0" encoding="UTF-8"?>
<!-- Generator: visioncortex VTracer -->
<svg id="svg" version="1.1" xmlns="http://www.w3.org/2000/svg" style="display: block;" viewBox="0 0 1254 199"><path d="M0 0 C16.63398751 0.10755058 33.26807483 0.19701448 49.90216553 0.28690886 C52.42863099 0.3005904 54.9550964 0.3142794 57.48156178 0.32797599 C59.34246151 0.33803607 59.34246151 0.33803607 61.24095517 0.34829938 C68.32057095 0.38694674 75.40015782 0.42873178 82.47973597 0.4737314 C152.37972904 0.91725813 222.28092976 0.66528579 292.18154569 0.50512994 C304.74648932 0.47639204 317.31143528 0.44874239 329.87638151 0.42116982 C352.37903819 0.37177952 374.88169365 0.32185246 397.38434803 0.27142692 C398.05152301 0.26993207 398.71869799 0.26843723 399.40609039 0.26689709 C414.26626552 0.23360059 429.12644046 0.2002219 443.98661527 0.1667855 C450.04367201 0.15315749 456.10072877 0.13953685 462.15778553 0.1259191 C462.82224243 0.12442505 463.48669933 0.12293099 464.17129128 0.12139166 C487.26747977 0.06946369 510.36366987 0.01829127 533.45986134 -0.03229403 C545.94486475 -0.0596683 558.42986711 -0.08741627 570.91486752 -0.11613107 C574.49959076 -0.12434521 578.08431402 -0.13255019 581.6690373 -0.14074737 C584.02588464 -0.1461439 586.38273193 -0.15155952 588.73957918 -0.15699452 C601.18855468 -0.18561174 613.63752589 -0.21192471 626.08652031 -0.23079324 C629.33190353 -0.23579979 632.57728672 -0.24081668 635.8226699 -0.24584693 C637.95388295 -0.24913055 640.0850961 -0.25235586 642.21630933 -0.2555216 C654.88230651 -0.2748792 667.54804048 -0.31132258 680.21389731 -0.37467924 C688.32199523 -0.41519804 696.43009119 -0.44676015 704.53825275 -0.47144589 C710.11830402 -0.48915716 715.69808874 -0.51939717 721.27802059 -0.55963039 C724.65582451 -0.58083973 728.03357267 -0.58955772 731.4114358 -0.59460437 C732.95847404 -0.59944988 734.50550648 -0.60946853 736.05247264 -0.62516844 C738.15695463 -0.64585749 740.26067904 -0.64787672 742.36524308 -0.64537454 C743.53397633 -0.65137658 744.70270957 -0.65737862 745.90685898 -0.66356254 C750.02283024 -0.21743593 752.60399493 0.7272537 756.24884999 2.69867301 C757.68634999 6.38617301 757.68634999 6.38617301 758.24884999 9.69867301 C759.20146718 9.65226676 760.15408436 9.60586051 761.13556874 9.55804801 C763.01695546 9.50390738 763.01695546 9.50390738 764.93634999 9.44867301 C766.17771718 9.40226676 767.41908436 9.35586051 768.69806874 9.30804801 C772.85092279 9.76490764 774.4075403 10.68340558 777.24884999 13.69867301 C779.10070983 18.85607355 778.43481115 24.71875855 778.43415272 30.11590934 C778.43633907 32.12613456 778.45451678 34.13581037 778.47345936 36.14593863 C778.47635975 38.05729606 778.47635975 38.05729606 778.47931874 40.00726676 C778.48342762 41.1705651 778.48753651 42.33386344 778.49176991 43.53241324 C778.16191057 47.83185629 777.31208337 50.63543963 774.24884999 53.69867301 C771.51450037 54.00505891 768.86605178 54.21000661 766.12384999 54.32367301 C765.36974843 54.36234488 764.61564686 54.40101676 763.83869374 54.44086051 C761.97581814 54.53518332 760.11236744 54.61801963 758.24884999 54.69867301 C757.95881093 55.81500113 757.66877186 56.93132926 757.36994374 58.08148551 C756.19290776 61.87916953 755.64211414 62.84780165 752.24884999 64.69867301 C749.46766655 65.62573416 747.82166335 65.82376743 744.95254374 65.82402217 C743.62640128 65.82777745 743.62640128 65.82777745 742.27346808 65.83160859 C741.29918862 65.82926743 740.32490916 65.82692626 739.32110608 65.82451415 C738.28379729 65.82596759 737.2464885 65.82742103 736.17774612 65.82891852 C732.66516798 65.83259799 729.15263272 65.82908255 725.64005482 65.82565665 C723.10784603 65.82680796 720.57563741 65.82839554 718.04342914 65.8303839 C712.51464012 65.83370241 706.98586443 65.83387954 701.45707524 65.83133674 C693.22516057 65.82756153 684.99325416 65.82948567 676.76133955 65.83254504 C662.00475185 65.8378334 647.24816846 65.83734214 632.49158034 65.83446613 C619.45336004 65.83193875 606.41514131 65.83129908 593.37692082 65.83248878 C592.07345618 65.83260335 592.07345618 65.83260335 590.74365893 65.83272025 C587.21296992 65.83303175 583.6822809 65.83335016 580.15159189 65.83368001 C546.88613057 65.83674992 513.62067193 65.83395798 480.35521102 65.82858311 C452.19203739 65.82406658 424.02886786 65.82395168 395.86569424 65.82859012 C221.18294912 65.85729352 221.18294912 65.85729352 -13.71544397 65.28476071 C-18.03688313 65.26372979 -22.35832452 65.24335612 -26.67976987 65.22363877 C-38.53388248 65.16952846 -50.38794379 65.11048762 -62.24197614 65.04087281 C-65.7127558 65.02055417 -69.18353633 65.00224555 -72.65433633 64.98577619 C-76.56751726 64.96700223 -80.48063852 64.94350906 -84.39376681 64.91589497 C-85.79900509 64.9067385 -87.20425544 64.89925989 -88.60951205 64.89357175 C-90.49425554 64.88565344 -92.37896766 64.87107038 -94.26366794 64.85605025 C-95.30809916 64.84976005 -96.35253039 64.84346986 -97.42861104 64.83698905 C-99.75115001 64.69867301 -99.75115001 64.69867301 -100.75115001 63.69867301 C-103.82861448 63.48949318 -106.88831974 63.34197949 -109.96990001 63.23382926 C-111.39793453 63.17770217 -111.39793453 63.17770217 -112.85481822 63.1204412 C-114.91135773 63.03965905 -116.96797234 62.96077193 -119.02464855 62.8835485 C-124.44185773 62.67808334 -129.85818889 62.45170215 -135.27458751 62.22601676 C-136.35457012 62.18118155 -137.43455272 62.13634635 -138.54726207 62.0901525 C-175.50795589 60.54392426 -211.86488011 56.59980825 -248.50115001 51.57367301 C-250.43049892 51.3098281 -250.43049892 51.3098281 -252.39882457 51.04065299 C-256.09508955 50.53311216 -259.7904524 50.01950387 -263.48552501 49.50336051 C-264.59031703 49.35137198 -265.69510906 49.19938346 -266.83337963 49.04278922 C-271.51624284 48.38139278 -276.18798714 47.68030785 -280.83025157 46.77338004 C-281.52008129 46.63884421 -282.209911 46.50430839 -282.92064464 46.36569571 C-285.15830994 45.55030693 -286.244023 44.52543237 -287.75115001 42.69867301 C-289.85164349 35.73773532 -290.14724515 25.29035664 -287.56365001 18.38617301 C-285.39409736 15.16925012 -284.40127993 14.83937239 -280.75115001 13.69867301 C-278.08366647 13.25650197 -275.46027047 12.88792611 -272.7775172 12.58539176 C-271.98789089 12.49077659 -271.19826458 12.39616141 -270.38471019 12.29867911 C-267.77324274 11.98763529 -265.16072284 11.68669294 -262.54802501 11.38617301 C-260.70928506 11.17009521 -258.87060185 10.95353398 -257.03197277 10.73651481 C-253.16558826 10.28168829 -249.29868443 9.83166255 -245.43132579 9.38519645 C-240.55102412 8.82157152 -235.67196138 8.2479956 -230.7932452 7.67082572 C-226.98386882 7.22106312 -223.17394923 6.776042 -219.36385906 6.33237052 C-217.57017255 6.12312325 -215.77662132 5.912712 -213.98322856 5.70096183 C-190.3366247 2.91733084 -166.69345562 1.27967652 -142.89568126 0.55023551 C-141.87663971 0.51842964 -141.87663971 0.51842964 -140.83701146 0.48598123 C-93.90993733 -0.96460848 -46.94034722 -0.30446968 0 0 Z " transform="translate(354.7511500120163,65.30132699012756)" style="fill: #E3E2E6;"/><path d="M0 0 C-0.0714624 0.65637451 -0.1429248 1.31274902 -0.21655273 1.98901367 C-1.31535155 13.74760052 -1.10945419 25.51459412 -1.0625 37.3125 C-1.05747483 39.51757711 -1.05291372 41.72265533 -1.04882812 43.92773438 C-1.03790343 49.28518078 -1.02124601 54.6425851 -1 60 C-40.11040502 60.24886699 -79.20913871 59.19681453 -118 54 C-120.35268267 53.68865734 -122.70538602 53.37747089 -125.05810547 53.06640625 C-137.9559124 51.35490876 -150.84881249 49.60612641 -163.734375 47.8046875 C-164.83905624 47.65269897 -165.94373749 47.50071045 -167.08189392 47.34411621 C-171.76487742 46.68277306 -176.43672776 45.98165621 -181.07910156 45.07470703 C-181.76893127 44.9401712 -182.45876099 44.80563538 -183.16949463 44.66702271 C-185.40715992 43.85163392 -186.49287299 42.82675936 -188 41 C-190.10049348 34.03906231 -190.39609514 23.59168363 -187.8125 16.6875 C-185.646383 13.47567135 -184.64399761 13.13534075 -181 12 C-178.40262236 11.58808108 -175.86215632 11.25733518 -173.25 11 C-172.46616943 10.91733887 -171.68233887 10.83467773 -170.87475586 10.74951172 C-164.44578364 10.09284569 -158.00631414 9.60874168 -151.5625 9.125 C-142.14471106 8.41729643 -132.77535058 7.4374063 -123.39859009 6.32479858 C-82.23138885 1.44118997 -41.44220819 -0.19014213 0 0 Z " transform="translate(255,67)" style="fill: #161616;"/><path d="M0 0 C-0.33 4.29 -0.66 8.58 -1 13 C-1.99 11.02 -1.99 11.02 -3 9 C-3.33 9.66 -3.66 10.32 -4 11 C-20.83 11 -37.66 11 -55 11 C-55 10.34 -55 9.68 -55 9 C-53.68 8.67 -52.36 8.34 -51 8 C-60.12598134 7.81222651 -68.99883607 8.32822482 -78.0625 9.375 C-79.25810547 9.50132813 -80.45371094 9.62765625 -81.68554688 9.7578125 C-83.40547852 9.95117188 -83.40547852 9.95117188 -85.16015625 10.1484375 C-86.18761963 10.26364746 -87.21508301 10.37885742 -88.27368164 10.49755859 C-90.98074739 10.86440231 -90.98074739 10.86440231 -93.14233398 12.08056641 C-95.75888928 13.37560481 -97.8524272 12.67419685 -100.6484375 12.234375 C-105.75891304 11.72502528 -111.54358628 11.91957802 -116.27856445 14.00219727 C-119.36864769 15.1351631 -121.87050115 15.31704236 -125.15625 15.4140625 C-126.93902344 15.47207031 -126.93902344 15.47207031 -128.7578125 15.53125 C-130.61019531 15.57765625 -130.61019531 15.57765625 -132.5 15.625 C-133.70398438 15.66367188 -134.90796875 15.70234375 -136.1484375 15.7421875 C-144.10038234 15.98160089 -152.04484859 16.04493496 -160 16 C-160 16.66 -160 17.32 -160 18 C-160.7520874 17.99476318 -161.5041748 17.98952637 -162.27905273 17.98413086 C-165.66519342 17.96342773 -169.05132084 17.95036123 -172.4375 17.9375 C-173.62150391 17.92912109 -174.80550781 17.92074219 -176.02539062 17.91210938 C-177.15009766 17.90888672 -178.27480469 17.90566406 -179.43359375 17.90234375 C-180.47572021 17.89710693 -181.51784668 17.89187012 -182.59155273 17.88647461 C-184.95128747 17.72694444 -184.95128747 17.72694444 -186 19 C-186.08713831 20.70772358 -186.10700007 22.41898649 -186.09765625 24.12890625 C-186.09443359 25.16337891 -186.09121094 26.19785156 -186.08789062 27.26367188 C-186.07951172 28.35228516 -186.07113281 29.44089844 -186.0625 30.5625 C-186.05798828 31.65498047 -186.05347656 32.74746094 -186.04882812 33.87304688 C-186.03699826 36.58208495 -186.02051543 39.29101599 -186 42 C-186.66 41.67 -187.32 41.34 -188 41 C-190.03711225 33.97457443 -190.4147505 23.64153665 -187.8125 16.6875 C-185.646383 13.47567135 -184.64399761 13.13534075 -181 12 C-178.40262236 11.58808108 -175.86215632 11.25733518 -173.25 11 C-172.46616943 10.91733887 -171.68233887 10.83467773 -170.87475586 10.74951172 C-164.44578364 10.09284569 -158.00631414 9.60874168 -151.5625 9.125 C-142.14471106 8.41729643 -132.77535058 7.4374063 -123.39859009 6.32479858 C-82.23138885 1.44118997 -41.44220819 -0.19014213 0 0 Z " transform="translate(255,67)" style="fill: #3E3E3E;"/><path d="M0 0 C24.67608214 -0.20393456 49.33246948 0.41729023 74 1 C74 6.94 74 12.88 74 19 C67.85179738 19.14570302 61.70352622 19.28792013 55.55517578 19.42724609 C53.47442582 19.47484808 51.39369543 19.52331596 49.31298828 19.57275391 C38.15983483 19.83714893 27.00802857 20.05204665 15.8515625 20.09375 C14.94683197 20.1002356 14.04210144 20.10672119 13.10995483 20.11340332 C11.83857162 20.11430969 11.83857162 20.11430969 10.54150391 20.11523438 C9.8063858 20.11728882 9.0712677 20.11934326 8.31387329 20.12145996 C5.52132819 19.97487353 2.75834187 19.45972365 0 19 C0 12.73 0 6.46 0 0 Z " transform="translate(930,82)" style="fill: #060606;"/><path d="M0 0 C15 0 15 0 19 4 C19 4.99 19 5.98 19 7 C19.66 7 20.32 7 21 7 C21.04962653 11.03845412 21.08582632 15.07678887 21.10986328 19.11547852 C21.11988926 20.48790583 21.13351356 21.86031195 21.15087891 23.23266602 C21.17527627 25.21100527 21.18544484 27.18950367 21.1953125 29.16796875 C21.20578613 30.35672607 21.21625977 31.5454834 21.22705078 32.77026367 C20.98728136 36.18091918 20.51401237 39.48598763 18 42 C12.06 42 6.12 42 0 42 C0 28.14 0 14.28 0 0 Z " transform="translate(1112,76)" style="fill: #0F0F10;"/><path d="M0 0 C13.02705023 -0.04692246 26.05409203 -0.0843867 39.08120124 -0.11046952 C45.95156287 -0.12454631 52.82182717 -0.14351612 59.69212751 -0.1762678 C65.90802844 -0.20547824 72.12380346 -0.2212132 78.33977012 -0.22563189 C80.57298953 -0.22968779 82.8062065 -0.23888638 85.03938083 -0.25364321 C88.04043503 -0.27279477 91.04093915 -0.2737136 94.04203825 -0.2697584 C94.91117766 -0.27976012 95.78031708 -0.28976185 96.67579405 -0.30006665 C97.86632173 -0.29279467 97.86632173 -0.29279467 99.08090048 -0.28537577 C99.76236509 -0.28749174 100.4438297 -0.28960771 101.14594476 -0.2917878 C103.69031978 0.19539681 105.12559409 1.42799495 107.08113126 3.07875234 C60.79753865 3.1091787 14.51394473 3.12940583 -31.76965649 3.14060909 C-34.41064751 3.14125034 -37.05163852 3.1419092 -39.69262953 3.14256841 C-129.8109319 3.16470524 -219.92691758 3.1362035 -310.04386874 2.57875234 C-311.0132173 2.57277862 -311.98256586 2.56680491 -312.98128863 2.56065017 C-336.29393839 2.41667421 -359.60647044 2.25909247 -382.91886874 2.07875234 C-382.91886874 1.74875234 -382.91886874 1.41875234 -382.91886874 1.07875234 C-339.20174637 0.9491774 -295.48461844 0.82163838 -251.76748294 0.69657007 C-246.52220916 0.68156249 -241.27693542 0.66653923 -236.0316617 0.65150625 C-234.9880915 0.64851563 -233.9445213 0.64552502 -232.86932775 0.64244378 C-218.3396454 0.60077305 -203.80996571 0.55826502 -189.28028785 0.51505715 C-145.69154181 0.38548737 -102.10279956 0.26312217 -58.51397008 0.16492409 C-39.00926546 0.12090376 -19.50462885 0.07035539 0 0 Z " transform="translate(654.9188687354326,127.92124766111374)" style="fill: #E5E5E5;"/><path d="M0 0 C4.34622924 0.00261792 8.6924569 0.00016001 13.03868628 -0.00138617 C20.34810793 -0.00318565 27.65751936 -0.00086545 34.96693945 0.00395441 C42.32729779 0.00875401 49.68763583 0.00880428 57.04799414 0.00395441 C94.71804313 -0.02034704 132.37787591 -0.02412779 170.04021215 0.82887506 C184.01976129 1.13780196 197.89200833 1.08291031 211.85561132 0.2905755 C216.37017929 0.08392861 220.49954276 0.26456208 224.94154882 1.1343255 C225.27154882 1.7943255 225.60154882 2.4543255 225.94154882 3.1343255 C199.2542246 3.34860302 172.56672302 3.53204332 145.87904882 3.6968255 C144.85015083 3.70320835 143.82125283 3.70959119 142.76117611 3.71616745 C62.37339837 4.2126531 -18.00592572 4.07662846 -98.39342612 3.70650548 C-100.50283275 3.69679382 -102.61223952 3.68711407 -104.72164631 3.67743778 C-140.50066816 3.51309749 -176.27960013 3.33249621 -212.05845118 3.1343255 C-212.05845118 2.8043255 -212.05845118 2.4743255 -212.05845118 2.1343255 C-211.36495947 2.13009356 -210.67146776 2.12586163 -209.95696115 2.12150145 C-192.89505641 2.01711331 -175.83318541 1.90834002 -158.77133799 1.79498625 C-150.51956053 1.74026417 -142.26777892 1.68689961 -134.01597071 1.63701105 C-126.80372098 1.59340367 -119.59149531 1.54696442 -112.37928367 1.49744695 C-108.57865062 1.47144303 -104.77802042 1.44663645 -100.97735834 1.42525148 C-85.06334508 1.3348209 -69.16615857 1.11303096 -53.25913477 0.62285089 C-35.50420425 0.07918835 -17.76226155 -0.01417895 0 0 Z " transform="translate(852.0584511756897,126.86567449569702)" style="fill: #D5D5D6;"/><path d="M0 0 C0 0.66 0 1.32 0 2 C-3.63 2.33 -7.26 2.66 -11 3 C-11 3.33 -11 3.66 -11 4 C-6.25499997 4.10661854 -6.25499997 4.10661854 -1.56567383 3.50219727 C0.9868077 3.00258222 3.26682611 2.88559243 5.86328125 2.90234375 C7.19262695 2.90717773 7.19262695 2.90717773 8.54882812 2.91210938 C9.9168457 2.92467773 9.9168457 2.92467773 11.3125 2.9375 C12.24384766 2.94201172 13.17519531 2.94652344 14.13476562 2.95117188 C16.42324373 2.96290766 18.71158808 2.97932637 21 3 C21 3.33 21 3.66 21 4 C20.20303711 4.08040527 19.40607422 4.16081055 18.58496094 4.24365234 C14.9724297 4.612697 11.36125841 4.99370977 7.75 5.375 C5.86861328 5.56449219 5.86861328 5.56449219 3.94921875 5.7578125 C2.74394531 5.88671875 1.53867188 6.015625 0.296875 6.1484375 C-0.81333008 6.26364746 -1.92353516 6.37885742 -3.06738281 6.49755859 C-5.818202 6.96885279 -7.54727037 7.76708759 -10 9 C-11.88586239 8.76840286 -13.7714875 8.52962556 -15.6484375 8.234375 C-20.75891304 7.72502528 -26.54358628 7.91957802 -31.27856445 10.00219727 C-34.36864769 11.1351631 -36.87050115 11.31704236 -40.15625 11.4140625 C-41.93902344 11.47207031 -41.93902344 11.47207031 -43.7578125 11.53125 C-45.61019531 11.57765625 -45.61019531 11.57765625 -47.5 11.625 C-48.70398438 11.66367188 -49.90796875 11.70234375 -51.1484375 11.7421875 C-59.10038234 11.98160089 -67.04484859 12.04493496 -75 12 C-75 12.66 -75 13.32 -75 14 C-75.7520874 13.99476318 -76.5041748 13.98952637 -77.27905273 13.98413086 C-80.66519342 13.96342773 -84.05132084 13.95036123 -87.4375 13.9375 C-88.62150391 13.92912109 -89.80550781 13.92074219 -91.02539062 13.91210938 C-92.15009766 13.90888672 -93.27480469 13.90566406 -94.43359375 13.90234375 C-95.47572021 13.89710693 -96.51784668 13.89187012 -97.59155273 13.88647461 C-99.95128747 13.72694444 -99.95128747 13.72694444 -101 15 C-101.08713831 16.70772358 -101.10700007 18.41898649 -101.09765625 20.12890625 C-101.09443359 21.16337891 -101.09121094 22.19785156 -101.08789062 23.26367188 C-101.07951172 24.35228516 -101.07113281 25.44089844 -101.0625 26.5625 C-101.05798828 27.65498047 -101.05347656 28.74746094 -101.04882812 29.87304688 C-101.03699826 32.58208495 -101.02051543 35.29101599 -101 38 C-101.66 37.67 -102.32 37.34 -103 37 C-105.03711225 29.97457443 -105.4147505 19.64153665 -102.8125 12.6875 C-100.646383 9.47567135 -99.64399761 9.13534075 -96 8 C-93.40264665 7.58808493 -90.86214984 7.25721516 -88.25 7 C-87.47052002 6.91806396 -86.69104004 6.83612793 -85.88793945 6.75170898 C-78.28243889 5.97687595 -70.66085452 5.40342941 -63.03857422 4.82250977 C-54.63451194 4.16790289 -46.25694435 3.32918472 -37.875 2.4375 C-25.25895546 1.10142154 -12.70421936 -0.22288104 0 0 Z " transform="translate(170,71)" style="fill: #393939;"/><path d="M0 0 C137.28 0 274.56 0 416 0 C416 0.33 416 0.66 416 1 C406.82598642 1.15921863 397.65189733 1.31350845 388.4777298 1.46356201 C386.99696995 1.48778214 385.51621128 1.51207371 384.0354538 1.53643799 C364.83472229 1.85173508 345.63849209 2.13862323 326.43457031 1.96289062 C325.16967773 1.95451172 323.90478516 1.94613281 322.6015625 1.9375 C321.02882568 1.92009766 321.02882568 1.92009766 319.42431641 1.90234375 C316.74881672 1.9786449 314.24062553 2.19536142 311.59259033 2.51353455 C305.40962575 3.14162409 299.30047015 3.02203962 293.09423828 2.88110352 C291.09725757 2.84489581 289.10027617 2.80871934 287.10327911 2.77342463 C284.92199916 2.73435966 282.74076963 2.69303659 280.55953598 2.65147209 C244.9758882 1.98462453 209.39365086 1.89642645 173.8046875 1.90234375 C172.53258203 1.90247483 171.26047655 1.90260591 169.94982243 1.90274096 C154.26520511 1.90467597 138.58059898 1.91449787 122.89598775 1.92797434 C113.42512507 1.93595821 103.95426374 1.94140096 94.48339844 1.94506836 C93.46860579 1.94546244 93.46860579 1.94546244 92.43331228 1.94586449 C89.03605064 1.94717045 85.63878898 1.94843394 82.24152732 1.94967639 C54.49434621 1.95987813 26.7471736 1.97741745 -1 2 C-0.67 1.34 -0.34 0.68 0 0 Z " transform="translate(552,66)" style="fill: #FAFAFB;"/><path d="M0 0 C15 0 15 0 19 4 C19 4.99 19 5.98 19 7 C19.66 7 20.32 7 21 7 C21.04962653 11.03845412 21.08582632 15.07678887 21.10986328 19.11547852 C21.11988926 20.48790583 21.13351356 21.86031195 21.15087891 23.23266602 C21.17527627 25.21100527 21.18544484 27.18950367 21.1953125 29.16796875 C21.20578613 30.35672607 21.21625977 31.5454834 21.22705078 32.77026367 C21.00370033 35.94736386 20.36116639 38.14343455 19 41 C17.72138385 38.44276771 17.88663391 36.63262898 17.90234375 33.7734375 C17.90556641 32.7421875 17.90878906 31.7109375 17.91210938 30.6484375 C17.92048828 29.56820312 17.92886719 28.48796875 17.9375 27.375 C17.94201172 26.28703125 17.94652344 25.1990625 17.95117188 24.078125 C17.9629821 21.38539338 17.98091795 18.69268991 18 16 C12.39 15.67 6.78 15.34 1 15 C1 22.59 1 30.18 1 38 C0.67 38 0.34 38 0 38 C0 25.46 0 12.92 0 0 Z " transform="translate(1112,76)" style="fill: #6A6A6A;"/><path d="M0 0 C1.21519569 -0.00021904 1.21519569 -0.00021904 2.4549408 -0.0004425 C5.12786554 0.00025315 7.80072027 0.00802934 10.47363281 0.01586914 C12.328796 0.01773455 14.18395968 0.01915787 16.03912354 0.02015686 C20.91845056 0.02397234 25.79774774 0.03379437 30.67706299 0.04486084 C35.65742591 0.05509578 40.63779365 0.05965895 45.61816406 0.06469727 C55.38770841 0.07541749 65.15723063 0.0924823 74.92675781 0.11352539 C74.92675781 0.77352539 74.92675781 1.43352539 74.92675781 2.11352539 C74.00338623 2.13334473 73.08001465 2.15316406 72.12866211 2.17358398 C68.70114607 2.25170278 65.27406983 2.33839536 61.84692383 2.4309082 C60.36393569 2.46917886 58.88085533 2.50403517 57.39770508 2.53540039 C55.26512709 2.58109339 53.13318291 2.63907877 51.00097656 2.69946289 C49.71795654 2.73088379 48.43493652 2.76230469 47.11303711 2.79467773 C43.77288322 2.87731767 43.77288322 2.87731767 40.92675781 5.11352539 C38.90904236 5.39872742 38.90904236 5.39872742 36.57885742 5.44824219 C35.70462631 5.47133957 34.8303952 5.49443695 33.92967224 5.51823425 C32.98898392 5.53292252 32.04829559 5.54761078 31.07910156 5.56274414 C30.11146378 5.58448196 29.14382599 5.60621979 28.14686584 5.62861633 C26.10182877 5.67252523 24.05668602 5.71172686 22.01147461 5.74658203 C18.87286685 5.80087646 15.73491288 5.87104463 12.59667969 5.94360352 C10.61167265 5.98425564 8.62664676 6.0240001 6.64160156 6.06274414 C5.22753273 6.09388557 5.22753273 6.09388557 3.78489685 6.12565613 C2.9138179 6.13929703 2.04273895 6.15293793 1.14526367 6.16699219 C-0.00698448 6.18792183 -0.00698448 6.18792183 -1.18251038 6.20927429 C-3.07324219 6.11352539 -3.07324219 6.11352539 -5.07324219 5.11352539 C-7.24999002 4.95883172 -9.43107699 4.86350433 -11.61230469 4.79711914 C-12.91425781 4.75522461 -14.21621094 4.71333008 -15.55761719 4.67016602 C-16.93782264 4.6303524 -18.31803102 4.59064017 -19.69824219 4.55102539 C-21.08627633 4.50783132 -22.47429746 4.46421674 -23.86230469 4.42016602 C-27.26584475 4.31380539 -30.66945997 4.21177825 -34.07324219 4.11352539 C-31.6541646 1.6944478 -30.96134132 1.83827914 -27.64355469 1.73461914 C-26.76570312 1.70045898 -25.88785156 1.66629883 -24.98339844 1.63110352 C-24.06429687 1.60467773 -23.14519531 1.57825195 -22.19824219 1.55102539 C-20.38822174 1.49086205 -18.57831385 1.42718702 -16.76855469 1.35961914 C-15.96434082 1.33569092 -15.16012695 1.3117627 -14.33154297 1.28710938 C-12.14947962 1.20270821 -12.14947962 1.20270821 -10.43667603 0.60977173 C-6.97128017 -0.11785177 -3.52431369 -0.01663434 0 0 Z " transform="translate(178.0732421875,81.886474609375)" style="fill: #393938;"/><path d="M0 0 C5.94 0 11.88 0 18 0 C18 6.27 18 12.54 18 19 C12.06 19 6.12 19 0 19 C0 12.73 0 6.46 0 0 Z " transform="translate(1031,83)" style="fill: #131314;"/><path d="M0 0 C2.54656011 1.88634082 3.7175023 4.13904359 5 7 C5.66 6.01 6.32 5.02 7 4 C7.66 4 8.32 4 9 4 C9.33 4.66 9.66 5.32 10 6 C11.98 5.34 13.96 4.68 16 4 C16 3.34 16 2.68 16 2 C13.69 2 11.38 2 9 2 C9 1.34 9 0.68 9 0 C12.3 0 15.6 0 19 0 C18.08780899 3.64876405 16.90129161 6.79695313 15.4375 10.25 C14.98246094 11.32765625 14.52742187 12.4053125 14.05859375 13.515625 C13.70925781 14.33546875 13.35992188 15.1553125 13 16 C12.01 16 11.02 16 10 16 C10 15.01 10 14.02 10 13 C9.34 13 8.68 13 8 13 C7.67 13.99 7.34 14.98 7 16 C3.9375 17.1875 3.9375 17.1875 1 18 C1 17.67 1 17.34 1 17 C-0.11375 16.7525 -1.2275 16.505 -2.375 16.25 C-6 15 -6 15 -7.4375 13.375 C-8.42033112 9.22526861 -9.07370904 4.80835207 -6.8125 1 C-4.33474158 -0.36703913 -2.78844081 -0.41826612 0 0 Z " transform="translate(671,82)" style="fill: #DBDADF;"/><path d="M0 0 C2.64 0 5.28 0 8 0 C8 0.99 8 1.98 8 3 C6.35 3 4.7 3 3 3 C3 3.66 3 4.32 3 5 C4.31571603 4.7452486 5.62760376 4.47065859 6.9375 4.1875 C7.66839844 4.03667969 8.39929688 3.88585937 9.15234375 3.73046875 C9.76207031 3.48941406 10.37179687 3.24835938 11 3 C11.33 2.01 11.66 1.02 12 0 C17.625 -0.25 17.625 -0.25 21 2 C21 3.32 21 4.64 21 6 C20.34 6 19.68 6 19 6 C19.99 7.485 19.99 7.485 21 9 C21.3125 12.0625 21.3125 12.0625 21 15 C18 17 18 17 16.0546875 16.72265625 C15.33539062 16.50480469 14.61609375 16.28695312 13.875 16.0625 C8.92218783 14.78566665 5.02779901 15.20193666 0 16 C-0.33 15.01 -0.66 14.02 -1 13 C1.31 13 3.62 13 6 13 C6 11.35 6 9.7 6 8 C4.02 8 2.04 8 0 8 C0 5.36 0 2.72 0 0 Z " transform="translate(620,82)" style="fill: #E0E0E2;"/><path d="M0 0 C-0.33 0.66 -0.66 1.32 -1 2 C-0.34 2.66 0.32 3.32 1 4 C-4.61 4 -10.22 4 -16 4 C-16 4.66 -16 5.32 -16 6 C-21.0897124 6.45293353 -26.1800065 6.8983248 -31.27099609 7.33666992 C-33.00360006 7.48692856 -34.73602518 7.63926434 -36.46826172 7.79370117 C-38.95496483 8.01504195 -41.44221078 8.22895938 -43.9296875 8.44140625 C-44.70682098 8.51218887 -45.48395447 8.5829715 -46.28463745 8.65589905 C-51.77225659 9.11387171 -51.77225659 9.11387171 -54 8 C-54 16.58 -54 25.16 -54 34 C-54.66 33.67 -55.32 33.34 -56 33 C-58.03711225 25.97457443 -58.4147505 15.64153665 -55.8125 8.6875 C-53.646383 5.47567135 -52.64399761 5.13534075 -49 4 C-46.4027561 3.58810229 -43.86208335 3.25699341 -41.25 3 C-40.1057959 2.88035889 -40.1057959 2.88035889 -38.93847656 2.75830078 C-31.88366167 2.04277685 -24.81725725 1.45242399 -17.75 0.875 C-16.14366699 0.74351563 -16.14366699 0.74351563 -14.50488281 0.609375 C-9.65868845 0.22867934 -4.86578511 -0.11744999 0 0 Z " transform="translate(123,75)" style="fill: #747474;"/><path d="M0 0 C15.84 0 31.68 0 48 0 C48 6.6 48 13.2 48 20 C32.82 20 17.64 20 2 20 C2.33 21.32 2.66 22.64 3 24 C0.67806299 26.32193701 -4.74190296 25.52499497 -7.875 25.6875 C-8.79925781 25.74744141 -9.72351563 25.80738281 -10.67578125 25.86914062 C-11.56394531 25.91619141 -12.45210937 25.96324219 -13.3671875 26.01171875 C-14.18300293 26.05772217 -14.99881836 26.10372559 -15.83935547 26.15112305 C-18 26 -18 26 -21 24 C-21 22.68 -21 21.36 -21 20 C-5.52827713 19.15297999 9.88201805 18.87202974 25.375 18.9375 C27.49088433 18.9425355 29.60676985 18.94709471 31.72265625 18.95117188 C36.81513455 18.96199112 41.90755336 18.97913721 47 19 C47 13.06 47 7.12 47 1 C31.49 1 15.98 1 0 1 C0 0.67 0 0.34 0 0 Z " transform="translate(957,82)" style="fill: #888889;"/><path d="M0 0 C0 0.33 0 0.66 0 1 C18.315 1.495 18.315 1.495 37 2 C37 2.66 37 3.32 37 4 C25.00998931 4.83804978 13.03947419 5.27787083 1.0246582 5.55224609 C-1.19590879 5.60406962 -3.41629525 5.66114828 -5.63671875 5.71875 C-7.58130981 5.76418945 -7.58130981 5.76418945 -9.56518555 5.81054688 C-12.5053057 5.97271428 -15.13258425 6.38785852 -18 7 C-20.33301986 7.03824623 -22.66711508 7.04574284 -25 7 C-25 6.01 -25 5.02 -25 4 C-21.37 4 -17.74 4 -14 4 C-14 3.34 -14 2.68 -14 2 C-15.9490625 2.2475 -15.9490625 2.2475 -17.9375 2.5 C-22.65419287 3.0315638 -27.25638935 3.07529541 -32 3 C-32 2.67 -32 2.34 -32 2 C-28.16714075 1.66106419 -24.33364909 1.32987213 -20.5 1 C-18.88351563 0.85691406 -18.88351563 0.85691406 -17.234375 0.7109375 C-11.46437756 0.21837674 -5.79076447 -0.11244203 0 0 Z " transform="translate(184,69)" style="fill: #4C4C4C;"/><path d="M0 0 C8.91 0 17.82 0 27 0 C27 0.33 27 0.66 27 1 C17.595 1.495 17.595 1.495 8 2 C5.95771544 8.12685369 5.95026166 9.3062824 8 15 C9.65 15 11.3 15 13 15 C13.33 15.99 13.66 16.98 14 18 C20.93 18.495 20.93 18.495 28 19 C28 19.33 28 19.66 28 20 C24.45835085 20.0292067 20.91673303 20.04686814 17.375 20.0625 C15.87646484 20.07506836 15.87646484 20.07506836 14.34765625 20.08789062 C13.37441406 20.09111328 12.40117188 20.09433594 11.3984375 20.09765625 C10.06304932 20.10551147 10.06304932 20.10551147 8.70068359 20.11352539 C6 20 6 20 0 19 C0 12.73 0 6.46 0 0 Z " transform="translate(930,82)" style="fill: #141415;"/><path d="M0 0 C1.84324356 0.00424484 1.84324356 0.00424484 3.72372437 0.00857544 C7.61539808 0.01969353 11.50683435 0.04478274 15.3984375 0.0703125 C18.05077791 0.08035311 20.70312195 0.08947706 23.35546875 0.09765625 C29.82820484 0.11960543 36.3008042 0.15299893 42.7734375 0.1953125 C42.4434375 0.8553125 42.1134375 1.5153125 41.7734375 2.1953125 C28.47318102 4.41575116 14.2605611 3.30825596 0.8359375 3.2578125 C-1.50455633 3.25278615 -3.84505121 3.24822526 -6.18554688 3.24414062 C-11.86590865 3.23322796 -17.54623055 3.21658029 -23.2265625 3.1953125 C-23.2265625 2.8653125 -23.2265625 2.5353125 -23.2265625 2.1953125 C-15.42596358 0.24512822 -8.01537137 -0.07051727 0 0 Z " transform="translate(201.2265625,67.8046875)" style="fill: #2D2D2D;"/><path d="M0 0 C2.43816585 -0.0809723 4.87364384 -0.14046972 7.3125 -0.1875 C8.34793945 -0.22520508 8.34793945 -0.22520508 9.40429688 -0.26367188 C12.29165421 -0.30551763 14.45772814 -0.32708461 16.96875 1.1875 C18.36082671 3.63418028 18.29647376 5.39050672 18.1875 8.1875 C18.16042969 9.08855469 18.13335938 9.98960938 18.10546875 10.91796875 C18.07066406 11.60503906 18.03585937 12.29210937 18 13 C17.34 11.68 16.68 10.36 16 9 C8.08 9.495 8.08 9.495 0 10 C0 6.7 0 3.4 0 0 Z " transform="translate(1113,77)" style="fill: #222222;"/><path d="M0 0 C-0.9590625 0.4640625 -0.9590625 0.4640625 -1.9375 0.9375 C-3.93610821 1.8345163 -3.93610821 1.8345163 -5 3 C-6.91819098 3.15896715 -8.84195569 3.25141742 -10.765625 3.31640625 C-11.96703125 3.35830078 -13.1684375 3.40019531 -14.40625 3.44335938 C-16.30890625 3.50233398 -16.30890625 3.50233398 -18.25 3.5625 C-19.47203125 3.60568359 -20.6940625 3.64886719 -21.953125 3.69335938 C-29.97150376 3.9609218 -37.9774876 4.05306786 -46 4 C-46 4.66 -46 5.32 -46 6 C-54.25 6 -62.5 6 -71 6 C-71.33 5.34 -71.66 4.68 -72 4 C-48.03759579 1.94630044 -24.07246054 -0.07903332 0 0 Z " transform="translate(141,79)" style="fill: #2D2D2D;"/><path d="M0 0 C4.96214369 -0.04980918 9.92413861 -0.08591147 14.88647461 -0.10986328 C16.57107075 -0.11985897 18.25564981 -0.13346004 19.94018555 -0.15087891 C22.37553141 -0.17541276 24.81064592 -0.18654758 27.24609375 -0.1953125 C27.98709824 -0.20563507 28.72810272 -0.21595764 29.49156189 -0.22659302 C34.88086107 -0.22772363 39.78900152 0.64898444 45 2 C43.64819336 3.49316406 43.64819336 3.49316406 42 5 C39.62890625 5.109375 39.62890625 5.109375 36.5625 4.75 C28.75538679 3.99820391 20.96336158 3.69577212 13.125 3.4375 C11.84568604 3.39399414 10.56637207 3.35048828 9.24829102 3.30566406 C6.16559372 3.20158218 3.08284213 3.09968433 0 3 C0 2.01 0 1.02 0 0 Z " transform="translate(70,97)" style="fill: #373737;"/><path d="M0 0 C1.59134766 -0.02513672 1.59134766 -0.02513672 3.21484375 -0.05078125 C6.0625 0.3125 6.0625 0.3125 7.9296875 1.5078125 C9.46106258 3.94745142 9.36130809 5.64309248 9.25 8.5 C9.22292969 9.40105469 9.19585938 10.30210938 9.16796875 11.23046875 C9.13316406 11.91753906 9.09835937 12.60460937 9.0625 13.3125 C7.7425 13.3125 6.4225 13.3125 5.0625 13.3125 C5.0625 10.0125 5.0625 6.7125 5.0625 3.3125 C4.0725 3.3125 3.0825 3.3125 2.0625 3.3125 C2.0625 6.6125 2.0625 9.9125 2.0625 13.3125 C1.0725 13.3125 0.0825 13.3125 -0.9375 13.3125 C-1.2675 10.0125 -1.5975 6.7125 -1.9375 3.3125 C-2.5975 3.3125 -3.2575 3.3125 -3.9375 3.3125 C-4.2675 6.6125 -4.5975 9.9125 -4.9375 13.3125 C-5.9275 13.3125 -6.9175 13.3125 -7.9375 13.3125 C-7.99141993 11.52116022 -8.03025571 9.72936101 -8.0625 7.9375 C-8.08570313 6.93976563 -8.10890625 5.94203125 -8.1328125 4.9140625 C-7.73539412 -0.37955029 -4.49882342 0.01635936 0 0 Z " transform="translate(504.9375,83.6875)" style="fill: #2A292C;"/><path d="M0 0 C3.5 0.25 3.5 0.25 5.5 2.25 C5.81537716 6.58643601 5.94897847 8.57653229 3.5 12.25 C0.4003407 12.64570119 -1.62198451 12.74754211 -4.375 11.1875 C-6.11973477 8.18267901 -5.80835443 5.64189869 -5.5 2.25 C-3.5 0.25 -3.5 0.25 0 0 Z " transform="translate(520.5,84.75)" style="fill: #3B3B3C;"/><path d="M0 0 C1.17433594 0.01417969 2.34867188 0.02835937 3.55859375 0.04296875 C5.32396484 0.05263672 5.32396484 0.05263672 7.125 0.0625 C9.99609375 0.23046875 9.99609375 0.23046875 10.99609375 1.23046875 C11.06814886 2.91655841 11.07995443 4.60547534 11.05859375 6.29296875 C11.04957031 7.21207031 11.04054688 8.13117188 11.03125 9.078125 C11.01964844 9.78839844 11.00804687 10.49867187 10.99609375 11.23046875 C10.33609375 11.23046875 9.67609375 11.23046875 8.99609375 11.23046875 C8.66609375 8.26046875 8.33609375 5.29046875 7.99609375 2.23046875 C7.33609375 2.23046875 6.67609375 2.23046875 5.99609375 2.23046875 C5.66609375 5.53046875 5.33609375 8.83046875 4.99609375 12.23046875 C4.00609375 12.23046875 3.01609375 12.23046875 1.99609375 12.23046875 C1.94710937 11.52019531 1.898125 10.80992188 1.84765625 10.078125 C1.77289062 9.15902344 1.698125 8.23992187 1.62109375 7.29296875 C1.51667969 5.91818359 1.51667969 5.91818359 1.41015625 4.515625 C1.27351562 3.76152344 1.136875 3.00742188 0.99609375 2.23046875 C0.33609375 1.90046875 -0.32390625 1.57046875 -1.00390625 1.23046875 C-1.00390625 4.86046875 -1.00390625 8.49046875 -1.00390625 12.23046875 C-2.32390625 12.23046875 -3.64390625 12.23046875 -5.00390625 12.23046875 C-5.05786103 10.60583033 -5.0966782 8.98068334 -5.12890625 7.35546875 C-5.15210938 6.45054688 -5.1753125 5.545625 -5.19921875 4.61328125 C-4.88874048 0.82544642 -3.67625913 0.28205369 0 0 Z " transform="translate(557.00390625,84.76953125)" style="fill: #2B2A2C;"/><path d="M0 0 C13.2 0 26.4 0 40 0 C37 5 37 5 34.73168945 5.56762695 C33.86761475 5.54144287 33.00354004 5.51525879 32.11328125 5.48828125 C31.17548828 5.47216797 30.23769531 5.45605469 29.27148438 5.43945312 C28.29501953 5.39755859 27.31855469 5.35566406 26.3125 5.3125 C24.83040039 5.27866211 24.83040039 5.27866211 23.31835938 5.24414062 C20.87738441 5.18517988 18.43945132 5.10295048 16 5 C16 4.67 16 4.34 16 4 C22.93 3.01 22.93 3.01 30 2 C15.15 1.505 15.15 1.505 0 1 C0 0.67 0 0.34 0 0 Z " transform="translate(213,67)" style="fill: #5C5C5C;"/><path d="M0 0 C0.495 0.99 0.495 0.99 1 2 C-14.84 2 -30.68 2 -47 2 C-47 1.67 -47 1.34 -47 1 C-43.07172765 0.71007353 -39.14310426 0.42550392 -35.21411133 0.14550781 C-33.23434117 0.00336313 -31.25486091 -0.14280109 -29.27539062 -0.2890625 C-8.20140679 -1.78291452 -8.20140679 -1.78291452 0 0 Z " transform="translate(1077,128)" style="fill: #D6D6D7;"/><path d="M0 0 C0 1.65 0 3.3 0 5 C0.99 5 1.98 5 3 5 C3 3.35 3 1.7 3 0 C4.32 0.33 5.64 0.66 7 1 C7 4.3 7 7.6 7 11 C5.68 11 4.36 11 3 11 C3 9.68 3 8.36 3 7 C2.01 7 1.02 7 0 7 C0 8.32 0 9.64 0 11 C-1.32 10.67 -2.64 10.34 -4 10 C-4.02689216 8.52093108 -4.04634621 7.04172517 -4.0625 5.5625 C-4.07410156 4.73878906 -4.08570313 3.91507812 -4.09765625 3.06640625 C-3.93965216 -0.27696023 -3.40390963 0 0 0 Z " transform="translate(544,86)" style="fill: #3D3D3F;"/><path d="M0 0 C0.474375 0.495 0.94875 0.99 1.4375 1.5 C-1.98033082 4.91783082 -11.34387509 3.55627155 -15.98608398 3.56811523 C-19.17849643 3.55997223 -22.37027012 3.53564525 -25.5625 3.5 C-20.70187727 -2.37459369 -6.51016773 -3.81082989 0 0 Z " transform="translate(145.5625,74.5)" style="fill: #5A5A5A;"/><path d="M0 0 C5.625 -0.25 5.625 -0.25 9 2 C9 3.32 9 4.64 9 6 C8.34 6 7.68 6 7 6 C7.99 7.485 7.99 7.485 9 9 C9.3125 12.0625 9.3125 12.0625 9 15 C8.01 15.66 7.02 16.32 6 17 C2.3125 16.125 2.3125 16.125 -1 15 C-1 14.34 -1 13.68 -1 13 C1.31 13 3.62 13 6 13 C6 11.68 6 10.36 6 9 C4.35 9 2.7 9 1 9 C1.33 8.01 1.66 7.02 2 6 C3.32 6 4.64 6 6 6 C5.67 5.01 5.34 4.02 5 3 C3.35 2.67 1.7 2.34 0 2 C0 1.34 0 0.68 0 0 Z " transform="translate(632,82)" style="fill: #3E3E41;"/><path d="M0 0 C3.0625 0.25 3.0625 0.25 6.0625 2.25 C6.35546875 4.6328125 6.35546875 4.6328125 6.25 7.375 C6.22292969 8.28507812 6.19585938 9.19515625 6.16796875 10.1328125 C6.13316406 10.83148438 6.09835937 11.53015625 6.0625 12.25 C4.7425 12.25 3.4225 12.25 2.0625 12.25 C2.0625 8.95 2.0625 5.65 2.0625 2.25 C0.7425 2.25 -0.5775 2.25 -1.9375 2.25 C-1.9375 5.55 -1.9375 8.85 -1.9375 12.25 C-2.9275 12.25 -3.9175 12.25 -4.9375 12.25 C-4.99145478 10.62536158 -5.03027195 9.00021459 -5.0625 7.375 C-5.08570313 6.47007813 -5.10890625 5.56515625 -5.1328125 4.6328125 C-4.82603263 0.89009807 -3.63700447 0.3095323 0 0 Z " transform="translate(532.9375,84.75)" style="fill: #404040;"/><path d="M0 0 C20.13 0 40.26 0 61 0 C61 0.33 61 0.66 61 1 C59.72584229 1.02505615 58.45168457 1.0501123 57.13891602 1.07592773 C52.32846109 1.17140792 47.51810449 1.27126161 42.70776367 1.37231445 C40.64138112 1.4151402 38.5749749 1.45684157 36.50854492 1.49731445 C23.98379337 1.74349375 11.49862885 2.13959097 -1 3 C-0.67 2.01 -0.34 1.02 0 0 Z " transform="translate(190,78)" style="fill: #202020;"/><path d="M0 0 C0 0.66 0 1.32 0 2 C-3.63 2.33 -7.26 2.66 -11 3 C-11 3.66 -11 4.32 -11 5 C-13.0809844 5.24959784 -15.16500812 5.47394907 -17.25 5.6875 C-18.41015625 5.81511719 -19.5703125 5.94273438 -20.765625 6.07421875 C-24.32466794 5.99254989 -25.48177725 5.42472438 -28 3 C-24.3571874 0.74274081 -21.04043264 0.60773024 -16.8125 0.375 C-15.81754517 0.31807983 -15.81754517 0.31807983 -14.80249023 0.26000977 C-9.86090059 -0.00526608 -4.94664107 -0.08678318 0 0 Z " transform="translate(170,71)" style="fill: #404040;"/><path d="M0 0 C0.33 0.99 0.66 1.98 1 3 C2.17018677 2.99214478 2.17018677 2.99214478 3.36401367 2.98413086 C6.97183392 2.96306991 10.57964116 2.95024862 14.1875 2.9375 C16.02731445 2.92493164 16.02731445 2.92493164 17.90429688 2.91210938 C25.98556584 2.89078677 33.95353136 3.2498983 42 4 C39.52229636 6.47770364 38.78380017 6.25651317 35.37109375 6.265625 C34.42564697 6.26949219 33.4802002 6.27335937 32.50610352 6.27734375 C31.49346436 6.26832031 30.4808252 6.25929688 29.4375 6.25 C28.41003662 6.24613281 27.38257324 6.24226563 26.32397461 6.23828125 C17.44586814 6.13901521 8.77245865 5.31881258 0 4 C0 2.68 0 1.36 0 0 Z " transform="translate(69,97)" style="fill: #1B1B1B;"/><path d="M0 0 C2 2 2 2 2.23046875 4.53125 C2.20919922 6.00078125 2.20919922 6.00078125 2.1875 7.5 C2.17783203 8.96953125 2.17783203 8.96953125 2.16796875 10.46875 C2 13 2 13 1 15 C0.01 14.67 -0.98 14.34 -2 14 C-1.67 13.67 -1.34 13.34 -1 13 C-0.92794489 11.31391034 -0.91613932 9.62499341 -0.9375 7.9375 C-0.95103516 6.55884766 -0.95103516 6.55884766 -0.96484375 5.15234375 C-0.97644531 4.44207031 -0.98804688 3.73179688 -1 3 C-1.99 3 -2.98 3 -4 3 C-4.02698189 4.62490954 -4.04638757 6.24994633 -4.0625 7.875 C-4.07410156 8.77992187 -4.08570313 9.68484375 -4.09765625 10.6171875 C-4.16249257 13.0168585 -4.16249257 13.0168585 -3 15 C-4.9375 14.6875 -4.9375 14.6875 -7 14 C-8.25249168 10.24252497 -8.45035914 6.93040706 -8 3 C-5.98696203 -0.39037973 -3.76448625 -0.48262644 0 0 Z " transform="translate(671,82)" style="fill: #353436;"/><path d="M0 0 C2.64 0 5.28 0 8 0 C8 0.66 8 1.32 8 2 C6.02 2 4.04 2 2 2 C2 3.32 2 4.64 2 6 C2.78375 6.144375 3.5675 6.28875 4.375 6.4375 C7 7 7 7 9 8 C9.22223194 10.74086056 9.34781139 12.43963721 7.875 14.8125 C5.22464043 16.49106106 3.06753576 16.20450238 0 16 C-0.33 15.01 -0.66 14.02 -1 13 C1.31 13 3.62 13 6 13 C6 11.35 6 9.7 6 8 C4.02 8 2.04 8 0 8 C0 5.36 0 2.72 0 0 Z " transform="translate(620,82)" style="fill: #323134;"/><path d="M0 0 C1.65 0 3.3 0 5 0 C5 1.65 5 3.3 5 5 C3.68 5 2.36 5 1 5 C1 8.96 1 12.92 1 17 C-0.32 17 -1.64 17 -3 17 C-3 13.04 -3 9.08 -3 5 C-2.01 5 -1.02 5 0 5 C0 3.35 0 1.7 0 0 Z " transform="translate(573,80)" style="fill: #444446;"/><path d="M0 0 C3.41659491 -0.05816623 6.83306205 -0.09365195 10.25 -0.125 C11.21808594 -0.14175781 12.18617188 -0.15851563 13.18359375 -0.17578125 C14.11816406 -0.18222656 15.05273438 -0.18867187 16.015625 -0.1953125 C16.87446289 -0.20578613 17.73330078 -0.21625977 18.61816406 -0.22705078 C21.17903596 0.01706677 22.79511029 0.71009488 25 2 C24 3 24 3 21.68334961 3.11352539 C20.68311768 3.10828857 19.68288574 3.10305176 18.65234375 3.09765625 C17.57275391 3.09443359 16.49316406 3.09121094 15.38085938 3.08789062 C14.24455078 3.07951172 13.10824219 3.07113281 11.9375 3.0625 C10.79732422 3.05798828 9.65714844 3.05347656 8.48242188 3.04882812 C5.65489649 3.03699747 2.8274736 3.0205141 0 3 C0 2.01 0 1.02 0 0 Z " transform="translate(960,87)" style="fill: #1B1B1A;"/><path d="M0 0 C3.3 0 6.6 0 10 0 C10 1.32 10 2.64 10 4 C7.69 4 5.38 4 3 4 C2.67 5.98 2.34 7.96 2 10 C1.34 10 0.68 10 0 10 C0 9.34 0 8.68 0 8 C-0.99 8.33 -1.98 8.66 -3 9 C-3.66 8.34 -4.32 7.68 -5 7 C-4.01 6.67 -3.02 6.34 -2 6 C-0.77479736 2.99152582 -0.77479736 2.99152582 0 0 Z " transform="translate(615,91)" style="fill: #EDECEF;"/><path d="M0 0 C-10.00552446 2.16740925 -19.70954428 3.40626939 -29.94140625 3.7890625 C-37.35663154 4.04622573 -37.35663154 4.04622573 -44 7 C-43.67 5.02 -43.34 3.04 -43 1 C-30.13 1.495 -30.13 1.495 -17 2 C-17 1.34 -17 0.68 -17 0 C-14.9174133 -0.19561869 -12.83388144 -0.38119313 -10.75 -0.5625 C-9.58984375 -0.66691406 -8.4296875 -0.77132812 -7.234375 -0.87890625 C-4.48128523 -0.98198087 -2.580018 -0.86213473 0 0 Z " transform="translate(112,83)" style="fill: #181818;"/><path d="M0 0 C1.93681161 -0.08107583 3.8745934 -0.13922475 5.8125 -0.1875 C6.89144531 -0.22230469 7.97039062 -0.25710937 9.08203125 -0.29296875 C12 0 12 0 13.875 1.1875 C15.39262151 3.63255688 15.29873534 5.33245951 15.1875 8.1875 C15.16042969 9.08855469 15.13335938 9.98960938 15.10546875 10.91796875 C15.07066406 11.60503906 15.03585937 12.29210937 15 13 C13.68 13 12.36 13 11 13 C11 9.7 11 6.4 11 3 C7.04 2.67 3.08 2.34 -1 2 C-0.67 1.34 -0.34 0.68 0 0 Z " transform="translate(499,84)" style="fill: #515152;"/><path d="M0 0 C0.99 0.33 1.98 0.66 3 1 C3 4.3 3 7.6 3 11 C3.99 11 4.98 11 6 11 C6 11.66 6 12.32 6 13 C5.01 13.33 4.02 13.66 3 14 C2.34 14.66 1.68 15.32 1 16 C-0.9960615 12.67849055 -1.24399211 10.15909894 -1.1875 6.3125 C-1.18105469 5.33925781 -1.17460937 4.36601563 -1.16796875 3.36328125 C-1 1 -1 1 0 0 Z " transform="translate(501,86)" style="fill: #EEEEEF;"/><path d="M0 0 C0 0.33 0 0.66 0 1 C-3.12157752 1.68338466 -6.24767108 2.34348272 -9.375 3 C-10.68017578 3.28617187 -10.68017578 3.28617187 -12.01171875 3.578125 C-18.08653189 4.83808624 -23.80210192 5.24024154 -30 5 C-29.67 4.34 -29.34 3.68 -29 3 C-19.67630574 0.64987608 -9.60591574 -0.20882426 0 0 Z " transform="translate(99,77)" style="fill: #B7B7B7;"/><path d="M0 0 C0.66 0 1.32 0 2 0 C2.33 1.65 2.66 3.3 3 5 C3.95261719 4.95359375 4.90523437 4.9071875 5.88671875 4.859375 C7.14097656 4.82328125 8.39523437 4.7871875 9.6875 4.75 C10.92886719 4.70359375 12.17023438 4.6571875 13.44921875 4.609375 C17.53455169 5.05880657 19.09488246 6.17820323 22 9 C21.67 10.32 21.34 11.64 21 13 C20.51080078 11.80310547 20.51080078 11.80310547 20.01171875 10.58203125 C18.13004376 7.61604377 18.13004376 7.61604377 14.20703125 7.07421875 C12.74442602 6.92200192 11.27915634 6.79381657 9.8125 6.6875 C9.06291016 6.61466797 8.31332031 6.54183594 7.54101562 6.46679688 C5.69587013 6.29050909 3.84806305 6.14248587 2 6 C2 10.62 2 15.24 2 20 C1.67 20 1.34 20 1 20 C1 15.38 1 10.76 1 6 C0.34 5.67 -0.32 5.34 -1 5 C-0.67 3.35 -0.34 1.7 0 0 Z " transform="translate(1110,70)" style="fill: #DAD9DB;"/><path d="M0 0 C11.22 0 22.44 0 34 0 C33.67 0.66 33.34 1.32 33 2 C26.50927229 3.38993361 19.60476723 3.12647427 13 3 C13 2.67 13 2.34 13 2 C8.71 1.67 4.42 1.34 0 1 C0 0.67 0 0.34 0 0 Z " transform="translate(170,82)" style="fill: #292929;"/><path d="M0 0 C0.82435547 0.03544922 1.64871094 0.07089844 2.49804688 0.10742188 C3.29146484 0.15060547 4.08488281 0.19378906 4.90234375 0.23828125 C5.99083618 0.29495972 5.99083618 0.29495972 7.10131836 0.3527832 C9.0625 0.6875 9.0625 0.6875 12.0625 2.6875 C3.1525 2.6875 -5.7575 2.6875 -14.9375 2.6875 C-9.14737274 -0.20756363 -6.35344585 -0.36093506 0 0 Z " transform="translate(944.9375,79.3125)" style="fill: #B2B2B5;"/><path d="M0 0 C6.27 0 12.54 0 19 0 C18.67 0.99 18.34 1.98 18 3 C12.39 3 6.78 3 1 3 C0.67 2.01 0.34 1.02 0 0 Z " transform="translate(938,102)" style="fill: #868686;"/><path d="M0 0 C2.60423592 -0.02697137 5.20819244 -0.04682489 7.8125 -0.0625 C8.55048828 -0.07087891 9.28847656 -0.07925781 10.04882812 -0.08789062 C13.29922068 -0.10259828 15.89404895 -0.03531702 19 1 C19 1.99 19 2.98 19 4 C24.445 4.495 24.445 4.495 30 5 C30 5.33 30 5.66 30 6 C24.48190035 6.19361753 20.22197736 5.81170643 15 4 C14.67 3.67 14.34 3.34 14 3 C11.22441577 2.71520878 8.44872155 2.55156981 5.6640625 2.37890625 C3 2 3 2 0 0 Z " transform="translate(106,114)" style="fill: #545454;"/><path d="M0 0 C1.98 0.495 1.98 0.495 4 1 C4 4.3 4 7.6 4 11 C2.35 11 0.7 11 -1 11 C-1.02688151 9.35425434 -1.04634123 7.70838587 -1.0625 6.0625 C-1.07410156 5.14597656 -1.08570313 4.22945313 -1.09765625 3.28515625 C-1 1 -1 1 0 0 Z " transform="translate(667,84)" style="fill: #D2D2D3;"/><path d="M0 0 C0 4.95 0 9.9 0 15 C-0.99 15.33 -1.98 15.66 -3 16 C-3 11.71 -3 7.42 -3 3 C-3.99 2.67 -4.98 2.34 -6 2 C-4 0 -4 0 0 0 Z " transform="translate(614,82)" style="fill: #404043;"/><path d="M0 0 C3.3 0 6.6 0 10 0 C9.15522369 3.37910524 8.14057406 6.49005738 6.9375 9.75 C6.57527344 10.73484375 6.21304688 11.7196875 5.83984375 12.734375 C5.56269531 13.48203125 5.28554688 14.2296875 5 15 C4.01 15 3.02 15 2 15 C2.60745397 10.14036821 4.72758967 6.2594482 7 2 C4.69 2 2.38 2 0 2 C0 1.34 0 0.68 0 0 Z " transform="translate(680,82)" style="fill: #403F44;"/><path d="M0 0 C1.50626953 0.00676758 1.50626953 0.00676758 3.04296875 0.01367188 C5.48704471 0.02531033 7.9309882 0.0416576 10.375 0.0625 C10.375 0.3925 10.375 0.7225 10.375 1.0625 C0.475 1.5575 0.475 1.5575 -9.625 2.0625 C-6.655 2.5575 -6.655 2.5575 -3.625 3.0625 C-3.625 3.3925 -3.625 3.7225 -3.625 4.0625 C-16.29470387 4.4315205 -16.29470387 4.4315205 -21.625 2.0625 C-21.625 1.7325 -21.625 1.4025 -21.625 1.0625 C-14.39068401 0.18179203 -7.2831629 -0.06320502 0 0 Z " transform="translate(155.625,82.9375)" style="fill: #2D2D2D;"/><path d="M0 0 C0 0.99 0 1.98 0 3 C-10.56 3 -21.12 3 -32 3 C-32 2.67 -32 2.34 -32 2 C-28.16714075 1.66106419 -24.33364909 1.32987213 -20.5 1 C-18.88351563 0.85691406 -18.88351563 0.85691406 -17.234375 0.7109375 C-11.46437756 0.21837674 -5.79076447 -0.11244203 0 0 Z " transform="translate(184,69)" style="fill: #525252;"/><path d="M0 0 C0.33 0 0.66 0 1 0 C1 4.62 1 9.24 1 14 C6.61 14 12.22 14 18 14 C18 14.33 18 14.66 18 15 C9.585 15.495 9.585 15.495 1 16 C0.34 17.98 -0.32 19.96 -1 22 C-1.66 22 -2.32 22 -3 22 C-2.125 15.125 -2.125 15.125 -1 14 C-0.76472227 11.65012738 -0.58613583 9.29443961 -0.4375 6.9375 C-0.35371094 5.64714844 -0.26992187 4.35679688 -0.18359375 3.02734375 C-0.12300781 2.02832031 -0.06242187 1.02929688 0 0 Z " transform="translate(1111,104)" style="fill: #B1B1B2;"/><path d="M0 0 C-1.83540117 2.42182734 -2.76261175 2.96359101 -5.8190918 3.43237305 C-6.93453369 3.45855713 -8.04997559 3.48474121 -9.19921875 3.51171875 C-10.40771484 3.54716797 -11.61621094 3.58261719 -12.86132812 3.61914062 C-14.7552832 3.65297852 -14.7552832 3.65297852 -16.6875 3.6875 C-17.96173828 3.72166016 -19.23597656 3.75582031 -20.54882812 3.79101562 C-23.69913103 3.87360784 -26.84915157 3.94272335 -30 4 C-30 3.67 -30 3.34 -30 3 C-26.12577792 2.49384729 -22.25051183 1.99617279 -18.375 1.5 C-17.28058594 1.35691406 -16.18617187 1.21382813 -15.05859375 1.06640625 C-13.99511719 0.93105469 -12.93164062 0.79570313 -11.8359375 0.65625 C-10.37486572 0.46772461 -10.37486572 0.46772461 -8.88427734 0.27539062 C-5.90510895 -0.00906019 -2.99084203 -0.04655007 0 0 Z " transform="translate(123,75)" style="fill: #7E7E7E;"/><path d="M0 0 C1.08571289 -0.0309375 1.08571289 -0.0309375 2.19335938 -0.0625 C4.29296875 -0.078125 4.29296875 -0.078125 7.8125 0.25 C8.4725 1.24 9.1325 2.23 9.8125 3.25 C2.2225 3.25 -5.3675 3.25 -13.1875 3.25 C-13.1875 2.59 -13.1875 1.93 -13.1875 1.25 C-8.80226993 0.18169248 -4.49033988 0.03250925 0 0 Z " transform="translate(213.1875,74.75)" style="fill: #414141;"/><path d="M0 0 C0.33 0 0.66 0 1 0 C1 1.98 1 3.96 1 6 C-7.58 6 -16.16 6 -25 6 C-25 5.67 -25 5.34 -25 5 C-17.08 4.67 -9.16 4.34 -1 4 C-0.67 2.68 -0.34 1.36 0 0 Z " transform="translate(252,75)" style="fill: #0B0B0B;"/><path d="M0 0 C0.33 0 0.66 0 1 0 C1 3.3 1 6.6 1 10 C2.32 10 3.64 10 5 10 C5 10.99 5 11.98 5 13 C3.02 13.66 1.04 14.32 -1 15 C-1 14.67 -1 14.34 -1 14 C-3.97 13.505 -3.97 13.505 -7 13 C-6.67 12.01 -6.34 11.02 -6 10 C-3 11 -3 11 -1 12 C-0.67 8.04 -0.34 4.08 0 0 Z " transform="translate(673,85)" style="fill: #9B9A9F;"/><path d="M0 0 C0.80824219 0.11988281 1.61648438 0.23976563 2.44921875 0.36328125 C3.06410156 0.47027344 3.67898438 0.57726562 4.3125 0.6875 C3.9825 1.3475 3.6525 2.0075 3.3125 2.6875 C2.343125 2.666875 1.37375 2.64625 0.375 2.625 C-2.56215895 2.33131501 -2.56215895 2.33131501 -3.6875 3.6875 C-3.91942865 5.20219448 -4.09965238 6.72504562 -4.25 8.25 C-4.33378906 9.07628906 -4.41757812 9.90257813 -4.50390625 10.75390625 C-4.56449219 11.39199219 -4.62507812 12.03007813 -4.6875 12.6875 C-5.6775 12.6875 -6.6675 12.6875 -7.6875 12.6875 C-7.76871924 11.08417209 -7.82679134 9.47965974 -7.875 7.875 C-7.90980469 6.98167969 -7.94460938 6.08835937 -7.98046875 5.16796875 C-7.6875 2.6875 -7.6875 2.6875 -6.46875 0.84375 C-4.07833585 -0.70792234 -2.78073319 -0.44330529 0 0 Z " transform="translate(532.6875,83.3125)" style="fill: #BFBFC0;"/><path d="M0 0 C2.97 0.495 2.97 0.495 6 1 C6 3.64 6 6.28 6 9 C4.02 9 2.04 9 0 9 C0 8.34 0 7.68 0 7 C1.65 6.67 3.3 6.34 5 6 C5 5.34 5 4.68 5 4 C3.35 4 1.7 4 0 4 C0 2.68 0 1.36 0 0 Z " transform="translate(998,86)" style="fill: #1C1C1C;"/><path d="M0 0 C0.33 1.32 0.66 2.64 1 4 C-1.97 3.505 -1.97 3.505 -5 3 C-5 4.32 -5 5.64 -5 7 C-3.35 7 -1.7 7 0 7 C0 7.66 0 8.32 0 9 C-1.65 9.33 -3.3 9.66 -5 10 C-5 10.66 -5 11.32 -5 12 C-4.34 12.33 -3.68 12.66 -3 13 C-3.99 13.33 -4.98 13.66 -6 14 C-6 10.04 -6 6.08 -6 2 C-4.02 2 -2.04 2 0 2 C0 1.34 0 0.68 0 0 Z " transform="translate(1003,83)" style="fill: #0E0E0E;"/><path d="M0 0 C2.97 0.495 2.97 0.495 6 1 C5.401875 1.2475 4.80375 1.495 4.1875 1.75 C1.71352479 3.16370012 0.56629745 4.65055383 -1 7 C-3.66666667 6.33333333 -6.33333333 5.66666667 -9 5 C-9 3.68 -9 2.36 -9 1 C-7.02 1 -5.04 1 -3 1 C-3 1.33 -3 1.66 -3 2 C-4.65 2 -6.3 2 -8 2 C-8 2.66 -8 3.32 -8 4 C-5.36 3.34 -2.72 2.68 0 2 C0 1.34 0 0.68 0 0 Z " transform="translate(631,83)" style="fill: #C7C7C9;"/><path d="M0 0 C0.99 0.33 1.98 0.66 3 1 C3 3.97 3 6.94 3 10 C3.66 10 4.32 10 5 10 C5 7.03 5 4.06 5 1 C5.33 1 5.66 1 6 1 C6 4.3 6 7.6 6 11 C4.68 11 3.36 11 2 11 C1.67 8.36 1.34 5.72 1 3 C0.67 5.64 0.34 8.28 0 11 C-0.33 11 -0.66 11 -1 11 C-1.02688151 9.35425434 -1.04634123 7.70838587 -1.0625 6.0625 C-1.07410156 5.14597656 -1.08570313 4.22945313 -1.09765625 3.28515625 C-1 1 -1 1 0 0 Z " transform="translate(563,86)" style="fill: #939396;"/><path d="M0 0 C0.99 0.33 1.98 0.66 3 1 C3 3.64 3 6.28 3 9 C1.68 9 0.36 9 -1 9 C-1.09765625 2.84765625 -1.09765625 2.84765625 -1 1 C-0.67 0.67 -0.34 0.34 0 0 Z " transform="translate(520,86)" style="fill: #D2D2D3;"/><path d="M0 0 C0.22223194 2.74086056 0.34781139 4.43963721 -1.125 6.8125 C-3.77535957 8.49106106 -5.93246424 8.20450238 -9 8 C-9.33 7.01 -9.66 6.02 -10 5 C-7.69 5 -5.38 5 -3 5 C-2.855625 4.360625 -2.71125 3.72125 -2.5625 3.0625 C-1.72727273 0 -1.72727273 0 0 0 Z " transform="translate(629,90)" style="fill: #59595B;"/><path d="M0 0 C0 3.63 0 7.26 0 11 C-0.99 11 -1.98 11 -3 11 C-3.02688151 9.35425434 -3.04634123 7.70838587 -3.0625 6.0625 C-3.07410156 5.14597656 -3.08570313 4.22945313 -3.09765625 3.28515625 C-2.97403051 0.39231385 -2.90946437 0 0 0 Z " transform="translate(531,86)" style="fill: #272727;"/><path d="M0 0 C0.99 0.33 1.98 0.66 3 1 C2.67 3.97 2.34 6.94 2 10 C1.01 10 0.02 10 -1 10 C-1.02689216 8.52093108 -1.04634621 7.04172517 -1.0625 5.5625 C-1.07410156 4.73878906 -1.08570313 3.91507812 -1.09765625 3.06640625 C-1 1 -1 1 0 0 Z " transform="translate(541,86)" style="fill: #282828;"/><path d="M0 0 C5.625 -0.25 5.625 -0.25 9 2 C9 3.32 9 4.64 9 6 C8.34 6 7.68 6 7 6 C6.67 6.66 6.34 7.32 6 8 C5.67 6.35 5.34 4.7 5 3 C3.35 2.67 1.7 2.34 0 2 C0 1.34 0 0.68 0 0 Z " transform="translate(632,82)" style="fill: #414143;"/><path d="M0 0 C0.99 0.33 1.98 0.66 3 1 C3.125 7.75 3.125 7.75 2 10 C1.01 9.67 0.02 9.34 -1 9 C-0.67 6.03 -0.34 3.06 0 0 Z " transform="translate(523,86)" style="fill: #1B1B1C;"/><path d="M0 0 C3.3 0 6.6 0 10 0 C9.34 1.32 8.68 2.64 8 4 C5.69 3.67 3.38 3.34 1 3 C0.67 2.01 0.34 1.02 0 0 Z " transform="translate(631,95)" style="fill: #717173;"/><path d="M0 0 C0.99 0.33 1.98 0.66 3 1 C3 4.3 3 7.6 3 11 C2.67 11 2.34 11 2 11 C1.67 8.69 1.34 6.38 1 4 C0.67 6.31 0.34 8.62 0 11 C-0.33 11 -0.66 11 -1 11 C-1.02688151 9.35425434 -1.04634123 7.70838587 -1.0625 6.0625 C-1.07410156 5.14597656 -1.08570313 4.22945313 -1.09765625 3.28515625 C-1 1 -1 1 0 0 Z " transform="translate(501,86)" style="fill: #B9B9BA;"/><path d="M0 0 C2.00720923 0.28674418 4.0085944 0.61866701 6 1 C5.01 1.495 5.01 1.495 4 2 C4 3.65 4 5.3 4 7 C3.01 7 2.02 7 1 7 C1 5.35 1 3.7 1 2 C0.34 1.67 -0.32 1.34 -1 1 C-0.67 0.67 -0.34 0.34 0 0 Z " transform="translate(543,84)" style="fill: #9F9FA0;"/><path d="M0 0 C3.96 0 7.92 0 12 0 C11.67 0.66 11.34 1.32 11 2 C7.01133873 2.99716532 3.9676931 3.0502717 0 2 C0 1.34 0 0.68 0 0 Z " transform="translate(152,77)" style="fill: #252525;"/><path d="M0 0 C-1.44253657 3.36591866 -3.33264727 5.51047079 -6 8 C-6.75 6.25 -6.75 6.25 -7 4 C-4.66754091 1.00112403 -3.88153854 0 0 0 Z " transform="translate(520,81)" style="fill: #EDEDF0;"/><path d="M0 0 C1.65 0 3.3 0 5 0 C5 1.65 5 3.3 5 5 C3.35 4.67 1.7 4.34 0 4 C0 2.68 0 1.36 0 0 Z " transform="translate(573,80)" style="fill: #1F1F21;"/><path d="M0 0 C0 2.31 0 4.62 0 7 C-0.99 7 -1.98 7 -3 7 C-3.04254356 5.00045254 -3.04080783 2.99958364 -3 1 C-2 0 -2 0 0 0 Z " transform="translate(670,88)" style="fill: #EEEEF0;"/><path d="M0 0 C0.33 0 0.66 0 1 0 C1.1953125 2.01822917 1.390625 4.03645833 1.5859375 6.0546875 C1.86374749 8.22668245 1.86374749 8.22668245 4 10 C2.1875 10.625 2.1875 10.625 0 11 C-0.99 10.34 -1.98 9.68 -3 9 C-2.01 9 -1.02 9 0 9 C0 6.03 0 3.06 0 0 Z " transform="translate(539,88)" style="fill: #D6D5D8;"/><path d="M0 0 C3.375 -0.125 3.375 -0.125 7 0 C7.66 0.66 8.32 1.32 9 2 C6.69 2.66 4.38 3.32 2 4 C2.33 3.34 2.66 2.68 3 2 C2.01 1.34 1.02 0.68 0 0 Z " transform="translate(126,74)" style="fill: #606060;"/><path d="M0 0 C0 0.66 0 1.32 0 2 C-2.97 2 -5.94 2 -9 2 C-8.67 1.34 -8.34 0.68 -8 0 C-2.55072464 -1.27536232 -2.55072464 -1.27536232 0 0 Z " transform="translate(271,128)" style="fill: #D4D4D5;"/></svg>