<?xml version="1.0" encoding="UTF-8"?>
<!-- Generator: visioncortex VTracer -->
<svg id="svg" version="1.1" xmlns="http://www.w3.org/2000/svg" style="display: block;" viewBox="0 0 1307 191"><path d="M0 0 C1.05799125 -0.00087312 1.05799125 -0.00087312 2.13735607 -0.00176388 C4.51260929 -0.00128989 6.88756001 0.01353249 9.26276493 0.02819729 C10.96767526 0.03141028 12.67258747 0.03372709 14.37750018 0.03521669 C19.0537061 0.04178686 23.72979342 0.06072917 28.40595444 0.08158545 C33.42279328 0.10173768 38.43965199 0.11029375 43.45652008 0.11995697 C52.00023277 0.13771762 60.54390608 0.16192469 69.08759022 0.19015789 C81.6339404 0.23110758 94.18027501 0.25301162 106.72667789 0.26972866 C110.85256335 0.27543191 114.97844865 0.28124621 119.10433388 0.2871151 C120.64825148 0.28930277 120.64825148 0.28930277 122.22335934 0.29153464 C134.09377266 0.30875912 145.96417224 0.33243908 157.83457279 0.35678005 C159.4912752 0.36017366 159.4912752 0.36017366 161.18144634 0.36363582 C166.86219835 0.37530666 172.54295011 0.38709518 178.22370172 0.39896178 C185.36446331 0.41387796 192.50522538 0.42855242 199.64598751 0.44320774 C219.73894909 0.48451321 239.83190976 0.52622673 259.92486763 0.56930351 C261.82591892 0.57337759 261.82591892 0.57337759 263.76537528 0.57753396 C265.03434084 0.58025345 266.3033064 0.58297294 267.61072546 0.58577484 C270.17858159 0.59127698 272.74643773 0.59677827 275.31429386 0.60227871 C276.58781338 0.60500701 277.86133289 0.60773532 279.17344391 0.6105463 C298.35678322 0.65156971 317.54012631 0.69016049 336.72347355 0.72727871 C440.09411816 0.9277271 543.46283856 1.14834544 663.97108671 2.03907891 C691.83226922 2.24909519 719.69364053 2.40713121 747.55526066 2.54637051 C749.18377889 2.55454615 749.18377889 2.55454615 750.84519649 2.56288695 C763.44757851 2.62609801 776.04996957 2.68728141 788.65236682 2.74737352 C797.16693617 2.78812209 805.68149431 2.83094082 814.19605136 2.87417567 C822.75136046 2.91755117 831.30667542 2.95961754 839.86199498 3.00087583 C844.98623387 3.0256496 850.11046814 3.05102309 855.23469639 3.07791424 C873.70276241 3.17458104 892.16953828 3.26820988 910.63773513 3.16347468 C912.78192949 3.15159388 914.92612483 3.14142043 917.07033062 3.13184547 C923.36803787 3.10293102 929.66508067 3.06110726 935.9624567 2.98864651 C938.08469633 2.97593708 940.20693952 2.96380395 942.32918644 2.95237637 C943.73498652 2.9270612 943.73498652 2.9270612 945.16918659 2.90123463 C949.97417506 2.89213694 953.26578101 3.02712625 957.12557316 6.22996426 C959.12557316 9.22996426 959.12557316 9.22996426 959.12557316 13.22996426 C960.30313175 13.21256191 960.30313175 13.21256191 961.50447941 13.19480801 C973.66222367 13.09038566 973.66222367 13.09038566 978.12557316 14.22996426 C984.74462918 21.3149247 983.51017979 33.93597013 983.31307316 43.08543301 C982.81013028 56.72461528 982.81013028 56.72461528 979.59432316 61.50730801 C975.98168382 64.02815286 972.68838839 63.90128935 968.37557316 63.97996426 C967.58279972 64.00961269 966.79002628 64.03926113 965.97322941 64.06980801 C964.02455222 64.14024212 962.0750582 64.18739908 960.12557316 64.22996426 C959.89869816 65.30246426 959.67182316 66.37496426 959.43807316 67.47996426 C957.93724491 71.76804496 956.90517374 72.83730146 953.12557316 75.22996426 C949.99585653 75.73053959 949.99585653 75.73053959 946.39555943 75.73136091 C945.72755495 75.73697018 945.05955047 75.74257945 944.37130343 75.74835869 C942.12413778 75.76232127 939.87806573 75.7477122 937.63091564 75.73332882 C936.00022299 75.73750021 934.36953404 75.74342434 932.73885339 75.75094628 C928.2343363 75.76659057 923.73015995 75.75716747 919.22564811 75.74383447 C914.33398402 75.73372393 909.44237379 75.74671287 904.55071723 75.7568078 C895.96964971 75.77128653 887.38868274 75.77079677 878.80761051 75.76061916 C866.04743603 75.74552587 853.28734681 75.75320509 840.52717295 75.76545239 C817.74059711 75.78654787 794.95406603 75.78467679 772.16748589 75.77313674 C752.22569354 75.76308664 732.28391741 75.76044204 712.34212208 75.76522732 C711.00756121 75.76553724 709.67300035 75.76584586 708.33843948 75.7661532 C702.97558699 75.76739503 697.61273451 75.7686697 692.24988204 75.76999225 C677.25759891 75.77366061 662.26531572 75.77594278 647.27303219 75.7771368 C646.24888823 75.77721868 646.24888823 75.77721868 645.20405449 75.77730221 C623.44241347 75.77893975 601.68077814 75.77442956 579.91913891 75.76573849 C578.86013855 75.76531699 578.86013855 75.76531699 577.77974424 75.76488698 C566.31424179 75.76030701 554.84873947 75.75542924 543.38323716 75.75052629 C497.91273053 75.73110261 452.442271 75.73200008 406.97176456 75.75144863 C395.5144746 75.75633329 384.05718462 75.76117745 372.59989452 75.76573849 C371.89445282 75.76602028 371.18901112 75.76630207 370.46219239 75.7665924 C348.72536098 75.77521586 326.98853348 75.77887447 305.2517004 75.7771368 C304.22826486 75.7770553 304.22826486 75.7770553 303.18415385 75.77697214 C288.20739153 75.77572228 273.23062962 75.77318782 258.25386771 75.76949479 C252.89513361 75.76817819 247.5363995 75.76692587 242.17766538 75.76569195 C240.17902471 75.76522787 238.18038403 75.76474835 236.18174336 75.7642688 C216.25107648 75.75971396 196.32043117 75.76504928 176.38976765 75.77514553 C153.7320043 75.78656582 131.07429285 75.78375919 108.41653599 75.76202255 C95.72710815 75.75025142 83.03779262 75.749548 70.34836763 75.76460725 C61.88118512 75.77354966 53.414093 75.7680439 44.94692393 75.75058818 C40.11662728 75.74103709 35.28655442 75.73789364 30.45626451 75.75221211 C26.06513614 75.76509653 21.67443086 75.75969794 17.28333356 75.73948947 C15.70167715 75.73544868 14.11998601 75.73815715 12.53835704 75.74831322 C-1.92847971 75.83464331 -1.92847971 75.83464331 -7.87442684 71.22996426 C-8.86442684 70.56996426 -9.85442684 69.90996426 -10.87442684 69.22996426 C-11.82364559 67.06590176 -11.82364559 67.06590176 -12.56192684 64.60496426 C-12.93897762 63.37906582 -12.93897762 63.37906582 -13.32364559 62.12840176 C-13.59628231 61.18867519 -13.59628231 61.18867519 -13.87442684 60.22996426 C-14.98817684 60.75590176 -14.98817684 60.75590176 -16.12442684 61.29246426 C-19.9813132 62.60731188 -21.70654279 61.76898767 -25.31192684 60.10496426 C-29.37863609 58.71633183 -32.07749943 59.92713184 -35.99942684 61.41746426 C-36.94817684 61.68558926 -37.89692684 61.95371426 -38.87442684 62.22996426 C-39.86442684 61.56996426 -40.85442684 60.90996426 -41.87442684 60.22996426 C-44.355135 59.95101956 -44.355135 59.95101956 -46.99942684 60.04246426 C-47.88887997 60.04890957 -48.77833309 60.05535488 -49.69473934 60.06199551 C-51.85179213 59.99043377 -51.85179213 59.99043377 -52.87442684 61.22996426 C-56.08533226 61.76511516 -58.10001195 61.76121287 -60.82755184 59.89012051 C-62.56794862 58.38672898 -64.24361524 56.85112609 -65.87442684 55.22996426 C-66.59630184 56.21996426 -67.31817684 57.20996426 -68.06192684 58.22996426 C-69.93530743 60.45791123 -70.55127276 61.14326438 -73.43692684 61.91746426 C-76.9226243 60.93431882 -77.93838935 59.23416036 -79.87442684 56.22996426 C-81.12442684 53.41746426 -81.12442684 53.41746426 -81.87442684 51.22996426 C-82.12837215 51.78426113 -82.38231747 52.33855801 -82.64395809 52.90965176 C-82.98813778 53.63410488 -83.33231747 54.35855801 -83.68692684 55.10496426 C-84.02337215 55.82426113 -84.35981747 56.54355801 -84.70645809 57.28465176 C-85.87442684 59.22996426 -85.87442684 59.22996426 -88.87442684 61.22996426 C-91.37442684 61.10496426 -91.37442684 61.10496426 -93.87442684 60.22996426 C-95.68692684 58.16746426 -95.68692684 58.16746426 -96.87442684 56.22996426 C-97.43130184 57.46746426 -97.43130184 57.46746426 -97.99942684 58.72996426 C-98.61817684 59.55496426 -99.23692684 60.37996426 -99.87442684 61.22996426 C-103.06192684 61.54246426 -103.06192684 61.54246426 -105.87442684 61.22996426 C-108.87442684 54.60496426 -108.87442684 54.60496426 -108.87442684 51.22996426 C-109.90567684 51.12683926 -110.93692684 51.02371426 -111.99942684 50.91746426 C-115.85457777 50.23348587 -118.52617819 49.22296941 -121.87442684 47.22996426 C-122.20442684 46.56996426 -122.53442684 45.90996426 -122.87442684 45.22996426 C-124.83110287 45.17836147 -124.83110287 45.17836147 -126.8273077 45.12571621 C-131.75036251 44.98984483 -136.6720659 44.82409878 -141.59390926 44.65013027 C-143.70856783 44.57937961 -145.82350034 44.5163199 -147.93863583 44.46165371 C-158.41111919 44.18612736 -168.61929367 43.81530181 -178.75333309 40.96043301 C-179.45473919 40.7692741 -180.15614529 40.5781152 -180.87880611 40.3811636 C-184.20372001 39.31976325 -185.62974825 38.68215874 -187.3194952 35.55930996 C-187.50262264 34.79062588 -187.68575008 34.0219418 -187.87442684 33.22996426 C-183.03010369 27.45728649 -174.1297295 25.69524457 -166.93155575 24.90818691 C-157.36645181 24.23920558 -147.77108283 24.13339059 -138.18692684 24.32371426 C-137.32551083 24.33765224 -136.46409481 24.35159023 -135.57657528 24.36595058 C-133.99590543 24.39915661 -132.41546678 24.45218605 -130.8363409 24.5295248 C-125.54851011 24.66807323 -123.09646266 23.24160665 -118.87442684 20.22996426 C-115.73286151 19.54225841 -112.68100967 19.23559439 -109.48380184 18.91746426 C-106.73185133 18.5128797 -106.73185133 18.5128797 -105.64005184 16.22996426 C-105.26106747 15.23996426 -105.26106747 15.23996426 -104.87442684 14.22996426 C-102.01322429 12.79936298 -100.03432099 12.84303844 -96.87442684 13.22996426 C-96.19380184 14.43652676 -96.19380184 14.43652676 -95.49942684 15.66746426 C-94.1794195 18.37836472 -94.1794195 18.37836472 -91.91739559 18.78465176 C-89.91096956 19.0165679 -87.8917734 19.13075049 -85.87442684 19.22996426 C-85.21442684 16.91996426 -84.55442684 14.60996426 -83.87442684 12.22996426 C-82.55442684 11.89996426 -81.23442684 11.56996426 -79.87442684 11.22996426 C-78.01665919 14.36494717 -77.67302208 16.60467858 -77.87442684 20.22996426 C-74.90442684 19.89996426 -71.93442684 19.56996426 -68.87442684 19.22996426 C-68.21442684 16.58996426 -67.55442684 13.94996426 -66.87442684 11.22996426 C-63.15843493 11.02909983 -62.10234239 11.07802056 -58.87442684 13.22996426 C-56.87324061 12.56686689 -54.87349834 11.89940998 -52.87442684 11.22996426 C-49.89067448 11.00273187 -46.9264407 11.08559375 -43.93692684 11.16746426 C-38.43242787 11.29141878 -33.33910666 11.05712423 -27.87442684 10.22996426 C-25.53626534 10.52754845 -23.20260648 10.86235695 -20.87442684 11.22996426 C-18.20052193 11.31470068 -15.55065233 11.27691558 -12.87442684 11.22996426 C-12.69266903 10.60347988 -12.51091122 9.97699551 -12.32364559 9.33152676 C-12.0722784 8.51426113 -11.82091122 7.69699551 -11.56192684 6.85496426 C-11.31829403 6.04285488 -11.07466122 5.23074551 -10.82364559 4.39402676 C-8.65228348 -0.55632144 -4.74492373 -0.0145995 0 0 Z M-74.87442684 49.22996426 C-74.54442684 50.87996426 -74.21442684 52.52996426 -73.87442684 54.22996426 C-72.88442684 52.90996426 -71.89442684 51.58996426 -70.87442684 50.22996426 C-72.19442684 49.89996426 -73.51442684 49.56996426 -74.87442684 49.22996426 Z M-91.87442684 51.22996426 C-90.88442684 52.71496426 -90.88442684 52.71496426 -89.87442684 54.22996426 C-89.54442684 53.23996426 -89.21442684 52.24996426 -88.87442684 51.22996426 C-89.86442684 51.22996426 -90.85442684 51.22996426 -91.87442684 51.22996426 Z " transform="translate(240.87442684173584,43.77003574371338)" style="fill: #E3E2E7;"/><path d="M0 0 C2.0625 0.4375 2.0625 0.4375 4 1 C4.495 4.96 4.495 4.96 5 9 C9.455 8.505 9.455 8.505 14 8 C14.33 6.02 14.66 4.04 15 2 C17.475 1.505 17.475 1.505 20 1 C20 1.99 20 2.98 20 4 C19.34 4 18.68 4 18 4 C16.56630784 18.22963893 16.56630784 18.22963893 17.875 32.375 C18.77686173 38.80515704 14.93097741 44.50335541 12 50 C9.63671875 50.13671875 9.63671875 50.13671875 7 50 C4.00182346 47.00182346 2.36768421 43.98907894 1 40 C0.74605469 40.55429688 0.49210937 41.10859375 0.23046875 41.6796875 C-0.11371094 42.40414062 -0.45789063 43.12859375 -0.8125 43.875 C-1.14894531 44.59429687 -1.48539062 45.31359375 -1.83203125 46.0546875 C-3 48 -3 48 -6 50 C-8.5 49.875 -8.5 49.875 -11 49 C-12.8125 46.9375 -12.8125 46.9375 -14 45 C-14.556875 46.2375 -14.556875 46.2375 -15.125 47.5 C-15.74375 48.325 -16.3625 49.15 -17 50 C-20.1875 50.3125 -20.1875 50.3125 -23 50 C-26 43.375 -26 43.375 -26 40 C-27.03125 39.896875 -28.0625 39.79375 -29.125 39.6875 C-32.98015093 39.00352161 -35.65175135 37.99300515 -39 36 C-39.33 35.34 -39.66 34.68 -40 34 C-41.95667603 33.94839722 -41.95667603 33.94839722 -43.95288086 33.89575195 C-48.87593567 33.75988057 -53.79763906 33.59413452 -58.71948242 33.42016602 C-60.83414099 33.34941536 -62.9490735 33.28635564 -65.06420898 33.23168945 C-75.53669235 32.95616311 -85.74486683 32.58533755 -95.87890625 29.73046875 C-96.58031235 29.53930984 -97.28171844 29.34815094 -98.00437927 29.15119934 C-101.32929317 28.089799 -102.7553214 27.45219449 -104.44506836 24.3293457 C-104.6281958 23.56066162 -104.81132324 22.79197754 -105 22 C-100.15567685 16.22732224 -91.25530266 14.46528031 -84.05712891 13.67822266 C-74.49202497 13.00924132 -64.89665599 12.90342634 -55.3125 13.09375 C-54.45108398 13.10768799 -53.58966797 13.12162598 -52.70214844 13.13598633 C-51.12147858 13.16919236 -49.54103994 13.2222218 -47.96191406 13.29956055 C-42.67408327 13.43810897 -40.22203582 12.0116424 -36 9 C-32.85843467 8.31229416 -29.80658283 8.00563013 -26.609375 7.6875 C-23.85742449 7.28291544 -23.85742449 7.28291544 -22.765625 5 C-22.38664062 4.01 -22.38664062 4.01 -22 3 C-19.13879744 1.56939872 -17.15989415 1.61307419 -14 2 C-13.319375 3.2065625 -13.319375 3.2065625 -12.625 4.4375 C-11.30499266 7.14840046 -11.30499266 7.14840046 -9.04296875 7.5546875 C-7.03654272 7.78660364 -5.01734656 7.90078623 -3 8 C-2.5359375 6.2984375 -2.5359375 6.2984375 -2.0625 4.5625 C-1 1 -1 1 0 0 Z M8 38 C8.33 39.65 8.66 41.3 9 43 C9.99 41.68 10.98 40.36 12 39 C10.68 38.67 9.36 38.34 8 38 Z M-9 40 C-8.01 41.485 -8.01 41.485 -7 43 C-6.67 42.01 -6.34 41.02 -6 40 C-6.99 40 -7.98 40 -9 40 Z " transform="translate(158,55)" style="fill: #C7C0B0;"/><path d="M0 0 C1.11344032 -0.00021904 1.11344032 -0.00021904 2.24937439 -0.0004425 C4.67873153 0.00024865 7.10800994 0.00800336 9.53735352 0.01586914 C11.23128721 0.01773616 12.92522145 0.01915872 14.61915588 0.02015686 C19.05949415 0.02395971 23.49979927 0.03377077 27.94012451 0.04486084 C32.478389 0.05512312 37.01665888 0.05966477 41.55493164 0.06469727 C50.44622452 0.07539519 59.33748419 0.09297374 68.22875977 0.11352539 C68.22875977 7.37352539 68.22875977 14.63352539 68.22875977 22.11352539 C40.83875977 22.11352539 13.44875977 22.11352539 -14.77124023 22.11352539 C-14.77124023 15.18352539 -14.77124023 8.25352539 -14.77124023 1.11352539 C-9.70098346 0.38920299 -5.06571299 -0.02656882 0 0 Z " transform="translate(1010.771240234375,64.886474609375)" style="fill: #060606;"/><path d="M0 0 C2.58926331 2.58926331 2.37398043 4.02705279 2.625 7.625 C2.73714844 9.12933594 2.73714844 9.12933594 2.8515625 10.6640625 C2.90054688 11.43492188 2.94953125 12.20578125 3 13 C7.455 12.505 7.455 12.505 12 12 C12.33 9.69 12.66 7.38 13 5 C13.66 5 14.32 5 15 5 C15.495 9.455 15.495 9.455 16 14 C16.66 14 17.32 14 18 14 C18 11.03 18 8.06 18 5 C21.96 4.67 25.92 4.34 30 4 C30.33 12.25 30.66 20.5 31 29 C28.03 29 25.06 29 22 29 C22 31.64 22 34.28 22 37 C21.34 37 20.68 37 20 37 C20 35.68 20 34.36 20 33 C19.34 33 18.68 33 18 33 C18 32.01 18 31.02 18 30 C16.68 30 15.36 30 14 30 C13.505 24.555 13.505 24.555 13 19 C9.7 19 6.4 19 3 19 C3.99 23.455 3.99 23.455 5 28 C6.65 28.33 8.3 28.66 10 29 C10 29.33 10 29.66 10 30 C8.35 30 6.7 30 5 30 C5.495 33.96 5.495 33.96 6 38 C3.13302508 36.71480435 1.02392288 35.42870746 -1 33 C-1 32.34 -1 31.68 -1 31 C-2.98 30.67 -4.96 30.34 -7 30 C-6.34 32.31 -5.68 34.62 -5 37 C-6.98 36.505 -6.98 36.505 -9 36 C-9 34.02 -9 32.04 -9 30 C-9.69867188 30.03480469 -10.39734375 30.06960937 -11.1171875 30.10546875 C-12.02726562 30.13253906 -12.93734375 30.15960938 -13.875 30.1875 C-14.77992188 30.22230469 -15.68484375 30.25710937 -16.6171875 30.29296875 C-17.79667969 30.14794922 -17.79667969 30.14794922 -19 30 C-19.99 28.515 -19.99 28.515 -21 27 C-17.7 27.33 -14.4 27.66 -11 28 C-11 25.03 -11 22.06 -11 19 C-12.299375 19.020625 -13.59875 19.04125 -14.9375 19.0625 C-16.29165633 19.08399454 -17.64756083 19.07148199 -19 19 C-19.33 18.67 -19.66 18.34 -20 18 C-22.04419193 17.87619533 -24.09262581 17.82201845 -26.14038086 17.79467773 C-27.45521957 17.77473251 -28.77005829 17.75478729 -30.1247406 17.73423767 C-31.57144039 17.71724849 -33.01814148 17.70036986 -34.46484375 17.68359375 C-35.93836556 17.66302709 -37.41188143 17.64203069 -38.88539124 17.62062073 C-42.77260489 17.565319 -46.65987263 17.51595538 -50.54718018 17.46777344 C-54.50220666 17.41768297 -58.45715225 17.36189322 -62.41210938 17.30664062 C-75.2056966 17.09432647 -75.2056966 17.09432647 -88 17 C-87.67 15.68 -87.34 14.36 -87 13 C-66.54 13 -46.08 13 -25 13 C-24.67 11.35 -24.34 9.7 -24 8 C-23.34 8 -22.68 8 -22 8 C-21.01 11.96 -21.01 11.96 -20 16 C-19.34 16 -18.68 16 -18 16 C-18 15.34 -18 14.68 -18 14 C-9.09 13.01 -9.09 13.01 0 12 C0 8.04 0 4.08 0 0 Z " transform="translate(143,63)" style="fill: #988C77;"/><path d="M0 0 C18 0 18 0 22 3 C25.84582998 13.77558022 25.21594275 29.92028624 23 41 C21.02 43.475 21.02 43.475 19 46 C9.595 46.495 9.595 46.495 0 47 C0 31.49 0 15.98 0 0 Z " transform="translate(1200,59)" style="fill: #101010;"/><path d="M0 0 C40.24398157 -0.02324255 80.48796222 -0.04068379 120.73194924 -0.05106533 C125.55836005 -0.05231501 130.38477085 -0.05360943 135.21118164 -0.05493164 C136.65156026 -0.05532511 136.65156026 -0.05532511 138.12103743 -0.05572652 C151.49738136 -0.05947261 164.87372225 -0.06560674 178.25006421 -0.07373433 C201.35290695 -0.08776915 224.45574649 -0.0969429 247.55859375 -0.09765625 C248.46171073 -0.09769482 249.36482771 -0.09773339 250.29531187 -0.09777313 C314.86844946 -0.09961799 379.43108015 0.22520122 444 1 C441.38618235 3.61381765 440.29580054 3.25048924 436.65273666 3.25168228 C435.5107682 3.25689778 434.36879974 3.26211327 433.19222617 3.26748681 C431.29396783 3.26079465 431.29396783 3.26079465 429.35736084 3.25396729 C428.00758008 3.25626988 426.65780056 3.25944504 425.30802369 3.26342177 C421.58510452 3.27180912 417.86228723 3.26762643 414.13936758 3.26144934 C410.12787768 3.25694064 406.1164058 3.26390154 402.10491943 3.26940918 C394.23304453 3.27832861 386.36120765 3.2763679 378.48933122 3.2705839 C372.0775426 3.26606844 365.66576466 3.26545404 359.25397491 3.26763153 C358.34148765 3.267938 357.42900039 3.26824446 356.48886199 3.26856022 C354.634833 3.2691997 352.780804 3.26984813 350.92677501 3.2705054 C333.50780892 3.27621845 316.08886381 3.26964023 298.66990116 3.25890467 C283.77959796 3.25001019 268.88932604 3.2514852 253.99902344 3.26074219 C236.68609549 3.27150035 219.37318612 3.27562493 202.06025529 3.26951766 C200.20445903 3.26888064 198.34866278 3.2682519 196.49286652 3.26763153 C195.57999325 3.26732298 194.66711998 3.26701443 193.72658388 3.26669653 C187.34965719 3.26498297 180.97274241 3.26785638 174.59581757 3.27259064 C166.78307829 3.2782632 158.97037906 3.27655348 151.15764424 3.26602915 C147.18436867 3.26085011 143.21115928 3.25857819 139.23788452 3.26532745 C119.40589844 3.29632998 99.77174056 2.60090572 80 1 C79.67 1.66 79.34 2.32 79 3 C78.09660385 2.93148331 77.1932077 2.86296661 76.26243591 2.79237366 C67.01721622 2.12843572 57.80514907 1.80015874 48.53515625 1.68359375 C47.12169402 1.66294188 45.70823681 1.64194384 44.29478455 1.62062073 C40.63058625 1.56624743 36.96634045 1.51647618 33.30206299 1.46777344 C29.54052664 1.41692663 25.7790566 1.36157542 22.01757812 1.30664062 C14.67844207 1.20010085 7.33924967 1.09843886 0 1 C0 0.67 0 0.34 0 0 Z " transform="translate(448,45)" style="fill: #FAFAFB;"/><path d="M0 0 C1.16724609 0.0169693 2.33449219 0.0339386 3.53710938 0.05142212 C5.51420898 0.07672501 5.51420898 0.07672501 7.53125 0.10253906 C8.981124 0.1264243 10.43099373 0.15056997 11.88085938 0.17495728 C13.35676641 0.19671313 14.83267799 0.21816321 16.30859375 0.23931885 C19.40566001 0.28488187 22.50264102 0.33411348 25.59960938 0.38589478 C29.5778401 0.45212402 33.55613975 0.50938739 37.5345459 0.56392479 C40.5833932 0.60668544 43.63215356 0.6541323 46.6809082 0.703022 C48.14817117 0.72598869 49.6154578 0.74748964 51.08276367 0.76752853 C53.13011777 0.79620199 55.17737087 0.83183589 57.22460938 0.86782837 C58.39185547 0.88638885 59.55910156 0.90494934 60.76171875 0.92407227 C63.38085938 1.08901978 63.38085938 1.08901978 64.38085938 2.08901978 C65.72833022 2.3197706 67.08463502 2.5005504 68.44335938 2.65151978 C69.74273437 2.79589478 71.04210937 2.94026978 72.38085938 3.08901978 C72.38085938 6.05901978 72.38085938 9.02901978 72.38085938 12.08901978 C69.41085938 12.08901978 66.44085938 12.08901978 63.38085938 12.08901978 C63.87585938 13.07901978 63.87585938 13.07901978 64.38085938 14.08901978 C59.50585938 12.33901978 59.50585938 12.33901978 58.38085938 10.08901978 C57.83565643 10.07284607 57.29045349 10.05667236 56.72872925 10.04000854 C50.98383167 9.86605874 45.2401703 9.66701194 39.49658203 9.45425415 C37.36137886 9.3783301 35.22594827 9.30851801 33.09033203 9.24526978 C20.9872137 8.88245967 9.81028536 8.36156162 -1.61914062 4.08901978 C-1.61914062 3.42901978 -1.61914062 2.76901978 -1.61914062 2.08901978 C-2.27914062 1.75901978 -2.93914063 1.42901978 -3.61914062 1.08901978 C-2.61914062 0.08901978 -2.61914062 0.08901978 0 0 Z " transform="translate(59.619140625,78.91098022460938)" style="fill: #AFABA2;"/><path d="M0 0 C1.11344032 -0.00021904 1.11344032 -0.00021904 2.24937439 -0.0004425 C4.67873153 0.00024865 7.10800994 0.00800336 9.53735352 0.01586914 C11.23128721 0.01773616 12.92522145 0.01915872 14.61915588 0.02015686 C19.05949415 0.02395971 23.49979927 0.03377077 27.94012451 0.04486084 C32.478389 0.05512312 37.01665888 0.05966477 41.55493164 0.06469727 C50.44622452 0.07539519 59.33748419 0.09297374 68.22875977 0.11352539 C68.22875977 7.37352539 68.22875977 14.63352539 68.22875977 22.11352539 C40.83875977 22.11352539 13.44875977 22.11352539 -14.77124023 22.11352539 C-14.77124023 15.18352539 -14.77124023 8.25352539 -14.77124023 1.11352539 C-9.70098346 0.38920299 -5.06571299 -0.02656882 0 0 Z M13.22875977 1.11352539 C13.22875977 1.77352539 13.22875977 2.43352539 13.22875977 3.11352539 C7.61875977 3.11352539 2.00875977 3.11352539 -3.77124023 3.11352539 C-3.77124023 7.73352539 -3.77124023 12.35352539 -3.77124023 17.11352539 C-2.45124023 17.44352539 -1.13124023 17.77352539 0.22875977 18.11352539 C0.22875977 18.77352539 0.22875977 19.43352539 0.22875977 20.11352539 C-1.42124023 20.11352539 -3.07124023 20.11352539 -4.77124023 20.11352539 C-4.77124023 20.44352539 -4.77124023 20.77352539 -4.77124023 21.11352539 C-4.21138428 21.11352539 -3.65152832 21.11352539 -3.07470703 21.11352539 C20.3597819 21.11352539 43.79427083 21.11352539 67.22875977 21.11352539 C67.22875977 18.80352539 67.22875977 16.49352539 67.22875977 14.11352539 C64.91875977 14.44352539 62.60875977 14.77352539 60.22875977 15.11352539 C60.22875977 11.15352539 60.22875977 7.19352539 60.22875977 3.11352539 C62.53875977 3.44352539 64.84875977 3.77352539 67.22875977 4.11352539 C67.22875977 3.12352539 67.22875977 2.13352539 67.22875977 1.11352539 C49.40875977 1.11352539 31.58875977 1.11352539 13.22875977 1.11352539 Z " transform="translate(1010.771240234375,64.886474609375)" style="fill: #0C0C0D;"/><path d="M0 0 C0 0.99 0 1.98 0 3 C-0.66 3 -1.32 3 -2 3 C-3.43369216 17.22963893 -3.43369216 17.22963893 -2.125 31.375 C-1.22313827 37.80515704 -5.06902259 43.50335541 -8 49 C-10.36328125 49.13671875 -10.36328125 49.13671875 -13 49 C-15.99817654 46.00182346 -17.63231579 42.98907894 -19 39 C-19.38091797 39.83144531 -19.38091797 39.83144531 -19.76953125 40.6796875 C-20.11371094 41.40414062 -20.45789063 42.12859375 -20.8125 42.875 C-21.14894531 43.59429687 -21.48539063 44.31359375 -21.83203125 45.0546875 C-23 47 -23 47 -26 49 C-28.5 48.875 -28.5 48.875 -31 48 C-32.8125 45.9375 -32.8125 45.9375 -34 44 C-34.37125 44.825 -34.7425 45.65 -35.125 46.5 C-35.74375 47.325 -36.3625 48.15 -37 49 C-40.1875 49.3125 -40.1875 49.3125 -43 49 C-46 42.375 -46 42.375 -46 39 C-48.31 38.67 -50.62 38.34 -53 38 C-53 37.67 -53 37.34 -53 37 C-50.03 37 -47.06 37 -44 37 C-44 38.98 -44 40.96 -44 43 C-42.68 43.33 -41.36 43.66 -40 44 C-40.33 43.401875 -40.66 42.80375 -41 42.1875 C-42 40 -42 40 -42 37 C-37.89564062 37.45603993 -35.63705117 37.76361901 -33 41 C-32.278125 41.721875 -31.55625 42.44375 -30.8125 43.1875 C-30.214375 43.785625 -29.61625 44.38375 -29 45 C-29.4485313 39.68844512 -30.23584028 35.05725787 -32 30 C-32 28.68 -32 27.36 -32 26 C-28.7 26 -25.4 26 -22 26 C-21.67 29.63 -21.34 33.26 -21 37 C-19.68 37 -18.36 37 -17 37 C-17 37.99 -17 38.98 -17 40 C-16.34 40 -15.68 40 -15 40 C-15 41.32 -15 42.64 -15 44 C-14.34 44 -13.68 44 -13 44 C-13 41.36 -13 38.72 -13 36 C-10.03 36 -7.06 36 -4 36 C-4.495 34.02 -4.495 34.02 -5 32 C-5.07911543 30.34010718 -5.10778885 28.6773713 -5.09765625 27.015625 C-5.09443359 26.08105469 -5.09121094 25.14648438 -5.08789062 24.18359375 C-5.07532227 22.73146484 -5.07532227 22.73146484 -5.0625 21.25 C-5.05798828 20.26644531 -5.05347656 19.28289062 -5.04882812 18.26953125 C-5.03706483 15.84629209 -5.02062684 13.42317727 -5 11 C-5.92377441 11.24447876 -5.92377441 11.24447876 -6.86621094 11.49389648 C-9.07953301 12.01886406 -10.98093632 12.10031773 -13.25 12.0625 C-15.10625 12.0315625 -15.10625 12.0315625 -17 12 C-17 11.34 -17 10.68 -17 10 C-12.71 10 -8.42 10 -4 10 C-4.020625 8.535625 -4.04125 7.07125 -4.0625 5.5625 C-4.08392007 4.04167482 -4.07179964 2.51928038 -4 1 C-3 0 -3 0 0 0 Z M-12 37 C-11.67 38.65 -11.34 40.3 -11 42 C-10.01 40.68 -9.02 39.36 -8 38 C-9.32 37.67 -10.64 37.34 -12 37 Z M-29 39 C-28.01 40.485 -28.01 40.485 -27 42 C-26.67 41.01 -26.34 40.02 -26 39 C-26.99 39 -27.98 39 -29 39 Z " transform="translate(178,56)" style="fill: #D6D6D4;"/><path d="M0 0 C18 0 18 0 22 3 C26.00719921 14.22771853 24.68417703 29.42128291 23 41 C22.67 41 22.34 41 22 41 C21.93941406 39.85402344 21.87882812 38.70804688 21.81640625 37.52734375 C21.73193011 35.99738703 21.64728573 34.46743959 21.5625 32.9375 C21.52318359 32.18533203 21.48386719 31.43316406 21.44335938 30.65820312 C21.40146484 29.91376953 21.35957031 29.16933594 21.31640625 28.40234375 C21.27974854 27.72679443 21.24309082 27.05124512 21.20532227 26.35522461 C20.93225629 23.22292081 20.44465475 20.11258322 20 17 C13.73 16.67 7.46 16.34 1 16 C1 24.58 1 33.16 1 42 C0.67 42 0.34 42 0 42 C0 28.14 0 14.28 0 0 Z " transform="translate(1200,59)" style="fill: #484848;"/><path d="M0 0 C0.33 8.25 0.66 16.5 1 25 C-1.97 25 -4.94 25 -8 25 C-8 27.64 -8 30.28 -8 33 C-8.66 33 -9.32 33 -10 33 C-10 31.68 -10 30.36 -10 29 C-10.66 29 -11.32 29 -12 29 C-12 28.01 -12 27.02 -12 26 C-13.32 26 -14.64 26 -16 26 C-16.78653402 22.59698245 -17.08116649 19.62008956 -16.87890625 16.13671875 C-16.83056641 15.25048828 -16.78222656 14.36425781 -16.73242188 13.45117188 C-16.67634766 12.53916016 -16.62027344 11.62714844 -16.5625 10.6875 C-16.51029297 9.75615234 -16.45808594 8.82480469 -16.40429688 7.86523438 C-16.2751852 5.57643647 -16.14024585 3.28813814 -16 1 C-15.67 1 -15.34 1 -15 1 C-14.67 3.97 -14.34 6.94 -14 10 C-13.34 10 -12.68 10 -12 10 C-12 7.03 -12 4.06 -12 1 C-7.915021 0.45533613 -4.1274515 0 0 0 Z " transform="translate(173,67)" style="fill: #5E5E5F;"/><path d="M0 0 C6.6 0 13.2 0 20 0 C20 6.6 20 13.2 20 20 C13.4 20 6.8 20 0 20 C0 13.4 0 6.8 0 0 Z " transform="translate(1109,67)" style="fill: #0A0A0B;"/><path d="M0 0 C22.51407304 -0.02338319 45.02814407 -0.04100579 67.54222679 -0.05181217 C77.99641705 -0.05696361 88.45059975 -0.06398436 98.90478516 -0.07543945 C108.01898377 -0.08542149 117.13317692 -0.09186181 126.24738085 -0.09408849 C131.07113041 -0.09538962 135.89486432 -0.09843759 140.71860886 -0.10573006 C145.26410238 -0.11254583 149.80957388 -0.11460569 154.35507202 -0.11310768 C156.01825709 -0.11338152 157.68144294 -0.11535354 159.34462357 -0.11920547 C174.73518783 -0.15308482 174.73518783 -0.15308482 182.02332497 0.88289738 C184.03867202 1.12384811 184.03867202 1.12384811 186.01129723 0.33940029 C188 0 188 0 190.25 1.4375 C190.8275 1.953125 191.405 2.46875 192 3 C167.55692914 3.02334347 143.11385994 3.04098631 118.67078018 3.05181217 C107.32185748 3.05697204 95.9729417 3.06400889 84.62402344 3.07543945 C74.73419876 3.08539569 64.8443791 3.09185568 54.95454955 3.09408849 C49.71627797 3.095394 44.47802072 3.09846977 39.23975372 3.10573006 C34.31179783 3.11250507 29.38386221 3.11461392 24.4559021 3.11310768 C22.64506673 3.11338334 20.8342307 3.11537969 19.02339935 3.11920547 C16.55498284 3.12416581 14.08664332 3.12298958 11.6182251 3.12025452 C10.89837818 3.12316736 10.17853127 3.1260802 9.43687081 3.12908131 C6.1456493 3.11919513 3.14730045 3.01715017 0 2 C0 1.34 0 0.68 0 0 Z " transform="translate(238,115)" style="fill: #C8C8CB;"/><path d="M0 0 C2.0625 0.4375 2.0625 0.4375 4 1 C4.33 3.64 4.66 6.28 5 9 C9.455 8.505 9.455 8.505 14 8 C14.33 6.02 14.66 4.04 15 2 C15.33 2 15.66 2 16 2 C16 4.97 16 7.94 16 11 C11.71 11 7.42 11 3 11 C3 14.63 3 18.26 3 22 C2.34 22 1.68 22 1 22 C0.67 19.03 0.34 16.06 0 13 C-0.66 13 -1.32 13 -2 13 C-1.979375 14.134375 -1.95875 15.26875 -1.9375 16.4375 C-2 20 -2 20 -3 21 C-4.51928038 21.07179964 -6.04167482 21.08392007 -7.5625 21.0625 C-8.38878906 21.05347656 -9.21507812 21.04445313 -10.06640625 21.03515625 C-11.02353516 21.01775391 -11.02353516 21.01775391 -12 21 C-13.70778343 17.58443314 -13.62287908 13.77120917 -14 10 C-14.33 13.3 -14.66 16.6 -15 20 C-16.95387664 16.09224671 -17.34762234 14.00312413 -17.625 9.75 C-17.69976562 8.67234375 -17.77453125 7.5946875 -17.8515625 6.484375 C-17.90054688 5.66453125 -17.94953125 4.8446875 -18 4 C-19.32 3.67 -20.64 3.34 -22 3 C-19.13879744 1.56939872 -17.15989415 1.61307419 -14 2 C-13.54625 2.804375 -13.0925 3.60875 -12.625 4.4375 C-11.30499266 7.14840046 -11.30499266 7.14840046 -9.04296875 7.5546875 C-7.03654272 7.78660364 -5.01734656 7.90078623 -3 8 C-2.690625 6.865625 -2.38125 5.73125 -2.0625 4.5625 C-1 1 -1 1 0 0 Z " transform="translate(158,55)" style="fill: #ABA7A4;"/><path d="M0 0 C7.10244999 -0.02526787 14.20488848 -0.04283201 21.30737305 -0.05493164 C23.72567172 -0.05997349 26.14396733 -0.06680678 28.56225586 -0.07543945 C32.02979283 -0.08751157 35.49728966 -0.09322963 38.96484375 -0.09765625 C40.05337143 -0.10281754 41.14189911 -0.10797882 42.26341248 -0.11329651 C43.76485558 -0.11340981 43.76485558 -0.11340981 45.29663086 -0.11352539 C46.62566689 -0.11685631 46.62566689 -0.11685631 47.98155212 -0.12025452 C50 0 50 0 51 1 C52.34747084 1.23075082 53.70377565 1.41153063 55.0625 1.5625 C56.361875 1.706875 57.66125 1.85125 59 2 C59 4.97 59 7.94 59 11 C56.03 11 53.06 11 50 11 C50.495 11.99 50.495 11.99 51 13 C48.5625 12.25 48.5625 12.25 46 11 C45.505 9.02 45.505 9.02 45 7 C39.72 7 34.44 7 29 7 C29 6.67 29 6.34 29 6 C26.69 5.34 24.38 4.68 22 4 C22 3.34 22 2.68 22 2 C24.89589652 1.97293555 27.79153795 1.95312971 30.6875 1.9375 C31.91243164 1.92493164 31.91243164 1.92493164 33.16210938 1.91210938 C37.24499084 1.89557949 41.01651707 1.96964902 45 3 C45 2.34 45 1.68 45 1 C30.15 1 15.3 1 0 1 C0 0.67 0 0.34 0 0 Z " transform="translate(73,80)" style="fill: #988F7D;"/><path d="M0 0 C2.58926331 2.58926331 2.37398043 4.02705279 2.625 7.625 C2.69976562 8.62789062 2.77453125 9.63078125 2.8515625 10.6640625 C2.92503906 11.82035156 2.92503906 11.82035156 3 13 C7.455 12.505 7.455 12.505 12 12 C12.33 9.69 12.66 7.38 13 5 C13.33 5 13.66 5 14 5 C14.02694851 6.95825873 14.04637218 8.91662226 14.0625 10.875 C14.07410156 11.96554688 14.08570313 13.05609375 14.09765625 14.1796875 C14 17 14 17 13 19 C9.7 19 6.4 19 3 19 C3.66 21.97 4.32 24.94 5 28 C6.65 28.33 8.3 28.66 10 29 C10 29.33 10 29.66 10 30 C8.35 30 6.7 30 5 30 C5.33 32.64 5.66 35.28 6 38 C2.14963149 36.48735523 0.11651578 34.55272291 -2 31 C-2.32555094 27.96830689 -2.23810803 25.03587743 -2 22 C-0.68 22 0.64 22 2 22 C2 20.68 2 19.36 2 18 C4.97 18 7.94 18 11 18 C11 17.01 11 16.02 11 15 C10.07767578 15.10828125 10.07767578 15.10828125 9.13671875 15.21875 C8.32847656 15.3115625 7.52023438 15.404375 6.6875 15.5 C5.88699219 15.5928125 5.08648437 15.685625 4.26171875 15.78125 C2 16 2 16 -1 16 C-1.66 19.96 -2.32 23.92 -3 28 C-4.32 27.67 -5.64 27.34 -7 27 C-7 22.38 -7 17.76 -7 13 C-3.535 12.505 -3.535 12.505 0 12 C0 8.04 0 4.08 0 0 Z " transform="translate(143,63)" style="fill: #75706C;"/><path d="M0 0 C0.33 4.62 0.66 9.24 1 14 C1.99 14.33 2.98 14.66 4 15 C3.979375 13.783125 3.95875 12.56625 3.9375 11.3125 C3.93175884 8.08022678 4.21233685 5.15065259 5 2 C6.32 1.67 7.64 1.34 9 1 C9 1.66 9 2.32 9 3 C9.66 2.67 10.32 2.34 11 2 C13.3329866 1.95977609 15.66706666 1.95679753 18 2 C18 2.99 18 3.98 18 5 C15.03 5 12.06 5 9 5 C9 6.32 9 7.64 9 9 C7.68 9 6.36 9 5 9 C5 11.97 5 14.94 5 18 C3.35 17.67 1.7 17.34 0 17 C0.66 19.31 1.32 21.62 2 24 C0.68 23.67 -0.64 23.34 -2 23 C-2 21.02 -2 19.04 -2 17 C-2.69867188 17.03480469 -3.39734375 17.06960937 -4.1171875 17.10546875 C-5.02726563 17.13253906 -5.93734375 17.15960938 -6.875 17.1875 C-7.77992188 17.22230469 -8.68484375 17.25710937 -9.6171875 17.29296875 C-10.79667969 17.14794922 -10.79667969 17.14794922 -12 17 C-12.66 16.01 -13.32 15.02 -14 14 C-10.7 14.33 -7.4 14.66 -4 15 C-4 12.03 -4 9.06 -4 6 C-6.64 6 -9.28 6 -12 6 C-11.67 4.35 -11.34 2.7 -11 1 C-7.26513121 0.4254048 -3.78706732 0 0 0 Z " transform="translate(136,76)" style="fill: #74736F;"/><path d="M0 0 C17.49 0 34.98 0 53 0 C53 7.26 53 14.52 53 22 C35.84 22 18.68 22 1 22 C1 21.67 1 21.34 1 21 C17.5 20.67 34 20.34 51 20 C51 18.35 51 16.7 51 15 C50.38125 15.185625 49.7625 15.37125 49.125 15.5625 C47 16 47 16 45 15 C45 11.04 45 7.08 45 3 C47.31 3.33 49.62 3.66 52 4 C52 3.01 52 2.02 52 1 C34.84 1 17.68 1 0 1 C0 0.67 0 0.34 0 0 Z " transform="translate(1026,65)" style="fill: #373738;"/><path d="M0 0 C0 0.33 0 0.66 0 1 C-5.28 1 -10.56 1 -16 1 C-16 1.66 -16 2.32 -16 3 C-11.38 3 -6.76 3 -2 3 C-2 4.32 -2 5.64 -2 7 C-20.81 7.495 -20.81 7.495 -40 8 C-40.35355339 11.11785113 -40.35355339 11.11785113 -38 13 C-39.32 12.67 -40.64 12.34 -42 12 C-42.6875 10.1875 -42.6875 10.1875 -43 8 C-34.35493319 -3.56777623 -12.27276943 -0.47343027 0 0 Z " transform="translate(96,69)" style="fill: #DBDAD9;"/><path d="M0 0 C0.33 8.25 0.66 16.5 1 25 C-1.97 25 -4.94 25 -8 25 C-8 27.64 -8 30.28 -8 33 C-8.66 33 -9.32 33 -10 33 C-10 31.68 -10 30.36 -10 29 C-10.66 29 -11.32 29 -12 29 C-12 28.01 -12 27.02 -12 26 C-13.32 26 -14.64 26 -16 26 C-17.23076923 20.58461538 -17.23076923 20.58461538 -16.0625 17.625 C-15.711875 17.08875 -15.36125 16.5525 -15 16 C-14.34 16 -13.68 16 -13 16 C-13 16.99 -13 17.98 -13 19 C-12.34 19 -11.68 19 -11 19 C-11 17.68 -11 16.36 -11 15 C-9.35 15 -7.7 15 -6 15 C-7.32 17.64 -8.64 20.28 -10 23 C-7.36 23.33 -4.72 23.66 -2 24 C-1.505 15.09 -1.505 15.09 -1 6 C-4.3 6.33 -7.6 6.66 -11 7 C-11 8.65 -11 10.3 -11 12 C-11.99 11.34 -12.98 10.68 -14 10 C-13.34 10 -12.68 10 -12 10 C-12 7.03 -12 4.06 -12 1 C-7.915021 0.45533613 -4.1274515 0 0 0 Z " transform="translate(173,67)" style="fill: #767676;"/><path d="M0 0 C5.75 0.75 5.75 0.75 8 3 C8.30078125 5.4609375 8.30078125 5.4609375 8.3125 8.375 C8.32925781 9.33148438 8.34601562 10.28796875 8.36328125 11.2734375 C7.94673544 14.39977053 7.18835621 15.75941572 5 18 C2.5 18.4375 2.5 18.4375 0 18 C-2.5048111 16.12139167 -2.98700625 15.03898126 -4 12 C-4.39849981 7.69620206 -4.46766201 5.68687857 -2 2.0625 C-1.34 1.381875 -0.68 0.70125 0 0 Z " transform="translate(700,65)" style="fill: #262529;"/><path d="M0 0 C25.41 0 50.82 0 77 0 C77 0.33 77 0.66 77 1 C59.84 1 42.68 1 25 1 C24.67 2.32 24.34 3.64 24 5 C20.89591193 5.05807043 17.7919636 5.09361914 14.6875 5.125 C13.36588867 5.15013672 13.36588867 5.15013672 12.01757812 5.17578125 C11.17001953 5.18222656 10.32246094 5.18867187 9.44921875 5.1953125 C8.27879028 5.21102295 8.27879028 5.21102295 7.0847168 5.22705078 C5 5 5 5 2 3 C2 2.34 2 1.68 2 1 C1.34 0.67 0.68 0.34 0 0 Z " transform="translate(1002,87)" style="fill: #BDBDBE;"/><path d="M0 0 C1.32 0 2.64 0 4 0 C4.36082877 2.64508361 4.71395352 5.29079547 5.0625 7.9375 C5.16626953 8.69224609 5.27003906 9.44699219 5.37695312 10.22460938 C5.62665638 12.14474128 5.81790281 14.07228144 6 16 C3.94077598 18.05922402 -0.21708124 17.41427579 -3.0625 17.5625 C-4.20041992 17.62727539 -4.20041992 17.62727539 -5.36132812 17.69335938 C-7.24065438 17.79973633 -9.12030244 17.90039934 -11 18 C-11 18.66 -11 19.32 -11 20 C-11.66 20 -12.32 20 -13 20 C-13.33 18.68 -13.66 17.36 -14 16 C-11.03 16.33 -8.06 16.66 -5 17 C-4.67 13.7 -4.34 10.4 -4 7 C-5.98 7 -7.96 7 -10 7 C-10 6.34 -10 5.68 -10 5 C-6.7 5 -3.4 5 0 5 C0 3.35 0 1.7 0 0 Z " transform="translate(136,59)" style="fill: #AEACA8;"/><path d="M0 0 C0.33 0 0.66 0 1 0 C1 1.65 1 3.3 1 5 C-2.3 5 -5.6 5 -9 5 C-9 5.66 -9 6.32 -9 7 C-7.02 7 -5.04 7 -3 7 C-2.875 14.75 -2.875 14.75 -4 17 C-10.15234375 17.09765625 -10.15234375 17.09765625 -12 17 C-13.96822886 15.03177114 -13.66248381 11.65191291 -14 9 C-14.66 9 -15.32 9 -16 9 C-16 9.66 -16 10.32 -16 11 C-23.26 10.67 -30.52 10.34 -38 10 C-38 9.67 -38 9.34 -38 9 C-36.69804688 9.04640625 -35.39609375 9.0928125 -34.0546875 9.140625 C-32.32814804 9.17815847 -30.60158364 9.21455693 -28.875 9.25 C-27.59109375 9.30027344 -27.59109375 9.30027344 -26.28125 9.3515625 C-20.49262257 9.44061831 -17.75369135 8.52520932 -13 5 C-9.7890625 4.171875 -9.7890625 4.171875 -6.625 3.75 C-5.56539062 3.60046875 -4.50578125 3.4509375 -3.4140625 3.296875 C-2.61742187 3.19890625 -1.82078125 3.1009375 -1 3 C-0.67 2.01 -0.34 1.02 0 0 Z " transform="translate(135,59)" style="fill: #D4D3D0;"/><path d="M0 0 C1.5778125 0.00580078 1.5778125 0.00580078 3.1875 0.01171875 C6 0.3125 6 0.3125 9 2.3125 C9.29296875 5.1328125 9.29296875 5.1328125 9.1875 8.4375 C9.16042969 9.53320312 9.13335938 10.62890625 9.10546875 11.7578125 C9.07066406 12.60085937 9.03585937 13.44390625 9 14.3125 C8.01 14.3125 7.02 14.3125 6 14.3125 C5.67 10.6825 5.34 7.0525 5 3.3125 C4.01 2.9825 3.02 2.6525 2 2.3125 C2 6.2725 2 10.2325 2 14.3125 C0.68 14.3125 -0.64 14.3125 -2 14.3125 C-2 10.3525 -2 6.3925 -2 2.3125 C-2.99 2.3125 -3.98 2.3125 -5 2.3125 C-5 6.2725 -5 10.2325 -5 14.3125 C-6.32 14.3125 -7.64 14.3125 -9 14.3125 C-9.08114106 12.54242286 -9.13925505 10.77127902 -9.1875 9 C-9.22230469 8.01386719 -9.25710938 7.02773437 -9.29296875 6.01171875 C-9 3.3125 -9 3.3125 -7.86328125 1.4765625 C-5.19583776 -0.18989066 -3.120531 -0.04971434 0 0 Z " transform="translate(581,67.6875)" style="fill: #2E2E31;"/><path d="M0 0 C0 0.99 0 1.98 0 3 C-0.66 3 -1.32 3 -2 3 C-3.43369216 17.22963893 -3.43369216 17.22963893 -2.125 31.375 C-1.22313827 37.80515704 -5.06902259 43.50335541 -8 49 C-9.65 49 -11.3 49 -13 49 C-13.33 48.34 -13.66 47.68 -14 47 C-12.35 47.33 -10.7 47.66 -9 48 C-9 47.01 -9 46.02 -9 45 C-9.66 45 -10.32 45 -11 45 C-11.6875 43.1875 -11.6875 43.1875 -12 41 C-10.5625 39.25 -10.5625 39.25 -9 38 C-9.99 37.67 -10.98 37.34 -12 37 C-12.33 37.99 -12.66 38.98 -13 40 C-13 38.68 -13 37.36 -13 36 C-10.03 36 -7.06 36 -4 36 C-4.33 34.68 -4.66 33.36 -5 32 C-5.07911543 30.34010718 -5.10778885 28.6773713 -5.09765625 27.015625 C-5.09443359 26.08105469 -5.09121094 25.14648438 -5.08789062 24.18359375 C-5.07951172 23.21550781 -5.07113281 22.24742188 -5.0625 21.25 C-5.05798828 20.26644531 -5.05347656 19.28289062 -5.04882812 18.26953125 C-5.03706483 15.84629209 -5.02062684 13.42317727 -5 11 C-5.61584961 11.16298584 -6.23169922 11.32597168 -6.86621094 11.49389648 C-9.07953301 12.01886406 -10.98093632 12.10031773 -13.25 12.0625 C-15.10625 12.0315625 -15.10625 12.0315625 -17 12 C-17 11.34 -17 10.68 -17 10 C-12.71 10 -8.42 10 -4 10 C-4.020625 8.535625 -4.04125 7.07125 -4.0625 5.5625 C-4.08392007 4.04167482 -4.07179964 2.51928038 -4 1 C-3 0 -3 0 0 0 Z " transform="translate(178,56)" style="fill: #ACABAA;"/><path d="M0 0 C3.3 0 6.6 0 10 0 C10.33 3.63 10.66 7.26 11 11 C12.32 11 13.64 11 15 11 C15 11.99 15 12.98 15 14 C15.66 14 16.32 14 17 14 C17 15.32 17 16.64 17 18 C17.66 18 18.32 18 19 18 C19.33 16.68 19.66 15.36 20 14 C20.33 15.65 20.66 17.3 21 19 C21.66 19 22.32 19 23 19 C23 19.99 23 20.98 23 22 C20.1875 21.8125 20.1875 21.8125 17 21 C14.3297894 17.70674025 14 16.31858974 14 12 C10.04 12 6.08 12 2 12 C0.86235649 7.73383684 0 4.43513689 0 0 Z " transform="translate(146,82)" style="fill: #999593;"/><path d="M0 0 C3.5625 0.3125 3.5625 0.3125 5.5 1.375 C7.20152633 4.4777833 6.98769574 6.85019185 6.5625 10.3125 C4.875 12.75 4.875 12.75 2.5625 14.3125 C0 14.75 0 14.75 -2.4375 14.3125 C-4.5874246 12.67691143 -5.35412587 11.81543429 -5.80078125 9.12109375 C-5.78402344 8.33863281 -5.76726563 7.55617188 -5.75 6.75 C-5.74613281 5.96496094 -5.74226562 5.17992188 -5.73828125 4.37109375 C-5.18095227 0.55664735 -3.64992223 0.33181111 0 0 Z " transform="translate(536.4375,67.6875)" style="fill: #39393B;"/><path d="M0 0 C1.8871875 0.00773437 1.8871875 0.00773437 3.8125 0.015625 C5.070625 0.01046875 6.32875 0.0053125 7.625 0 C10.8125 0.265625 10.8125 0.265625 12.8125 2.265625 C13.0078125 5.0859375 13.0078125 5.0859375 12.9375 8.390625 C12.91945313 9.48632812 12.90140625 10.58203125 12.8828125 11.7109375 C12.85960937 12.55398437 12.83640625 13.39703125 12.8125 14.265625 C11.8225 14.265625 10.8325 14.265625 9.8125 14.265625 C9.8125 10.305625 9.8125 6.345625 9.8125 2.265625 C8.4925 2.265625 7.1725 2.265625 5.8125 2.265625 C5.8125 6.225625 5.8125 10.185625 5.8125 14.265625 C4.4925 14.265625 3.1725 14.265625 1.8125 14.265625 C1.8125 10.305625 1.8125 6.345625 1.8125 2.265625 C0.8225 2.595625 -0.1675 2.925625 -1.1875 3.265625 C-1.5175 6.565625 -1.8475 9.865625 -2.1875 13.265625 C-3.1775 13.265625 -4.1675 13.265625 -5.1875 13.265625 C-5.24141993 11.47428522 -5.28025571 9.68248601 -5.3125 7.890625 C-5.33570313 6.89289063 -5.35890625 5.89515625 -5.3828125 4.8671875 C-5.08011842 0.83530236 -3.93490941 0.32790912 0 0 Z " transform="translate(515.1875,67.734375)" style="fill: #343435;"/><path d="M0 0 C2.0625 0.4375 2.0625 0.4375 4 1 C4.33 3.64 4.66 6.28 5 9 C9.455 8.505 9.455 8.505 14 8 C14.33 6.02 14.66 4.04 15 2 C15.33 2 15.66 2 16 2 C16 4.97 16 7.94 16 11 C11.71 11 7.42 11 3 11 C3 14.63 3 18.26 3 22 C2.34 22 1.68 22 1 22 C1 16.39 1 10.78 1 5 C0.34 5 -0.32 5 -1 5 C-1 6.32 -1 7.64 -1 9 C-4.96 9 -8.92 9 -13 9 C-13.33 7.35 -13.66 5.7 -14 4 C-16.64 4 -19.28 4 -22 4 C-20 2 -20 2 -17.0625 1.5625 C-16.051875 1.706875 -15.04125 1.85125 -14 2 C-13.54625 2.804375 -13.0925 3.60875 -12.625 4.4375 C-11.30499266 7.14840046 -11.30499266 7.14840046 -9.04296875 7.5546875 C-7.03654272 7.78660364 -5.01734656 7.90078623 -3 8 C-2.690625 6.865625 -2.38125 5.73125 -2.0625 4.5625 C-1 1 -1 1 0 0 Z " transform="translate(158,55)" style="fill: #DBDADA;"/><path d="M0 0 C3.0625 0.3125 3.0625 0.3125 4.7421875 1.4765625 C6.58832316 4.04367422 6.36026444 5.87584087 6.25 9 C6.22292969 9.99386719 6.19585938 10.98773438 6.16796875 12.01171875 C6.13316406 12.77097656 6.09835937 13.53023437 6.0625 14.3125 C4.7425 14.3125 3.4225 14.3125 2.0625 14.3125 C2.0625 12.9925 2.0625 11.6725 2.0625 10.3125 C0.7425 10.3125 -0.5775 10.3125 -1.9375 10.3125 C-1.9375 11.6325 -1.9375 12.9525 -1.9375 14.3125 C-2.9275 14.3125 -3.9175 14.3125 -4.9375 14.3125 C-4.99139087 12.35446493 -5.03024217 10.39601091 -5.0625 8.4375 C-5.08570313 7.34695312 -5.10890625 6.25640625 -5.1328125 5.1328125 C-4.85615909 1.13793732 -3.94976424 0.42018769 0 0 Z " transform="translate(563.9375,67.6875)" style="fill: #525254;"/><path d="M0 0 C1.31097656 0.01353516 1.31097656 0.01353516 2.6484375 0.02734375 C3.30070312 0.03894531 3.95296875 0.05054687 4.625 0.0625 C4.625 0.7225 4.625 1.3825 4.625 2.0625 C5.615 2.3925 6.605 2.7225 7.625 3.0625 C-16.465 3.0625 -40.555 3.0625 -65.375 3.0625 C-61.57811226 1.16405613 -60.41926854 0.81674421 -56.42626953 0.85131836 C-55.44490021 0.85469711 -54.46353088 0.85807587 -53.4524231 0.86155701 C-51.87109085 0.88174644 -51.87109085 0.88174644 -50.2578125 0.90234375 C-49.16790009 0.90754532 -48.07798767 0.91274689 -46.95504761 0.91810608 C-43.46989635 0.93592038 -39.98503876 0.96707693 -36.5 1 C-33.02213055 1.02766323 -29.54430473 1.05238944 -26.06637573 1.07118225 C-23.90270191 1.08338616 -21.73904994 1.10093711 -19.57546997 1.12449646 C-12.96037105 1.16823828 -6.56928671 -0.08877414 0 0 Z " transform="translate(1109.375,114.9375)" style="fill: #CECED0;"/><path d="M0 0 C5.445 0.99 5.445 0.99 11 2 C11 4.97 11 7.94 11 11 C8.03 11 5.06 11 2 11 C2.33 11.66 2.66 12.32 3 13 C0.5625 12.1875 0.5625 12.1875 -2 11 C-2.33 10.01 -2.66 9.02 -3 8 C-2.34 7.67 -1.68 7.34 -1 7 C-0.59270772 4.67843403 -0.25561323 2.3431213 0 0 Z " transform="translate(121,80)" style="fill: #ADABA9;"/><path d="M0 0 C-0.5863208 4.69056641 -2.35048907 9.08968731 -5 13 C-5.99 13.33 -6.98 13.66 -8 14 C-8 13.01 -8 12.02 -8 11 C-9.32 11.33 -10.64 11.66 -12 12 C-12.33 8.7 -12.66 5.4 -13 2 C-11.68 1.67 -10.36 1.34 -9 1 C-6.04335481 -0.4783226 -3.25770263 -0.06032783 0 0 Z " transform="translate(722,68)" style="fill: #E6E5EA;"/><path d="M0 0 C0.69738281 0.00451172 1.39476563 0.00902344 2.11328125 0.01367188 C3.82555803 0.0253998 5.53779033 0.04333347 7.25 0.0625 C7.25 0.7225 7.25 1.3825 7.25 2.0625 C7.79527344 1.918125 8.34054688 1.77375 8.90234375 1.625 C14.49959924 0.24721403 19.48945745 -0.12037437 25.25 0.0625 C25.745 1.5475 25.745 1.5475 26.25 3.0625 C12.39 3.0625 -1.47 3.0625 -15.75 3.0625 C-10.22299331 0.29899665 -6.13424777 -0.07537355 0 0 Z " transform="translate(87.75,76.9375)" style="fill: #5E5D58;"/><path d="M0 0 C5.94 0 11.88 0 18 0 C18.66 0.99 19.32 1.98 20 3 C13.99167245 5.00277585 7.32099966 3.39506248 1 3 C1 15.87 1 28.74 1 42 C0.67 42 0.34 42 0 42 C0 28.14 0 14.28 0 0 Z " transform="translate(1200,59)" style="fill: #505050;"/><path d="M0 0 C3.63 0 7.26 0 11 0 C11.09765625 6.15234375 11.09765625 6.15234375 11 8 C10 9 10 9 7.93359375 9.09765625 C7.10988281 9.08605469 6.28617188 9.07445313 5.4375 9.0625 C4.61121094 9.05347656 3.78492188 9.04445313 2.93359375 9.03515625 C2.29550781 9.02355469 1.65742188 9.01195313 1 9 C-0.4783226 6.04335481 -0.06032783 3.25770263 0 0 Z " transform="translate(145,67)" style="fill: #E7E2DF;"/><path d="M0 0 C2.97 0 5.94 0 9 0 C9 1.98 9 3.96 9 6 C10.32 6.33 11.64 6.66 13 7 C12.67 6.401875 12.34 5.80375 12 5.1875 C11 3 11 3 11 0 C12.65 0.33 14.3 0.66 16 1 C16.19491452 2.45736087 16.38069358 3.91594593 16.5625 5.375 C16.66691406 6.18710938 16.77132812 6.99921875 16.87890625 7.8359375 C17 10 17 10 16 12 C14.02 12 12.04 12 10 12 C7 5.375 7 5.375 7 2 C4.69 1.67 2.38 1.34 0 1 C0 0.67 0 0.34 0 0 Z " transform="translate(125,93)" style="fill: #858584;"/><path d="M0 0 C1.64826111 2.96687001 2.44271087 5.65626525 3 9 C4.65 9.33 6.3 9.66 8 10 C8 10.33 8 10.66 8 11 C6.35 11 4.7 11 3 11 C3.33 13.64 3.66 16.28 4 19 C0.14963149 17.48735523 -1.88348422 15.55272291 -4 12 C-4.32555094 8.96830689 -4.23810803 6.03587743 -4 3 C-2.68 3 -1.36 3 0 3 C0 2.01 0 1.02 0 0 Z " transform="translate(145,82)" style="fill: #898784;"/><path d="M0 0 C1.10150391 -0.01224609 2.20300781 -0.02449219 3.33789062 -0.03710938 C8.70659271 -0.04682941 13.3094557 -0.02926043 18.3125 2.1875 C18.3125 2.5175 18.3125 2.8475 18.3125 3.1875 C4.7825 3.1875 -8.7475 3.1875 -22.6875 3.1875 C-22.3575 2.5275 -22.0275 1.8675 -21.6875 1.1875 C-14.48504116 0.015701 -7.28352566 0.00430723 0 0 Z " transform="translate(941.6875,114.8125)" style="fill: #CBCBCE;"/><path d="M0 0 C1.65 0 3.3 0 5 0 C5 1.65 5 3.3 5 5 C3.35 5.33 1.7 5.66 0 6 C0 10.29 0 14.58 0 19 C-1.32 19 -2.64 19 -4 19 C-4 14.38 -4 9.76 -4 5 C-3.01 5 -2.02 5 -1 5 C-0.67 3.35 -0.34 1.7 0 0 Z " transform="translate(596,63)" style="fill: #39393B;"/><path d="M0 0 C10.23 0 20.46 0 31 0 C31 0.66 31 1.32 31 2 C26.85076942 2.78579793 22.94706569 3.11854983 18.7265625 3.09765625 C17.57285156 3.09443359 16.41914062 3.09121094 15.23046875 3.08789062 C14.04066406 3.07951172 12.85085938 3.07113281 11.625 3.0625 C10.41199219 3.05798828 9.19898438 3.05347656 7.94921875 3.04882812 C4.96609493 3.03708354 1.98307321 3.0206584 -1 3 C-0.67 2.01 -0.34 1.02 0 0 Z " transform="translate(1031,71)" style="fill: #1C1C1D;"/><path d="M0 0 C6.17431795 -0.1029053 12.15893635 0.22859326 18.30078125 0.87890625 C20.86482047 0.99393551 22.55770026 0.66831542 25 0 C26.58211573 -0.06548492 28.16670081 -0.08578381 29.75 -0.0625 C30.54921875 -0.05347656 31.3484375 -0.04445313 32.171875 -0.03515625 C32.77515625 -0.02355469 33.3784375 -0.01195313 34 0 C32.41158363 1.89765205 31.52046594 2.90396853 29.04475403 3.36076355 C27.93555855 3.3507708 27.93555855 3.3507708 26.80395508 3.34057617 C25.96331009 3.34034958 25.1226651 3.34012299 24.25654602 3.33988953 C23.35333115 3.32440567 22.45011627 3.30892181 21.51953125 3.29296875 C20.59154221 3.28872391 19.66355316 3.28447906 18.70744324 3.28010559 C15.74216757 3.26330662 12.7775704 3.22565216 9.8125 3.1875 C7.80274419 3.17245474 5.79297773 3.15876606 3.78320312 3.14648438 C-1.14479286 3.11339908 -6.07228138 3.06160833 -11 3 C-10.67 2.34 -10.34 1.68 -10 1 C-3.375 0.875 -3.375 0.875 0 2 C0 1.34 0 0.68 0 0 Z " transform="translate(883,115)" style="fill: #CECDD0;"/><path d="M0 0 C3.375 0.6875 3.375 0.6875 4.375 1.6875 C4.44744053 3.70714199 4.45877188 5.72917124 4.4375 7.75 C4.42847656 8.85472656 4.41945313 9.95945312 4.41015625 11.09765625 C4.39855469 11.95230469 4.38695312 12.80695313 4.375 13.6875 C3.385 13.6875 2.395 13.6875 1.375 13.6875 C1.045 10.0575 0.715 6.4275 0.375 2.6875 C-0.615 2.6875 -1.605 2.6875 -2.625 2.6875 C-2.955 6.3175 -3.285 9.9475 -3.625 13.6875 C-4.615 13.6875 -5.605 13.6875 -6.625 13.6875 C-6.70582094 11.72983719 -6.76410778 9.77123272 -6.8125 7.8125 C-6.84730469 6.72195312 -6.88210938 5.63140625 -6.91796875 4.5078125 C-6.82128906 3.57710938 -6.72460938 2.64640625 -6.625 1.6875 C-3.625 -0.3125 -3.625 -0.3125 0 0 Z " transform="translate(551.625,68.3125)" style="fill: #1D1D1D;"/><path d="M0 0 C12.54 0 25.08 0 38 0 C38 0.33 38 0.66 38 1 C37.03578125 1.06058594 36.0715625 1.12117188 35.078125 1.18359375 C33.81484375 1.26738281 32.5515625 1.35117188 31.25 1.4375 C29.99703125 1.51871094 28.7440625 1.59992188 27.453125 1.68359375 C24.23221295 1.88317244 24.23221295 1.88317244 22.09570312 2.5 C19.70575309 3.07020243 17.47001474 3.21164571 15.015625 3.31640625 C13.61376953 3.37924805 13.61376953 3.37924805 12.18359375 3.44335938 C11.21550781 3.48267578 10.24742188 3.52199219 9.25 3.5625 C7.77466797 3.62727539 7.77466797 3.62727539 6.26953125 3.69335938 C3.84648725 3.79922052 1.4233446 3.90130171 -1 4 C-0.67 2.68 -0.34 1.36 0 0 Z " transform="translate(56,76)" style="fill: #93938F;"/><path d="M0 0 C1.10537109 -0.01224609 2.21074219 -0.02449219 3.34960938 -0.03710938 C4.40341797 -0.03904297 5.45722656 -0.04097656 6.54296875 -0.04296875 C7.50614014 -0.04707764 8.46931152 -0.05118652 9.46166992 -0.05541992 C11.8125 0.1875 11.8125 0.1875 13.8125 2.1875 C3.9125 2.5175 -5.9875 2.8475 -16.1875 3.1875 C-16.1875 10.1175 -16.1875 17.0475 -16.1875 24.1875 C-16.5175 24.1875 -16.8475 24.1875 -17.1875 24.1875 C-17.1875 16.5975 -17.1875 9.0075 -17.1875 1.1875 C-11.36314256 0.02262851 -5.91812896 0.00348741 0 0 Z " transform="translate(1012.1875,62.8125)" style="fill: #9F9EA2;"/><path d="M0 0 C1.65 0 3.3 0 5 0 C3.68 2.64 2.36 5.28 1 8 C1.66 8.33 2.32 8.66 3 9 C2.01 9 1.02 9 0 9 C0 9.66 0 10.32 0 11 C0.66 11 1.32 11 2 11 C2.33 13.31 2.66 15.62 3 18 C2.34 18 1.68 18 1 18 C1 16.68 1 15.36 1 14 C0.34 14 -0.32 14 -1 14 C-1 13.01 -1 12.02 -1 11 C-2.32 11 -3.64 11 -5 11 C-6.23076923 5.58461538 -6.23076923 5.58461538 -5.0625 2.625 C-4.5365625 1.820625 -4.5365625 1.820625 -4 1 C-3.34 1 -2.68 1 -2 1 C-2 1.99 -2 2.98 -2 4 C-1.34 4 -0.68 4 0 4 C0 2.68 0 1.36 0 0 Z " transform="translate(162,82)" style="fill: #6B6A68;"/><path d="M0 0 C2.97 0 5.94 0 9 0 C9 0.66 9 1.32 9 2 C7.02 2.33 5.04 2.66 3 3 C2.67 4.32 2.34 5.64 2 7 C2.78375 6.95875 3.5675 6.9175 4.375 6.875 C7 7 7 7 9 9 C9.34490322 13.05261287 9.30163882 14.54754176 7 18 C3.375 18.1875 3.375 18.1875 0 18 C-0.33 17.01 -0.66 16.02 -1 15 C2.465 14.505 2.465 14.505 6 14 C6 12.68 6 11.36 6 10 C3.03 9.505 3.03 9.505 0 9 C0 6.03 0 3.06 0 0 Z " transform="translate(648,65)" style="fill: #2A2A2B;"/><path d="M0 0 C5.625 -0.25 5.625 -0.25 9 2 C9.1875 4.625 9.1875 4.625 9 7 C8.34 7 7.68 7 7 7 C7.99 8.485 7.99 8.485 9 10 C9.25 12.5625 9.25 12.5625 9 15 C7 17 7 17 5.0546875 17.1953125 C3.03645833 17.13020833 1.01822917 17.06510417 -1 17 C-1 16.34 -1 15.68 -1 15 C2.465 14.505 2.465 14.505 6 14 C6 13.01 6 12.02 6 11 C4.35 10.67 2.7 10.34 1 10 C1 9.01 1 8.02 1 7 C2.32 6.67 3.64 6.34 5 6 C5 5.01 5 4.02 5 3 C3.35 3 1.7 3 0 3 C0 2.01 0 1.02 0 0 Z " transform="translate(662,65)" style="fill: #2C2C2E;"/><path d="M0 0 C7.92 0 15.84 0 24 0 C22 3 22 3 20.1875 3.51171875 C19.1046875 3.59873047 19.1046875 3.59873047 18 3.6875 C17.20722656 3.75195312 16.41445313 3.81640625 15.59765625 3.8828125 C11.39608246 4.07235718 7.20446319 4.07899826 3 4 C2.67 3.01 2.34 2.02 2 1 C1.34 0.67 0.68 0.34 0 0 Z " transform="translate(1002,87)" style="fill: #7E7E7F;"/><path d="M0 0 C2.31243792 -0.02685412 4.6249627 -0.04632841 6.9375 -0.0625 C8.22527344 -0.07410156 9.51304688 -0.08570312 10.83984375 -0.09765625 C14 0 14 0 15 1 C16.55948542 1.15686249 18.12542668 1.25076639 19.69140625 1.31640625 C21.10776367 1.37924805 21.10776367 1.37924805 22.55273438 1.44335938 C24.04256836 1.50233398 24.04256836 1.50233398 25.5625 1.5625 C27.05813477 1.62727539 27.05813477 1.62727539 28.58398438 1.69335938 C31.0558415 1.79980298 33.5278031 1.90181928 36 2 C36 2.66 36 3.32 36 4 C23.5977181 4.3285038 12.02290199 4.4468388 0 1 C0 0.67 0 0.34 0 0 Z " transform="translate(58,79)" style="fill: #C5C4C2;"/><path d="M0 0 C2.125 0.375 2.125 0.375 4 1 C4.02696365 2.79158489 4.04637917 4.58328473 4.0625 6.375 C4.07410156 7.37273437 4.08570313 8.37046875 4.09765625 9.3984375 C4 12 4 12 3 14 C-0.875 13.125 -0.875 13.125 -2 12 C-2.1245486 10.35769636 -2.17568524 8.70947724 -2.1875 7.0625 C-2.20167969 6.16660156 -2.21585938 5.27070312 -2.23046875 4.34765625 C-2 2 -2 2 0 0 Z " transform="translate(701,67)" style="fill: #CECED0;"/><path d="M0 0 C0.80179688 0.00451172 1.60359375 0.00902344 2.4296875 0.01367188 C4.41149006 0.02546832 6.39325433 0.04340395 8.375 0.0625 C8.375 0.7225 8.375 1.3825 8.375 2.0625 C9.035 2.3925 9.695 2.7225 10.375 3.0625 C-3.155 3.0625 -16.685 3.0625 -30.625 3.0625 C-30.625 2.7325 -30.625 2.4025 -30.625 2.0625 C-30.02961426 2.03744385 -29.43422852 2.0123877 -28.82080078 1.98657227 C-26.13030864 1.87072506 -23.4401766 1.74794804 -20.75 1.625 C-19.81285156 1.58568359 -18.87570312 1.54636719 -17.91015625 1.50585938 C-17.01425781 1.46396484 -16.11835937 1.42207031 -15.1953125 1.37890625 C-13.95418701 1.32391968 -13.95418701 1.32391968 -12.68798828 1.26782227 C-8.3991788 0.84097152 -4.51516433 -0.04764378 0 0 Z " transform="translate(991.625,114.9375)" style="fill: #CECDD1;"/><path d="M0 0 C3.63 0 7.26 0 11 0 C11 1.65 11 3.3 11 5 C10.34 5 9.68 5 9 5 C8.79503906 5.61488281 8.59007812 6.22976562 8.37890625 6.86328125 C7.25260417 10.2421875 6.12630208 13.62109375 5 17 C4.01 17 3.02 17 2 17 C3.54269924 12.27934033 5.07794619 7.58335908 7 3 C4.69 3 2.38 3 0 3 C0 2.01 0 1.02 0 0 Z " transform="translate(715,65)" style="fill: #434247;"/><path d="M0 0 C0 1.98 0 3.96 0 6 C1.32 4.68 2.64 3.36 4 2 C4 2.99 4 3.98 4 5 C5.65 5 7.3 5 9 5 C9.5625 6.9375 9.5625 6.9375 10 9 C9 10 9 10 5.4375 10.0625 C4.303125 10.041875 3.16875 10.02125 2 10 C1.67 10.66 1.34 11.32 1 12 C0.67 11.01 0.34 10.02 0 9 C-0.99 10.485 -0.99 10.485 -2 12 C-2.66 11.67 -3.32 11.34 -4 11 C-3.67 10.67 -3.34 10.34 -3 10 C-2.75266863 5.85723125 -2.75266863 5.85723125 -4 2 C-1 0 -1 0 0 0 Z " transform="translate(659,70)" style="fill: #D8D8DA;"/><path d="M0 0 C2.95839355 -0.02689449 5.91654427 -0.04678741 8.875 -0.0625 C9.71675781 -0.07087891 10.55851562 -0.07925781 11.42578125 -0.08789062 C12.23144531 -0.09111328 13.03710938 -0.09433594 13.8671875 -0.09765625 C14.98262939 -0.10551147 14.98262939 -0.10551147 16.12060547 -0.11352539 C18 0 18 0 20 1 C19.67 1.99 19.34 2.98 19 4 C12.73 4 6.46 4 0 4 C0 2.68 0 1.36 0 0 Z " transform="translate(98,71)" style="fill: #E3D2A7;"/><path d="M0 0 C5.66136311 0.59664471 11.36820627 0.65551417 17.05517578 0.83178711 C19.00423828 0.8965625 19.00423828 0.8965625 20.99267578 0.96264648 C24.18008423 1.06811221 27.36756276 1.17023159 30.55517578 1.26928711 C30.55517578 1.59928711 30.55517578 1.92928711 30.55517578 2.26928711 C15.70517578 2.26928711 0.85517578 2.26928711 -14.44482422 2.26928711 C-10.45557226 -1.71996485 -5.20581373 -0.7045145 0 0 Z " transform="translate(669.44482421875,115.730712890625)" style="fill: #CCCCCF;"/><path d="M0 0 C7.26 0 14.52 0 22 0 C22 0.99 22 1.98 22 3 C14.74 3 7.48 3 0 3 C0 2.01 0 1.02 0 0 Z " transform="translate(72,72)" style="fill: #F1F0ED;"/><path d="M0 0 C0.68408936 0.16298584 1.36817871 0.32597168 2.07299805 0.49389648 C5.38118397 1.06590995 8.47465976 1.11244643 11.83203125 1.09765625 C13.12431641 1.09443359 14.41660156 1.09121094 15.74804688 1.08789062 C17.10286526 1.07953665 18.45768297 1.07107172 19.8125 1.0625 C21.18684735 1.05748 22.56119645 1.05291797 23.93554688 1.04882812 C27.29040924 1.03705668 30.64518221 1.02061283 34 1 C34.495 1.99 34.495 1.99 35 3 C22.79 3 10.58 3 -2 3 C-1.34 2.67 -0.68 2.34 0 2 C0 1.34 0 0.68 0 0 Z " transform="translate(549,115)" style="fill: #CACACD;"/><path d="M0 0 C0.125 5.75 0.125 5.75 -1 8 C-1.66 8 -2.32 8 -3 8 C-3 7.34 -3 6.68 -3 6 C-5.97 6 -8.94 6 -12 6 C-11.67 4.35 -11.34 2.7 -11 1 C-7.26513121 0.4254048 -3.78706732 0 0 0 Z " transform="translate(136,76)" style="fill: #696864;"/><path d="M0 0 C1.32 0 2.64 0 4 0 C4 5.61 4 11.22 4 17 C3.01 17.33 2.02 17.66 1 18 C1 13.38 1 8.76 1 4 C0.01 4 -0.98 4 -2 4 C-1.34 2.68 -0.68 1.36 0 0 Z " transform="translate(637,65)" style="fill: #363538;"/><path d="M0 0 C1.27230469 0.00902344 2.54460937 0.01804687 3.85546875 0.02734375 C5.31919922 0.04474609 5.31919922 0.04474609 6.8125 0.0625 C6.8125 1.3825 6.8125 2.7025 6.8125 4.0625 C4.54173158 4.08949725 2.27087179 4.10889453 0 4.125 C-1.89685547 4.14240234 -1.89685547 4.14240234 -3.83203125 4.16015625 C-7.1875 4.0625 -7.1875 4.0625 -10.1875 3.0625 C-10.1875 2.4025 -10.1875 1.7425 -10.1875 1.0625 C-6.62704823 -0.12431726 -3.74941663 -0.03439832 0 0 Z " transform="translate(1212.1875,69.9375)" style="fill: #707070;"/><path d="M0 0 C0.33 0.66 0.66 1.32 1 2 C1.66 1.67 2.32 1.34 3 1 C5.3329866 0.95977609 7.66706666 0.95679753 10 1 C10 1.99 10 2.98 10 4 C7.03 4 4.06 4 1 4 C1 5.32 1 6.64 1 8 C-0.32 8 -1.64 8 -3 8 C-3 9.98 -3 11.96 -3 14 C-3.33 14 -3.66 14 -4 14 C-4.07654536 9.48382401 -4.10228696 5.40914783 -3 1 C-2.01 0.67 -1.02 0.34 0 0 Z " transform="translate(144,77)" style="fill: #56534F;"/><path d="M0 0 C0.66890259 0.73017334 0.66890259 0.73017334 1.35131836 1.47509766 C3.46101887 3.42640661 4.54197756 3.38593083 7.37890625 3.3984375 C8.63670898 3.40423828 8.63670898 3.40423828 9.91992188 3.41015625 C10.79197266 3.39855469 11.66402344 3.38695313 12.5625 3.375 C13.43841797 3.38660156 14.31433594 3.39820312 15.21679688 3.41015625 C16.05404297 3.40628906 16.89128906 3.40242188 17.75390625 3.3984375 C18.52033447 3.39505371 19.2867627 3.39166992 20.07641602 3.38818359 C22.40763024 3.15325881 22.40763024 3.15325881 24 0 C24.33 1.65 24.66 3.3 25 5 C20.37030999 6.15277422 15.866152 6.21885943 11.125 6.25 C10.34769531 6.270625 9.57039062 6.29125 8.76953125 6.3125 C3.41870293 6.34847196 -0.22203412 5.42083604 -5 3 C-2.25 0 -2.25 0 0 0 Z " transform="translate(1004,88)" style="fill: #D0D0D2;"/><path d="M0 0 C1.05445313 0.00515625 2.10890625 0.0103125 3.1953125 0.015625 C4.76925781 0.00789063 4.76925781 0.00789063 6.375 0 C9.3203125 0.265625 9.3203125 0.265625 13.3203125 2.265625 C4.9053125 2.760625 4.9053125 2.760625 -3.6796875 3.265625 C-3.6796875 3.925625 -3.6796875 4.585625 -3.6796875 5.265625 C1.9303125 5.595625 7.5403125 5.925625 13.3203125 6.265625 C13.3203125 6.595625 13.3203125 6.925625 13.3203125 7.265625 C7.3803125 7.265625 1.4403125 7.265625 -4.6796875 7.265625 C-4.6796875 0.46387573 -4.6796875 0.46387573 0 0 Z " transform="translate(1205.6796875,67.734375)" style="fill: #393939;"/><path d="M0 0 C7.59 0 15.18 0 23 0 C22.01 0.495 22.01 0.495 21 1 C21 1.66 21 2.32 21 3 C18.43721301 3.05420701 15.87558517 3.09377007 13.3125 3.125 C12.59126953 3.14175781 11.87003906 3.15851563 11.12695312 3.17578125 C6.95123219 3.21391569 3.7505862 2.8789919 0 1 C0 0.67 0 0.34 0 0 Z " transform="translate(1003,65)" style="fill: #1B1B1D;"/><path d="M0 0 C1.32 0.66 2.64 1.32 4 2 C3.34 3.32 2.68 4.64 2 6 C0.88625 5.814375 -0.2275 5.62875 -1.375 5.4375 C-4.82568861 4.68319343 -4.82568861 4.68319343 -7 6 C-7.4683265 8.58605332 -7.4683265 8.58605332 -7.625 11.5625 C-7.73714844 13.08037109 -7.73714844 13.08037109 -7.8515625 14.62890625 C-7.90054688 15.41136719 -7.94953125 16.19382812 -8 17 C-9.87632705 13.43576367 -10.9217974 9.88152937 -12 6 C-12.33 5.34 -12.66 4.68 -13 4 C-12.236875 3.855625 -11.47375 3.71125 -10.6875 3.5625 C-7.91827092 3.0367406 -7.91827092 3.0367406 -5 2 C-4.29875 1.835 -3.5975 1.67 -2.875 1.5 C-1.00094893 1.16796102 -1.00094893 1.16796102 0 0 Z " transform="translate(553,64)" style="fill: #D9D9DA;"/><path d="M0 0 C2.97 0 5.94 0 9 0 C9 1.98 9 3.96 9 6 C6.03 6 3.06 6 0 6 C0 4.02 0 2.04 0 0 Z " transform="translate(163,75)" style="fill: #4D4D4F;"/><path d="M0 0 C2.31 0.66 4.62 1.32 7 2 C7.33 3.32 7.66 4.64 8 6 C6.4221875 6.2165625 6.4221875 6.2165625 4.8125 6.4375 C1.84539451 6.87526966 -1.06794366 7.37804866 -4 8 C-4.33 7.34 -4.66 6.68 -5 6 C-3.625 4 -3.625 4 -2 2 C-1.34 2 -0.68 2 0 2 C0 1.34 0 0.68 0 0 Z " transform="translate(646,74)" style="fill: #EEEEF0;"/><path d="M0 0 C2.31 0.66 4.62 1.32 7 2 C6.67 3.32 6.34 4.64 6 6 C4.35 6 2.7 6 1 6 C0.34 7.65 -0.32 9.3 -1 11 C-1.66 10.34 -2.32 9.68 -3 9 C-2.01 6.03 -1.02 3.06 0 0 Z " transform="translate(661,66)" style="fill: #DBDBDD;"/><path d="M0 0 C2.97 0 5.94 0 9 0 C9 1.98 9 3.96 9 6 C6.36 6 3.72 6 1 6 C0.67 4.02 0.34 2.04 0 0 Z " transform="translate(146,83)" style="fill: #CBC5C2;"/><path d="M0 0 C2.64 0 5.28 0 8 0 C8 1.98 8 3.96 8 6 C5.36 6 2.72 6 0 6 C0 4.02 0 2.04 0 0 Z " transform="translate(123,68)" style="fill: #F1EEEA;"/><path d="M0 0 C0.33 0 0.66 0 1 0 C1.98248524 4.0527516 2.08159574 7.83861737 2 12 C2.66 12 3.32 12 4 12 C4.33 13.98 4.66 15.96 5 18 C4.34 18 3.68 18 3 18 C3 17.01 3 16.02 3 15 C2.34 15 1.68 15 1 15 C0.34 16.32 -0.32 17.64 -1 19 C-0.67 12.73 -0.34 6.46 0 0 Z " transform="translate(157,68)" style="fill: #504D49;"/><path d="M0 0 C0 0.99 0 1.98 0 3 C-0.66 3 -1.32 3 -2 3 C-2.04898438 3.62648437 -2.09796875 4.25296875 -2.1484375 4.8984375 C-2.22320312 5.71570312 -2.29796875 6.53296875 -2.375 7.375 C-2.44460937 8.18710938 -2.51421875 8.99921875 -2.5859375 9.8359375 C-3 12 -3 12 -5 14 C-5 13.01 -5 12.02 -5 11 C-5.495 11.165 -5.99 11.33 -6.5 11.5 C-10.03444089 12.20688818 -13.39690701 12.06005155 -17 12 C-17 11.34 -17 10.68 -17 10 C-12.71 10 -8.42 10 -4 10 C-4.020625 8.535625 -4.04125 7.07125 -4.0625 5.5625 C-4.08392007 4.04167482 -4.07179964 2.51928038 -4 1 C-3 0 -3 0 0 0 Z " transform="translate(178,56)" style="fill: #949495;"/><path d="M0 0 C2.0625 0.4375 2.0625 0.4375 4 1 C4 3.64 4 6.28 4 9 C2.0625 9.5625 2.0625 9.5625 0 10 C-1 9 -1 9 -1.1328125 7.1875 C-1.13023437 6.465625 -1.12765625 5.74375 -1.125 5 C-1.12757813 4.278125 -1.13015625 3.55625 -1.1328125 2.8125 C-1 1 -1 1 0 0 Z " transform="translate(535,70)" style="fill: #D6D6D6;"/><path d="M0 0 C5.875 0.875 5.875 0.875 7 2 C7.07244053 4.01964199 7.08377188 6.04167124 7.0625 8.0625 C7.05347656 9.16722656 7.04445313 10.27195312 7.03515625 11.41015625 C7.02355469 12.26480469 7.01195312 13.11945313 7 14 C6.01 14 5.02 14 4 14 C3.96261719 13.24074219 3.92523437 12.48148438 3.88671875 11.69921875 C3.82097656 10.70535156 3.75523437 9.71148437 3.6875 8.6875 C3.62949219 7.70136719 3.57148437 6.71523437 3.51171875 5.69921875 C2.95377187 2.75615543 2.31459868 1.81817001 0 0 Z " transform="translate(583,68)" style="fill: #1C1C1F;"/><path d="M0 0 C0.99 0.66 1.98 1.32 3 2 C4.65549531 2.38499891 6.3222433 2.72793135 8 3 C8 3.33 8 3.66 8 4 C6.35 4 4.7 4 3 4 C3.33 6.64 3.66 9.28 4 12 C2.68 11.34 1.36 10.68 0 10 C0 8.02 0 6.04 0 4 C-0.66 4 -1.32 4 -2 4 C-1 1 -1 1 0 0 Z " transform="translate(145,89)" style="fill: #696966;"/><path d="M0 0 C3.63 0 7.26 0 11 0 C10.34 1.98 9.68 3.96 9 6 C8.34 5.34 7.68 4.68 7 4 C6.01 4.66 5.02 5.32 4 6 C3.01 6 2.02 6 1 6 C0.67 4.02 0.34 2.04 0 0 Z M1 1 C1.99 2.485 1.99 2.485 3 4 C3.33 3.01 3.66 2.02 4 1 C3.01 1 2.02 1 1 1 Z " transform="translate(148,94)" style="fill: #DCDCDA;"/><path d="M0 0 C2.86328125 -0.328125 2.86328125 -0.328125 6.3125 -0.25 C7.44300781 -0.23453125 8.57351563 -0.2190625 9.73828125 -0.203125 C12.59608868 -0.02515376 15.21657246 0.35244838 18 1 C17.67 1.66 17.34 2.32 17 3 C10.73 3 4.46 3 -2 3 C-1.34 2.01 -0.68 1.02 0 0 Z " transform="translate(846,115)" style="fill: #CCCCCE;"/><path d="M0 0 C0 2.64 0 5.28 0 8 C-0.33 6.68 -0.66 5.36 -1 4 C-1.66 4 -2.32 4 -3 4 C-3.33 4.99 -3.66 5.98 -4 7 C-4 6.34 -4 5.68 -4 5 C-4.99580078 5.01740234 -4.99580078 5.01740234 -6.01171875 5.03515625 C-14.78207381 5.12478032 -14.78207381 5.12478032 -19 4 C-19 3.67 -19 3.34 -19 3 C-13.72 3 -8.44 3 -3 3 C-3 2.34 -3 1.68 -3 1 C-1 0 -1 0 0 0 Z " transform="translate(122,67)" style="fill: #B5AA97;"/><path d="M0 0 C2 1 2 1 3 4 C5.64 4.33 8.28 4.66 11 5 C8.61426621 6.89213369 6.92824652 8.02391783 4 9 C3 8 3 8 2 6 C1.1028125 6.309375 1.1028125 6.309375 0.1875 6.625 C-2 7 -2 7 -5 5 C-4.360625 4.731875 -3.72125 4.46375 -3.0625 4.1875 C-0.66868314 3.11332248 -0.66868314 3.11332248 0 0 Z " transform="translate(658,78)" style="fill: #E9E9EB;"/><path d="M0 0 C1.32 0 2.64 0 4 0 C4.33 1.32 4.66 2.64 5 4 C4.34 4 3.68 4 3 4 C3 7.96 3 11.92 3 16 C1.04612336 12.09224671 0.65237766 10.00312413 0.375 5.75 C0.30023438 4.67234375 0.22546875 3.5946875 0.1484375 2.484375 C0.09945312 1.66453125 0.05046875 0.8446875 0 0 Z " transform="translate(140,59)" style="fill: #CFCDC8;"/><path d="M0 0 C2.97 0 5.94 0 9 0 C9.66 3.3 10.32 6.6 11 10 C12.32 10.33 13.64 10.66 15 11 C15.33 10.01 15.66 9.02 16 8 C16.33 8.66 16.66 9.32 17 10 C16.67 10.66 16.34 11.32 16 12 C14.02 12 12.04 12 10 12 C7 5.375 7 5.375 7 2 C4.69 1.67 2.38 1.34 0 1 C0 0.67 0 0.34 0 0 Z " transform="translate(125,93)" style="fill: #CACAC8;"/><path d="M0 0 C0.33 0.99 0.66 1.98 1 3 C-4.28 3 -9.56 3 -15 3 C-14.67 2.34 -14.34 1.68 -14 1 C-9.45906828 -0.41904116 -4.7056901 -0.09226843 0 0 Z " transform="translate(113,77)" style="fill: #6C5C44;"/><path d="M0 0 C1.32 0.33 2.64 0.66 4 1 C4 4.96 4 8.92 4 13 C3.01 13 2.02 13 1 13 C0.67 8.71 0.34 4.42 0 0 Z " transform="translate(524,69)" style="fill: #1A1A1C;"/><path d="M0 0 C0.99 0 1.98 0 3 0 C3.33 4.62 3.66 9.24 4 14 C1 13 1 13 0 11 C-0.07033769 9.12620395 -0.0843022 7.24998898 -0.0625 5.375 C-0.05347656 4.37210937 -0.04445313 3.36921875 -0.03515625 2.3359375 C-0.02355469 1.56507812 -0.01195312 0.79421875 0 0 Z " transform="translate(576,70)" style="fill: #ECECEF;"/><path d="M0 0 C0.66 0.33 1.32 0.66 2 1 C1.34 2.32 0.68 3.64 0 5 C-6.27 5 -12.54 5 -19 5 C-19 4.67 -19 4.34 -19 4 C-17.19402344 3.81824219 -17.19402344 3.81824219 -15.3515625 3.6328125 C-13.77599234 3.46400141 -12.20047408 3.29470541 -10.625 3.125 C-9.43390625 3.00705078 -9.43390625 3.00705078 -8.21875 2.88671875 C-3.6406878 2.53523142 -3.6406878 2.53523142 0 0 Z " transform="translate(1026,87)" style="fill: #B4B4B6;"/><path d="M0 0 C2.64 0 5.28 0 8 0 C8 2.97 8 5.94 8 9 C5.36 9 2.72 9 0 9 C-0.33 8.34 -0.66 7.68 -1 7 C0.98 7 2.96 7 5 7 C5 6.01 5 5.02 5 4 C5.66 4 6.32 4 7 4 C7 3.01 7 2.02 7 1 C4.69 1 2.38 1 0 1 C0 0.67 0 0.34 0 0 Z " transform="translate(124,82)" style="fill: #9A9894;"/><path d="M0 0 C0.99 0 1.98 0 3 0 C3 4.29 3 8.58 3 13 C2.01 12.67 1.02 12.34 0 12 C0 8.04 0 4.08 0 0 Z " transform="translate(549,70)" style="fill: #F4F4F5;"/><path d="M0 0 C-0.33 0.33 -0.66 0.66 -1 1 C-1.37052339 6.17735677 -1.37052339 6.17735677 0 11 C-3.875 10.125 -3.875 10.125 -5 9 C-5.07179964 7.48071962 -5.08392007 5.95832518 -5.0625 4.4375 C-5.05347656 3.61121094 -5.04445313 2.78492187 -5.03515625 1.93359375 C-5.02355469 1.29550781 -5.01195312 0.65742187 -5 0 C-2 -1 -2 -1 0 0 Z " transform="translate(536,70)" style="fill: #0B0B0C;"/><path d="M0 0 C-0.33 0.33 -0.66 0.66 -1 1 C-1.23287008 2.68183948 -1.41264166 4.3712416 -1.5625 6.0625 C-1.68818359 7.44115234 -1.68818359 7.44115234 -1.81640625 8.84765625 C-1.87699219 9.55792969 -1.93757812 10.26820312 -2 11 C-2.99 11 -3.98 11 -5 11 C-5 7.37 -5 3.74 -5 0 C-2 -1 -2 -1 0 0 Z " transform="translate(515,70)" style="fill: #161619;"/><path d="M0 0 C0.66 0.33 1.32 0.66 2 1 C2.125 7.75 2.125 7.75 1 10 C-0.32 9.67 -1.64 9.34 -3 9 C-2.44271087 5.65626525 -1.64826111 2.96687001 0 0 Z " transform="translate(703,71)" style="fill: #E1E1E2;"/><path d="M0 0 C0.99 0.33 1.98 0.66 3 1 C2.67 2.98 2.34 4.96 2 7 C3.32 7.33 4.64 7.66 6 8 C4.35 8 2.7 8 1 8 C1 9.32 1 10.64 1 12 C0.34 12 -0.32 12 -1 12 C-1.02687279 10.18757948 -1.04633715 8.37504767 -1.0625 6.5625 C-1.07410156 5.55316406 -1.08570313 4.54382813 -1.09765625 3.50390625 C-1 1 -1 1 0 0 Z " transform="translate(560,69)" style="fill: #0F0F0F;"/><path d="M0 0 C2.84978871 0.10859133 5.39495008 0.35642416 8.1875 0.8125 C9.31188477 0.97588867 9.31188477 0.97588867 10.45898438 1.14257812 C12.30823349 1.41348723 14.15447261 1.70480057 16 2 C16 2.33 16 2.66 16 3 C9.73 3 3.46 3 -3 3 C-2.01 2.01 -1.02 1.02 0 0 Z " transform="translate(516,115)" style="fill: #CCCBD0;"/><path d="M0 0 C0.99 0 1.98 0 3 0 C3 0.66 3 1.32 3 2 C2.34 2 1.68 2 1 2 C0.67 3.32 0.34 4.64 0 6 C-1.98 6 -3.96 6 -6 6 C-6.33 4.35 -6.66 2.7 -7 1 C-4.03 1.495 -4.03 1.495 -1 2 C-0.67 1.34 -0.34 0.68 0 0 Z " transform="translate(188,99)" style="fill: #B7B7B8;"/><path d="M0 0 C1.32 0 2.64 0 4 0 C4 2.97 4 5.94 4 9 C2.68 8.67 1.36 8.34 0 8 C0 5.36 0 2.72 0 0 Z " transform="translate(136,82)" style="fill: #A8A7A3;"/><path d="M0 0 C0.66 0 1.32 0 2 0 C2.18175781 0.84884766 2.18175781 0.84884766 2.3671875 1.71484375 C2.53476563 2.44832031 2.70234375 3.18179688 2.875 3.9375 C3.11863281 5.03384766 3.11863281 5.03384766 3.3671875 6.15234375 C3.82961523 8.20700294 3.82961523 8.20700294 6 9 C3.47946405 10.26026798 2.1457902 9.91874445 -0.625 9.5625 C-1.44226563 9.46066406 -2.25953125 9.35882813 -3.1015625 9.25390625 C-3.72804688 9.17011719 -4.35453125 9.08632812 -5 9 C-4.35546875 8.74476562 -3.7109375 8.48953125 -3.046875 8.2265625 C-2.03367187 7.61941406 -2.03367187 7.61941406 -1 7 C-0.18129815 3.43793339 -0.18129815 3.43793339 0 0 Z " transform="translate(119,71)" style="fill: #79746D;"/><path d="M0 0 C2.64 0 5.28 0 8 0 C7.50168276 3.68754757 6.89932357 5.60490662 4 8 C3.01 7.67 2.02 7.34 1 7 C2 5 2 5 4 2 C3.01 1.67 2.02 1.34 1 1 C0.67 1.99 0.34 2.98 0 4 C0 2.68 0 1.36 0 0 Z " transform="translate(165,92)" style="fill: #E3E2E2;"/><path d="M0 0 C0.94072192 3.15288832 1.07576212 5.90605308 1 9.1875 C0.9459087 14.21799129 1.34617031 19.01454858 2 24 C1.67 22.68 1.34 21.36 1 20 C0.34 20 -0.32 20 -1 20 C-1.02689449 17.04160645 -1.04678741 14.08345573 -1.0625 11.125 C-1.07087891 10.28324219 -1.07925781 9.44148438 -1.08789062 8.57421875 C-1.09111328 7.76855469 -1.09433594 6.96289062 -1.09765625 6.1328125 C-1.10289307 5.38918457 -1.10812988 4.64555664 -1.11352539 3.87939453 C-1 2 -1 2 0 0 Z " transform="translate(174,68)" style="fill: #BFBFC0;"/><path d="M0 0 C0.99 0 1.98 0 3 0 C3 3.63 3 7.26 3 11 C2.01 11 1.02 11 0 11 C0 7.37 0 3.74 0 0 Z " transform="translate(514,70)" style="fill: #F0F0F1;"/><path d="M0 0 C0 0.66 0 1.32 0 2 C0.99 2.33 1.98 2.66 3 3 C2.18273438 2.84660156 1.36546875 2.69320312 0.5234375 2.53515625 C-3.44624772 1.9322218 -7.36946033 1.65842036 -11.375 1.4375 C-12.11105469 1.39431641 -12.84710937 1.35113281 -13.60546875 1.30664062 C-15.40348068 1.20156201 -17.20171958 1.10037907 -19 1 C-19 0.67 -19 0.34 -19 0 C-16.77369595 -0.39163671 -14.54376235 -0.76267785 -12.3125 -1.125 C-11.07113281 -1.33382812 -9.82976563 -1.54265625 -8.55078125 -1.7578125 C-4.96298276 -2.00252483 -3.15186273 -1.62715667 0 0 Z " transform="translate(1027,62)" style="fill: #DBDADF;"/><path d="M0 0 C0.99 0.33 1.98 0.66 3 1 C2 2 1 3 0 4 C-0.8971875 5.11375 -0.8971875 5.11375 -1.8125 6.25 C-4 8 -4 8 -7.25 7.75 C-8.1575 7.5025 -9.065 7.255 -10 7 C-6.375 4 -6.375 4 -3 4 C-3 3.34 -3 2.68 -3 2 C-2.01 1.34 -1.02 0.68 0 0 Z " transform="translate(661,64)" style="fill: #F1F1F3;"/><path d="M0 0 C0 0.66 0 1.32 0 2 C2.64 2 5.28 2 8 2 C8 2.33 8 2.66 8 3 C1.07 3 -5.86 3 -13 3 C-8.52426397 0.76213199 -4.97367294 0 0 0 Z " transform="translate(1019,115)" style="fill: #CECDD0;"/><path d="M0 0 C0.66 1.32 1.32 2.64 2 4 C1.01 5.485 1.01 5.485 0 7 C-3.625 7.1875 -3.625 7.1875 -7 7 C-7.33 6.01 -7.66 5.02 -8 4 C-4.535 3.505 -4.535 3.505 -1 3 C-0.67 2.01 -0.34 1.02 0 0 Z " transform="translate(655,76)" style="fill: #414142;"/><path d="M0 0 C0.33 0 0.66 0 1 0 C1 1.65 1 3.3 1 5 C1.99 4.67 2.98 4.34 4 4 C4 4.99 4 5.98 4 7 C0.32589215 8.17571451 -3.16929183 8.07366746 -7 8 C-7 8.66 -7 9.32 -7 10 C-7.66 10 -8.32 10 -9 10 C-9.33 8.68 -9.66 7.36 -10 6 C-7.03 6.33 -4.06 6.66 -1 7 C-0.67 4.69 -0.34 2.38 0 0 Z " transform="translate(132,69)" style="fill: #9A9994;"/><path d="M0 0 C0.042721 1.66611905 0.04063832 3.33382885 0 5 C-1 6 -1 6 -4.5625 6.0625 C-5.696875 6.041875 -6.83125 6.02125 -8 6 C-8.33 5.34 -8.66 4.68 -9 4 C-7.68872739 3.3309224 -6.3759455 2.66480194 -5.0625 2 C-4.33160156 1.62875 -3.60070312 1.2575 -2.84765625 0.875 C-1 0 -1 0 0 0 Z " transform="translate(156,97)" style="fill: #B3B3B2;"/><path d="M0 0 C0.66 0.33 1.32 0.66 2 1 C1.67 1.99 1.34 2.98 1 4 C-6.26 3.67 -13.52 3.34 -21 3 C-21 2.67 -21 2.34 -21 2 C-20.15236084 2.01571045 -20.15236084 2.01571045 -19.28759766 2.03173828 C-16.73344347 2.07324788 -14.17936018 2.0993096 -11.625 2.125 C-10.29082031 2.15013672 -10.29082031 2.15013672 -8.9296875 2.17578125 C-8.07890625 2.18222656 -7.228125 2.18867187 -6.3515625 2.1953125 C-5.56604004 2.20578613 -4.78051758 2.21625977 -3.97119141 2.22705078 C-1.765535 2.17990127 -1.765535 2.17990127 0 0 Z " transform="translate(118,66)" style="fill: #EFE8E2;"/><path d="M0 0 C1.32 0 2.64 0 4 0 C4 2.64 4 5.28 4 8 C2.68 8 1.36 8 0 8 C0 5.36 0 2.72 0 0 Z " transform="translate(136,59)" style="fill: #72716E;"/><path d="M0 0 C3.71599191 -0.20086443 4.77208445 -0.1519437 8 2 C11.14221967 1.68493373 11.14221967 1.68493373 14 1 C14 1.66 14 2.32 14 3 C11.03 3.66 8.06 4.32 5 5 C4.67 4.01 4.34 3.02 4 2 C2.68 2 1.36 2 0 2 C0 1.34 0 0.68 0 0 Z " transform="translate(174,55)" style="fill: #F7F7F8;"/><path d="M0 0 C0.99 0 1.98 0 3 0 C2.67 6.6 2.34 13.2 2 20 C1.67 20 1.34 20 1 20 C1 15.05 1 10.1 1 5 C0.34 5 -0.32 5 -1 5 C-0.67 3.35 -0.34 1.7 0 0 Z " transform="translate(158,55)" style="fill: #CBCAC9;"/><path d="M0 0 C0.33 0 0.66 0 1 0 C1.28875 1.093125 1.5775 2.18625 1.875 3.3125 C2.81893204 7.04013845 2.81893204 7.04013845 5 10 C7.05925139 10.72382467 7.05925139 10.72382467 9 11 C9 11.66 9 12.32 9 13 C4.48780488 13.36585366 4.48780488 13.36585366 2.25 11.6875 C-0.47142441 8.01357705 -0.08284055 4.3905492 0 0 Z " transform="translate(696,70)" style="fill: #3E3E3F;"/><path d="M0 0 C0.99 0.33 1.98 0.66 3 1 C3 4.3 3 7.6 3 11 C2.01 11 1.02 11 0 11 C0 7.37 0 3.74 0 0 Z " transform="translate(567,70)" style="fill: #0D0D0F;"/><path d="M0 0 C0.99 0 1.98 0 3 0 C3 2.64 3 5.28 3 8 C1.68 8 0.36 8 -1 8 C-0.67 5.36 -0.34 2.72 0 0 Z " transform="translate(137,68)" style="fill: #E0DBD8;"/><path d="M0 0 C0.33 0 0.66 0 1 0 C0.88601335 1.62580966 0.75844341 3.25067157 0.625 4.875 C0.55539063 5.77992187 0.48578125 6.68484375 0.4140625 7.6171875 C0 10 0 10 -2 12 C-4.125 11.625 -4.125 11.625 -6 11 C-5.01 10.34 -4.02 9.68 -3 9 C-1.99194445 6.82102508 -1.99194445 6.82102508 -1.3125 4.375 C-1.06113281 3.55773438 -0.80976563 2.74046875 -0.55078125 1.8984375 C-0.36902344 1.27195313 -0.18726563 0.64546875 0 0 Z " transform="translate(231,46)" style="fill: #FAFAFA;"/><path d="M0 0 C0.33 1.32 0.66 2.64 1 4 C1.66 4 2.32 4 3 4 C3 6.97 3 9.94 3 13 C1 11 1 11 0.875 8.375 C0.91625 7.59125 0.9575 6.8075 1 6 C-1.31 6 -3.62 6 -6 6 C-6 5.67 -6 5.34 -6 5 C-4.02 5 -2.04 5 0 5 C0 3.35 0 1.7 0 0 Z " transform="translate(1219,70)" style="fill: #272727;"/><path d="M0 0 C1.98 0 3.96 0 6 0 C6.5625 1.9375 6.5625 1.9375 7 4 C6 5 6 5 3.4375 5.0625 C2.2309375 5.0315625 2.2309375 5.0315625 1 5 C0.67 3.35 0.34 1.7 0 0 Z " transform="translate(662,75)" style="fill: #DCDCDE;"/><path d="M0 0 C0 1.32 0 2.64 0 4 C-0.99 3.67 -1.98 3.34 -3 3 C-3 2.67 -3 2.34 -3 2 C-7.29 1.67 -11.58 1.34 -16 1 C-16 0.67 -16 0.34 -16 0 C-10.31302429 -0.91397824 -5.68697571 -0.91397824 0 0 Z " transform="translate(120,84)" style="fill: #968D7D;"/><path d="M0 0 C1.32 0 2.64 0 4 0 C4.33 2.31 4.66 4.62 5 7 C3.35 6.67 1.7 6.34 0 6 C0 4.02 0 2.04 0 0 Z " transform="translate(136,76)" style="fill: #787471;"/><path d="M0 0 C0.99 0 1.98 0 3 0 C3 1.32 3 2.64 3 4 C4.98 4 6.96 4 9 4 C8.01 5.485 8.01 5.485 7 7 C4.69 6.34 2.38 5.68 0 5 C0 3.35 0 1.7 0 0 Z " transform="translate(563,78)" style="fill: #EEEDF1;"/><path d="M0 0 C0.33 0.66 0.66 1.32 1 2 C4.3 1.67 7.6 1.34 11 1 C11 1.99 11 2.98 11 4 C7.37 4.33 3.74 4.66 0 5 C0 3.35 0 1.7 0 0 Z " transform="translate(145,74)" style="fill: #938E8B;"/><path d="M0 0 C2 1 2 1 2 1 Z M-8 -1 C-7.67 -0.34 -7.34 0.32 -7 1 C-6.34 0.67 -5.68 0.34 -5 0 C-2 0 -2 0 -0.3125 1.5 C0.120625 1.995 0.55375 2.49 1 3 C-3.52092968 4.45606519 -6.51648796 3.27032841 -11 2 C-10.01 1.67 -9.02 1.34 -8 1 C-8 0.34 -8 -0.32 -8 -1 Z " transform="translate(545,65)" style="fill: #EEEEF0;"/><path d="M0 0 C0 1.98 0 3.96 0 6 C-1.98 6 -3.96 6 -6 6 C-3.2 0 -3.2 0 0 0 Z " transform="translate(171,85)" style="fill: #525254;"/><path d="M0 0 C2.64 0.33 5.28 0.66 8 1 C7.67 1.99 7.34 2.98 7 4 C4.69 4 2.38 4 0 4 C0 2.68 0 1.36 0 0 Z " transform="translate(98,71)" style="fill: #EDDEAF;"/><path d="M0 0 C1.65 0 3.3 0 5 0 C5 4.29 5 8.58 5 13 C3.15800401 9.31600802 2.09659502 5.94774206 1 2 C0.67 1.34 0.34 0.68 0 0 Z " transform="translate(540,68)" style="fill: #CECECF;"/><path d="M0 0 C1.4540625 0.0309375 1.4540625 0.0309375 2.9375 0.0625 C2.9375 1.3825 2.9375 2.7025 2.9375 4.0625 C0.6275 4.0625 -1.6825 4.0625 -4.0625 4.0625 C-4.0625 0.08290816 -4.0625 0.08290816 0 0 Z " transform="translate(710.0625,78.9375)" style="fill: #96959A;"/><path d="M0 0 C1.65 0 3.3 0 5 0 C5 1.65 5 3.3 5 5 C3.35 5 1.7 5 0 5 C0 3.35 0 1.7 0 0 Z " transform="translate(596,63)" style="fill: #111113;"/><path d="M0 0 C0.66 0 1.32 0 2 0 C2.29296875 6.0546875 2.29296875 6.0546875 2 8 C0.515 8.99 0.515 8.99 -1 10 C-2.23076923 4.58461538 -2.23076923 4.58461538 -1.0625 1.625 C-0.5365625 0.820625 -0.5365625 0.820625 0 0 Z " transform="translate(158,83)" style="fill: #7A7774;"/><path d="M0 0 C0.99 0.33 1.98 0.66 3 1 C3 1.66 3 2.32 3 3 C3.99 3 4.98 3 6 3 C5.67 3.99 5.34 4.98 5 6 C3.35 5.67 1.7 5.34 0 5 C0 3.35 0 1.7 0 0 Z " transform="translate(121,80)" style="fill: #C9C5C1;"/><path d="M0 0 C0.33 1.32 0.66 2.64 1 4 C2.98 4 4.96 4 7 4 C7.33 5.65 7.66 7.3 8 9 C7.34 9 6.68 9 6 9 C6 8.01 6 7.02 6 6 C5.195625 6.020625 4.39125 6.04125 3.5625 6.0625 C1 6 1 6 0 5 C-0.04063832 3.33382885 -0.042721 1.66611905 0 0 Z " transform="translate(647,70)" style="fill: #D6D6D7;"/><path d="M0 0 C2 1.75 2 1.75 4 4 C4 5.32 4 6.64 4 8 C5.32 8.33 6.64 8.66 8 9 C5.69 9 3.38 9 1 9 C0.67 6.03 0.34 3.06 0 0 Z " transform="translate(1196,49)" style="fill: #F5F5F7;"/><path d="M0 0 C-0.33 0.66 -0.66 1.32 -1 2 C-3.28515625 2.4140625 -3.28515625 2.4140625 -6.0625 2.625 C-6.98160156 2.69976562 -7.90070313 2.77453125 -8.84765625 2.8515625 C-9.55792969 2.90054688 -10.26820313 2.94953125 -11 3 C-10.67 2.01 -10.34 1.02 -10 0 C-6.30581799 -1.231394 -3.7943739 -0.64432764 0 0 Z " transform="translate(229,101)" style="fill: #B3B2B4;"/><path d="M0 0 C1.32 0.33 2.64 0.66 4 1 C4.33 2.98 4.66 4.96 5 7 C4.01 7 3.02 7 2 7 C0.5393715 4.35261084 0 3.10551666 0 0 Z " transform="translate(136,93)" style="fill: #80807D;"/><path d="M0 0 C2.475 0.495 2.475 0.495 5 1 C5 2.32 5 3.64 5 5 C3.35 5 1.7 5 0 5 C0 3.35 0 1.7 0 0 Z " transform="translate(1072,69)" style="fill: #1F1F1F;"/><path d="M0 0 C1.23556641 0.01740234 1.23556641 0.01740234 2.49609375 0.03515625 C3.32238281 0.04417969 4.14867187 0.05320312 5 0.0625 C5.63808594 0.07410156 6.27617188 0.08570312 6.93359375 0.09765625 C6.93359375 0.42765625 6.93359375 0.75765625 6.93359375 1.09765625 C4.62359375 1.75765625 2.31359375 2.41765625 -0.06640625 3.09765625 C-0.39640625 5.73765625 -0.72640625 8.37765625 -1.06640625 11.09765625 C-1.39640625 11.09765625 -1.72640625 11.09765625 -2.06640625 11.09765625 C-2.26047103 9.45258407 -2.4464856 7.80656031 -2.62890625 6.16015625 C-2.73332031 5.24363281 -2.83773437 4.32710938 -2.9453125 3.3828125 C-2.98527344 2.62871094 -3.02523437 1.87460938 -3.06640625 1.09765625 C-2.06640625 0.09765625 -2.06640625 0.09765625 0 0 Z " transform="translate(532.06640625,66.90234375)" style="fill: #CECED0;"/><path d="M0 0 C2 3 2 3 2 5 C2.66 5 3.32 5 4 5 C4 5.99 4 6.98 4 8 C2.35 7.67 0.7 7.34 -1 7 C-1.33 6.01 -1.66 5.02 -2 4 C-1.34 4 -0.68 4 0 4 C0 2.68 0 1.36 0 0 Z " transform="translate(165,96)" style="fill: #8A8A88;"/><path d="M0 0 C1 1 2 2 3 3 C5.09989652 4.17574711 5.09989652 4.17574711 7 5 C2.45194365 5.17835515 -0.8794254 4.99785435 -5 3 C-2.25 0 -2.25 0 0 0 Z " transform="translate(1004,88)" style="fill: #C7C7CA;"/><path d="M0 0 C0.125 6.75 0.125 6.75 -1 9 C-1.66 9 -2.32 9 -3 9 C-3 6.36 -3 3.72 -3 1 C-1 0 -1 0 0 0 Z " transform="translate(1199,105)" style="fill: #D3D3D4;"/><path d="M0 0 C1.65 0 3.3 0 5 0 C4.67 0.66 4.34 1.32 4 2 C3.01 1.67 2.02 1.34 1 1 C1.66 3.31 2.32 5.62 3 8 C1.68 7.67 0.36 7.34 -1 7 C-0.67 4.69 -0.34 2.38 0 0 Z " transform="translate(135,92)" style="fill: #62615F;"/><path d="M0 0 C0 0.99 0 1.98 0 3 C-2.64738916 4.4606285 -3.89448334 5 -7 5 C-7 3 -7 3 -5.75 1.375 C-4 0 -4 0 0 0 Z " transform="translate(131,83)" style="fill: #B9B5B1;"/><path d="M0 0 C5.28 0 10.56 0 16 0 C16 0.33 16 0.66 16 1 C15.09636719 1.06058594 14.19273438 1.12117188 13.26171875 1.18359375 C11.49248047 1.30927734 11.49248047 1.30927734 9.6875 1.4375 C8.51574219 1.51871094 7.34398437 1.59992188 6.13671875 1.68359375 C2.97409042 1.8867371 2.97409042 1.8867371 0 3 C0 2.01 0 1.02 0 0 Z " transform="translate(55,77)" style="fill: #6F6E6D;"/><path d="M0 0 C0.99 0 1.98 0 3 0 C3 2.31 3 4.62 3 7 C2.01 7 1.02 7 0 7 C0 4.69 0 2.38 0 0 Z " transform="translate(540,71)" style="fill: #1B1B1C;"/><path d="M0 0 C-0.33 3.63 -0.66 7.26 -1 11 C-1.99 11 -2.98 11 -4 11 C-3.67 10.67 -3.34 10.34 -3 10 C-2.75266863 5.85723125 -2.75266863 5.85723125 -4 2 C-1 0 -1 0 0 0 Z " transform="translate(659,70)" style="fill: #B8B8BA;"/><path d="M0 0 C1.32 0 2.64 0 4 0 C4 1.65 4 3.3 4 5 C2.68 5 1.36 5 0 5 C0 3.35 0 1.7 0 0 Z " transform="translate(562,70)" style="fill: #D8D8D8;"/><path d="M0 0 C2.31 0 4.62 0 7 0 C7 0.66 7 1.32 7 2 C6.21625 2.12375 5.4325 2.2475 4.625 2.375 C1.85942178 2.79117993 1.85942178 2.79117993 0 5 C-1 2 -1 2 0 0 Z " transform="translate(715,68)" style="fill: #F1F0F5;"/><path d="M0 0 C0.66 0 1.32 0 2 0 C3.60080151 4.00200378 2.29279692 7.04556236 1 11 C0.01 10.34 -0.98 9.68 -2 9 C-1.34 9 -0.68 9 0 9 C0 6.03 0 3.06 0 0 Z " transform="translate(161,68)" style="fill: #7F7C7A;"/><path d="M0 0 C0.66 0.33 1.32 0.66 2 1 C1.67 1.99 1.34 2.98 1 4 C-2.96 4 -6.92 4 -11 4 C-11 3.67 -11 3.34 -11 3 C-10.37351562 2.95101562 -9.74703125 2.90203125 -9.1015625 2.8515625 C-8.28429687 2.77679688 -7.46703125 2.70203125 -6.625 2.625 C-5.81289063 2.55539063 -5.00078125 2.48578125 -4.1640625 2.4140625 C-1.79665809 2.17107412 -1.79665809 2.17107412 0 0 Z " transform="translate(1026,87)" style="fill: #A6A6A8;"/><path d="M0 0 C0 0.99 0 1.98 0 3 C-4.75 4.125 -4.75 4.125 -7 3 C-7 2.34 -7 1.68 -7 1 C-4 0 -4 0 0 0 Z " transform="translate(173,67)" style="fill: #67686A;"/><path d="M0 0 C2.31 0 4.62 0 7 0 C7.33 1.32 7.66 2.64 8 4 C6.35 3.67 4.7 3.34 3 3 C3 2.34 3 1.68 3 1 C2.01 0.67 1.02 0.34 0 0 Z " transform="translate(210,100)" style="fill: #D9D9DA;"/><path d="M0 0 C0.66 0 1.32 0 2 0 C2 0.99 2 1.98 2 3 C2.66 3 3.32 3 4 3 C4.33 5.31 4.66 7.62 5 10 C1.55783328 7.3401439 1.00495326 4.09711714 0 0 Z " transform="translate(159,93)" style="fill: #C6C6C4;"/><path d="M0 0 C0.33 1.32 0.66 2.64 1 4 C1.66 4 2.32 4 3 4 C3 5.65 3 7.3 3 9 C2.01 8.67 1.02 8.34 0 8 C0 5.36 0 2.72 0 0 Z " transform="translate(146,92)" style="fill: #5C5C5A;"/><path d="M0 0 C2.64 0.33 5.28 0.66 8 1 C8 1.66 8 2.32 8 3 C5.36 3 2.72 3 0 3 C0 2.01 0 1.02 0 0 Z " transform="translate(147,86)" style="fill: #BAB4B1;"/><path d="M0 0 C0.66 0.33 1.32 0.66 2 1 C1.01 2.485 1.01 2.485 0 4 C0.99 3.67 1.98 3.34 3 3 C3.99 3.66 4.98 4.32 6 5 C4.02 5.66 2.04 6.32 0 7 C-1 6 -1 6 -1.125 3.5 C-1 1 -1 1 0 0 Z " transform="translate(714,78)" style="fill: #D1D0D5;"/><path d="M0 0 C-0.33 0.33 -0.66 0.66 -1 1 C-1.36760731 3.32817964 -1.70241581 5.6618385 -2 8 C-4.62386487 4.93882432 -5 4.26826873 -5 0 C-2 -1 -2 -1 0 0 Z " transform="translate(536,70)" style="fill: #19191A;"/><path d="M0 0 C5.75 -0.125 5.75 -0.125 8 1 C7.34 2.98 6.68 4.96 6 7 C5.67 7 5.34 7 5 7 C5 5.35 5 3.7 5 2 C3.35 1.67 1.7 1.34 0 1 C0 0.67 0 0.34 0 0 Z " transform="translate(561,68)" style="fill: #474749;"/><path d="M0 0 C0 0.99 0 1.98 0 3 C-0.66 3 -1.32 3 -2 3 C-2.33 4.32 -2.66 5.64 -3 7 C-3.33 7 -3.66 7 -4 7 C-4.04254356 5.00045254 -4.04080783 2.99958364 -4 1 C-3 0 -3 0 0 0 Z " transform="translate(178,56)" style="fill: #BABABA;"/><path d="M0 0 C0.99 0 1.98 0 3 0 C3 0.66 3 1.32 3 2 C3.66 2.33 4.32 2.66 5 3 C1.37 3 -2.26 3 -6 3 C-6 2.67 -6 2.34 -6 2 C-4.02 2 -2.04 2 0 2 C0 1.34 0 0.68 0 0 Z " transform="translate(712,115)" style="fill: #CBCBCD;"/><path d="M0 0 C1.65 1.32 3.3 2.64 5 4 C4.67 4.66 4.34 5.32 4 6 C2.68 5.67 1.36 5.34 0 5 C0 3.35 0 1.7 0 0 Z " transform="translate(200,100)" style="fill: #C7C7C8;"/><path d="M0 0 C0.66 0.33 1.32 0.66 2 1 C2 2.98 2 4.96 2 7 C1.34 7 0.68 7 0 7 C-0.38133299 5.0085944 -0.71325582 3.00720923 -1 1 C-0.67 0.67 -0.34 0.34 0 0 Z " transform="translate(133,77)" style="fill: #3A3935;"/></svg>