<?xml version="1.0" encoding="UTF-8"?>
<!-- Generator: visioncortex VTracer -->
<svg id="svg" version="1.1" xmlns="http://www.w3.org/2000/svg" style="display: block;" viewBox="0 0 226 117"><path d="M0 0 C3.59249711 6.56021212 4.15772038 12.39720986 4.203125 19.77734375 C4.20882507 20.50691788 4.21452515 21.236492 4.22039795 21.98817444 C4.22979688 23.5235959 4.23636147 25.05903707 4.24023438 26.59448242 C4.24995741 28.927281 4.28103494 31.25920381 4.3125 33.59179688 C4.31902999 35.09114066 4.32428048 36.59049067 4.328125 38.08984375 C4.3466452 39.12297951 4.3466452 39.12297951 4.36553955 40.17698669 C4.3425621 45.23638237 3.34080111 48.60397003 1 53 C-2.29839198 55.19892799 -3.28459448 55.25624617 -7.1171875 55.265625 C-8.71119385 55.27178833 -8.71119385 55.27178833 -10.33740234 55.27807617 C-11.50480957 55.26881104 -12.6722168 55.2595459 -13.875 55.25 C-15.10299316 55.24395752 -16.33098633 55.23791504 -17.59619141 55.23168945 C-52.86050432 54.87068861 -87.78008763 51.37117904 -122.6875 46.5625 C-124.28493546 46.34468369 -124.28493546 46.34468369 -125.91464233 46.12246704 C-136.57374676 44.66042893 -147.21018777 43.10202079 -157.76953125 41.02734375 C-158.54874435 40.8839003 -159.32795746 40.74045685 -160.13078308 40.59266663 C-164.54853354 39.67488351 -167.29689301 38.69197542 -170 35 C-171.32373506 29.42140224 -171.67435623 23.25002772 -169 18 C-163.65620402 13.05813055 -157.11104516 12.61871148 -150.125 11.5625 C-148.80382125 11.35466253 -147.48269643 11.14648207 -146.16162109 10.93798828 C-141.77927705 10.25733747 -137.39094242 9.62250067 -133 9 C-131.84975342 8.83664154 -131.84975342 8.83664154 -130.67626953 8.66998291 C-87.32095052 2.55753096 -43.79084329 -0.44382611 0 0 Z " transform="translate(207,29)" style="fill: #28272D;"/><path d="M0 0 C3.653376 6.67138226 4.15197809 12.52193648 4.09765625 20.0234375 C4.09553383 21.14270126 4.09553383 21.14270126 4.09336853 22.28457642 C4.08780874 24.64809318 4.07526389 27.01151227 4.0625 29.375 C4.0574798 30.98567571 4.0529178 32.59635291 4.04882812 34.20703125 C4.03785251 38.13805799 4.02061596 42.06901248 4 46 C3.67 46 3.34 46 3 46 C2.97494385 45.03698975 2.9498877 44.07397949 2.92407227 43.08178711 C2.82935729 39.48287383 2.72929748 35.884125 2.62768555 32.28540039 C2.58457755 30.73270536 2.54288732 29.17997026 2.50268555 27.62719727 C2.4443931 25.38545697 2.38087422 23.14391396 2.31640625 20.90234375 C2.29133751 19.87378517 2.29133751 19.87378517 2.26576233 18.82444763 C2.1341888 14.46956636 1.68585716 10.29331937 1 6 C0.34 6 -0.32 6 -1 6 C-1.33 7.32 -1.66 8.64 -2 10 C-2.66 10 -3.32 10 -4 10 C-4.06058594 10.63808594 -4.12117187 11.27617188 -4.18359375 11.93359375 C-4.26738281 12.75988281 -4.35117188 13.58617187 -4.4375 14.4375 C-4.55931641 15.67306641 -4.55931641 15.67306641 -4.68359375 16.93359375 C-5 19 -5 19 -6 20 C-8.0489863 20.09943241 -10.10143502 20.1279959 -12.15283203 20.12939453 C-13.47155304 20.13254669 -14.79027405 20.13569885 -16.1489563 20.13894653 C-17.6019087 20.13715565 -19.0548608 20.13510442 -20.5078125 20.1328125 C-21.99177059 20.13348596 -23.47572857 20.13445633 -24.95968628 20.13571167 C-28.07860356 20.13718942 -31.19749228 20.13503347 -34.31640625 20.13037109 C-38.30087654 20.12470343 -42.28527904 20.12793339 -46.26974678 20.13394356 C-49.33937075 20.13757253 -52.4089789 20.13639937 -55.47860336 20.13381577 C-56.94651167 20.1331514 -58.41442144 20.13395768 -59.88232803 20.13629532 C-61.94519037 20.13885691 -64.00794629 20.13493099 -66.07080078 20.12939453 C-67.2424881 20.12859894 -68.41417542 20.12780334 -69.62136841 20.12698364 C-73.13841712 19.99479768 -76.51958662 19.50286475 -80 19 C-81.671549 19.30791692 -83.33805547 19.64386903 -85 20 C-87.37359689 20.03670511 -89.73642655 20.00035956 -92.109375 19.9375 C-94.01263957 19.78485355 -94.01263957 19.78485355 -95 21 C-97.69654854 21.07319621 -100.36691458 21.09242537 -103.0625 21.0625 C-103.82111328 21.05798828 -104.57972656 21.05347656 -105.36132812 21.04882812 C-107.24091871 21.0370068 -109.12046899 21.01907078 -111 21 C-111 20.34 -111 19.68 -111 19 C-113.35171131 19.59861742 -115.6859378 20.26924352 -118 21 C-118.33 21.66 -118.66 22.32 -119 23 C-120.31355469 22.91621094 -121.62710938 22.83242188 -122.98046875 22.74609375 C-124.71612585 22.64289252 -126.4518041 22.54004658 -128.1875 22.4375 C-129.05181641 22.38142578 -129.91613281 22.32535156 -130.80664062 22.26757812 C-135.12272917 22.01952706 -138.75906934 22.09643402 -143 23 C-145.06723768 22.81847323 -147.1303585 22.58561623 -149.1875 22.3125 C-155.72618919 21.70182516 -160.2416441 22.97133877 -166 26 C-166 23.36 -166 20.72 -166 18 C-166.66 17.67 -167.32 17.34 -168 17 C-164.44592199 14.64246832 -161.55393938 13.48563088 -157.35546875 12.7890625 C-155.65994873 12.50361572 -155.65994873 12.50361572 -153.93017578 12.21240234 C-152.69509277 12.01855957 -151.46000977 11.8247168 -150.1875 11.625 C-149.54085388 11.52117004 -148.89420776 11.41734009 -148.22796631 11.31036377 C-99.15060267 3.43987202 -49.710913 -0.50382682 0 0 Z " transform="translate(207,29)" style="fill: #4A4A50;"/><path d="M0 0 C0 0.66 0 1.32 0 2 C0.63679688 1.49726562 1.27359375 0.99453125 1.9296875 0.4765625 C6.20035963 -1.57727219 9.48407257 -1.02659846 14.125 -0.625 C28.26902194 0.33601125 42.36886195 -0.2660769 56.52197266 -0.77001953 C58.35188549 -0.82722955 60.18180075 -0.88436178 62.01171875 -0.94140625 C63.28227867 -0.99445168 63.28227867 -0.99445168 64.57850647 -1.04856873 C65.75913918 -1.08362267 65.75913918 -1.08362267 66.96362305 -1.11938477 C67.64925827 -1.14460709 68.33489349 -1.16982941 69.04130554 -1.19581604 C71.3782105 -0.96218926 72.91992362 -0.0545505 75 1 C77.95820941 0.80408744 77.95820941 0.80408744 81.125 0.125 C87.3271696 -0.95636815 93.87361319 -2.07037853 100.078125 -0.4609375 C103.10565649 0.26517778 105.93818133 -0.54825626 109 -1 C112.00229743 -1.08605311 114.99736643 -1.06127824 118 -1 C118 -0.34 118 0.32 118 1 C119.27875 0.855625 120.5575 0.71125 121.875 0.5625 C126.91293149 0.0018399 131.95545084 -0.50265008 137 -1 C137 2.96 137 6.92 137 11 C102.02 11 67.04 11 31 11 C31 10.34 31 9.68 31 9 C30.15518066 9.00523682 29.31036133 9.01047363 28.43994141 9.01586914 C-10.49001915 9.22511304 -10.49001915 9.22511304 -25 7 C-25 6.34 -25 5.68 -25 5 C-24.34 5 -23.68 5 -23 5 C-22.79632813 4.36707031 -22.59265625 3.73414063 -22.3828125 3.08203125 C-21 1 -21 1 -18.2421875 0.13671875 C-11.88446023 -0.71146992 -6.31438967 -1.23811562 0 0 Z " transform="translate(65,53)" style="fill: #151518;"/><path d="M0 0 C3.653376 6.67138226 4.15197809 12.52193648 4.09765625 20.0234375 C4.09553383 21.14270126 4.09553383 21.14270126 4.09336853 22.28457642 C4.08780874 24.64809318 4.07526389 27.01151227 4.0625 29.375 C4.0574798 30.98567571 4.0529178 32.59635291 4.04882812 34.20703125 C4.03785251 38.13805799 4.02061596 42.06901248 4 46 C3.67 46 3.34 46 3 46 C2.97494385 45.03698975 2.9498877 44.07397949 2.92407227 43.08178711 C2.82935729 39.48287383 2.72929748 35.884125 2.62768555 32.28540039 C2.58457755 30.73270536 2.54288732 29.17997026 2.50268555 27.62719727 C2.4443931 25.38545697 2.38087422 23.14391396 2.31640625 20.90234375 C2.29133751 19.87378517 2.29133751 19.87378517 2.26576233 18.82444763 C2.1341888 14.46956636 1.68585716 10.29331937 1 6 C0.34 6 -0.32 6 -1 6 C-1.33 7.32 -1.66 8.64 -2 10 C-2.66 10 -3.32 10 -4 10 C-4.06058594 10.63808594 -4.12117187 11.27617188 -4.18359375 11.93359375 C-4.26738281 12.75988281 -4.35117188 13.58617187 -4.4375 14.4375 C-4.55931641 15.67306641 -4.55931641 15.67306641 -4.68359375 16.93359375 C-5 19 -5 19 -6 20 C-7.6381057 20.10109409 -9.280654 20.13082692 -10.921875 20.1328125 C-11.9934082 20.13474609 -13.06494141 20.13667969 -14.16894531 20.13867188 C-15.35069336 20.13416016 -16.53244141 20.12964844 -17.75 20.125 C-18.96526367 20.12306641 -20.18052734 20.12113281 -21.43261719 20.11914062 C-37.96041875 20.04485837 -54.48106856 19.51365516 -71 19 C-71 18.67 -71 18.34 -71 18 C-57.56660958 16.63761522 -44.10949956 16.88806181 -30.625 16.9375 C-28.23177177 16.94252507 -25.83854252 16.94708619 -23.4453125 16.95117188 C-17.63018574 16.96209764 -11.81509774 16.97875592 -6 17 C-6.33 15.02 -6.66 13.04 -7 11 C-8.18029785 11.00523682 -9.3605957 11.01047363 -10.57666016 11.01586914 C-14.97118364 11.0340199 -19.36570383 11.04546879 -23.76025391 11.05493164 C-25.65934812 11.05994885 -27.5584385 11.06676411 -29.45751953 11.07543945 C-32.19304352 11.08761963 -34.92851626 11.09325454 -37.6640625 11.09765625 C-38.93003769 11.10539818 -38.93003769 11.10539818 -40.22158813 11.11329651 C-44.59835842 11.11370954 -48.69004167 10.88088964 -53 10 C-52.01 9.34 -51.02 8.68 -50 8 C-53.58368196 7.17483946 -56.85369998 6.89221238 -60.52734375 6.9375 C-61.56697266 6.94523437 -62.60660156 6.95296875 -63.67773438 6.9609375 C-65.84700577 6.98693236 -68.01627661 7.01297386 -70.18554688 7.0390625 C-74.44610389 7.07071989 -78.42080688 7.09975339 -82.62890625 6.375 C-83.41136719 6.25125 -84.19382812 6.1275 -85 6 C-85.66 6.66 -86.32 7.32 -87 8 C-89.72469786 8.46659731 -92.38179802 8.83599254 -95.125 9.125 C-95.87910156 9.21136719 -96.63320312 9.29773437 -97.41015625 9.38671875 C-99.27257127 9.59889261 -101.13618931 9.80045763 -103 10 C-103 9.67 -103 9.34 -103 9 C-106.3 8.67 -109.6 8.34 -113 8 C-113 8.66 -113 9.32 -113 10 C-126.1345353 12.49615603 -138.63835776 13.3801521 -152 13 C-152 12.67 -152 12.34 -152 12 C-130.86462714 8.67458582 -109.74584449 5.66726729 -88.4375 3.6875 C-87.57392883 3.60673218 -86.71035767 3.52596436 -85.82061768 3.44274902 C-69.66686497 1.94712403 -53.53136011 0.92386606 -37.3125 0.4375 C-36.62865234 0.41632111 -35.94480469 0.39514221 -35.24023438 0.37332153 C-23.49185521 0.01250285 -11.7536755 -0.11912509 0 0 Z " transform="translate(207,29)" style="fill: #5D5C61;"/><path d="M0 0 C0.66 0 1.32 0 2 0 C3.75430672 5.32035936 4.33155249 10.01610959 4.37109375 15.6015625 C4.38012222 16.40105316 4.3891507 17.20054382 4.39845276 18.02426147 C4.4128766 19.70331111 4.42182227 21.38241595 4.42553711 23.06152344 C4.43750141 25.62530226 4.48681537 28.186723 4.53710938 30.75 C4.54656786 32.38800918 4.55380564 34.02603301 4.55859375 35.6640625 C4.57812607 36.42562653 4.59765839 37.18719055 4.61778259 37.97183228 C4.58470233 41.87870204 4.13887775 43.81155827 1.79931641 46.98608398 C-1.29581122 49.21281587 -2.5932726 49.61363563 -6.34765625 49.55859375 C-7.41145508 49.55279297 -8.47525391 49.54699219 -9.57128906 49.54101562 C-10.72338867 49.50685547 -11.87548828 49.47269531 -13.0625 49.4375 C-14.26229492 49.42009766 -15.46208984 49.40269531 -16.69824219 49.38476562 C-32.81417229 49.06612366 -48.91674772 48.03231527 -65 47 C-65 46.67 -65 46.34 -65 46 C-43.656668 45.79097934 -22.33341031 46.4237941 -1 47 C-1.32145996 45.79537109 -1.64291992 44.59074219 -1.97412109 43.34960938 C-2.80872916 40.00455543 -3.29063541 36.8622084 -3.4140625 33.40625 C-3.45273438 32.43945312 -3.49140625 31.47265625 -3.53125 30.4765625 C-3.5621875 29.49429688 -3.593125 28.51203125 -3.625 27.5 C-3.66367188 26.48679687 -3.70234375 25.47359375 -3.7421875 24.4296875 C-3.83563619 21.95329716 -3.92139873 19.47689849 -4 17 C-5.29744141 17.01740234 -5.29744141 17.01740234 -6.62109375 17.03515625 C-13.76422388 17.08633528 -20.86973367 16.98707551 -28.00521851 16.63879395 C-39.16995101 16.10330638 -50.31691804 15.91375512 -61.4921875 15.9375 C-62.19960398 15.93893446 -62.90702045 15.94036892 -63.63587379 15.94184685 C-68.71561722 15.95402449 -73.79530027 15.9760909 -78.875 16 C-84.01192956 16.02388224 -89.14882845 16.0440946 -94.28580093 16.05593872 C-96.30129995 16.0622923 -98.31677638 16.07486434 -100.33224487 16.08764648 C-107.61643 16.10705315 -114.76111573 15.82862226 -122 15 C-122 14.67 -122 14.34 -122 14 C-116.06 13.505 -116.06 13.505 -110 13 C-110 13.66 -110 14.32 -110 15 C-107.37461716 14.85946128 -104.74982573 14.71281053 -102.125 14.5625 C-101.37863281 14.52318359 -100.63226563 14.48386719 -99.86328125 14.44335938 C-95.80013136 14.28426376 -95.80013136 14.28426376 -92 13 C-90.05204808 13 -88.10394305 13.00340038 -86.15625 13.03515625 C-83.7337026 13.04406528 -83.7337026 13.04406528 -80.3125 12.4375 C-77 12 -77 12 -74.71284485 12.46556091 C-71.51364883 13.09581273 -68.54323384 13.11966711 -65.28198242 13.11352539 C-64.30065338 13.11374443 -64.30065338 13.11374443 -63.29949951 13.1139679 C-61.15145474 13.11327494 -59.00349825 13.10551164 -56.85546875 13.09765625 C-55.36045886 13.09578988 -53.86544835 13.09436701 -52.37043762 13.09336853 C-48.44628189 13.08956064 -44.5221635 13.07974518 -40.59802246 13.06866455 C-36.58944199 13.05841321 -32.58085545 13.05386294 -28.57226562 13.04882812 C-20.71482666 13.0381213 -12.85741798 13.02106572 -5 13 C-4.34 10.03 -3.68 7.06 -3 4 C-2.34 4 -1.68 4 -1 4 C-0.67 2.68 -0.34 1.36 0 0 Z " transform="translate(206,35)" style="fill: #474649;"/><path d="M0 0 C3.653376 6.67138226 4.15197809 12.52193648 4.09765625 20.0234375 C4.0962413 20.76961334 4.09482635 21.51578918 4.09336853 22.28457642 C4.08780874 24.64809318 4.07526389 27.01151227 4.0625 29.375 C4.0574798 30.98567571 4.0529178 32.59635291 4.04882812 34.20703125 C4.03785251 38.13805799 4.02061596 42.06901248 4 46 C3.67 46 3.34 46 3 46 C2.97494385 45.03698975 2.9498877 44.07397949 2.92407227 43.08178711 C2.82935729 39.48287383 2.72929748 35.884125 2.62768555 32.28540039 C2.58457755 30.73270536 2.54288732 29.17997026 2.50268555 27.62719727 C2.4443931 25.38545697 2.38087422 23.14391396 2.31640625 20.90234375 C2.29969376 20.21663803 2.28298126 19.53093231 2.26576233 18.82444763 C2.1341888 14.46956636 1.68585716 10.29331937 1 6 C0.34 6 -0.32 6 -1 6 C-1.33 7.32 -1.66 8.64 -2 10 C-2.66 10 -3.32 10 -4 10 C-4.06058594 10.63808594 -4.12117188 11.27617188 -4.18359375 11.93359375 C-4.30927734 13.17302734 -4.30927734 13.17302734 -4.4375 14.4375 C-4.55931641 15.67306641 -4.55931641 15.67306641 -4.68359375 16.93359375 C-5 19 -5 19 -6 20 C-7.6381057 20.10109409 -9.280654 20.13082692 -10.921875 20.1328125 C-11.9934082 20.13474609 -13.06494141 20.13667969 -14.16894531 20.13867188 C-15.94156738 20.1319043 -15.94156738 20.1319043 -17.75 20.125 C-18.96526367 20.12306641 -20.18052734 20.12113281 -21.43261719 20.11914062 C-37.96041875 20.04485837 -54.48106856 19.51365516 -71 19 C-71 18.67 -71 18.34 -71 18 C-57.56660958 16.63761522 -44.10949956 16.88806181 -30.625 16.9375 C-28.23177177 16.94252507 -25.83854252 16.94708619 -23.4453125 16.95117188 C-17.63018574 16.96209764 -11.81509774 16.97875592 -6 17 C-6.495 14.03 -6.495 14.03 -7 11 C-8.18029785 11.00523682 -9.3605957 11.01047363 -10.57666016 11.01586914 C-14.97118364 11.0340199 -19.36570383 11.04546879 -23.76025391 11.05493164 C-25.65934812 11.05994885 -27.5584385 11.06676411 -29.45751953 11.07543945 C-32.19304352 11.08761963 -34.92851626 11.09325454 -37.6640625 11.09765625 C-38.93003769 11.10539818 -38.93003769 11.10539818 -40.22158813 11.11329651 C-44.59835842 11.11370954 -48.69004167 10.88088964 -53 10 C-53 9.67 -53 9.34 -53 9 C-42.01739612 8.00859255 -31.14173567 7.87902944 -20.125 7.9375 C-18.45442844 7.94253086 -16.7838554 7.94709093 -15.11328125 7.95117188 C-11.07548318 7.96203841 -7.03775868 7.97921319 -3 8 C-3.495 5.525 -3.495 5.525 -4 3 C-25.45 3 -46.9 3 -69 3 C-69 2.67 -69 2.34 -69 2 C-46.08053752 0.22826524 -22.98011035 -0.23290652 0 0 Z " transform="translate(207,29)" style="fill: #5F5F66;"/><path d="M0 0 C2.00293533 0.31521605 4.00201808 0.65477634 6 1 C11.01807301 1.14278306 16.03954749 1.02252089 21.05859375 0.9609375 C26.81664211 0.91769809 32.30656881 1.12197688 38 2 C38 2.33 38 2.66 38 3 C33.26881057 3.72688515 28.59393055 4.215249 23.81640625 4.5 C23.15720688 4.54060547 22.49800751 4.58121094 21.8188324 4.62304688 C19.73354055 4.75137348 17.64805982 4.87611015 15.5625 5 C5.52363853 5.52135024 5.52363853 5.52135024 -4.46875 6.5546875 C-8.36611976 7.04616997 -12.14092955 7.14782194 -16.0625 7.125 C-16.73087891 7.12886719 -17.39925781 7.13273437 -18.08789062 7.13671875 C-22.50073211 7.1281418 -26.65983904 6.7111317 -31 6 C-31 6.66 -31 7.32 -31 8 C-33.10018513 8.41644184 -35.20541042 8.80753303 -37.3125 9.1875 C-38.48425781 9.40792969 -39.65601562 9.62835938 -40.86328125 9.85546875 C-44 10 -44 10 -45.91796875 8.55078125 C-46.27503906 8.03902344 -46.63210937 7.52726562 -47 7 C-44.58374679 6.66340751 -42.16707192 6.33061612 -39.75 6 C-39.06808594 5.90460937 -38.38617188 5.80921875 -37.68359375 5.7109375 C-34.40628012 5.2654774 -31.31615847 5 -28 5 C-28 4.34 -28 3.68 -28 3 C-26.22925083 2.97294271 -24.45838289 2.95357805 -22.6875 2.9375 C-21.70136719 2.92589844 -20.71523437 2.91429687 -19.69921875 2.90234375 C-17 3 -17 3 -14 4 C-11.0814392 3.75865778 -11.0814392 3.75865778 -7.9375 3.1875 C-6.34228516 2.93033203 -6.34228516 2.93033203 -4.71484375 2.66796875 C-1.87173692 2.21686259 -1.87173692 2.21686259 0 0 Z " transform="translate(122,34)" style="fill: #414146;"/><path d="M0 0 C0.66 0 1.32 0 2 0 C3.69488141 5.13449368 4.27437515 9.70159952 4.1953125 15.12109375 C4.1924826 15.86585464 4.18965271 16.61061554 4.18673706 17.37794495 C4.17563917 19.73130101 4.1505551 22.08426109 4.125 24.4375 C4.11495672 26.04361425 4.10583324 27.64973454 4.09765625 29.25585938 C4.07573407 33.17072296 4.04127761 37.0852946 4 41 C2.0625 41.5625 2.0625 41.5625 0 42 C-3.81207164 38.18792836 -2.18411506 25.6518754 -2.1875 20.5 C-2.19974609 19.51902344 -2.21199219 18.53804687 -2.22460938 17.52734375 C-2.23690765 11.37000868 -1.5576924 5.95986659 0 0 Z " transform="translate(206,35)" style="fill: #10121A;"/><path d="M0 0 C2.27215442 0.12453053 4.54660757 0.21146456 6.8215332 0.26538086 C8.7931115 0.31564674 8.7931115 0.31564674 10.80451965 0.3669281 C11.49665873 0.38278898 12.1887978 0.39864986 12.90191078 0.41499138 C15.08328479 0.46559781 17.26442458 0.52227891 19.44560242 0.58070374 C25.6419872 0.74596996 31.83853892 0.90322595 38.03540039 1.04956055 C41.83678019 1.13975276 45.63781886 1.23930278 49.43880272 1.34482002 C50.88563196 1.38309449 52.33256186 1.41774003 53.77956581 1.4487133 C55.79506573 1.49207821 57.810276 1.54833255 59.82543945 1.60522461 C60.97236771 1.63329697 62.11929596 1.66136932 63.30097961 1.69029236 C66 2 66 2 68 4 C59.98188054 4.10754557 52.00418837 4.02973147 43.99478149 3.63879395 C32.83004899 3.10330638 21.68308196 2.91375512 10.5078125 2.9375 C9.80039602 2.93893446 9.09297955 2.94036892 8.36412621 2.94184685 C3.28438278 2.95402449 -1.79530027 2.9760909 -6.875 3 C-12.01192956 3.02388224 -17.14882845 3.0440946 -22.28580093 3.05593872 C-24.30129995 3.0622923 -26.31677638 3.07486434 -28.33224487 3.08764648 C-35.61643 3.10705315 -42.76111573 2.82862226 -50 2 C-50 1.67 -50 1.34 -50 1 C-44.06 0.505 -44.06 0.505 -38 0 C-38 0.66 -38 1.32 -38 2 C-35.37461716 1.85946128 -32.74982573 1.71281053 -30.125 1.5625 C-29.37863281 1.52318359 -28.63226563 1.48386719 -27.86328125 1.44335938 C-23.80013136 1.28426376 -23.80013136 1.28426376 -20 0 C-18.00517391 0 -16.0101898 0.00287013 -14.015625 0.03515625 C-11.89098954 0.06441308 -11.89098954 0.06441308 -9.4375 -0.5625 C-6.14333632 -1.15376015 -3.30940091 -0.47696916 0 0 Z " transform="translate(134,48)" style="fill: #3B3A40;"/><path d="M0 0 C-3.77345557 2.51563705 -5.87734893 2.23609937 -10.375 2.1875 C-11.68210938 2.18105469 -12.98921875 2.17460938 -14.3359375 2.16796875 C-17.38320448 2.02827527 -20.03632179 1.63794429 -23 1 C-27.00186288 0.76701483 -30.87636354 0.77527271 -34.8125 1.5625 C-37.30626254 2.06125251 -38.56521007 1.64450322 -41 1 C-45.92885026 0.84806257 -50.56720986 1.25786055 -55.4375 2 C-56.67371094 2.185625 -57.90992188 2.37125 -59.18359375 2.5625 C-60.11300781 2.706875 -61.04242188 2.85125 -62 3 C-62 2.34 -62 1.68 -62 1 C-62.99 1 -63.98 1 -65 1 C-65 0.34 -65 -0.32 -65 -1 C-43.24855927 -2.61856309 -21.72810509 -1.32328452 0 0 Z " transform="translate(201,52)" style="fill: #2A292F;"/><path d="M0 0 C0 0.33 0 0.66 0 1 C-3.63 1.33 -7.26 1.66 -11 2 C-11 2.66 -11 3.32 -11 4 C-24.1345353 6.49615603 -36.63835776 7.3801521 -50 7 C-50 6.67 -50 6.34 -50 6 C-44.32700674 5.13705935 -38.65278593 4.28288121 -32.97729492 3.43652344 C-31.04985668 3.14786781 -29.12276453 2.85689064 -27.19604492 2.56347656 C-24.41414449 2.14025342 -21.63107422 1.72561028 -18.84765625 1.3125 C-17.99728287 1.18125732 -17.14690948 1.05001465 -16.27076721 0.91479492 C-10.78845678 0.11184063 -5.54138847 -0.11702008 0 0 Z " transform="translate(105,35)" style="fill: #6F6F70;"/><path d="M0 0 C0.99 2.475 0.99 2.475 2 5 C1.01 5 0.02 5 -1 5 C-1 4.34 -1 3.68 -1 3 C-23.44 3 -45.88 3 -69 3 C-69 2.67 -69 2.34 -69 2 C-46.08053752 0.22826524 -22.98011035 -0.23290652 0 0 Z " transform="translate(207,29)" style="fill: #929294;"/><path d="M0 0 C0.66 0 1.32 0 2 0 C1.99476318 0.80107178 1.98952637 1.60214355 1.98413086 2.42749023 C1.9631958 6.09748534 1.95028757 9.76746782 1.9375 13.4375 C1.92912109 14.69755859 1.92074219 15.95761719 1.91210938 17.25585938 C1.84503103 27.17568139 1.84503103 27.17568139 3 37 C3.99 37.66 4.98 38.32 6 39 C4.35 39 2.7 39 1 39 C0.08341617 35.82946805 -0.18832039 32.87176138 -0.31640625 29.578125 C-0.37356812 28.19222168 -0.37356812 28.19222168 -0.43188477 26.77832031 C-0.47498779 25.61397461 -0.51809082 24.44962891 -0.5625 23.25 C-0.706875 19.5375 -0.85125 15.825 -1 12 C-10.57 11.67 -20.14 11.34 -30 11 C-30 10.67 -30 10.34 -30 10 C-20.76 9.67 -11.52 9.34 -2 9 C-1.34 6.03 -0.68 3.06 0 0 Z " transform="translate(203,39)" style="fill: #434247;"/><path d="M0 0 C0 0.66 0 1.32 0 2 C2.62538284 1.85946128 5.25017427 1.71281053 7.875 1.5625 C8.62136719 1.52318359 9.36773437 1.48386719 10.13671875 1.44335938 C14.19986864 1.28426376 14.19986864 1.28426376 18 0 C19.84050618 0.07728524 21.67822095 0.22423749 23.51171875 0.40234375 C31.93996327 1.12569357 40.35962167 1.34318885 48.8125 1.5625 C50.39128408 1.60582772 51.97006023 1.64944576 53.54882812 1.69335938 C57.36580244 1.79890974 61.18286163 1.90056705 65 2 C65 2.33 65 2.66 65 3 C56.58465009 3.0232884 48.16931391 3.04099849 39.75393963 3.05181217 C35.8453068 3.05700519 31.93669621 3.06403687 28.02807617 3.07543945 C24.24793597 3.08639676 20.467817 3.09230373 16.68766212 3.09487724 C15.25375853 3.09670855 13.81985595 3.100284 12.38596153 3.10573006 C4.20636117 3.13552874 -3.86583378 2.94116139 -12 2 C-12 1.67 -12 1.34 -12 1 C-10.37512529 0.83211627 -8.75009558 0.66573213 -7.125 0.5 C-6.22007813 0.4071875 -5.31515625 0.314375 -4.3828125 0.21875 C-2 0 -2 0 0 0 Z " transform="translate(96,48)" style="fill: #333238;"/><path d="M0 0 C1.41055664 -0.00193359 1.41055664 -0.00193359 2.84960938 -0.00390625 C3.82091797 -0.00003906 4.79222656 0.00382812 5.79296875 0.0078125 C6.75267578 0.00394531 7.71238281 0.00007813 8.70117188 -0.00390625 C15.25440134 0.00504014 21.70809824 0.04202233 27.98046875 2.1328125 C29.30046875 2.1328125 30.62046875 2.1328125 31.98046875 2.1328125 C31.98046875 2.7928125 31.98046875 3.4528125 31.98046875 4.1328125 C31.17609375 4.060625 30.37171875 3.9884375 29.54296875 3.9140625 C20.0159799 3.1619318 10.57570101 3.07180433 1.01953125 3.2578125 C0.02179688 3.26941406 -0.9759375 3.28101563 -2.00390625 3.29296875 C-2.89819336 3.30980713 -3.79248047 3.32664551 -4.71386719 3.34399414 C-7.01953125 3.1328125 -7.01953125 3.1328125 -10.01953125 1.1328125 C-6.62203264 0.36870729 -3.48002578 0.00464756 0 0 Z " transform="translate(135.01953125,32.8671875)" style="fill: #4E4D53;"/><path d="M0 0 C1.01202288 7.17757765 0.88826175 13.81191259 0 21 C0.99 21 1.98 21 3 21 C3 22.98 3 24.96 3 27 C1.68 26.67 0.36 26.34 -1 26 C-1.83646801 20.14472395 -2.10922375 14.40557734 -2.125 8.5 C-2.12951172 7.78134766 -2.13402344 7.06269531 -2.13867188 6.32226562 C-2.12052183 0 -2.12052183 0 0 0 Z " transform="translate(206,50)" style="fill: #0E0E13;"/><path d="M0 0 C0.33 0.66 0.66 1.32 1 2 C1.66 2 2.32 2 3 2 C3 2.66 3 3.32 3 4 C-0.16664666 4.02940458 -3.33325747 4.04693315 -6.5 4.0625 C-7.386875 4.07087891 -8.27375 4.07925781 -9.1875 4.08789062 C-14.55823086 4.10763596 -19.68633663 3.78835893 -25 3 C-25 2.67 -25 2.34 -25 2 C-8.29157175 0.66742597 -8.29157175 0.66742597 0 2 C0 1.34 0 0.68 0 0 Z " transform="translate(201,33)" style="fill: #47464D;"/><path d="M0 0 C-0.99 1.485 -0.99 1.485 -2 3 C-4.75711269 3.54501065 -7.34152546 3.92549765 -10.125 4.1875 C-11.25615234 4.3102832 -11.25615234 4.3102832 -12.41015625 4.43554688 C-14.27216607 4.6358897 -16.13595811 4.81954036 -18 5 C-18 4.67 -18 4.34 -18 4 C-20.31 3.67 -22.62 3.34 -25 3 C-25 2.67 -25 2.34 -25 2 C-21.77125066 1.66254072 -18.5419413 1.33076631 -15.3125 1 C-13.94448242 0.85691406 -13.94448242 0.85691406 -12.54882812 0.7109375 C-11.21948242 0.57558594 -11.21948242 0.57558594 -9.86328125 0.4375 C-9.05157471 0.35371094 -8.23986816 0.26992188 -7.40356445 0.18359375 C-4.92615534 -0.00564055 -2.4836252 -0.03092452 0 0 Z " transform="translate(122,34)" style="fill: #505053;"/><path d="M0 0 C1.64666203 0.1135629 3.29236082 0.24117381 4.9375 0.375 C6.31228516 0.47941406 6.31228516 0.47941406 7.71484375 0.5859375 C8.84599609 0.79089844 8.84599609 0.79089844 10 1 C10.33 1.66 10.66 2.32 11 3 C12.64363134 3.72159424 14.31050386 4.39351421 16 5 C13.02977779 5.91145054 10.93514414 6.01801972 7.890625 5.44140625 C7.13652344 5.30283203 6.38242187 5.16425781 5.60546875 5.02148438 C4.82816406 4.87001953 4.05085938 4.71855469 3.25 4.5625 C2.06083984 4.34110352 2.06083984 4.34110352 0.84765625 4.11523438 C-1.10297246 3.75096034 -3.0516893 3.37647488 -5 3 C-5 2.67 -5 2.34 -5 2 C-3.35 1.67 -1.7 1.34 0 1 C0 0.67 0 0.34 0 0 Z " transform="translate(54,67)" style="fill: #4C4B50;"/><path d="M0 0 C2.5625 1.5 2.5625 1.5 4 3 C2 5 2 5 -0.3828125 5.1953125 C-1.28773438 5.17210937 -2.19265625 5.14890625 -3.125 5.125 C-4.49011719 5.09792969 -4.49011719 5.09792969 -5.8828125 5.0703125 C-6.58148438 5.04710937 -7.28015625 5.02390625 -8 5 C-8 4.01 -8 3.02 -8 2 C-8.99 1.67 -9.98 1.34 -11 1 C-7.56928684 -0.71535658 -3.75941181 -0.4006478 0 0 Z " transform="translate(145,38)" style="fill: #515056;"/><path d="M0 0 C1.16306443 3.54950034 0.92365049 6.55823948 0.5625 10.25 C0.40974609 11.86648437 0.40974609 11.86648437 0.25390625 13.515625 C0.17011719 14.33546875 0.08632813 15.1553125 0 16 C0.9075 16.2475 1.815 16.495 2.75 16.75 C6.10351489 18.03981342 7.67708236 19.31971042 10 22 C6.36024802 21.72001908 3.70696199 21.46510657 0.625 19.4375 C-2.13055479 15.30416781 -2.3528789 11.2535336 -1.60546875 6.48046875 C-1.12808672 4.29962279 -0.60204398 2.14944628 0 0 Z " transform="translate(38,47)" style="fill: #706A68;"/><path d="M0 0 C-0.33 0.66 -0.66 1.32 -1 2 C-6.68166088 3.00824116 -12.24334295 3.12734969 -18 3.0625 C-19.16208984 3.05573242 -19.16208984 3.05573242 -20.34765625 3.04882812 C-22.23180524 3.03719758 -24.11591365 3.01926906 -26 3 C-26 2.67 -26 2.34 -26 2 C-17.25607982 0.20637535 -8.91469911 -0.23737365 0 0 Z " transform="translate(81,39)" style="fill: #626264;"/><path d="M0 0 C0.66 0 1.32 0 2 0 C4.14336161 3.4766338 4.21277626 6.21229195 4.125 10.25 C4.10695312 11.32765625 4.08890625 12.4053125 4.0703125 13.515625 C4.04710937 14.33546875 4.02390625 15.1553125 4 16 C3.67 16 3.34 16 3 16 C3 14.35 3 12.7 3 11 C2.01 11 1.02 11 0 11 C0 7.37 0 3.74 0 0 Z " transform="translate(206,60)" style="fill: #262830;"/><path d="M0 0 C0.66 0 1.32 0 2 0 C2 2.64 2 5.28 2 8 C2.33 8 2.66 8 3 8 C3 10.31 3 12.62 3 15 C1.68 14.67 0.36 14.34 -1 14 C-1.02694851 12.04174127 -1.04637218 10.08337774 -1.0625 8.125 C-1.07410156 7.03445312 -1.08570313 5.94390625 -1.09765625 4.8203125 C-1 2 -1 2 0 0 Z " transform="translate(206,35)" style="fill: #06070B;"/><path d="M0 0 C0 0.99 0 1.98 0 3 C-1.216875 2.95875 -2.43375 2.9175 -3.6875 2.875 C-7.21894127 2.86245492 -9.80003566 3.40001783 -13 5 C-13.99 4.01 -14.98 3.02 -16 2 C-10.51324804 0.13216954 -5.77807024 -0.2358396 0 0 Z " transform="translate(72,41)" style="fill: #3F3E42;"/><path d="M0 0 C0 0.66 0 1.32 0 2 C0.66 2.33 1.32 2.66 2 3 C-0.91499943 3.79560764 -3.74561419 4.25322499 -6.75 4.5625 C-7.94882812 4.68818359 -7.94882812 4.68818359 -9.171875 4.81640625 C-10.07679687 4.90728516 -10.07679687 4.90728516 -11 5 C-11 4.01 -11 3.02 -11 2 C-7.12315913 0.80712589 -4.08378077 0 0 0 Z " transform="translate(55,43)" style="fill: #3C3B3F;"/><path d="M0 0 C0.66 0 1.32 0 2 0 C3.81975482 5.12839994 1.8599099 9.17684382 0 14 C-0.33 14 -0.66 14 -1 14 C-1.027193 12.41676312 -1.04648306 10.83338938 -1.0625 9.25 C-1.07410156 8.36828125 -1.08570313 7.4865625 -1.09765625 6.578125 C-1.00826198 4.2181162 -0.66912821 2.25501476 0 0 Z " transform="translate(39,47)" style="fill: #302721;"/><path d="M0 0 C2.97 0.495 2.97 0.495 6 1 C6 1.66 6 2.32 6 3 C8.64 3.99 11.28 4.98 14 6 C9.59662012 7.10084497 8.73201586 6.7915332 4.75 5.0625 C3.85796875 4.68222656 2.9659375 4.30195312 2.046875 3.91015625 C1.37140625 3.60980469 0.6959375 3.30945313 0 3 C0 2.01 0 1.02 0 0 Z " transform="translate(64,67)" style="fill: #333238;"/><path d="M0 0 C5.28 0 10.56 0 16 0 C12.94185713 2.03876191 11.55116328 2.41616481 8 2.8125 C7.13375 2.92207031 6.2675 3.03164063 5.375 3.14453125 C3 3 3 3 0 0 Z " transform="translate(75,41)" style="fill: #38373C;"/><path d="M0 0 C2.97 0.495 2.97 0.495 6 1 C6.33 1.99 6.66 2.98 7 4 C4.69 4 2.38 4 0 4 C0 2.68 0 1.36 0 0 Z " transform="translate(48,65)" style="fill: #323137;"/><path d="M0 0 C0.33 0.99 0.66 1.98 1 3 C1.66 3 2.32 3 3 3 C3 5.64 3 8.28 3 11 C2.67 11 2.34 11 2 11 C2 9.35 2 7.7 2 6 C1.01 6 0.02 6 -1 6 C-1.042721 4.33388095 -1.04063832 2.66617115 -1 1 C-0.67 0.67 -0.34 0.34 0 0 Z " transform="translate(207,65)" style="fill: #32343E;"/><path d="M0 0 C0.33 0.99 0.66 1.98 1 3 C-0.32 4.32 -1.64 5.64 -3 7 C-3.33 5.35 -3.66 3.7 -4 2 C-2.68 2 -1.36 2 0 2 C0 1.34 0 0.68 0 0 Z " transform="translate(209,76)" style="fill: #666671;"/></svg>