<?xml version="1.0" encoding="UTF-8"?>
<!-- Generator: visioncortex VTracer -->
<svg id="svg" version="1.1" xmlns="http://www.w3.org/2000/svg" style="display: block;" viewBox="0 0 784 318"><path d="M0 0 C0.97453125 -0.02900391 1.9490625 -0.05800781 2.953125 -0.08789062 C8.78858871 -0.13956707 12.31077672 0.28524417 16.875 4.3125 C23.17907728 12.9580917 24.27560883 24.59684382 25.9375 34.9375 C26.09798828 35.85789063 26.25847656 36.77828125 26.42382812 37.7265625 C29.75882098 58.29904856 30.18597095 79.16112115 30.08081055 99.95556641 C30.06240862 103.70612357 30.06030304 107.45643326 30.06054688 111.20703125 C30.03526431 128.99901261 29.86771356 146.82434967 27.625 164.5 C27.43538696 165.99635986 27.43538696 165.99635986 27.24194336 167.52294922 C26.38182823 173.78957415 25.19822571 179.8608326 23.4375 185.9375 C23.24446289 186.60547607 23.05142578 187.27345215 22.85253906 187.96166992 C20.97903389 193.87635326 18.85026025 198.02474564 13.58491516 201.45744324 C7.68198654 204.26211242 1.58817395 203.84687286 -4.82348633 203.7824707 C-6.19956121 203.78298034 -7.57563639 203.78524142 -8.95170593 203.78910828 C-12.67626374 203.79450985 -16.40032038 203.77514656 -20.12478852 203.75100732 C-24.05458577 203.72956407 -27.98438389 203.73029879 -31.91423035 203.72831726 C-38.53250606 203.72187292 -45.15059684 203.70066738 -51.76879883 203.66918945 C-60.1779267 203.62923766 -68.58693303 203.61154122 -76.99614429 203.60188007 C-84.30718355 203.59346201 -91.6181987 203.57625371 -98.92921615 203.55684257 C-100.47715239 203.55283348 -102.02508934 203.5490884 -103.5730269 203.5456202 C-128.70741178 203.48891788 -153.78267138 202.91767649 -178.875 201.375 C-181.87747544 201.19311513 -184.88008704 201.0136461 -187.8828125 200.8359375 C-188.64270477 200.79089584 -189.40259705 200.74585419 -190.18551636 200.69944763 C-195.55687787 200.38750278 -200.92898179 200.13740162 -206.3046875 199.9140625 C-229.85204252 198.91139179 -253.18128981 196.72658921 -276.61201477 194.20774841 C-285.04598956 193.30637477 -293.4869496 192.53864027 -301.9375 191.8125 C-316.79082153 190.51727898 -331.59499221 188.84091174 -346.40356445 187.11328125 C-348.17137161 186.90742233 -349.93919372 186.7016917 -351.70703125 186.49609375 C-352.5721785 186.3952951 -353.43732574 186.29449646 -354.32868958 186.19064331 C-360.40483816 185.49034385 -366.48628038 184.8730934 -372.57421875 184.28515625 C-379.15899622 183.64586437 -385.68798763 182.84278743 -392.23193359 181.86181641 C-397.23587683 181.15575393 -402.25023084 180.56585951 -407.26953125 179.98046875 C-408.27941605 179.86238861 -409.28930084 179.74430847 -410.32978821 179.62265015 C-412.44208087 179.37585038 -414.55439105 179.12920057 -416.66671753 178.88269043 C-434.02366749 176.85188016 -451.32344534 174.65707937 -468.58422852 171.92651367 C-475.34110847 170.86319985 -482.06308011 169.92869876 -488.875 169.3125 C-497.97261831 168.48291743 -506.9119355 166.86566005 -515.90136719 165.26513672 C-523.95934834 163.8362324 -532.0214414 162.57611293 -540.125 161.4375 C-551.28309611 159.83976614 -562.35965214 157.88427537 -573.4375 155.8125 C-574.21746338 155.66878967 -574.99742676 155.52507935 -575.80102539 155.37701416 C-615.60533933 148.01491964 -615.60533933 148.01491964 -625.8125 133.875 C-629.16447929 128.20573599 -630.05450414 121.72824206 -631.125 115.3125 C-631.30933594 114.28125 -631.49367188 113.25 -631.68359375 112.1875 C-633.49197294 96.31217121 -635.40418184 73.97445742 -624.9375 60.5625 C-619.01368543 54.14378446 -609.45615538 52.42571657 -601.25 50.875 C-600.17468018 50.66601074 -599.09936035 50.45702148 -597.99145508 50.24169922 C-587.49509323 48.26655748 -576.93519912 46.77895057 -566.35742188 45.32397461 C-555.5349901 43.83075411 -544.75412472 42.14511254 -533.97262573 40.38192749 C-510.68172709 36.5800404 -487.31873404 33.45665807 -463.91333008 30.45069885 C-458.28180638 29.7262716 -452.65436388 28.98237124 -447.03125 28.1953125 C-428.1819503 25.55950993 -409.27383929 23.52582127 -390.35009766 21.50561523 C-388.08104861 21.26291487 -385.81200561 21.020158 -383.54296875 20.77734375 C-382.41261703 20.65685165 -381.28226532 20.53635956 -380.11766052 20.41221619 C-373.79665914 19.73182914 -367.48740671 18.99130423 -361.18041992 18.19203186 C-344.59160626 16.1046084 -327.95129025 14.79275704 -311.28530502 13.50404358 C-308.77795691 13.30982429 -306.27075601 13.11379023 -303.76358032 12.9173584 C-276.71763136 10.80199333 -249.66813807 8.98647944 -222.57421875 7.59619141 C-217.54828641 7.33749722 -212.52415979 7.05249849 -207.5 6.76171875 C-169.13407487 4.5730918 -130.70006513 3.64910159 -92.28515625 2.77734375 C-91.3084988 2.75514393 -90.33184135 2.73294411 -89.32558823 2.71007156 C-79.57586044 2.48904062 -69.82605415 2.27265214 -60.07595158 2.06877804 C-56.41761071 1.99185174 -52.75932411 1.91251366 -49.10104179 1.83285713 C-47.40436798 1.79659098 -45.70766833 1.76150892 -44.01094246 1.72776604 C-34.52133195 1.53899245 -25.07197752 1.19114492 -15.60218811 0.53817749 C-10.4011849 0.20062044 -5.21073902 0.05382995 0 0 Z " transform="translate(698.125,42.6875)" style="fill: #3D3D3F;"/><path d="M0 0 C0.97453125 -0.02900391 1.9490625 -0.05800781 2.953125 -0.08789062 C8.78858871 -0.13956707 12.31077672 0.28524417 16.875 4.3125 C23.17907728 12.9580917 24.27560883 24.59684382 25.9375 34.9375 C26.09798828 35.85789063 26.25847656 36.77828125 26.42382812 37.7265625 C29.75882098 58.29904856 30.18597095 79.16112115 30.08081055 99.95556641 C30.06240862 103.70612357 30.06030304 107.45643326 30.06054688 111.20703125 C30.03526431 128.99901261 29.86771356 146.82434967 27.625 164.5 C27.43538696 165.99635986 27.43538696 165.99635986 27.24194336 167.52294922 C26.38182823 173.78957415 25.19822571 179.8608326 23.4375 185.9375 C23.24446289 186.60547607 23.05142578 187.27345215 22.85253906 187.96166992 C20.97903389 193.87635326 18.85026025 198.02474564 13.58491516 201.45744324 C7.68198654 204.26211242 1.58817395 203.84687286 -4.82348633 203.7824707 C-6.19956121 203.78298034 -7.57563639 203.78524142 -8.95170593 203.78910828 C-12.67626374 203.79450985 -16.40032038 203.77514656 -20.12478852 203.75100732 C-24.05458577 203.72956407 -27.98438389 203.73029879 -31.91423035 203.72831726 C-38.53250606 203.72187292 -45.15059684 203.70066738 -51.76879883 203.66918945 C-60.1779267 203.62923766 -68.58693303 203.61154122 -76.99614429 203.60188007 C-84.30718355 203.59346201 -91.6181987 203.57625371 -98.92921615 203.55684257 C-100.47715239 203.55283348 -102.02508934 203.5490884 -103.5730269 203.5456202 C-129.52376105 203.48707622 -155.40543345 202.81323337 -181.3125 201.25 C-182.87563532 201.15793584 -184.43878645 201.06613957 -186.00195312 200.97460938 C-189.70981991 200.75694509 -193.41746956 200.53582954 -197.125 200.3125 C-197.125 199.9825 -197.125 199.6525 -197.125 199.3125 C-130.135 199.3125 -63.145 199.3125 5.875 199.3125 C5.875 197.0025 5.875 194.6925 5.875 192.3125 C4.885 192.3125 3.895 192.3125 2.875 192.3125 C2.875 189.6725 2.875 187.0325 2.875 184.3125 C5.515 184.3125 8.155 184.3125 10.875 184.3125 C10.875 183.3225 10.875 182.3325 10.875 181.3125 C11.865 181.3125 12.855 181.3125 13.875 181.3125 C13.875 179.0025 13.875 176.6925 13.875 174.3125 C14.865 173.9825 15.855 173.6525 16.875 173.3125 C17.205 168.3625 17.535 163.4125 17.875 158.3125 C16.555 158.3125 15.235 158.3125 13.875 158.3125 C13.875 153.0325 13.875 147.7525 13.875 142.3125 C16.515 142.6425 19.155 142.9725 21.875 143.3125 C21.8028125 142.61382812 21.730625 141.91515625 21.65625 141.1953125 C21.5634375 140.28523437 21.470625 139.37515625 21.375 138.4375 C21.2821875 137.53257812 21.189375 136.62765625 21.09375 135.6953125 C20.875 133.3125 20.875 133.3125 20.875 131.3125 C17.41 132.3025 17.41 132.3025 13.875 133.3125 C13.875 131.3125 13.875 131.3125 15.625 129.25 C17.87346797 127.31381925 18.9661933 126.59399742 21.875 126.3125 C22.865 126.6425 23.855 126.9725 24.875 127.3125 C24.875 105.2025 24.875 83.0925 24.875 60.3125 C23.885 60.3125 22.895 60.3125 21.875 60.3125 C21.875 49.0925 21.875 37.8725 21.875 26.3125 C20.225 26.3125 18.575 26.3125 16.875 26.3125 C16.875 24.9925 16.875 23.6725 16.875 22.3125 C15.885 22.3125 14.895 22.3125 13.875 22.3125 C13.875 20.9925 13.875 19.6725 13.875 18.3125 C11.565 18.3125 9.255 18.3125 6.875 18.3125 C6.75125 19.446875 6.6275 20.58125 6.5 21.75 C6.190625 23.5134375 6.190625 23.5134375 5.875 25.3125 C5.215 25.6425 4.555 25.9725 3.875 26.3125 C3.40848793 28.43826782 3.40848793 28.43826782 3.25 30.875 C3.17523437 31.70128906 3.10046875 32.52757812 3.0234375 33.37890625 C2.97445313 34.01699219 2.92546875 34.65507813 2.875 35.3125 C2.545 34.6525 2.215 33.9925 1.875 33.3125 C0.555 33.3125 -0.765 33.3125 -2.125 33.3125 C-2.455 30.0125 -2.785 26.7125 -3.125 23.3125 C-3.785 23.9725 -4.445 24.6325 -5.125 25.3125 C-5.125 22.0125 -5.125 18.7125 -5.125 15.3125 C-4.135 15.3125 -3.145 15.3125 -2.125 15.3125 C-1.795 12.6725 -1.465 10.0325 -1.125 7.3125 C-41.385 7.6425 -81.645 7.9725 -123.125 8.3125 C-123.455 8.9725 -123.785 9.6325 -124.125 10.3125 C-111.585 10.3125 -99.045 10.3125 -86.125 10.3125 C-86.125 10.6425 -86.125 10.9725 -86.125 11.3125 C-138.1658045 12.51177326 -190.08678767 12.29064415 -242.125 11.3125 C-242.125 12.3025 -242.125 13.2925 -242.125 14.3125 C-234.205 14.3125 -226.285 14.3125 -218.125 14.3125 C-218.125 14.6425 -218.125 14.9725 -218.125 15.3125 C-229.675 15.3125 -241.225 15.3125 -253.125 15.3125 C-253.455 16.3025 -253.785 17.2925 -254.125 18.3125 C-273.42501678 19.1677406 -292.68057631 19.47356079 -311.99609375 19.44287109 C-315.69831872 19.43706726 -319.40047284 19.44054267 -323.10269547 19.44644356 C-326.00588514 19.45006394 -328.90905804 19.4489056 -331.81224823 19.44631577 C-333.8328608 19.44534038 -335.85347406 19.44833504 -337.87408447 19.45144653 C-344.05211177 19.43561892 -350.0190061 19.27776466 -356.125 18.3125 C-356.125 17.9825 -356.125 17.6525 -356.125 17.3125 C-311.94486762 13.39573228 -267.71873857 9.87491087 -223.41830444 7.63619995 C-219.17245896 7.42122906 -214.92785586 7.19051961 -210.68357849 6.94656372 C-171.25436819 4.68302333 -131.76554078 3.67328066 -92.28515625 2.77734375 C-91.3084988 2.75514393 -90.33184135 2.73294411 -89.32558823 2.71007156 C-79.57586044 2.48904062 -69.82605415 2.27265214 -60.07595158 2.06877804 C-56.41761071 1.99185174 -52.75932411 1.91251366 -49.10104179 1.83285713 C-47.40436798 1.79659098 -45.70766833 1.76150892 -44.01094246 1.72776604 C-34.52133195 1.53899245 -25.07197752 1.19114492 -15.60218811 0.53817749 C-10.4011849 0.20062044 -5.21073902 0.05382995 0 0 Z " transform="translate(698.125,42.6875)" style="fill: #E8E7E5;"/><path d="M0 0 C2.31 0 4.62 0 7 0 C7 1.32 7 2.64 7 4 C7.99 4 8.98 4 10 4 C10 5.32 10 6.64 10 8 C11.65 8 13.3 8 15 8 C15 19.22 15 30.44 15 42 C15.99 42 16.98 42 18 42 C18 64.11 18 86.22 18 109 C14.535 109.495 14.535 109.495 11 110 C10.34 110.99 9.68 111.98 9 113 C9.99 113 10.98 113 12 113 C12.66 113 13.32 113 14 113 C14.77403558 117.06368679 15.0984702 120.86425173 15 125 C12.69 125 10.38 125 8 125 C7.67 134.9 7.34 144.8 7 155 C5.68 155 4.36 155 3 155 C3 157.64 3 160.28 3 163 C2.01 163 1.02 163 0 163 C0 161.68 0 160.36 0 159 C-1.32 159 -2.64 159 -4 159 C-4 150.09 -4 141.18 -4 132 C-5.32 132 -6.64 132 -8 132 C-9.19880043 113.35482728 -9.54186287 94.67461207 -10 76 C-10.33 76 -10.66 76 -11 76 C-11 71.05 -11 66.1 -11 61 C-10.34 61 -9.68 61 -9 61 C-8.67 49.78 -8.34 38.56 -8 27 C-6.68 27 -5.36 27 -4 27 C-4 20.73 -4 14.46 -4 8 C-3.01 7.67 -2.02 7.34 -1 7 C-0.67 4.69 -0.34 2.38 0 0 Z " transform="translate(705,61)" style="fill: #212323;"/><path d="M0 0 C-0.66 0.99 -1.32 1.98 -2 3 C5.59 3 13.18 3 21 3 C21 3.33 21 3.66 21 4 C17.37 4 13.74 4 10 4 C10 4.66 10 5.32 10 6 C6.56395235 7.71802382 2.61561104 7.1196618 -1.1640625 7.09765625 C-2.07127045 7.0962413 -2.97847839 7.09482635 -3.91317749 7.09336853 C-6.81715155 7.08776096 -9.72104915 7.07520718 -12.625 7.0625 C-14.59114472 7.05748598 -16.55729065 7.0529229 -18.5234375 7.04882812 C-23.3489879 7.03778906 -28.17448097 7.02051935 -33 7 C-33 7.99 -33 8.98 -33 10 C-31.02 10.495 -31.02 10.495 -29 11 C-35.03213713 11.16790838 -41.06440894 11.32843704 -47.09692383 11.48217773 C-49.14840966 11.53549465 -51.19984443 11.59081563 -53.2512207 11.64819336 C-56.20252476 11.73039243 -59.1539383 11.80534507 -62.10546875 11.87890625 C-63.02023483 11.90594131 -63.93500092 11.93297638 -64.87748718 11.96083069 C-69.06867119 12.05871074 -72.91325874 12.10241794 -77 11 C-77.66 12.32 -78.32 13.64 -79 15 C-79.57967529 14.98952637 -80.15935059 14.97905273 -80.7565918 14.96826172 C-83.40018321 14.92651385 -86.04370505 14.90061462 -88.6875 14.875 C-89.59951172 14.85824219 -90.51152344 14.84148437 -91.45117188 14.82421875 C-97.95459112 14.75737708 -97.95459112 14.75737708 -104 17 C-104.33 17.33 -104.66 17.66 -105 18 C-107.24416713 18.10992843 -109.49151098 18.15593875 -111.73828125 18.17578125 C-113.12957231 18.19898616 -114.52084839 18.22310377 -115.91210938 18.24804688 C-118.11102204 18.28312938 -120.30938681 18.31248096 -122.50854492 18.32592773 C-124.62747108 18.34142916 -126.74478288 18.38165534 -128.86328125 18.42578125 C-130.13469971 18.44036377 -131.40611816 18.45494629 -132.71606445 18.4699707 C-136.53606677 19.08652152 -137.5412511 20.12845294 -140 23 C-142.2890625 23.28515625 -142.2890625 23.28515625 -144.625 23.0625 C-146.9209052 22.78733898 -146.9209052 22.78733898 -149 23 C-149.99 24.485 -149.99 24.485 -151 26 C-153.15478516 26.34057617 -153.15478516 26.34057617 -155.7890625 26.29296875 C-156.73007813 26.28330078 -157.67109375 26.27363281 -158.640625 26.26367188 C-159.62546875 26.23853516 -160.6103125 26.21339844 -161.625 26.1875 C-163.11386719 26.16719727 -163.11386719 26.16719727 -164.6328125 26.14648438 C-167.08908072 26.11105743 -169.54427285 26.06166196 -172 26 C-172 26.66 -172 27.32 -172 28 C-171.01 28.66 -170.02 29.32 -169 30 C-177.415 30.495 -177.415 30.495 -186 31 C-186.495 31.99 -186.495 31.99 -187 33 C-192.94 33.33 -198.88 33.66 -205 34 C-205.33 34.99 -205.66 35.98 -206 37 C-209.25545104 38.36639344 -212.30232037 37.93189425 -215.75 37.5625 C-216.73484375 37.46066406 -217.7196875 37.35882813 -218.734375 37.25390625 C-219.48203125 37.17011719 -220.2296875 37.08632812 -221 37 C-221 38.32 -221 39.64 -221 41 C-220.27554688 40.91621094 -219.55109375 40.83242187 -218.8046875 40.74609375 C-213.6650818 40.20472195 -209.08634058 39.76278202 -204 41 C-204.33 41.99 -204.66 42.98 -205 44 C-208.13450522 45.24905826 -211.30293969 45.1154099 -214.640625 45.09765625 C-215.71054688 45.09443359 -216.78046875 45.09121094 -217.8828125 45.08789062 C-218.99398437 45.07951172 -220.10515625 45.07113281 -221.25 45.0625 C-222.93996094 45.05573242 -222.93996094 45.05573242 -224.6640625 45.04882812 C-227.44276217 45.03705397 -230.22135409 45.0206084 -233 45 C-233 45.99 -233 46.98 -233 48 C-242.70178229 48.7609241 -252.26475712 49.13500337 -262 49 C-262 52.63 -262 56.26 -262 60 C-263.65 60 -265.3 60 -267 60 C-267 75.51 -267 91.02 -267 107 C-267.33 107 -267.66 107 -268 107 C-272.23635015 87.70947702 -275.88356859 61.30459356 -265.4921875 43.40234375 C-259.27083547 35.4303322 -249.64388187 33.3612824 -240.125 31.5625 C-239.04968018 31.35351074 -237.97436035 31.14452148 -236.86645508 30.92919922 C-226.37009323 28.95405748 -215.81019912 27.46645057 -205.23242188 26.01147461 C-194.4099901 24.51825411 -183.62912472 22.83261254 -172.84762573 21.06942749 C-149.55672709 17.2675404 -126.19373404 14.14415807 -102.78833008 11.13819885 C-97.15680638 10.4137716 -91.52936388 9.66987124 -85.90625 8.8828125 C-66.53169709 6.17426387 -47.09348015 4.09893872 -27.64306641 2.01733398 C-25.87993858 1.8283403 -25.87993858 1.8283403 -24.08119202 1.63552856 C-21.85853986 1.39773955 -19.63575788 1.16115972 -17.41282654 0.92599487 C-13.22423352 0.47876782 -9.05551869 0.02838849 -4.89624023 -0.6418457 C-2 -1 -2 -1 0 0 Z " transform="translate(337,62)" style="fill: #D9D8D7;"/><path d="M0 0 C0.33 0 0.66 0 1 0 C1 3.63 1 7.26 1 11 C1.99 11 2.98 11 4 11 C5.02071652 14.06214956 5.12674697 16.14150145 5.12939453 19.34741211 C5.13254669 20.4438353 5.13569885 21.54025848 5.13894653 22.66990662 C5.13591019 24.455588 5.13591019 24.455588 5.1328125 26.27734375 C5.13376923 27.51303604 5.13472595 28.74872833 5.13571167 30.02186584 C5.13639355 32.65059867 5.13504085 35.27923929 5.13037109 37.90795898 C5.123676 41.86248917 5.13027532 45.81695329 5.13671875 49.77148438 C5.14245923 67.94635934 5.04119026 86.12978699 2.75 104.1875 C2.56038696 105.68385986 2.56038696 105.68385986 2.36694336 107.21044922 C1.50682823 113.47707415 0.32322571 119.5483326 -1.4375 125.625 C-1.63053711 126.29297607 -1.82357422 126.96095215 -2.02246094 127.64916992 C-3.89596611 133.56385326 -6.02473975 137.71224564 -11.29008484 141.14494324 C-17.19301346 143.94961242 -23.28682605 143.53437286 -29.69848633 143.4699707 C-31.07456121 143.47048034 -32.45063639 143.47274142 -33.82670593 143.47660828 C-37.55126374 143.48200985 -41.27532038 143.46264656 -44.99978852 143.43850732 C-48.92958577 143.41706407 -52.85938389 143.41779879 -56.78923035 143.41581726 C-63.40750606 143.40937292 -70.02559684 143.38816738 -76.64379883 143.35668945 C-85.0529267 143.31673766 -93.46193303 143.29904122 -101.87114429 143.28938007 C-109.18218355 143.28096201 -116.4931987 143.26375371 -123.80421615 143.24434257 C-125.35215239 143.24033348 -126.90008934 143.2365884 -128.4480269 143.2331202 C-154.39876105 143.17457622 -180.28043345 142.50073337 -206.1875 140.9375 C-207.75063532 140.84543584 -209.31378645 140.75363957 -210.87695312 140.66210938 C-214.58481991 140.44444509 -218.29246956 140.22332954 -222 140 C-222 139.67 -222 139.34 -222 139 C-155.01 139 -88.02 139 -19 139 C-19 136.69 -19 134.38 -19 132 C-19.99 132 -20.98 132 -22 132 C-22 129.36 -22 126.72 -22 124 C-19.36 124 -16.72 124 -14 124 C-14 123.01 -14 122.02 -14 121 C-13.01 121 -12.02 121 -11 121 C-11 118.69 -11 116.38 -11 114 C-10.01 113.67 -9.02 113.34 -8 113 C-7.67 108.05 -7.34 103.1 -7 98 C-8.32 98 -9.64 98 -11 98 C-11 92.72 -11 87.44 -11 82 C-8.36 82.33 -5.72 82.66 -3 83 C-3.0721875 82.30132812 -3.144375 81.60265625 -3.21875 80.8828125 C-3.3115625 79.97273438 -3.404375 79.06265625 -3.5 78.125 C-3.5928125 77.22007812 -3.685625 76.31515625 -3.78125 75.3828125 C-4 73 -4 73 -4 71 C-7.465 71.99 -7.465 71.99 -11 73 C-11 71 -11 71 -9.25 68.9375 C-7.00153203 67.00131925 -5.9088067 66.28149742 -3 66 C-2.01 66.33 -1.02 66.66 0 67 C0 44.89 0 22.78 0 0 Z " transform="translate(723,103)" style="fill: #7B7B7B;"/><path d="M0 0 C0.97453125 -0.02900391 1.9490625 -0.05800781 2.953125 -0.08789062 C8.78858871 -0.13956707 12.31077672 0.28524417 16.875 4.3125 C23.38092903 13.23491695 24.35927681 25.27936217 26 35.9375 C26.16886719 36.99195313 26.33773437 38.04640625 26.51171875 39.1328125 C27.88932205 47.89740673 29.03204827 56.54996225 28.9375 65.4375 C28.92847656 66.55382812 28.91945313 67.67015625 28.91015625 68.8203125 C28.89275391 70.05394531 28.89275391 70.05394531 28.875 71.3125 C27.885 71.3125 26.895 71.3125 25.875 71.3125 C25.875 67.6825 25.875 64.0525 25.875 60.3125 C24.555 60.3125 23.235 60.3125 21.875 60.3125 C21.875 49.0925 21.875 37.8725 21.875 26.3125 C20.225 26.3125 18.575 26.3125 16.875 26.3125 C16.875 24.9925 16.875 23.6725 16.875 22.3125 C15.885 22.3125 14.895 22.3125 13.875 22.3125 C13.875 20.9925 13.875 19.6725 13.875 18.3125 C11.565 18.3125 9.255 18.3125 6.875 18.3125 C6.689375 20.0140625 6.689375 20.0140625 6.5 21.75 C6.29375 22.925625 6.0875 24.10125 5.875 25.3125 C5.215 25.6425 4.555 25.9725 3.875 26.3125 C3.40848793 28.43826782 3.40848793 28.43826782 3.25 30.875 C3.17523437 31.70128906 3.10046875 32.52757812 3.0234375 33.37890625 C2.94996094 34.33603516 2.94996094 34.33603516 2.875 35.3125 C2.545 34.6525 2.215 33.9925 1.875 33.3125 C0.555 33.3125 -0.765 33.3125 -2.125 33.3125 C-2.455 30.0125 -2.785 26.7125 -3.125 23.3125 C-3.785 23.9725 -4.445 24.6325 -5.125 25.3125 C-5.125 22.0125 -5.125 18.7125 -5.125 15.3125 C-4.135 15.3125 -3.145 15.3125 -2.125 15.3125 C-1.795 12.6725 -1.465 10.0325 -1.125 7.3125 C-35.775 7.3125 -70.425 7.3125 -106.125 7.3125 C-105.465 6.9825 -104.805 6.6525 -104.125 6.3125 C-104.125 5.6525 -104.125 4.9925 -104.125 4.3125 C-94.66763693 3.56855974 -85.24065836 3.08497555 -75.7578125 2.8125 C-73.74225125 2.75042257 -71.72669009 2.68834217 -69.71113396 2.62609863 C-66.22416005 2.51919295 -62.737076 2.41601246 -59.25 2.3125 C-37.28999958 1.70461297 -37.28999958 1.70461297 -15.35595703 0.52197266 C-10.2374527 0.19012463 -5.12813677 0.05297662 0 0 Z " transform="translate(698.125,42.6875)" style="fill: #B3B2B1;"/><path d="M0 0 C3.96 0 7.92 0 12 0 C12 1.32 12 2.64 12 4 C12.72445312 3.91621094 13.44890625 3.83242187 14.1953125 3.74609375 C19.3349182 3.20472195 23.91365942 2.76278202 29 4 C28.67 4.99 28.34 5.98 28 7 C24.86549478 8.24905826 21.69706031 8.1154099 18.359375 8.09765625 C17.28945312 8.09443359 16.21953125 8.09121094 15.1171875 8.08789062 C14.00601563 8.07951172 12.89484375 8.07113281 11.75 8.0625 C10.06003906 8.05573242 10.06003906 8.05573242 8.3359375 8.04882812 C5.55723783 8.03705397 2.77864591 8.0206084 0 8 C0 8.99 0 9.98 0 11 C-9.70178229 11.7609241 -19.26475712 12.13500337 -29 12 C-29 15.63 -29 19.26 -29 23 C-30.65 23 -32.3 23 -34 23 C-34 38.51 -34 54.02 -34 70 C-34.33 70 -34.66 70 -35 70 C-39.16280141 51.04438645 -40.82652653 29.76280269 -35 11 C-33.35 11 -31.7 11 -30 11 C-30 10.01 -30 9.02 -30 8 C-28.68 8 -27.36 8 -26 8 C-26 6.68 -26 5.36 -26 4 C-17.42 4 -8.84 4 0 4 C0 2.68 0 1.36 0 0 Z " transform="translate(104,99)" style="fill: #565557;"/><path d="M0 0 C8.58 0 17.16 0 26 0 C26 0.66 26 1.32 26 2 C26.99 2.66 27.98 3.32 29 4 C20.585 4.495 20.585 4.495 12 5 C11.67 5.66 11.34 6.32 11 7 C5.06 7.33 -0.88 7.66 -7 8 C-7.33 8.99 -7.66 9.98 -8 11 C-11.1146848 12.25602091 -14.11040263 12.04447987 -17.421875 11.87890625 C-18.95908203 11.80639648 -18.95908203 11.80639648 -20.52734375 11.73242188 C-22.12255859 11.64831055 -22.12255859 11.64831055 -23.75 11.5625 C-24.82894531 11.51029297 -25.90789062 11.45808594 -27.01953125 11.40429688 C-29.67999422 11.27480531 -32.34006452 11.13984639 -35 11 C-35 12.32 -35 13.64 -35 15 C-43.58 15 -52.16 15 -61 15 C-61 16.32 -61 17.64 -61 19 C-62.32 19 -63.64 19 -65 19 C-65 19.99 -65 20.98 -65 22 C-66.32 22 -67.64 22 -69 22 C-66.04179058 15.00786865 -62.02376666 11.57128717 -55.18359375 8.76171875 C-51.3398071 7.42086294 -47.87041492 6.84937735 -43.796875 6.68359375 C-42.32734375 6.62075195 -42.32734375 6.62075195 -40.828125 6.55664062 C-39.81234375 6.51732422 -38.7965625 6.47800781 -37.75 6.4375 C-36.71875 6.39431641 -35.6875 6.35113281 -34.625 6.30664062 C-32.0834613 6.20074318 -29.54182804 6.09866557 -27 6 C-27 5.34 -27 4.68 -27 4 C-17.98175113 2.93003827 -9.06335876 2.89765341 0 3 C0 2.01 0 1.02 0 0 Z " transform="translate(139,88)" style="fill: #989797;"/><path d="M0 0 C12.21 0 24.42 0 37 0 C37 0.66 37 1.32 37 2 C49.87 2.66 62.74 3.32 76 4 C75.67 4.99 75.34 5.98 75 7 C76.25490234 6.99214478 76.25490234 6.99214478 77.53515625 6.98413086 C80.67366272 6.96696987 83.81214507 6.95449227 86.95068359 6.94506836 C88.96323241 6.93763579 90.97575949 6.92492171 92.98828125 6.91210938 C99.42163371 6.89594517 105.6439839 6.97039025 112 8 C112 8.99 112 9.98 112 11 C112.55488098 10.99111755 113.10976196 10.98223511 113.68145752 10.9730835 C119.45631611 10.88459407 125.23098216 10.82425947 131.00634766 10.78027344 C133.16170067 10.76015724 135.31699911 10.73286075 137.47216797 10.69824219 C140.57012395 10.64972514 143.66735846 10.62703127 146.765625 10.609375 C147.72929993 10.58872986 148.69297485 10.56808472 149.68585205 10.54681396 C156.40614789 10.54455959 156.40614789 10.54455959 159.63964844 13.02441406 C160.08856445 13.67635742 160.53748047 14.32830078 161 15 C147.00707211 15.21458295 133.29967493 14.6622702 119.375 13.3125 C117.43634132 13.1314148 115.49761859 12.95101425 113.55883789 12.77124023 C108.42453396 12.29213856 103.29158678 11.79978452 98.15887451 11.30395508 C94.9944048 10.99946162 91.82955932 10.69922793 88.66455078 10.40039062 C59.06940575 7.60403694 29.52361385 4.47034693 0 1 C0 0.67 0 0.34 0 0 Z " transform="translate(336,227)" style="fill: #7F7A7A;"/><path d="M0 0 C1.85044922 0.01353516 1.85044922 0.01353516 3.73828125 0.02734375 C6.74240024 0.05063149 9.74608943 0.08333244 12.75 0.125 C11.821875 0.558125 11.821875 0.558125 10.875 1 C8.61674235 2.06220042 8.61674235 2.06220042 6.75 4.125 C3.74072266 4.38037109 3.74072266 4.38037109 -0.0859375 4.3984375 C-1.47396634 4.41873014 -2.86198712 4.43958099 -4.25 4.4609375 C-6.43789471 4.48352349 -8.6254707 4.50000126 -10.81347656 4.50585938 C-12.92571634 4.51539545 -15.03652021 4.54918585 -17.1484375 4.5859375 C-18.41349121 4.59415527 -19.67854492 4.60237305 -20.98193359 4.61083984 C-24.79798845 5.21121423 -25.79513249 6.25851892 -28.25 9.125 C-30.5390625 9.41015625 -30.5390625 9.41015625 -32.875 9.1875 C-35.1709052 8.91233898 -35.1709052 8.91233898 -37.25 9.125 C-37.91 10.115 -38.57 11.105 -39.25 12.125 C-41.27481079 12.48576355 -41.27481079 12.48576355 -43.79150391 12.46557617 C-45.20274033 12.46523628 -45.20274033 12.46523628 -46.64248657 12.46488953 C-47.66023163 12.44940567 -48.67797668 12.43392181 -49.7265625 12.41796875 C-50.76694672 12.41372391 -51.80733093 12.40947906 -52.87924194 12.40510559 C-56.21142147 12.38827482 -59.54300241 12.35061422 -62.875 12.3125 C-65.13019962 12.29745887 -67.38540869 12.28376947 -69.640625 12.27148438 C-75.17728855 12.23835699 -80.71360152 12.1881142 -86.25 12.125 C-86.25 13.115 -86.25 14.105 -86.25 15.125 C-87.03238037 15.1751123 -87.81476074 15.22522461 -88.62084961 15.27685547 C-92.14379607 15.50803163 -95.665572 15.75381411 -99.1875 16 C-100.41919922 16.07863281 -101.65089844 16.15726563 -102.91992188 16.23828125 C-104.08974609 16.32207031 -105.25957031 16.40585938 -106.46484375 16.4921875 C-107.54886475 16.56550293 -108.63288574 16.63881836 -109.74975586 16.71435547 C-110.98737671 16.91762451 -110.98737671 16.91762451 -112.25 17.125 C-112.58 17.785 -112.91 18.445 -113.25 19.125 C-119.19 19.125 -125.13 19.125 -131.25 19.125 C-131.25 18.795 -131.25 18.465 -131.25 18.125 C-130.42205933 17.99822876 -130.42205933 17.99822876 -129.57739258 17.86889648 C-126.73901462 17.43395387 -123.9007446 16.99831203 -121.0625 16.5625 C-119.93263672 16.38904053 -118.80277344 16.21558105 -117.63867188 16.03686523 C-109.99055627 14.86042387 -102.34430248 13.67254919 -94.69921875 12.4765625 C-75.51352485 9.47701077 -56.32708096 6.49793607 -37.10742188 3.72290039 C-35.84349609 3.53977295 -34.57957031 3.35664551 -33.27734375 3.16796875 C-32.07932129 2.99555664 -30.88129883 2.82314453 -29.64697266 2.64550781 C-26.48445184 2.16092434 -23.35133498 1.58535841 -20.20703125 0.99609375 C-13.46832967 -0.14612605 -6.81751694 -0.09622988 0 0 Z " transform="translate(225.25,75.875)" style="fill: #B1B0B0;"/><path d="M0 0 C0.33 0 0.66 0 1 0 C1 3.63 1 7.26 1 11 C1.99 11 2.98 11 4 11 C4 29.81 4 48.62 4 68 C3.01 67.67 2.02 67.34 1 67 C1 74.59 1 82.18 1 90 C-2.96 90 -6.92 90 -11 90 C-11 87.36 -11 84.72 -11 82 C-8.36 82.33 -5.72 82.66 -3 83 C-3.0721875 82.30132812 -3.144375 81.60265625 -3.21875 80.8828125 C-3.3115625 79.97273438 -3.404375 79.06265625 -3.5 78.125 C-3.5928125 77.22007812 -3.685625 76.31515625 -3.78125 75.3828125 C-4 73 -4 73 -4 71 C-7.465 71.99 -7.465 71.99 -11 73 C-11 71 -11 71 -9.25 68.9375 C-7.00153203 67.00131925 -5.9088067 66.28149742 -3 66 C-2.01 66.33 -1.02 66.66 0 67 C0 44.89 0 22.78 0 0 Z " transform="translate(723,103)" style="fill: #3B465B;"/><path d="M0 0 C7.59 0 15.18 0 23 0 C23 0.99 23 1.98 23 3 C30.92 3 38.84 3 47 3 C47 3.33 47 3.66 47 4 C35.45 4 23.9 4 12 4 C11.67 4.99 11.34 5.98 11 7 C-4.02579482 7.68999742 -19.04289368 8.11993187 -34.08410645 8.17724609 C-35.69179068 8.18406967 -37.29946412 8.1943112 -38.90710449 8.20800781 C-41.17775846 8.22587865 -43.44803389 8.23016638 -45.71875 8.23046875 C-47.02779297 8.23457764 -48.33683594 8.23868652 -49.68554688 8.24291992 C-52.75767102 8.01776056 -54.43927298 7.63363701 -57 6 C-56.01 6 -55.02 6 -54 6 C-54 5.34 -54 4.68 -54 4 C-41.98039444 3.06936189 -30.05034312 2.87653511 -18 2.9375 C-16.2421888 2.94253252 -14.48437617 2.94709229 -12.7265625 2.95117188 C-8.48433894 2.96202149 -4.24218589 2.97918614 0 3 C0 2.01 0 1.02 0 0 Z " transform="translate(433,54)" style="fill: #ACA9A8;"/><path d="M0 0 C33.67206812 -0.13975381 67.33078516 0.07361291 101 0.5 C102.41684271 0.51793673 102.41684271 0.51793673 103.8623085 0.53623581 C115.57495082 0.68504509 127.28750916 0.8397173 139 1 C139 1.99 139 2.98 139 4 C129.42676038 4.02349765 119.85353116 4.04110085 110.28026867 4.05181217 C105.83177334 4.05696119 101.38329818 4.06390735 96.93481445 4.07543945 C76.26509072 4.12751616 55.64955864 4.0416257 35 3 C33.64837265 2.93255081 33.64837265 2.93255081 32.2694397 2.86373901 C26.78193267 2.58428234 21.29710803 2.26844146 15.8125 1.9375 C14.24936468 1.84543584 12.68621355 1.75363957 11.12304688 1.66210938 C7.41518009 1.44444509 3.70753044 1.22332954 0 1 C0 0.67 0 0.34 0 0 Z " transform="translate(501,242)" style="fill: #878787;"/><path d="M0 0 C2.31 0 4.62 0 7 0 C7.33 0.99 7.66 1.98 8 3 C10.31 3 12.62 3 15 3 C15.33 4.32 15.66 5.64 16 7 C16.66 7 17.32 7 18 7 C18 8.32 18 9.64 18 11 C19.65 11 21.3 11 23 11 C23 13.64 23 16.28 23 19 C21.35 19 19.7 19 18 19 C18 17.68 18 16.36 18 15 C17.01 15 16.02 15 15 15 C15 13.68 15 12.36 15 11 C12.69 11 10.38 11 8 11 C7.87625 12.134375 7.7525 13.26875 7.625 14.4375 C7.41875 15.613125 7.2125 16.78875 7 18 C6.34 18.33 5.68 18.66 5 19 C4.53348793 21.12576782 4.53348793 21.12576782 4.375 23.5625 C4.30023437 24.38878906 4.22546875 25.21507813 4.1484375 26.06640625 C4.09945312 26.70449219 4.05046875 27.34257813 4 28 C3.67 27.34 3.34 26.68 3 26 C1.68 26 0.36 26 -1 26 C-1.33 22.7 -1.66 19.4 -2 16 C-2.66 16.66 -3.32 17.32 -4 18 C-4 14.7 -4 11.4 -4 8 C-3.01 8 -2.02 8 -1 8 C-0.67 5.36 -0.34 2.72 0 0 Z " transform="translate(697,50)" style="fill: #7D7D7F;"/><path d="M0 0 C5.28 0 10.56 0 16 0 C16 0.99 16 1.98 16 3 C17.65 3 19.3 3 21 3 C24.19106839 10.10153871 25.97198156 16.87923837 27.125 24.5625 C27.28967773 25.61026611 27.45435547 26.65803223 27.62402344 27.73754883 C28.10065795 30.82269548 28.55593591 33.91001131 29 37 C29.18224121 38.26312012 29.18224121 38.26312012 29.36816406 39.55175781 C30.65463119 48.71831616 31.29023258 57.72868146 31 67 C30.01 67 29.02 67 28 67 C28 63.37 28 59.74 28 56 C26.68 56 25.36 56 24 56 C24 42.14 24 28.28 24 14 C22.35 14 20.7 14 19 14 C19 12.68 19 11.36 19 10 C18.01 10.33 17.02 10.66 16 11 C16 9.35 16 7.7 16 6 C13.69 6 11.38 6 9 6 C8.67 5.34 8.34 4.68 8 4 C5.67843403 3.59270772 3.3431213 3.25561323 1 3 C0.67 2.01 0.34 1.02 0 0 Z " transform="translate(696,47)" style="fill: #A4A4A5;"/><path d="M0 0 C0.33 0 0.66 0 1 0 C1.02349079 7.21683904 1.04109755 14.43366943 1.05181217 21.6505394 C1.05696263 25.00402469 1.06448444 28.3574633 1.07543945 31.7109375 C1.20003487 70.87787414 1.20003487 70.87787414 -1.25 90.1875 C-1.37640869 91.18507324 -1.50281738 92.18264648 -1.63305664 93.21044922 C-2.49317177 99.47707415 -3.67677429 105.5483326 -5.4375 111.625 C-5.63053711 112.29297607 -5.82357422 112.96095215 -6.02246094 113.64916992 C-7.72318762 119.01838902 -9.98741937 123.56244241 -14.625 126.875 C-17 128 -17 128 -19 128 C-19 127.01 -19 126.02 -19 125 C-17.68 125 -16.36 125 -15 125 C-15 121.37 -15 117.74 -15 114 C-13.68 114 -12.36 114 -11 114 C-11 110.37 -11 106.74 -11 103 C-9.68 103 -8.36 103 -7 103 C-6.67 101.35 -6.34 99.7 -6 98 C-5.67 98 -5.34 98 -5 98 C-4.12465021 92.64510219 -3.79753942 87.42471979 -3.68359375 82.00390625 C-3.6524221 80.75358864 -3.6524221 80.75358864 -3.62062073 79.47801208 C-3.55572144 76.83958439 -3.49652022 74.20106509 -3.4375 71.5625 C-3.39425794 69.76366276 -3.35064192 67.96483446 -3.30664062 66.16601562 C-3.20010201 61.7774354 -3.09867025 57.3887639 -3 53 C-2.34 53 -1.68 53 -1 53 C-0.67 35.51 -0.34 18.02 0 0 Z " transform="translate(727,117)" style="fill: #A6B0C5;"/><path d="M0 0 C1.15249741 0.00222061 2.30499481 0.00444122 3.49241638 0.00672913 C5.4443264 0.00684242 5.4443264 0.00684242 7.43566895 0.00695801 C8.86661313 0.01206543 10.29755694 0.01728144 11.72850037 0.02259827 C13.18438672 0.02446249 14.64027369 0.02588637 16.09616089 0.02688599 C19.93488791 0.03071086 23.77357731 0.04054088 27.61228943 0.05158997 C31.52667227 0.06180474 35.44106117 0.06638375 39.35545349 0.07142639 C47.04101755 0.08216318 54.72655057 0.09923923 62.41209412 0.12025452 C62.08209412 1.11025452 61.75209412 2.10025452 61.41209412 3.12025452 C73.95209412 3.12025452 86.49209412 3.12025452 99.41209412 3.12025452 C99.41209412 3.45025452 99.41209412 3.78025452 99.41209412 4.12025452 C74.26782578 4.69970076 49.12639345 5.22127655 23.97459412 5.24525452 C23.06383118 5.24775208 22.15306824 5.25024963 21.21470642 5.25282288 C11.56405635 5.2747492 2.01863305 5.18320867 -7.58790588 4.12025452 C-6.94853088 3.64587952 -6.30915588 3.17150452 -5.65040588 2.68275452 C-2.24699524 0.10441312 -2.24699524 0.10441312 0 0 Z " transform="translate(512.5879058837891,49.87974548339844)" style="fill: #B3B2B0;"/><path d="M0 0 C0.99 0 1.98 0 3 0 C3 1.32 3 2.64 3 4 C4.65 4 6.3 4 8 4 C8.02902168 8.41665288 8.04680608 12.83328123 8.0625 17.25 C8.07087891 18.50425781 8.07925781 19.75851563 8.08789062 21.05078125 C8.09111328 22.25605469 8.09433594 23.46132812 8.09765625 24.703125 C8.10289307 25.81333008 8.10812988 26.92353516 8.11352539 28.06738281 C8.01584159 30.59077606 7.87561239 32.63878251 7 35 C6.01 35.495 6.01 35.495 5 36 C4.67 49.2 4.34 62.4 4 76 C2.515 76.495 2.515 76.495 1 77 C1 61.82 1 46.64 1 31 C1.66 30.67 2.32 30.34 3 30 C3.495 21.09 3.495 21.09 4 12 C2.35 12 0.7 12 -1 12 C-0.835 10.948125 -0.67 9.89625 -0.5 8.8125 C-0.10430322 5.79531204 0.09178971 3.02906028 0 0 Z " transform="translate(689,76)" style="fill: #525149;"/><path d="M0 0 C0.99 0.495 0.99 0.495 2 1 C1.67 1.66 1.34 2.32 1 3 C3.64 3 6.28 3 9 3 C8.67 3.99 8.34 4.98 8 6 C8.99 6.495 8.99 6.495 10 7 C-11.83806582 8.21337874 -33.64414618 7.94855412 -55.5 7.5625 C-56.58892485 7.54327925 -56.58892485 7.54327925 -57.69984818 7.5236702 C-66.80015157 7.36185489 -75.90017484 7.18686822 -85 7 C-85 6.67 -85 6.34 -85 6 C-71.47 6 -57.94 6 -44 6 C-44 5.01 -44 4.02 -44 3 C-29.48 3 -14.96 3 0 3 C0 2.01 0 1.02 0 0 Z " transform="translate(422,73)" style="fill: #868589;"/><path d="M0 0 C15.84 0 31.68 0 48 0 C48 0.33 48 0.66 48 1 C46.35 1 44.7 1 43 1 C42.67 1.99 42.34 2.98 42 4 C9.66 4 -22.68 4 -56 4 C-56 3.67 -56 3.34 -56 3 C-28.775 2.505 -28.775 2.505 -1 2 C-0.67 1.34 -0.34 0.68 0 0 Z " transform="translate(305,84)" style="fill: #67676A;"/><path d="M0 0 C11.03913945 -0.16207546 21.98440762 0.34235269 33 1 C33 1.66 33 2.32 33 3 C34.32 3.33 35.64 3.66 37 4 C37 4.99 37 5.98 37 7 C37.74765625 6.98839844 38.4953125 6.97679687 39.265625 6.96484375 C40.25046875 6.95582031 41.2353125 6.94679687 42.25 6.9375 C43.71179688 6.92009766 43.71179688 6.92009766 45.203125 6.90234375 C47.65758678 6.98804423 49.66168914 7.29293934 52 8 C52 9.32 52 10.64 52 12 C34.44960885 10.115583 16.68687767 6.83388887 0 1 C0 0.67 0 0.34 0 0 Z " transform="translate(90,189)" style="fill: #514947;"/><path d="M0 0 C1.32 0 2.64 0 4 0 C4 2.31 4 4.62 4 7 C5.32 7 6.64 7 8 7 C8 17.23 8 27.46 8 38 C6.68 38 5.36 38 4 38 C3.87882813 36.94039062 3.75765625 35.88078125 3.6328125 34.7890625 C3.46399248 33.40098676 3.29469692 32.01296881 3.125 30.625 C3.04636719 29.92632812 2.96773437 29.22765625 2.88671875 28.5078125 C2.44779555 24.30927841 2.44779555 24.30927841 0 21 C-0.22705078 18.84521484 -0.22705078 18.84521484 -0.1953125 16.2109375 C-0.18886719 15.26992187 -0.18242188 14.32890625 -0.17578125 13.359375 C-0.15902344 12.37453125 -0.14226563 11.3896875 -0.125 10.375 C-0.11597656 9.38242188 -0.10695313 8.38984375 -0.09765625 7.3671875 C-0.07404116 4.91121866 -0.04110799 2.45572832 0 0 Z " transform="translate(693,186)" style="fill: #40403A;"/><path d="M0 0 C2.31 0 4.62 0 7 0 C7 1.32 7 2.64 7 4 C6.34 4.33 5.68 4.66 5 5 C4.67 8.63 4.34 12.26 4 16 C-44.84 16 -93.68 16 -144 16 C-144 15.67 -144 15.34 -144 15 C-95.49 15 -46.98 15 3 15 C3 12.69 3 10.38 3 8 C2.01 8 1.02 8 0 8 C0 5.36 0 2.72 0 0 Z " transform="translate(701,227)" style="fill: #636363;"/><path d="M0 0 C4.07510438 -0.0247345 8.15017964 -0.04287637 12.2253418 -0.05493164 C13.61141725 -0.05995777 14.99748741 -0.06677966 16.38354492 -0.07543945 C18.37676715 -0.08758018 20.37002819 -0.09271021 22.36328125 -0.09765625 C23.56251221 -0.10289307 24.76174316 -0.10812988 25.99731445 -0.11352539 C29 0 29 0 32 1 C32 1.66 32 2.32 32 3 C38.27 3.33 44.54 3.66 51 4 C51 4.99 51 5.98 51 7 C51.55461914 6.99476318 52.10923828 6.98952637 52.68066406 6.98413086 C55.20376443 6.96328969 57.72684664 6.95031718 60.25 6.9375 C61.12269531 6.92912109 61.99539062 6.92074219 62.89453125 6.91210938 C63.73886719 6.90888672 64.58320313 6.90566406 65.453125 6.90234375 C66.22817383 6.89710693 67.00322266 6.89187012 67.80175781 6.88647461 C69.99283598 6.99963002 71.89637861 7.39447552 74 8 C74 8.99 74 9.98 74 11 C65.64722204 10.39721081 57.41690068 9.2085457 49.15045166 7.90176392 C38.4219901 6.20919861 27.7121825 4.62204387 16.89526367 3.60229492 C11.19199809 3.05782884 5.60410605 2.18378869 0 1 C0 0.67 0 0.34 0 0 Z " transform="translate(189,208)" style="fill: #817E7D;"/><path d="M0 0 C0.33 0 0.66 0 1 0 C1 19.47 1 38.94 1 59 C0.67 59 0.34 59 0 59 C-4.16280141 40.04438645 -5.82652653 18.76280269 0 0 Z " transform="translate(69,110)" style="fill: #AE9C91;"/><path d="M0 0 C11.22 0 22.44 0 34 0 C33.67 0.99 33.34 1.98 33 3 C35.31 3 37.62 3 40 3 C40 3.33 40 3.66 40 4 C16.9 4 -6.2 4 -30 4 C-30 3.67 -30 3.34 -30 3 C-20.43 3 -10.86 3 -1 3 C-0.67 2.01 -0.34 1.02 0 0 Z " transform="translate(181,95)" style="fill: #706F73;"/><path d="M0 0 C0.99 0 1.98 0 3 0 C3 18.81 3 37.62 3 57 C2.01 56.67 1.02 56.34 0 56 C0 37.52 0 19.04 0 0 Z " transform="translate(724,114)" style="fill: #566074;"/><path d="M0 0 C2.64 0 5.28 0 8 0 C8 0.99 8 1.98 8 3 C8.83232147 2.98667633 8.83232147 2.98667633 9.68145752 2.9730835 C15.45631611 2.88459407 21.23098216 2.82425947 27.00634766 2.78027344 C29.16170067 2.76015724 31.31699911 2.73286075 33.47216797 2.69824219 C36.57012395 2.64972514 39.66735846 2.62703127 42.765625 2.609375 C43.72929993 2.58872986 44.69297485 2.56808472 45.68585205 2.54681396 C52.40614789 2.54455959 52.40614789 2.54455959 55.63964844 5.02441406 C56.08856445 5.67635742 56.53748047 6.32830078 57 7 C44.03078301 7.39837185 31.28133589 6.75777505 18.375 5.5625 C17.63573273 5.49501556 16.89646545 5.42753113 16.13479614 5.35800171 C3.60421465 4.20140488 3.60421465 4.20140488 0 3 C0 2.01 0 1.02 0 0 Z " transform="translate(440,235)" style="fill: #67625F;"/><path d="M0 0 C3.96 0 7.92 0 12 0 C12 1.32 12 2.64 12 4 C10.68 4 9.36 4 8 4 C8 4.99 8 5.98 8 7 C-3.34980389 7.68416471 -14.62795953 8.15298709 -26 8 C-26 6.68 -26 5.36 -26 4 C-17.42 4 -8.84 4 0 4 C0 2.68 0 1.36 0 0 Z " transform="translate(104,99)" style="fill: #787473;"/><path d="M0 0 C0.33 0 0.66 0 1 0 C1 3.96 1 7.92 1 12 C2.65 12.33 4.3 12.66 6 13 C5.67 14.98 5.34 16.96 5 19 C8.3 19 11.6 19 15 19 C15 22.96 15 26.92 15 31 C16.32 31 17.64 31 19 31 C18.67 31.99 18.34 32.98 18 34 C10.04048571 29.91614458 4.0678194 25.1356388 0 17 C-0.07194869 14.11629667 -0.09291708 11.25760336 -0.0625 8.375 C-0.05798828 7.57320312 -0.05347656 6.77140625 -0.04882812 5.9453125 C-0.03703168 3.96350994 -0.01909605 1.98174567 0 0 Z " transform="translate(70,155)" style="fill: #645044;"/><path d="M0 0 C0.97453125 -0.02900391 1.9490625 -0.05800781 2.953125 -0.08789062 C8.89813395 -0.14053716 12.40518205 0.24569842 16.875 4.3125 C17.37 5.7975 17.37 5.7975 17.875 7.3125 C16.555 7.3125 15.235 7.3125 13.875 7.3125 C13.875 5.9925 13.875 4.6725 13.875 3.3125 C-11.535 3.3125 -36.945 3.3125 -63.125 3.3125 C-63.125 2.9825 -63.125 2.6525 -63.125 2.3125 C-61.66030273 2.27491577 -61.66030273 2.27491577 -60.16601562 2.23657227 C-56.46069385 2.1407083 -52.75548407 2.04096375 -49.05029297 1.94018555 C-47.4621039 1.89749917 -45.87388806 1.85579499 -44.28564453 1.81518555 C-36.08898464 1.60494823 -27.90855889 1.34181551 -19.7265625 0.796875 C-13.1473768 0.36205316 -6.59307724 0.0681103 0 0 Z " transform="translate(698.125,42.6875)" style="fill: #CCCCCA;"/><path d="M0 0 C0.99 0 1.98 0 3 0 C3 1.32 3 2.64 3 4 C3.66 4 4.32 4 5 4 C6.35067975 14.06979989 7.31860272 23.82241303 7 34 C6.01 34 5.02 34 4 34 C4 30.37 4 26.74 4 23 C2.68 23 1.36 23 0 23 C0 15.41 0 7.82 0 0 Z " transform="translate(720,80)" style="fill: #828E9D;"/><path d="M0 0 C0 0.33 0 0.66 0 1 C-4.62 1 -9.24 1 -14 1 C-14 1.66 -14 2.32 -14 3 C-16.37390836 4.18695418 -17.80244951 4.12075833 -20.44970703 4.11352539 C-21.37051056 4.11344986 -22.29131409 4.11337433 -23.24002075 4.11329651 C-24.73382767 4.10555458 -24.73382767 4.10555458 -26.2578125 4.09765625 C-27.27600067 4.0962413 -28.29418884 4.09482635 -29.3432312 4.09336853 C-32.60385035 4.087759 -35.86440151 4.07520488 -39.125 4.0625 C-41.33203026 4.05748623 -43.53906159 4.05292311 -45.74609375 4.04882812 C-51.16408581 4.03778648 -56.58203805 4.02103905 -62 4 C-62 3.67 -62 3.34 -62 3 C-58.7 2.67 -55.4 2.34 -52 2 C-52 1.67 -52 1.34 -52 1 C-34.6567754 0.23524658 -17.35995061 -0.14759932 0 0 Z " transform="translate(608,46)" style="fill: #D3D2D0;"/><path d="M0 0 C3.63 0 7.26 0 11 0 C11 3.96 11 7.92 11 12 C10.01 12 9.02 12 8 12 C8 14.31 8 16.62 8 19 C6.68 19 5.36 19 4 19 C4 15.37 4 11.74 4 8 C2.68 8 1.36 8 0 8 C0 5.36 0 2.72 0 0 Z " transform="translate(712,193)" style="fill: #5E626C;"/><path d="M0 0 C7.75552664 -0.02551693 15.51104232 -0.04293653 23.26660156 -0.05493164 C25.90072026 -0.0599364 28.53483622 -0.06674223 31.16894531 -0.07543945 C34.97201213 -0.08767491 38.77504197 -0.09326704 42.578125 -0.09765625 C44.32261932 -0.10539818 44.32261932 -0.10539818 46.10235596 -0.11329651 C53.45130517 -0.113792 60.68745645 0.26873528 68 1 C67.67 1.99 67.34 2.98 67 4 C44.63509301 3.43612103 22.32858685 2.38445299 0 1 C0 0.67 0 0.34 0 0 Z " transform="translate(501,242)" style="fill: #999898;"/><path d="M0 0 C1.29210136 0.00212242 1.29210136 0.00212242 2.61030579 0.00428772 C5.36133294 0.00988485 8.11227869 0.02243679 10.86328125 0.03515625 C12.72851445 0.04017162 14.59374892 0.04473446 16.45898438 0.04882812 C21.03128136 0.05985333 25.6035175 0.07711598 30.17578125 0.09765625 C30.17578125 0.42765625 30.17578125 0.75765625 30.17578125 1.09765625 C26.54578125 1.09765625 22.91578125 1.09765625 19.17578125 1.09765625 C19.17578125 1.75765625 19.17578125 2.41765625 19.17578125 3.09765625 C16.16365096 4.6037214 13.06295503 4.21925956 9.76171875 4.1953125 C9.03207916 4.19389755 8.30243958 4.1924826 7.5506897 4.19102478 C5.2173454 4.18542156 2.88409661 4.1728686 0.55078125 4.16015625 C-1.02994653 4.15514166 -2.61067582 4.15057868 -4.19140625 4.14648438 C-8.06904729 4.13545109 -11.94661682 4.11818436 -15.82421875 4.09765625 C-14.50421875 3.76765625 -13.18421875 3.43765625 -11.82421875 3.09765625 C-11.82421875 2.43765625 -11.82421875 1.77765625 -11.82421875 1.09765625 C-7.87657605 -0.21822465 -4.11332519 -0.02534648 0 0 Z " transform="translate(327.82421875,64.90234375)" style="fill: #ADACAB;"/><path d="M0 0 C0 0.99 0 1.98 0 3 C-5.03854106 3.83211276 -9.8125662 4.1078534 -14.9375 4.0625 C-15.62134766 4.05798828 -16.30519531 4.05347656 -17.00976562 4.04882812 C-18.67321604 4.0371956 -20.3366205 4.01926694 -22 4 C-22 4.99 -22 5.98 -22 7 C-22.78238037 7.0501123 -23.56476074 7.10022461 -24.37084961 7.15185547 C-27.89379607 7.38303163 -31.415572 7.62881411 -34.9375 7.875 C-36.16919922 7.95363281 -37.40089844 8.03226563 -38.66992188 8.11328125 C-39.83974609 8.19707031 -41.00957031 8.28085938 -42.21484375 8.3671875 C-43.29886475 8.44050293 -44.38288574 8.51381836 -45.49975586 8.58935547 C-46.32483643 8.72486816 -47.14991699 8.86038086 -48 9 C-48.33 9.66 -48.66 10.32 -49 11 C-54.94 11 -60.88 11 -67 11 C-67 10.67 -67 10.34 -67 10 C-66.41138184 9.91024902 -65.82276367 9.82049805 -65.21630859 9.72802734 C-62.26905335 9.2780091 -59.3220014 8.82667773 -56.375 8.375 C-54.68685181 8.11638184 -54.68685181 8.11638184 -52.96459961 7.85253906 C-45.61236957 6.72180361 -38.26399019 5.5688419 -30.91796875 4.3984375 C-30.06136658 4.26218964 -29.2047644 4.12594177 -28.32220459 3.98556519 C-23.15409813 3.16347847 -23.15409813 3.16347847 -17.98675537 2.33660889 C-15.55528555 1.94637299 -13.12338908 1.55889886 -10.69140625 1.171875 C-9.95810593 1.05331146 -9.2248056 0.93474792 -8.46928406 0.81259155 C-5.60789192 0.35922464 -2.90273129 0 0 0 Z " transform="translate(161,84)" style="fill: #E7E4E3;"/><path d="M0 0 C8.58 0 17.16 0 26 0 C26 0.99 26 1.98 26 3 C34.91 3 43.82 3 53 3 C53 4.32 53 5.64 53 7 C44.64574313 6.55537568 36.45809903 5.87207407 28.18359375 4.609375 C22.51157887 3.75878975 16.81657138 3.07984114 11.125 2.375 C10.03517822 2.23980957 8.94535645 2.10461914 7.82250977 1.96533203 C5.21512881 1.64255102 2.60763369 1.32073187 0 1 C0 0.67 0 0.34 0 0 Z " transform="translate(278,220)" style="fill: #807B7C;"/><path d="M0 0 C4.95 0 9.9 0 15 0 C15 0.66 15 1.32 15 2 C15.99 2.66 16.98 3.32 18 4 C9.585 4.495 9.585 4.495 1 5 C0.67 5.66 0.34 6.32 0 7 C-2.47271961 7.36986397 -4.82535111 7.60575002 -7.3125 7.75 C-7.98990234 7.80542969 -8.66730469 7.86085938 -9.36523438 7.91796875 C-13.13851198 8.16140602 -15.8076712 8.1336902 -19 6 C-19 5.34 -19 4.68 -19 4 C-12.73 3.67 -6.46 3.34 0 3 C0 2.01 0 1.02 0 0 Z " transform="translate(150,88)" style="fill: #939192;"/><path d="M0 0 C1.32 0 2.64 0 4 0 C4.58980559 8.48009376 4.58674574 15.21392569 -1 22 C-4.90909091 25 -4.90909091 25 -8 25 C-8 24.01 -8 23.02 -8 22 C-6.68 22 -5.36 22 -4 22 C-4 18.37 -4 14.74 -4 11 C-2.68 11 -1.36 11 0 11 C0 7.37 0 3.74 0 0 Z " transform="translate(716,220)" style="fill: #8C98AA;"/><path d="M0 0 C12.21 0 24.42 0 37 0 C37 0.66 37 1.32 37 2 C47.89 2.495 47.89 2.495 59 3 C59 3.33 59 3.66 59 4 C39.06576155 4.34834452 19.75415795 4.09912242 0 1 C0 0.67 0 0.34 0 0 Z " transform="translate(336,227)" style="fill: #5C5755;"/><path d="M0 0 C7.59 0 15.18 0 23 0 C23 0.99 23 1.98 23 3 C24.32 3.33 25.64 3.66 27 4 C20.93139109 4.19224417 14.86259269 4.37097055 8.79321289 4.53710938 C6.72799981 4.59555421 4.6628883 4.65770985 2.59790039 4.72363281 C-0.36813871 4.81767969 -3.33428558 4.89843105 -6.30078125 4.9765625 C-7.68841423 5.02485703 -7.68841423 5.02485703 -9.1040802 5.0741272 C-9.96474594 5.09429901 -10.82541168 5.11447083 -11.7121582 5.13525391 C-12.46938675 5.15746002 -13.2266153 5.17966614 -14.00679016 5.20254517 C-16 5 -16 5 -19 3 C-12.73 3 -6.46 3 0 3 C0 2.01 0 1.02 0 0 Z " transform="translate(281,69)" style="fill: #B5B2B3;"/><path d="M0 0 C0.33 0 0.66 0 1 0 C1.18451025 15.74487472 1.18451025 15.74487472 0 23 C-0.66 23 -1.32 23 -2 23 C-2.33 24.32 -2.66 25.64 -3 27 C-4.32 27 -5.64 27 -7 27 C-7 28.32 -7 29.64 -7 31 C-8.32 31 -9.64 31 -11 31 C-11 28.69 -11 26.38 -11 24 C-10.01 23.67 -9.02 23.34 -8 23 C-8 21.68 -8 20.36 -8 19 C-6.35 19 -4.7 19 -3 19 C-3 16.69 -3 14.38 -3 12 C-2.01 12 -1.02 12 0 12 C0 8.04 0 4.08 0 0 Z " transform="translate(723,193)" style="fill: #5B6476;"/><path d="M0 0 C7.92 0 15.84 0 24 0 C24.33 0.66 24.66 1.32 25 2 C30.94 2.33 36.88 2.66 43 3 C43 4.32 43 5.64 43 7 C28.61949892 5.32631228 14.31436999 3.15846624 0 1 C0 0.67 0 0.34 0 0 Z " transform="translate(144,201)" style="fill: #6B6765;"/><path d="M0 0 C7.59 0 15.18 0 23 0 C22.34 0.99 21.68 1.98 21 3 C18.1484375 3.50952148 18.1484375 3.50952148 14.375 3.68359375 C13.33013428 3.73343666 13.33013428 3.73343666 12.26416016 3.7842865 C1.85098519 4.2172097 -8.58057134 4.10544166 -19 4.0625 C-21.14322811 4.05747123 -23.28645738 4.05291078 -25.4296875 4.04882812 C-30.61982073 4.0379402 -35.80989722 4.02075275 -41 4 C-41 3.67 -41 3.34 -41 3 C-27.47 3 -13.94 3 0 3 C0 2.01 0 1.02 0 0 Z " transform="translate(378,76)" style="fill: #959394;"/><path d="M0 0 C8.91 0 17.82 0 27 0 C26.34 1.32 25.68 2.64 25 4 C14.44 4 3.88 4 -7 4 C-7 3.67 -7 3.34 -7 3 C-4.69 3 -2.38 3 0 3 C0 2.01 0 1.02 0 0 Z " transform="translate(161,84)" style="fill: #B2B1AF;"/><path d="M0 0 C2.31 0 4.62 0 7 0 C7 2.31 7 4.62 7 7 C5.68 7 4.36 7 3 7 C3.020625 8.134375 3.04125 9.26875 3.0625 10.4375 C3 14 3 14 2 15 C0.00041636 15.04080783 -2.00045254 15.04254356 -4 15 C-4 12.69 -4 10.38 -4 8 C-3.01 7.67 -2.02 7.34 -1 7 C-0.67 4.69 -0.34 2.38 0 0 Z " transform="translate(709,224)" style="fill: #696F7A;"/><path d="M0 0 C8.58 0 17.16 0 26 0 C26 1.32 26 2.64 26 4 C17.42 4 8.84 4 0 4 C0 2.68 0 1.36 0 0 Z " transform="translate(142,197)" style="fill: #4C4946;"/><path d="M0 0 C7.92 0 15.84 0 24 0 C24 0.99 24 1.98 24 3 C26.31 3 28.62 3 31 3 C31 3.33 31 3.66 31 4 C29.02 4.33 27.04 4.66 25 5 C25.99 5.66 26.98 6.32 28 7 C25.03 7 22.06 7 19 7 C19 5.68 19 4.36 19 3 C12.73 3 6.46 3 0 3 C0 2.01 0 1.02 0 0 Z " transform="translate(168,201)" style="fill: #484642;"/><path d="M0 0 C0.33 0 0.66 0 1 0 C1 7.26 1 14.52 1 22 C-2.96 22 -6.92 22 -11 22 C-11 19.36 -11 16.72 -11 14 C-7.7 14 -4.4 14 -1 14 C-0.67 9.38 -0.34 4.76 0 0 Z " transform="translate(723,171)" style="fill: #4A4C53;"/><path d="M0 0 C3.63 0 7.26 0 11 0 C11 0.99 11 1.98 11 3 C8.19252545 3.7795458 5.57970192 4.1710149 2.671875 4.31640625 C1.87265625 4.35830078 1.0734375 4.40019531 0.25 4.44335938 C-0.575 4.48267578 -1.4 4.52199219 -2.25 4.5625 C-3.09046875 4.60568359 -3.9309375 4.64886719 -4.796875 4.69335938 C-6.86440671 4.79908543 -8.93218281 4.90001295 -11 5 C-11.33 5.66 -11.66 6.32 -12 7 C-16.95 7 -21.9 7 -27 7 C-27 6.01 -27 5.02 -27 4 C-17.98175113 2.93003827 -9.06335876 2.89765341 0 3 C0 2.01 0 1.02 0 0 Z " transform="translate(139,88)" style="fill: #B6B5B3;"/><path d="M0 0 C0.99 0 1.98 0 3 0 C3 1.32 3 2.64 3 4 C4.65 4 6.3 4 8 4 C8 8.95 8 13.9 8 19 C6.68 19 5.36 19 4 19 C4 16.69 4 14.38 4 12 C2.35 12 0.7 12 -1 12 C-0.835 10.948125 -0.67 9.89625 -0.5 8.8125 C-0.10430322 5.79531204 0.09178971 3.02906028 0 0 Z " transform="translate(689,76)" style="fill: #857F77;"/><path d="M0 0 C0.33 0 0.66 0 1 0 C1.33 9.9 1.66 19.8 2 30 C2.66 30 3.32 30 4 30 C4.36644578 31.55966592 4.71760862 33.12292651 5.0625 34.6875 C5.25972656 35.55761719 5.45695312 36.42773438 5.66015625 37.32421875 C6.02032279 40.16001276 5.70909969 42.24789982 5 45 C3.68 45 2.36 45 1 45 C-0.0481183 35.23016673 -0.11902077 25.55901886 -0.0625 15.75 C-0.05747043 14.21484522 -0.05291012 12.67968884 -0.04882812 11.14453125 C-0.03794839 7.4296533 -0.02076577 3.71483741 0 0 Z " transform="translate(70,122)" style="fill: #533F35;"/><path d="M0 0 C-0.33 0.99 -0.66 1.98 -1 3 C-4.72554351 4.62773825 -9.04996608 4.12534877 -13.046875 4.09765625 C-13.81807678 4.0962413 -14.58927856 4.09482635 -15.3838501 4.09336853 C-17.83927338 4.08778534 -20.29460442 4.07523595 -22.75 4.0625 C-24.41796743 4.05748283 -26.08593629 4.0529203 -27.75390625 4.04882812 C-31.83597287 4.03782141 -35.91797081 4.02056836 -40 4 C-40 3.67 -40 3.34 -40 3 C-33.73 3 -27.46 3 -21 3 C-21 2.01 -21 1.02 -21 0 C-6.21867882 -1.33257403 -6.21867882 -1.33257403 0 0 Z " transform="translate(133,103)" style="fill: #616366;"/><path d="M0 0 C12.87 0 25.74 0 39 0 C38.67 0.99 38.34 1.98 38 3 C25.1460221 3.23105878 12.71336798 3.03996736 0 1 C0 0.67 0 0.34 0 0 Z " transform="translate(373,231)" style="fill: #6D6767;"/><path d="M0 0 C4.07510438 -0.0247345 8.15017964 -0.04287637 12.2253418 -0.05493164 C13.61141725 -0.05995777 14.99748741 -0.06677966 16.38354492 -0.07543945 C18.37676715 -0.08758018 20.37002819 -0.09271021 22.36328125 -0.09765625 C23.56251221 -0.10289307 24.76174316 -0.10812988 25.99731445 -0.11352539 C29 0 29 0 32 1 C32 1.66 32 2.32 32 3 C33.32 3.33 34.64 3.66 36 4 C23.68194161 4.46450779 12.12572738 3.08721537 0 1 C0 0.67 0 0.34 0 0 Z " transform="translate(189,208)" style="fill: #656462;"/><path d="M0 0 C0.33 0 0.66 0 1 0 C1 3.3 1 6.6 1 10 C2.32 10 3.64 10 5 10 C5 14.29 5 18.58 5 23 C4.67 22.34 4.34 21.68 4 21 C2.68 21 1.36 21 0 21 C-0.33 17.7 -0.66 14.4 -1 11 C-1.66 11.66 -2.32 12.32 -3 13 C-3 9.7 -3 6.4 -3 3 C-2.01 3 -1.02 3 0 3 C0 2.01 0 1.02 0 0 Z " transform="translate(696,55)" style="fill: #938B85;"/><path d="M0 0 C3.96 0 7.92 0 12 0 C12 0.33 12 0.66 12 1 C10.35 1 8.7 1 7 1 C7 1.66 7 2.32 7 3 C3.65354269 4.01002178 0.61723485 4.120977 -2.87011719 4.11352539 C-4.05103943 4.11344986 -5.23196167 4.11337433 -6.44866943 4.11329651 C-7.71857727 4.10813522 -8.98848511 4.10297394 -10.296875 4.09765625 C-12.25273529 4.09553383 -12.25273529 4.09553383 -14.24810791 4.09336853 C-17.70703055 4.08955867 -21.16591091 4.07974151 -24.62481689 4.06866455 C-28.15742419 4.05841746 -31.69003836 4.05386385 -35.22265625 4.04882812 C-42.14845482 4.03811782 -49.07422538 4.02105984 -56 4 C-56 3.67 -56 3.34 -56 3 C-28.775 2.505 -28.775 2.505 -1 2 C-0.67 1.34 -0.34 0.68 0 0 Z " transform="translate(305,84)" style="fill: #7C7C7E;"/><path d="M0 0 C2 1 2 1 3.4375 4.5625 C4.83072635 8.99807778 5.80164236 13.50279829 6.6875 18.0625 C6.88460571 19.05262085 6.88460571 19.05262085 7.08569336 20.06274414 C7.95330173 24.77020421 8.11204272 29.2141753 8 34 C7.67 32.68 7.34 31.36 7 30 C6.01 30 5.02 30 4 30 C4 23.73 4 17.46 4 11 C2.68 11 1.36 11 0 11 C0 7.37 0 3.74 0 0 Z " transform="translate(716,50)" style="fill: #D5DDE8;"/><path d="M0 0 C4.62 0 9.24 0 14 0 C14 1.32 14 2.64 14 4 C18.95 4 23.9 4 29 4 C29.33 4.66 29.66 5.32 30 6 C30.99 6.66 31.98 7.32 33 8 C25.51963544 7.8386588 18.6141848 6.56276087 11.4375 4.5625 C10.65197754 4.34505127 9.86645508 4.12760254 9.05712891 3.90356445 C5.55314431 2.89117542 3.08079166 2.05386111 0 0 Z " transform="translate(90,189)" style="fill: #97908E;"/><path d="M0 0 C2.64 0 5.28 0 8 0 C7.67 0.99 7.34 1.98 7 3 C6.01 3 5.02 3 4 3 C4 4.32 4 5.64 4 7 C5.32 7 6.64 7 8 7 C7.67 9.31 7.34 11.62 7 14 C6.01 14.33 5.02 14.66 4 15 C4 13.68 4 12.36 4 11 C2.68 11 1.36 11 0 11 C0 7.37 0 3.74 0 0 Z " transform="translate(697,54)" style="fill: #827870;"/><path d="M0 0 C11.88 0 23.76 0 36 0 C35.67 0.99 35.34 1.98 35 3 C23.24855547 3.39910566 11.67755012 2.1823775 0 1 C0 0.67 0 0.34 0 0 Z " transform="translate(454,239)" style="fill: #969493;"/><path d="M0 0 C0 0.99 0 1.98 0 3 C-3.63 3.33 -7.26 3.66 -11 4 C-11 5.32 -11 6.64 -11 8 C-12.32 8 -13.64 8 -15 8 C-15 9.32 -15 10.64 -15 12 C-16.32 12 -17.64 12 -19 12 C-19 12.99 -19 13.98 -19 15 C-20.32 15 -21.64 15 -23 15 C-20.04179058 8.00786865 -16.02376666 4.57128717 -9.18359375 1.76171875 C-5.98302082 0.64523982 -3.40780903 0 0 0 Z " transform="translate(93,95)" style="fill: #EEDED7;"/><path d="M0 0 C4.62 0 9.24 0 14 0 C13.01 0.33 12.02 0.66 11 1 C11 1.66 11 2.32 11 3 C7.53777385 4.06723961 4.35960734 4.10173486 0.75 4.0625 C-0.32765625 4.05347656 -1.4053125 4.04445313 -2.515625 4.03515625 C-3.33546875 4.02355469 -4.1553125 4.01195313 -5 4 C-5 5.32 -5 6.64 -5 8 C-6.98 8 -8.96 8 -11 8 C-11 6.68 -11 5.36 -11 4 C-8.24921116 3.08307039 -6.64051087 2.89113917 -3.8125 2.9375 C-1.9253125 2.9684375 -1.9253125 2.9684375 0 3 C0 2.01 0 1.02 0 0 Z " transform="translate(93,95)" style="fill: #C7C6C3;"/><path d="M0 0 C2.12438339 -0.08078641 4.2496323 -0.13909141 6.375 -0.1875 C7.55835938 -0.22230469 8.74171875 -0.25710937 9.9609375 -0.29296875 C11.46527344 -0.14794922 11.46527344 -0.14794922 13 0 C13.66 0.99 14.32 1.98 15 3 C9.68942541 3.8886833 4.60114055 4.13355881 -0.77734375 4.09765625 C-1.58869278 4.0962413 -2.40004181 4.09482635 -3.23597717 4.09336853 C-5.80319047 4.08781357 -8.37031348 4.07526967 -10.9375 4.0625 C-12.68814977 4.05747917 -14.43880093 4.05291729 -16.18945312 4.04882812 C-20.4596697 4.03785893 -24.72981959 4.02062582 -29 4 C-29 3.67 -29 3.34 -29 3 C-19.76 2.67 -10.52 2.34 -1 2 C-0.67 1.34 -0.34 0.68 0 0 Z " transform="translate(497,50)" style="fill: #CAC9C7;"/><path d="M0 0 C0 0.66 0 1.32 0 2 C-17.82 2 -35.64 2 -54 2 C-54 1.67 -54 1.34 -54 1 C-52.53530273 0.96241577 -52.53530273 0.96241577 -51.04101562 0.92407227 C-47.33569385 0.8282083 -43.63048407 0.72846375 -39.92529297 0.62768555 C-38.3371039 0.58499917 -36.74888806 0.54329499 -35.16064453 0.50268555 C-25.4641481 0.2539787 -15.81451911 -0.14996848 -6.14257812 -0.89868164 C-3 -1 -3 -1 0 0 Z " transform="translate(689,44)" style="fill: #EBEAE9;"/><path d="M0 0 C0.33 0 0.66 0 1 0 C1 3.96 1 7.92 1 12 C2.65 12.33 4.3 12.66 6 13 C5.67 14.98 5.34 16.96 5 19 C5.99 19.33 6.98 19.66 8 20 C8 22.31 8 24.62 8 27 C0.32557672 19.74041041 0.32557672 19.74041041 -0.23706055 15.00463867 C-0.29469065 12.72485238 -0.26200905 10.4667126 -0.1875 8.1875 C-0.17396484 7.39923828 -0.16042969 6.61097656 -0.14648438 5.79882812 C-0.11133456 3.86558831 -0.05753361 1.93270318 0 0 Z " transform="translate(70,155)" style="fill: #917969;"/><path d="M0 0 C1.32 0 2.64 0 4 0 C4 0.99 4 1.98 4 3 C3.01 3 2.02 3 1 3 C1 6.96 1 10.92 1 15 C-0.65 15 -2.3 15 -4 15 C-4 11.04 -4 7.08 -4 3 C-2.68 3 -1.36 3 0 3 C0 2.01 0 1.02 0 0 Z " transform="translate(74,107)" style="fill: #61493C;"/><path d="M0 0 C1.65 0 3.3 0 5 0 C5 6.27 5 12.54 5 19 C4.67 17.68 4.34 16.36 4 15 C3.01 15.33 2.02 15.66 1 16 C0.67 10.72 0.34 5.44 0 0 Z " transform="translate(715,69)" style="fill: #3F4450;"/><path d="M0 0 C0.69416016 -0.02126953 1.38832031 -0.04253906 2.10351562 -0.06445312 C4.09375 -0.078125 4.09375 -0.078125 7.5 0.25 C8.49 1.24 9.48 2.23 10.5 3.25 C0.6 3.25 -9.3 3.25 -19.5 3.25 C-19.5 2.59 -19.5 1.93 -19.5 1.25 C-13.00984887 0.47998207 -6.53158394 0.10085098 0 0 Z " transform="translate(489.5,49.75)" style="fill: #DADAD7;"/><path d="M0 0 C2 2 2 2 2.24365234 3.82568359 C2.15878742 9.5268331 1.56777344 15.00461987 0.625 20.625 C0.49867188 21.43195313 0.37234375 22.23890625 0.2421875 23.0703125 C-0.53180296 27.83809371 -1.57687293 32.38411827 -3 37 C-3.33 37 -3.66 37 -4 37 C-4 32.38 -4 27.76 -4 23 C-3.34 22.67 -2.68 22.34 -2 22 C-1.53044799 19.77187153 -1.53044799 19.77187153 -1.3671875 17.08984375 C-1.28339844 16.10048828 -1.19960938 15.11113281 -1.11328125 14.09179688 C-1.03464844 13.05087891 -0.95601562 12.00996094 -0.875 10.9375 C-0.74544922 9.37032227 -0.74544922 9.37032227 -0.61328125 7.77148438 C-0.40041023 5.18155359 -0.19638621 2.5912245 0 0 Z " transform="translate(724,193)" style="fill: #C4CEDF;"/><path d="M0 0 C0 0.33 0 0.66 0 1 C-1.65 1 -3.3 1 -5 1 C-5.33 1.99 -5.66 2.98 -6 4 C-18.87 4 -31.74 4 -45 4 C-45 3.67 -45 3.34 -45 3 C-36.09 2.67 -27.18 2.34 -18 2 C-18 1.67 -18 1.34 -18 1 C-11.97968656 0.39034801 -6.05329744 -0.13451772 0 0 Z " transform="translate(353,84)" style="fill: #616065;"/><path d="M0 0 C0.33 0 0.66 0 1 0 C1.02715383 1.74991334 1.04646551 3.49994945 1.0625 5.25 C1.07410156 6.22453125 1.08570313 7.1990625 1.09765625 8.203125 C1.01195577 10.65758678 0.70706066 12.66168914 0 15 C-0.66 15 -1.32 15 -2 15 C-2 23.91 -2 32.82 -2 42 C-2.33 42 -2.66 42 -3 42 C-3 29.79 -3 17.58 -3 5 C-2.01 4.67 -1.02 4.34 0 4 C0 2.68 0 1.36 0 0 Z " transform="translate(696,107)" style="fill: #3B3A31;"/><path d="M0 0 C3.96 0 7.92 0 12 0 C11.67 0.99 11.34 1.98 11 3 C13.31 3 15.62 3 18 3 C18 3.33 18 3.66 18 4 C6.78 4 -4.44 4 -16 4 C-16 3.67 -16 3.34 -16 3 C-11.05 3 -6.1 3 -1 3 C-0.67 2.01 -0.34 1.02 0 0 Z " transform="translate(203,95)" style="fill: #565659;"/><path d="M0 0 C7.59 0 15.18 0 23 0 C23 0.99 23 1.98 23 3 C15.41 3 7.82 3 0 3 C0 2.01 0 1.02 0 0 Z " transform="translate(433,54)" style="fill: #BFBEBB;"/><path d="M0 0 C0.33 0 0.66 0 1 0 C2.35067975 10.06979989 3.31860272 19.82241303 3 30 C2.01 30 1.02 30 0 30 C0 20.1 0 10.2 0 0 Z " transform="translate(724,84)" style="fill: #A8B1C6;"/><path d="M0 0 C6.6 0.33 13.2 0.66 20 1 C19.67 1.99 19.34 2.98 19 4 C12.73 4 6.46 4 0 4 C0 2.68 0 1.36 0 0 Z " transform="translate(331,223)" style="fill: #4F4A49;"/><path d="M0 0 C5.28 0 10.56 0 16 0 C15.34 1.32 14.68 2.64 14 4 C7.73 4 1.46 4 -5 4 C-5 3.67 -5 3.34 -5 3 C-3.35 3 -1.7 3 0 3 C0 2.01 0 1.02 0 0 Z " transform="translate(244,73)" style="fill: #ACABAA;"/><path d="M0 0 C1.32 0 2.64 0 4 0 C4 5.28 4 10.56 4 16 C2.68 16 1.36 16 0 16 C0 10.72 0 5.44 0 0 Z " transform="translate(697,208)" style="fill: #575853;"/><path d="M0 0 C5.28 0 10.56 0 16 0 C16 1.32 16 2.64 16 4 C10.72 4 5.44 4 0 4 C0 2.68 0 1.36 0 0 Z " transform="translate(88,99)" style="fill: #8F8E8E;"/><path d="M0 0 C2.31 0 4.62 0 7 0 C7.33 0.99 7.66 1.98 8 3 C10.31 3 12.62 3 15 3 C13.68 3.33 12.36 3.66 11 4 C11 4.99 11 5.98 11 7 C10.01 7 9.02 7 8 7 C8 8.32 8 9.64 8 11 C6.68 11 5.36 11 4 11 C4 9.68 4 8.36 4 7 C4.99 6.67 5.98 6.34 7 6 C7.33 5.34 7.66 4.68 8 4 C5.36 4 2.72 4 0 4 C0 2.68 0 1.36 0 0 Z " transform="translate(697,50)" style="fill: #928E8B;"/><path d="M0 0 C4.95 0 9.9 0 15 0 C15 0.99 15 1.98 15 3 C17.31 3 19.62 3 22 3 C22 3.33 22 3.66 22 4 C19.27076612 4.0270817 16.54180363 4.04687847 13.8125 4.0625 C13.04357422 4.07087891 12.27464844 4.07925781 11.48242188 4.08789062 C7.51473211 4.10491934 3.87428766 3.98604115 0 3 C0 2.01 0 1.02 0 0 Z " transform="translate(263,216)" style="fill: #544F4D;"/><path d="M0 0 C0 0.66 0 1.32 0 2 C-1.28777344 2.12117188 -2.57554687 2.24234375 -3.90234375 2.3671875 C-5.58077848 2.53596865 -7.25916135 2.70526613 -8.9375 2.875 C-10.21270508 2.99294922 -10.21270508 2.99294922 -11.51367188 3.11328125 C-12.72700195 3.23896484 -12.72700195 3.23896484 -13.96484375 3.3671875 C-14.7137085 3.44050293 -15.46257324 3.51381836 -16.23413086 3.58935547 C-16.81686768 3.72486816 -17.39960449 3.86038086 -18 4 C-18.33 4.66 -18.66 5.32 -19 6 C-24.94 6 -30.88 6 -37 6 C-37 5.67 -37 5.34 -37 5 C-32.81259682 4.35353791 -28.62506043 3.70794265 -24.4375 3.0625 C-23.25607422 2.88009766 -22.07464844 2.69769531 -20.85742188 2.50976562 C-17.57205018 2.00361592 -14.28612422 1.50123692 -11 1 C-10.25379395 0.88382324 -9.50758789 0.76764648 -8.73876953 0.64794922 C-5.75463585 0.1961458 -3.03918168 0 0 0 Z " transform="translate(131,89)" style="fill: #E8E7E5;"/><path d="M0 0 C1.65 0 3.3 0 5 0 C4.67 0.99 4.34 1.98 4 3 C16.54 3 29.08 3 42 3 C42 3.33 42 3.66 42 4 C26.16 4 10.32 4 -6 4 C-6 3.67 -6 3.34 -6 3 C-5.195625 2.87625 -4.39125 2.7525 -3.5625 2.625 C-2.716875 2.41875 -1.87125 2.2125 -1 2 C-0.67 1.34 -0.34 0.68 0 0 Z " transform="translate(570,50)" style="fill: #989894;"/><path d="M0 0 C6.27 0 12.54 0 19 0 C19.33 0.66 19.66 1.32 20 2 C15.99908596 2.74984705 12.23250483 3.1195296 8.1640625 3.09765625 C7.10058594 3.09443359 6.03710938 3.09121094 4.94140625 3.08789062 C3.84699219 3.07951172 2.75257813 3.07113281 1.625 3.0625 C0.50738281 3.05798828 -0.61023438 3.05347656 -1.76171875 3.04882812 C-4.50786804 3.03709244 -7.25390586 3.02067363 -10 3 C-10 2.67 -10 2.34 -10 2 C-6.7 1.67 -3.4 1.34 0 1 C0 0.67 0 0.34 0 0 Z " transform="translate(556,47)" style="fill: #DDDDD9;"/><path d="M0 0 C0.99 0 1.98 0 3 0 C3 6.27 3 12.54 3 19 C2.34 19 1.68 19 1 19 C0.67 19.99 0.34 20.98 0 22 C0 14.74 0 7.48 0 0 Z " transform="translate(724,114)" style="fill: #778194;"/><path d="M0 0 C0.33 0 0.66 0 1 0 C1 4.95 1 9.9 1 15 C0.01 15 -0.98 15 -2 15 C-2 23.58 -2 32.16 -2 41 C-2.33 41 -2.66 41 -3 41 C-3.61916858 11.65458453 -3.61916858 11.65458453 0 0 Z " transform="translate(69,110)" style="fill: #D7C5B9;"/><path d="M0 0 C0.99 0 1.98 0 3 0 C3 6.27 3 12.54 3 19 C2.01 19.33 1.02 19.66 0 20 C0 13.4 0 6.8 0 0 Z " transform="translate(690,133)" style="fill: #66665A;"/><path d="M0 0 C2.31 0 4.62 0 7 0 C7 1.32 7 2.64 7 4 C7.99 4 8.98 4 10 4 C10 5.32 10 6.64 10 8 C9.34 8 8.68 8 8 8 C7.67 8.66 7.34 9.32 7 10 C7 9.34 7 8.68 7 8 C5.68 8 4.36 8 3 8 C3 6.68 3 5.36 3 4 C2.01 4 1.02 4 0 4 C0 2.68 0 1.36 0 0 Z " transform="translate(705,61)" style="fill: #414149;"/><path d="M0 0 C1.32 0 2.64 0 4 0 C4.02715383 1.74991334 4.04646551 3.49994945 4.0625 5.25 C4.07410156 6.22453125 4.08570313 7.1990625 4.09765625 8.203125 C4.01055042 10.69783594 3.92877276 12.68602901 3 15 C2.01 15.33 1.02 15.66 0 16 C0 10.72 0 5.44 0 0 Z " transform="translate(712,201)" style="fill: #4D545F;"/><path d="M0 0 C1.32 0 2.64 0 4 0 C4.35040695 3.40024521 4.530811 6.61342582 4 10 C-0.38095238 14 -0.38095238 14 -4 14 C-4 13.01 -4 12.02 -4 11 C-2.68 11 -1.36 11 0 11 C0 7.37 0 3.74 0 0 Z " transform="translate(712,231)" style="fill: #8A91A0;"/><path d="M0 0 C0.66 0 1.32 0 2 0 C2 6.27 2 12.54 2 19 C1.01 19 0.02 19 -1 19 C-1.02697137 16.39576408 -1.04682489 13.79180756 -1.0625 11.1875 C-1.07087891 10.44951172 -1.07925781 9.71152344 -1.08789062 8.95117188 C-1.10259828 5.70077932 -1.03531702 3.10595105 0 0 Z " transform="translate(725,133)" style="fill: #677187;"/><path d="M0 0 C-0.61875 0.28875 -1.2375 0.5775 -1.875 0.875 C-4.13325765 1.93720042 -4.13325765 1.93720042 -6 4 C-7.87939453 4.22705078 -7.87939453 4.22705078 -10.1328125 4.1953125 C-10.93847656 4.18886719 -11.74414062 4.18242188 -12.57421875 4.17578125 C-13.41597656 4.15902344 -14.25773438 4.14226562 -15.125 4.125 C-16.39923828 4.11146484 -16.39923828 4.11146484 -17.69921875 4.09765625 C-19.79959884 4.07405647 -21.89983444 4.03818483 -24 4 C-24 3.67 -24 3.34 -24 3 C-21.69 3 -19.38 3 -17 3 C-17 2.34 -17 1.68 -17 1 C-11.27959989 0.1679418 -5.77759884 -0.12036664 0 0 Z " transform="translate(238,76)" style="fill: #AFAEAF;"/><path d="M0 0 C0 0.66 0 1.32 0 2 C-3.27626375 2.9821994 -6.22788119 3.11580914 -9.640625 3.09765625 C-10.71054687 3.09443359 -11.78046875 3.09121094 -12.8828125 3.08789062 C-13.99398438 3.07951172 -15.10515625 3.07113281 -16.25 3.0625 C-17.93996094 3.05573242 -17.93996094 3.05573242 -19.6640625 3.04882812 C-22.44276217 3.03705397 -25.22135409 3.0206084 -28 3 C-28 2.67 -28 2.34 -28 2 C-9.17995444 -0.29612756 -9.17995444 -0.29612756 0 0 Z " transform="translate(301,66)" style="fill: #E4E4E3;"/><path d="M0 0 C5.28 0 10.56 0 16 0 C15.67 0.99 15.34 1.98 15 3 C12.75135275 3.22245975 10.50097377 3.42746557 8.25 3.625 C6.37054688 3.79902344 6.37054688 3.79902344 4.453125 3.9765625 C1.16413097 3.99888599 -0.31020776 3.77961002 -3 2 C-2.01 2 -1.02 2 0 2 C0 1.34 0 0.68 0 0 Z " transform="translate(379,58)" style="fill: #C7C6C4;"/><path d="M0 0 C0 0.33 0 0.66 0 1 C-3.63 1 -7.26 1 -11 1 C-11 1.66 -11 2.32 -11 3 C-13.64458379 4.32229189 -15.67761301 4.09677194 -18.625 4.0625 C-19.62789063 4.05347656 -20.63078125 4.04445313 -21.6640625 4.03515625 C-22.43492187 4.02355469 -23.20578125 4.01195313 -24 4 C-23.67 3.01 -23.34 2.02 -23 1 C-15.34916042 -0.24911667 -7.72559014 -0.09053426 0 0 Z " transform="translate(358,65)" style="fill: #A3A1A2;"/><path d="M0 0 C-0.99 1.485 -0.99 1.485 -2 3 C-4.43017578 3.34057617 -4.43017578 3.34057617 -7.4453125 3.29296875 C-8.52167969 3.28330078 -9.59804688 3.27363281 -10.70703125 3.26367188 C-11.83496094 3.23853516 -12.96289062 3.21339844 -14.125 3.1875 C-15.26066406 3.17396484 -16.39632813 3.16042969 -17.56640625 3.14648438 C-20.37807387 3.11104319 -23.18880417 3.06163517 -26 3 C-26 2.67 -26 2.34 -26 2 C-22.04293373 1.46921744 -18.08420556 0.9520619 -14.125 0.4375 C-12.43310547 0.21030273 -12.43310547 0.21030273 -10.70703125 -0.02148438 C-9.63066406 -0.16005859 -8.55429687 -0.29863281 -7.4453125 -0.44140625 C-6.45031738 -0.57232666 -5.45532227 -0.70324707 -4.43017578 -0.83813477 C-2 -1 -2 -1 0 0 Z " transform="translate(337,62)" style="fill: #E4E4E2;"/><path d="M0 0 C2.31 0 4.62 0 7 0 C7 2.31 7 4.62 7 7 C4.69 7 2.38 7 0 7 C0 4.69 0 2.38 0 0 Z " transform="translate(75,167)" style="fill: #59453C;"/><path d="M0 0 C0.99 0 1.98 0 3 0 C2.95875 0.78375 2.9175 1.5675 2.875 2.375 C2.71271266 5.16116119 2.71271266 5.16116119 5 7 C4.34 9.31 3.68 11.62 3 14 C1.68 14.33 0.36 14.66 -1 15 C-0.67 10.05 -0.34 5.1 0 0 Z " transform="translate(75,111)" style="fill: #4E3C33;"/><path d="M0 0 C3.96 0 7.92 0 12 0 C12 1.32 12 2.64 12 4 C8.04 4 4.08 4 0 4 C0 2.68 0 1.36 0 0 Z " transform="translate(104,99)" style="fill: #7D7E80;"/><path d="M0 0 C3.63 0 7.26 0 11 0 C11 0.99 11 1.98 11 3 C7.13276369 4.26582219 3.26848738 4.1118765 -0.75 4.0625 C-1.44738281 4.05798828 -2.14476562 4.05347656 -2.86328125 4.04882812 C-4.57555803 4.0371002 -6.28779033 4.01916653 -8 4 C-8 3.67 -8 3.34 -8 3 C-5.36 3 -2.72 3 0 3 C0 2.01 0 1.02 0 0 Z " transform="translate(139,88)" style="fill: #B2B0AE;"/><path d="M0 0 C0.33 0 0.66 0 1 0 C1.18451025 15.74487472 1.18451025 15.74487472 0 23 C-0.99 23 -1.98 23 -3 23 C-3 19.37 -3 15.74 -3 12 C-2.01 12 -1.02 12 0 12 C0 8.04 0 4.08 0 0 Z " transform="translate(723,193)" style="fill: #8493A6;"/><path d="M0 0 C6.27 0 12.54 0 19 0 C19 1.32 19 2.64 19 4 C16.58197805 3.71729594 14.1659878 3.42420736 11.75 3.125 C11.06808594 3.04636719 10.38617188 2.96773437 9.68359375 2.88671875 C5.89596173 2.40866811 3.47877598 1.73938799 0 0 Z " transform="translate(123,197)" style="fill: #888482;"/><path d="M0 0 C4.95 0 9.9 0 15 0 C15 0.99 15 1.98 15 3 C9.72 3 4.44 3 -1 3 C-0.67 2.01 -0.34 1.02 0 0 Z " transform="translate(418,54)" style="fill: #D6D5D4;"/><path d="M0 0 C4.24977046 -0.11611395 8.49913337 -0.18722349 12.75 -0.25 C13.9565625 -0.28351563 15.163125 -0.31703125 16.40625 -0.3515625 C18.14648438 -0.37089844 18.14648438 -0.37089844 19.921875 -0.390625 C20.99018555 -0.41157227 22.05849609 -0.43251953 23.15917969 -0.45410156 C26.64950618 0.10382275 27.79682995 1.31343399 30 4 C27.36 4 24.72 4 22 4 C22 3.34 22 2.68 22 2 C14.74 1.67 7.48 1.34 0 1 C0 0.67 0 0.34 0 0 Z " transform="translate(467,238)" style="fill: #514D4D;"/><path d="M0 0 C0.33 0 0.66 0 1 0 C1 7.26 1 14.52 1 22 C-0.32 22 -1.64 22 -3 22 C-3 19.69 -3 17.38 -3 15 C-2.34 14.67 -1.68 14.34 -1 14 C-0.52998967 10.72444392 -0.52998967 10.72444392 -0.375 6.9375 C-0.30023437 5.64714844 -0.22546875 4.35679687 -0.1484375 3.02734375 C-0.09945312 2.02832031 -0.05046875 1.02929688 0 0 Z " transform="translate(723,171)" style="fill: #46546A;"/><path d="M0 0 C4.95 0 9.9 0 15 0 C14.67 0.99 14.34 1.98 14 3 C9.38 3 4.76 3 0 3 C0 2.01 0 1.02 0 0 Z " transform="translate(150,88)" style="fill: #9E9B9A;"/><path d="M0 0 C1.32 0 2.64 0 4 0 C4 3.96 4 7.92 4 12 C3.67 11.34 3.34 10.68 3 10 C1.68 10 0.36 10 -1 10 C-0.67 6.7 -0.34 3.4 0 0 Z " transform="translate(697,66)" style="fill: #9D938B;"/><path d="M0 0 C2.31 0 4.62 0 7 0 C7 0.99 7 1.98 7 3 C8.32 3.33 9.64 3.66 11 4 C3.74 4 -3.52 4 -11 4 C-11 3.67 -11 3.34 -11 3 C-7.37 3 -3.74 3 0 3 C0 2.01 0 1.02 0 0 Z " transform="translate(297,69)" style="fill: #A19D9E;"/><path d="M0 0 C0.33 1.32 0.66 2.64 1 4 C-0.32 4 -1.64 4 -3 4 C-3.33 5.32 -3.66 6.64 -4 8 C-5.65 8 -7.3 8 -9 8 C-9 7.01 -9 6.02 -9 5 C-8.01 5 -7.02 5 -6 5 C-6 3.68 -6 2.36 -6 1 C-4.02 0.67 -2.04 0.34 0 0 Z " transform="translate(711,238)" style="fill: #7D7E87;"/><path d="M0 0 C4.62 0 9.24 0 14 0 C14 0.99 14 1.98 14 3 C9.38 3 4.76 3 0 3 C0 2.01 0 1.02 0 0 Z " transform="translate(267,69)" style="fill: #C5C4C2;"/><path d="M0 0 C2.31 0 4.62 0 7 0 C7 4 7 4 5.75 5.75 C4 7 4 7 0 7 C0 4.69 0 2.38 0 0 Z " transform="translate(701,227)" style="fill: #646869;"/><path d="M0 0 C0.99 0 1.98 0 3 0 C4.3271261 3.9813783 4.06915913 7.85045227 4 12 C2.35 12 0.7 12 -1 12 C-0.835 10.948125 -0.67 9.89625 -0.5 8.8125 C-0.10430322 5.79531204 0.09178971 3.02906028 0 0 Z " transform="translate(689,76)" style="fill: #686563;"/><path d="M0 0 C5.28 0 10.56 0 16 0 C16 0.33 16 0.66 16 1 C13.36 1 10.72 1 8 1 C8 1.66 8 2.32 8 3 C2.91913204 3.84681133 -1.84828377 4.09038099 -7 4 C-7 3.67 -7 3.34 -7 3 C-5.5459375 2.814375 -5.5459375 2.814375 -4.0625 2.625 C-2.5465625 2.315625 -2.5465625 2.315625 -1 2 C-0.67 1.34 -0.34 0.68 0 0 Z " transform="translate(213,76)" style="fill: #C9C8C6;"/><path d="M0 0 C1.32 0 2.64 0 4 0 C4 3.3 4 6.6 4 10 C3.01 10.33 2.02 10.66 1 11 C-0.28317892 7.15046324 -0.06643637 4.05261865 0 0 Z " transform="translate(693,186)" style="fill: #5F5F58;"/><path d="M0 0 C0.33 0 0.66 0 1 0 C1.20289367 12.4666891 1.20289367 12.4666891 0 18 C-0.66 18.33 -1.32 18.66 -2 19 C-2 14.05 -2 9.1 -2 4 C-1.34 4 -0.68 4 0 4 C0 2.68 0 1.36 0 0 Z " transform="translate(696,118)" style="fill: #2C2D24;"/><path d="M0 0 C1.32 0.33 2.64 0.66 4 1 C3.34 2.32 2.68 3.64 2 5 C-7.24 5 -16.48 5 -26 5 C-26 4.67 -26 4.34 -26 4 C-17.42 4 -8.84 4 0 4 C0 2.68 0 1.36 0 0 Z " transform="translate(690,68)" style="fill: #827F81;"/><path d="M0 0 C6.93 0 13.86 0 21 0 C21.33 0.99 21.66 1.98 22 3 C14.65835626 2.40711812 7.32613141 1.761788 0 1 C0 0.67 0 0.34 0 0 Z " transform="translate(336,227)" style="fill: #9C9796;"/><path d="M0 0 C14.78132118 -0.18451025 14.78132118 -0.18451025 21 1 C20.67 1.99 20.34 2.98 20 4 C13.4 3.01 6.8 2.02 0 1 C0 0.67 0 0.34 0 0 Z " transform="translate(189,208)" style="fill: #A3A19D;"/><path d="M0 0 C4.62 0 9.24 0 14 0 C14 1.32 14 2.64 14 4 C9.02906176 3.58846263 4.55491614 3.20399168 0 1 C0 0.67 0 0.34 0 0 Z " transform="translate(90,189)" style="fill: #7E7A75;"/><path d="M0 0 C-0.99 1.485 -0.99 1.485 -2 3 C-5.0390625 3.29296875 -5.0390625 3.29296875 -8.625 3.1875 C-9.81351563 3.16042969 -11.00203125 3.13335937 -12.2265625 3.10546875 C-13.59941406 3.05326172 -13.59941406 3.05326172 -15 3 C-14.01 2.67 -13.02 2.34 -12 2 C-12 1.34 -12 0.68 -12 0 C-3.42857143 -1.28571429 -3.42857143 -1.28571429 0 0 Z " transform="translate(188,85)" style="fill: #A09F9F;"/><path d="M0 0 C2.64 0 5.28 0 8 0 C7.67 0.99 7.34 1.98 7 3 C6.01 3 5.02 3 4 3 C4 4.32 4 5.64 4 7 C2.68 7 1.36 7 0 7 C0 4.69 0 2.38 0 0 Z " transform="translate(697,54)" style="fill: #86807B;"/><path d="M0 0 C2.64 0 5.28 0 8 0 C8 0.99 8 1.98 8 3 C11.63 3 15.26 3 19 3 C19 3.33 19 3.66 19 4 C16.58303128 4.05411124 14.16728213 4.09372278 11.75 4.125 C11.06808594 4.14175781 10.38617188 4.15851563 9.68359375 4.17578125 C5.9391765 4.21213482 3.17647273 4.07944349 0 2 C0 1.34 0 0.68 0 0 Z " transform="translate(119,193)" style="fill: #605A57;"/><path d="M0 0 C-0.33 0.99 -0.66 1.98 -1 3 C-5.85729645 3.97299156 -10.4500625 4.12038805 -15.375 4.0625 C-16.11105469 4.05798828 -16.84710938 4.05347656 -17.60546875 4.04882812 C-19.40368158 4.03715142 -21.20185197 4.01922011 -23 4 C-23 3.67 -23 3.34 -23 3 C-19.54199242 2.49772952 -16.08354301 1.99856919 -12.625 1.5 C-11.64015625 1.35691406 -10.6553125 1.21382813 -9.640625 1.06640625 C-8.69960937 0.93105469 -7.75859375 0.79570313 -6.7890625 0.65625 C-5.91975098 0.53056641 -5.05043945 0.40488281 -4.15478516 0.27539062 C-2 0 -2 0 0 0 Z " transform="translate(213,76)" style="fill: #E5E5E3;"/><path d="M0 0 C1.32 0 2.64 0 4 0 C3.67 3.63 3.34 7.26 3 11 C2.01 11 1.02 11 0 11 C0 7.37 0 3.74 0 0 Z " transform="translate(693,95)" style="fill: #68685D;"/><path d="M0 0 C0.99 0 1.98 0 3 0 C3 3.96 3 7.92 3 12 C2.01 12 1.02 12 0 12 C0 8.04 0 4.08 0 0 Z " transform="translate(720,193)" style="fill: #647286;"/><path d="M0 0 C0.66 0.33 1.32 0.66 2 1 C2 6.61 2 12.22 2 18 C1.67 18 1.34 18 1 18 C-1.3938068 5.98821945 -1.3938068 5.98821945 -1 1 C-0.67 0.67 -0.34 0.34 0 0 Z " transform="translate(68,151)" style="fill: #D0C2BA;"/><path d="M0 0 C0.99 0 1.98 0 3 0 C3 3.96 3 7.92 3 12 C2.01 12 1.02 12 0 12 C0 8.04 0 4.08 0 0 Z " transform="translate(720,91)" style="fill: #4D5A6C;"/><path d="M0 0 C5.61 0 11.22 0 17 0 C17 0.99 17 1.98 17 3 C15.10388566 2.85786703 13.20811606 2.71113093 11.3125 2.5625 C10.25675781 2.48128906 9.20101562 2.40007812 8.11328125 2.31640625 C5.34913703 2.03548319 2.71054259 1.59843148 0 1 C0 0.67 0 0.34 0 0 Z " transform="translate(144,201)" style="fill: #9A9593;"/><path d="M0 0 C0 0.99 0 1.98 0 3 C-6.27 3 -12.54 3 -19 3 C-19 2.67 -19 2.34 -19 2 C-16.77149723 1.66225668 -14.54216533 1.3299813 -12.3125 1 C-10.45044922 0.7215625 -10.45044922 0.7215625 -8.55078125 0.4375 C-5.64113629 0.07899589 -2.92299978 -0.08942256 0 0 Z " transform="translate(184,81)" style="fill: #ECECEB;"/><path d="M0 0 C1.65 0 3.3 0 5 0 C5 2.31 5 4.62 5 7 C3.35 7 1.7 7 0 7 C0 4.69 0 2.38 0 0 Z " transform="translate(715,69)" style="fill: #5B626E;"/><path d="M0 0 C6.6 0 13.2 0 20 0 C20 0.99 20 1.98 20 3 C13.4 2.34 6.8 1.68 0 1 C0 0.67 0 0.34 0 0 Z " transform="translate(413,235)" style="fill: #AEAAAA;"/><path d="M0 0 C0.99 0 1.98 0 3 0 C3 3.63 3 7.26 3 11 C2.01 11 1.02 11 0 11 C0 7.37 0 3.74 0 0 Z " transform="translate(67,125)" style="fill: #BCAB9F;"/><path d="M0 0 C0.99 0 1.98 0 3 0 C3 3.96 3 7.92 3 12 C2.01 11.67 1.02 11.34 0 11 C0 7.37 0 3.74 0 0 Z " transform="translate(720,103)" style="fill: #283448;"/><path d="M0 0 C1.63001953 0.01353516 1.63001953 0.01353516 3.29296875 0.02734375 C4.12441406 0.03894531 4.95585937 0.05054687 5.8125 0.0625 C5.8125 0.3925 5.8125 0.7225 5.8125 1.0625 C3.1725 1.0625 0.5325 1.0625 -2.1875 1.0625 C-2.1875 1.7225 -2.1875 2.3825 -2.1875 3.0625 C-4.93828884 3.97942961 -6.54698913 4.17136083 -9.375 4.125 C-11.2621875 4.0940625 -11.2621875 4.0940625 -13.1875 4.0625 C-11.8675 3.7325 -10.5475 3.4025 -9.1875 3.0625 C-9.1875 2.4025 -9.1875 1.7425 -9.1875 1.0625 C-5.90230525 -0.03256492 -3.45086585 -0.03710608 0 0 Z " transform="translate(325.1875,64.9375)" style="fill: #BAB9B8;"/><path d="M0 0 C6.27 0 12.54 0 19 0 C18.67 0.99 18.34 1.98 18 3 C12.06 2.34 6.12 1.68 0 1 C0 0.67 0 0.34 0 0 Z " transform="translate(373,231)" style="fill: #AEA9A7;"/><path d="M0 0 C0.33 0 0.66 0 1 0 C1.66 6.27 2.32 12.54 3 19 C2.01 19 1.02 19 0 19 C0 12.73 0 6.46 0 0 Z " transform="translate(724,84)" style="fill: #D8E3F1;"/><path d="M0 0 C0 2.97 0 5.94 0 9 C-1.32 9 -2.64 9 -4 9 C-4 6.36 -4 3.72 -4 1 C-1 0 -1 0 0 0 Z " transform="translate(701,79)" style="fill: #5C564E;"/><path d="M0 0 C2.31 0 4.62 0 7 0 C7.33 1.32 7.66 2.64 8 4 C4.71023192 5.09658936 3.28696233 4.79953138 0 4 C0 2.68 0 1.36 0 0 Z " transform="translate(184,80)" style="fill: #C8C8C5;"/><path d="M0 0 C5.28 0 10.56 0 16 0 C16 0.99 16 1.98 16 3 C14.27054347 2.85764543 12.54144346 2.71095618 10.8125 2.5625 C9.36810547 2.44068359 9.36810547 2.44068359 7.89453125 2.31640625 C5.21350398 2.02333849 2.6337014 1.57296246 0 1 C0 0.67 0 0.34 0 0 Z " transform="translate(247,216)" style="fill: #A19C9B;"/><path d="M0 0 C1.32 0 2.64 0 4 0 C4 2.64 4 5.28 4 8 C2.68 8 1.36 8 0 8 C0 5.36 0 2.72 0 0 Z " transform="translate(716,212)" style="fill: #6D7889;"/><path d="M0 0 C1.32 0 2.64 0 4 0 C4 0.99 4 1.98 4 3 C3.01 3 2.02 3 1 3 C1 4.32 1 5.64 1 7 C-0.65 7 -2.3 7 -4 7 C-4 5.68 -4 4.36 -4 3 C-2.68 3 -1.36 3 0 3 C0 2.01 0 1.02 0 0 Z " transform="translate(74,107)" style="fill: #A89184;"/><path d="M0 0 C2.31 0 4.62 0 7 0 C7 0.99 7 1.98 7 3 C3.85069107 4.04976964 1.61185544 4.10131595 -1.6875 4.0625 C-2.68136719 4.05347656 -3.67523438 4.04445313 -4.69921875 4.03515625 C-5.83810547 4.01775391 -5.83810547 4.01775391 -7 4 C-7 3.67 -7 3.34 -7 3 C-4.69 3 -2.38 3 0 3 C0 2.01 0 1.02 0 0 Z " transform="translate(161,84)" style="fill: #C8C6C4;"/><path d="M0 0 C1.32 0 2.64 0 4 0 C4 2.64 4 5.28 4 8 C2.68 8 1.36 8 0 8 C0 5.36 0 2.72 0 0 Z " transform="translate(716,61)" style="fill: #9DA7B4;"/><path d="M0 0 C3.63 0 7.26 0 11 0 C11 1.32 11 2.64 11 4 C8.36 3.67 5.72 3.34 3 3 C3 2.34 3 1.68 3 1 C2.01 0.67 1.02 0.34 0 0 Z " transform="translate(218,208)" style="fill: #4B4A48;"/><path d="M0 0 C5.28 0 10.56 0 16 0 C16 0.99 16 1.98 16 3 C10.72 2.34 5.44 1.68 0 1 C0 0.67 0 0.34 0 0 Z " transform="translate(171,205)" style="fill: #8F8C88;"/><path d="M0 0 C2.64 0 5.28 0 8 0 C8 0.99 8 1.98 8 3 C8.99 3.33 9.98 3.66 11 4 C7.37 3.67 3.74 3.34 0 3 C0 2.01 0 1.02 0 0 Z " transform="translate(263,216)" style="fill: #6B6766;"/><path d="M0 0 C3.3 0 6.6 0 10 0 C9.67 0.99 9.34 1.98 9 3 C5.7 3 2.4 3 -1 3 C-0.67 2.01 -0.34 1.02 0 0 Z " transform="translate(193,95)" style="fill: #666669;"/><path d="M0 0 C0.33 2.97 0.66 5.94 1 9 C-0.32 9 -1.64 9 -3 9 C-3 6.36 -3 3.72 -3 1 C-1 0 -1 0 0 0 Z " transform="translate(696,177)" style="fill: #4E4F47;"/><path d="M0 0 C1.32 0 2.64 0 4 0 C4 2.31 4 4.62 4 7 C2.68 7 1.36 7 0 7 C0 4.69 0 2.38 0 0 Z " transform="translate(712,224)" style="fill: #737D8F;"/><path d="M0 0 C1.32 0 2.64 0 4 0 C4 2.31 4 4.62 4 7 C2.68 7 1.36 7 0 7 C0 4.69 0 2.38 0 0 Z " transform="translate(716,205)" style="fill: #636B78;"/><path d="M0 0 C2.31 0 4.62 0 7 0 C7 1.32 7 2.64 7 4 C8.32 4 9.64 4 11 4 C10.67 4.99 10.34 5.98 10 7 C8.33073546 6.02526874 6.66464358 5.04510211 5 4.0625 C4.071875 3.51722656 3.14375 2.97195312 2.1875 2.41015625 C1.465625 1.94480469 0.74375 1.47945312 0 1 C0 0.67 0 0.34 0 0 Z " transform="translate(78,182)" style="fill: #84736B;"/><path d="M0 0 C0.33 0 0.66 0 1 0 C1 3.96 1 7.92 1 12 C1.99 12 2.98 12 4 12 C4 13.32 4 14.64 4 16 C2.68 16 1.36 16 0 16 C0 10.72 0 5.44 0 0 Z " transform="translate(70,155)" style="fill: #755E54;"/><path d="M0 0 C1.32 0 2.64 0 4 0 C4 2.31 4 4.62 4 7 C2.68 7 1.36 7 0 7 C0 4.69 0 2.38 0 0 Z " transform="translate(697,88)" style="fill: #342F26;"/><path d="M0 0 C2.31 0 4.62 0 7 0 C7 1.32 7 2.64 7 4 C4.69 4 2.38 4 0 4 C0 2.68 0 1.36 0 0 Z " transform="translate(705,61)" style="fill: #5C5857;"/><path d="M0 0 C0.97582031 0.00902344 1.95164062 0.01804687 2.95703125 0.02734375 C3.69308594 0.03894531 4.42914063 0.05054687 5.1875 0.0625 C5.1875 0.3925 5.1875 0.7225 5.1875 1.0625 C2.5475 1.0625 -0.0925 1.0625 -2.8125 1.0625 C-2.8125 1.7225 -2.8125 2.3825 -2.8125 3.0625 C-5.4525 3.0625 -8.0925 3.0625 -10.8125 3.0625 C-10.8125 2.4025 -10.8125 1.7425 -10.8125 1.0625 C-7.13862505 0.20951624 -3.7677607 -0.04539471 0 0 Z " transform="translate(322.8125,83.9375)" style="fill: #6E6F72;"/><path d="M0 0 C2.64 0.33 5.28 0.66 8 1 C8 1.66 8 2.32 8 3 C9.32 3.33 10.64 3.66 12 4 C10.741875 4.020625 9.48375 4.04125 8.1875 4.0625 C7.47980469 4.07410156 6.77210938 4.08570313 6.04296875 4.09765625 C4 4 4 4 1 3 C0.67 2.01 0.34 1.02 0 0 Z " transform="translate(357,227)" style="fill: #787170;"/><path d="M0 0 C4.62 0 9.24 0 14 0 C14 0.99 14 1.98 14 3 C9.38 2.34 4.76 1.68 0 1 C0 0.67 0 0.34 0 0 Z " transform="translate(219,212)" style="fill: #A8A7A6;"/><path d="M0 0 C2.64 0.33 5.28 0.66 8 1 C8 1.99 8 2.98 8 4 C5.36 4.33 2.72 4.66 0 5 C0 3.35 0 1.7 0 0 Z " transform="translate(712,185)" style="fill: #43444B;"/><path d="M0 0 C0.33 0 0.66 0 1 0 C1.08090971 1.62418745 1.13914995 3.24951745 1.1875 4.875 C1.22230469 5.77992188 1.25710938 6.68484375 1.29296875 7.6171875 C1.19628906 8.40351563 1.09960938 9.18984375 1 10 C-0.485 10.99 -0.485 10.99 -2 12 C-2.28571429 3.42857143 -2.28571429 3.42857143 0 0 Z " transform="translate(722,134)" style="fill: #1C273D;"/><path d="M0 0 C1.32 0 2.64 0 4 0 C3.67 2.31 3.34 4.62 3 7 C2.01 7 1.02 7 0 7 C0 4.69 0 2.38 0 0 Z " transform="translate(712,201)" style="fill: #42474F;"/><path d="M0 0 C0 2.97 0 5.94 0 9 C-0.99 9 -1.98 9 -3 9 C-3 6.36 -3 3.72 -3 1 C-1 0 -1 0 0 0 Z " transform="translate(712,192)" style="fill: #303033;"/><path d="M0 0 C0.99 0 1.98 0 3 0 C3 2.97 3 5.94 3 9 C2.34 9 1.68 9 1 9 C-0.4783226 6.04335481 -0.06032783 3.25770263 0 0 Z " transform="translate(724,186)" style="fill: #97A6BB;"/><path d="M0 0 C0.99 0 1.98 0 3 0 C3 2.64 3 5.28 3 8 C2.01 8 1.02 8 0 8 C-1.125 2.25 -1.125 2.25 0 0 Z " transform="translate(720,178)" style="fill: #313C52;"/><path d="M0 0 C2.31 0 4.62 0 7 0 C5.9375 2 5.9375 2 4 4 C0.3125 4.25 0.3125 4.25 -3 4 C-2.01 3.67 -1.02 3.34 0 3 C0 2.01 0 1.02 0 0 Z " transform="translate(78,107)" style="fill: #63564E;"/><path d="M0 0 C0.33 0 0.66 0 1 0 C1 2.64 1 5.28 1 8 C0.01 8 -0.98 8 -2 8 C-2.33 8.99 -2.66 9.98 -3 11 C-3 8.69 -3 6.38 -3 4 C-2.01 3.67 -1.02 3.34 0 3 C0 2.01 0 1.02 0 0 Z " transform="translate(704,65)" style="fill: #50483F;"/><path d="M0 0 C3.63 0 7.26 0 11 0 C11 0.33 11 0.66 11 1 C9.865625 1.12375 8.73125 1.2475 7.5625 1.375 C5.7990625 1.684375 5.7990625 1.684375 4 2 C3.67 2.66 3.34 3.32 3 4 C0.69 4 -1.62 4 -4 4 C-2.68 3.67 -1.36 3.34 0 3 C0 2.01 0 1.02 0 0 Z " transform="translate(301,65)" style="fill: #D3D2D2;"/><path d="M0 0 C2.64 0 5.28 0 8 0 C8 0.99 8 1.98 8 3 C5.36 3 2.72 3 0 3 C0 2.01 0 1.02 0 0 Z " transform="translate(240,212)" style="fill: #5A5756;"/><path d="M0 0 C0.99 0 1.98 0 3 0 C3 2.64 3 5.28 3 8 C2.01 8 1.02 8 0 8 C0 5.36 0 2.72 0 0 Z " transform="translate(71,159)" style="fill: #624B3E;"/><path d="M0 0 C1.98 0 3.96 0 6 0 C6 1.32 6 2.64 6 4 C4.02 4 2.04 4 0 4 C0 2.68 0 1.36 0 0 Z " transform="translate(82,99)" style="fill: #AEA5A1;"/><path d="M0 0 C0 0.99 0 1.98 0 3 C-5.94 3.495 -5.94 3.495 -12 4 C-8.74358283 0.74358283 -4.52301031 0 0 0 Z " transform="translate(93,95)" style="fill: #EBE8E6;"/><path d="M0 0 C0.99 0 1.98 0 3 0 C3.1875 3.375 3.1875 3.375 3 7 C1.515 7.99 1.515 7.99 0 9 C0 6.03 0 3.06 0 0 Z " transform="translate(705,65)" style="fill: #2B251F;"/><path d="M0 0 C0.99 0 1.98 0 3 0 C3 2.64 3 5.28 3 8 C2.01 8 1.02 8 0 8 C0 5.36 0 2.72 0 0 Z " transform="translate(720,208)" style="fill: #9CA9B7;"/><path d="M0 0 C2.09350689 3.4019487 2.17942163 6.05272412 2 10 C1.01 9.67 0.02 9.34 -1 9 C-1.09765625 2.84765625 -1.09765625 2.84765625 -1 1 C-0.67 0.67 -0.34 0.34 0 0 Z " transform="translate(725,161)" style="fill: #5F697F;"/><path d="M0 0 C0.33 0 0.66 0 1 0 C1 3.96 1 7.92 1 12 C0.01 12 -0.98 12 -2 12 C-1.44687265 7.97007218 -0.8441938 3.97977076 0 0 Z " transform="translate(69,110)" style="fill: #EEDECF;"/><path d="M0 0 C2.31 0 4.62 0 7 0 C7 0.99 7 1.98 7 3 C4.36 3 1.72 3 -1 3 C-0.67 2.01 -0.34 1.02 0 0 Z " transform="translate(132,88)" style="fill: #D6D5D3;"/><path d="M0 0 C2.31 0 4.62 0 7 0 C7.33 0.99 7.66 1.98 8 3 C5.36 3 2.72 3 0 3 C0 2.01 0 1.02 0 0 Z " transform="translate(244,73)" style="fill: #C4C3C0;"/><path d="M0 0 C1.65 0 3.3 0 5 0 C4.34 1.32 3.68 2.64 3 4 C0.03 4 -2.94 4 -6 4 C-6 3.67 -6 3.34 -6 3 C-5.195625 2.87625 -4.39125 2.7525 -3.5625 2.625 C-2.716875 2.41875 -1.87125 2.2125 -1 2 C-0.67 1.34 -0.34 0.68 0 0 Z " transform="translate(570,50)" style="fill: #A4A3A0;"/><path d="M0 0 C0 0.66 0 1.32 0 2 C-3.63 2 -7.26 2 -11 2 C-11 1.34 -11 0.68 -11 0 C-3.375 -1.125 -3.375 -1.125 0 0 Z " transform="translate(689,44)" style="fill: #DCDCDB;"/><path d="M0 0 C1.32 0 2.64 0 4 0 C2.74874616 3.75376152 1.4347596 4.24073289 -2 6 C-2.66 6 -3.32 6 -4 6 C-4 5.01 -4 4.02 -4 3 C-2.68 3 -1.36 3 0 3 C0 2.01 0 1.02 0 0 Z " transform="translate(712,239)" style="fill: #BCBCC7;"/><path d="M0 0 C2.31 0 4.62 0 7 0 C7 0.99 7 1.98 7 3 C4.36 3 1.72 3 -1 3 C-0.67 2.01 -0.34 1.02 0 0 Z " transform="translate(373,227)" style="fill: #4E4947;"/><path d="M0 0 C2.97 0 5.94 0 9 0 C8.67 0.66 8.34 1.32 8 2 C5.35139573 2.59355614 2.70802678 2.74209269 0 3 C0 2.01 0 1.02 0 0 Z " transform="translate(304,220)" style="fill: #4C4748;"/><path d="M0 0 C5.66153846 2.46153846 5.66153846 2.46153846 7.375 5.1875 C7.58125 5.785625 7.7875 6.38375 8 7 C6.68 7 5.36 7 4 7 C4 5.68 4 4.36 4 3 C2.68 3 1.36 3 0 3 C0 2.01 0 1.02 0 0 Z " transform="translate(708,43)" style="fill: #DDDEDF;"/><path d="M0 0 C1.32 0 2.64 0 4 0 C2.25 5.75 2.25 5.75 0 8 C0 5.36 0 2.72 0 0 Z " transform="translate(716,231)" style="fill: #D3DCE8;"/><path d="M0 0 C0.99 0 1.98 0 3 0 C3 2.64 3 5.28 3 8 C2.34 8 1.68 8 1 8 C-0.35439668 5.29120665 -0.06501451 2.99066732 0 0 Z " transform="translate(693,208)" style="fill: #383836;"/><path d="M0 0 C2.64 0 5.28 0 8 0 C8.33 0.66 8.66 1.32 9 2 C4.545 2.495 4.545 2.495 0 3 C0 2.01 0 1.02 0 0 Z " transform="translate(168,201)" style="fill: #504B48;"/><path d="M0 0 C0.99 0 1.98 0 3 0 C3 2.31 3 4.62 3 7 C2.01 7 1.02 7 0 7 C0 4.69 0 2.38 0 0 Z " transform="translate(709,201)" style="fill: #25282C;"/><path d="M0 0 C0.99 0 1.98 0 3 0 C3 2.31 3 4.62 3 7 C2.01 7 1.02 7 0 7 C0 4.69 0 2.38 0 0 Z " transform="translate(720,171)" style="fill: #454D67;"/><path d="M0 0 C0 0.66 0 1.32 0 2 C-4.62 2 -9.24 2 -14 2 C-14 1.67 -14 1.34 -14 1 C-12.04310963 0.63794536 -10.08442332 0.28558579 -8.125 -0.0625 C-7.03445312 -0.25972656 -5.94390625 -0.45695312 -4.8203125 -0.66015625 C-2 -1 -2 -1 0 0 Z " transform="translate(108,93)" style="fill: #F8F8F6;"/><path d="M0 0 C2.31 0 4.62 0 7 0 C7 0.99 7 1.98 7 3 C4.69 3 2.38 3 0 3 C0 2.01 0 1.02 0 0 Z " transform="translate(297,69)" style="fill: #A8A4A5;"/><path d="M0 0 C2.31 0 4.62 0 7 0 C7 0.99 7 1.98 7 3 C4.69 3 2.38 3 0 3 C0 2.01 0 1.02 0 0 Z " transform="translate(267,69)" style="fill: #D4D3D3;"/><path d="M0 0 C0.99 0 1.98 0 3 0 C2.67 0.99 2.34 1.98 2 3 C-2.62 3.33 -7.24 3.66 -12 4 C-12 3.34 -12 2.68 -12 2 C-8.04 2 -4.08 2 0 2 C0 1.34 0 0.68 0 0 Z " transform="translate(392,58)" style="fill: #BFBDBD;"/><path d="M0 0 C-0.33 1.32 -0.66 2.64 -1 4 C-2.65 4 -4.3 4 -6 4 C-6 3.01 -6 2.02 -6 1 C-3 0 -3 0 0 0 Z " transform="translate(708,242)" style="fill: #858589;"/><path d="M0 0 C0.33 0.99 0.66 1.98 1 3 C1.99 2.67 2.98 2.34 4 2 C4 3.65 4 5.3 4 7 C2.68 7 1.36 7 0 7 C0 4.69 0 2.38 0 0 Z " transform="translate(693,194)" style="fill: #4F4F48;"/><path d="M0 0 C0.99 0.33 1.98 0.66 3 1 C3 1.99 3 2.98 3 4 C0.69 4.66 -1.62 5.32 -4 6 C-4 4 -4 4 -2 1.875 C-1.34 1.25625 -0.68 0.6375 0 0 Z " transform="translate(716,170)" style="fill: #3B3B42;"/><path d="M0 0 C1.32 0 2.64 0 4 0 C4 1.32 4 2.64 4 4 C3.01 4 2.02 4 1 4 C0.67 5.32 0.34 6.64 0 8 C0 5.36 0 2.72 0 0 Z " transform="translate(70,114)" style="fill: #836A5C;"/><path d="M0 0 C2.31 0 4.62 0 7 0 C7 0.99 7 1.98 7 3 C4.69 3 2.38 3 0 3 C0 2.01 0 1.02 0 0 Z " transform="translate(112,92)" style="fill: #CDCCCA;"/><path d="M0 0 C1.32 0 2.64 0 4 0 C4 2.64 4 5.28 4 8 C3.67 6.68 3.34 5.36 3 4 C2.01 4 1.02 4 0 4 C0 2.68 0 1.36 0 0 Z " transform="translate(720,76)" style="fill: #BAC5CE;"/><path d="M0 0 C1.32 0 2.64 0 4 0 C4 2.64 4 5.28 4 8 C3.67 6.68 3.34 5.36 3 4 C2.01 4 1.02 4 0 4 C0 2.68 0 1.36 0 0 Z " transform="translate(712,61)" style="fill: #707682;"/><path d="M0 0 C0.99 0 1.98 0 3 0 C2.34 3.3 1.68 6.6 1 10 C0.67 10 0.34 10 0 10 C0 6.7 0 3.4 0 0 Z " transform="translate(720,220)" style="fill: #DAE3ED;"/><path d="M0 0 C0 2.31 0 4.62 0 7 C-0.99 7 -1.98 7 -3 7 C-3 5.02 -3 3.04 -3 1 C-1 0 -1 0 0 0 Z " transform="translate(723,163)" style="fill: #232B40;"/><path d="M0 0 C0.99 0 1.98 0 3 0 C2.67 2.64 2.34 5.28 2 8 C1.34 8 0.68 8 0 8 C0 5.36 0 2.72 0 0 Z " transform="translate(724,114)" style="fill: #838DA1;"/><path d="M0 0 C2.375 -0.1875 2.375 -0.1875 5 0 C5.66 0.99 6.32 1.98 7 3 C4.36 3 1.72 3 -1 3 C-0.67 2.01 -0.34 1.02 0 0 Z " transform="translate(490,239)" style="fill: #676766;"/><path d="M0 0 C2.31 0 4.62 0 7 0 C6.67 0.99 6.34 1.98 6 3 C3.03 2.505 3.03 2.505 0 2 C0 1.34 0 0.68 0 0 Z " transform="translate(290,220)" style="fill: #7A7574;"/><path d="M0 0 C-0.99 0.33 -1.98 0.66 -3 1 C-3 1.66 -3 2.32 -3 3 C-5.31 2.67 -7.62 2.34 -10 2 C-6.3558226 -0.4294516 -4.28758728 -0.16179575 0 0 Z " transform="translate(107,95)" style="fill: #B3B3B1;"/><path d="M0 0 C1.32 0 2.64 0 4 0 C3.67 0.99 3.34 1.98 3 3 C-0.3 3 -3.6 3 -7 3 C-7 2.67 -7 2.34 -7 2 C-4.69 2 -2.38 2 0 2 C0 1.34 0 0.68 0 0 Z " transform="translate(221,77)" style="fill: #B9B8B7;"/><path d="M0 0 C0 0.99 0 1.98 0 3 C-2.31 3 -4.62 3 -7 3 C-7 2.34 -7 1.68 -7 1 C-4 0 -4 0 0 0 Z " transform="translate(240,73)" style="fill: #DBD9DA;"/><path d="M0 0 C2.64 0 5.28 0 8 0 C7.67 0.99 7.34 1.98 7 3 C4.69 2.67 2.38 2.34 0 2 C0 1.34 0 0.68 0 0 Z " transform="translate(471,239)" style="fill: #939090;"/><path d="M0 0 C0 1.65 0 3.3 0 5 C-1.65 5 -3.3 5 -5 5 C-2.74193548 0 -2.74193548 0 0 0 Z " transform="translate(693,83)" style="fill: #5F5955;"/><path d="M0 0 C-0.99 1.485 -0.99 1.485 -2 3 C-5.625 3.1875 -5.625 3.1875 -9 3 C-6.38997624 -0.48003168 -4.1689578 -0.27793052 0 0 Z " transform="translate(370,58)" style="fill: #DCD9D7;"/><path d="M0 0 C2 1 2 1 3.125 4.0625 C3.41375 5.031875 3.7025 6.00125 4 7 C2.68 7 1.36 7 0 7 C0 4.69 0 2.38 0 0 Z " transform="translate(716,50)" style="fill: #EBF1F8;"/><path d="M0 0 C1.32 0 2.64 0 4 0 C4 2.31 4 4.62 4 7 C3.67 5.68 3.34 4.36 3 3 C2.01 3.33 1.02 3.66 0 4 C0 2.68 0 1.36 0 0 Z " transform="translate(712,54)" style="fill: #90969F;"/></svg>