<?xml version="1.0" encoding="UTF-8"?>
<!-- Generator: visioncortex VTracer -->
<svg id="svg" version="1.1" xmlns="http://www.w3.org/2000/svg" style="display: block;" viewBox="0 0 1020 100"><path d="M0 0 C1.23801991 0.0006439 2.47603981 0.0012878 3.75157547 0.00195122 C5.11931728 0.00828452 6.4870579 0.01487647 7.85479736 0.021698 C9.32244187 0.02554224 10.79008692 0.02918369 12.25773239 0.03264046 C26.75053682 0.07759044 41.24224102 0.25898804 55.73398376 0.42953026 C131.40496706 1.31759015 207.07574961 1.26881653 282.7507965 1.2444205 C296.7991382 1.23998237 310.84747145 1.24075026 324.89581299 1.24533081 C403.78864929 1.27036011 482.67561406 1.16260033 561.56617264 0.53620742 C569.44281146 0.47367823 577.3194545 0.41171758 585.19610596 0.35079956 C585.89567998 0.34538146 586.595254 0.33996336 587.31602724 0.33438107 C634.03234059 -0.02614265 680.7492321 -0.10707695 727.46681631 -0.12386739 C740.01494863 -0.12846494 752.56298881 -0.14393688 765.11108846 -0.17063418 C776.32872208 -0.19429569 787.54632408 -0.20654444 798.76398653 -0.2079761 C804.94533436 -0.20901426 811.12658547 -0.21473135 817.30790901 -0.23279572 C822.99208985 -0.24914823 828.67609847 -0.25149572 834.36029434 -0.24265671 C836.43368048 -0.24188443 838.50707579 -0.24625405 840.58043861 -0.25611496 C843.40017376 -0.26875479 846.21928663 -0.2630065 849.03901672 -0.25253296 C849.85752816 -0.26058936 850.67603959 -0.26864577 851.5193544 -0.27694631 C856.10870736 -0.23688471 859.13125212 0.22357322 862.75811768 3.11495972 C867.06644844 9.65173742 866.20565666 17.56704263 865.75811768 25.11495972 C865.24249268 27.57199097 865.24249268 27.57199097 864.75811768 29.11495972 C864.09811768 29.11495972 863.43811768 29.11495972 862.75811768 29.11495972 C862.48999268 29.75433472 862.22186768 30.39370972 861.94561768 31.05245972 C860.75811768 33.11495972 860.75811768 33.11495972 857.75811768 34.11495972 C850.75423745 35.04884225 843.75318495 35.25615125 836.69723511 35.21907043 C835.73102667 35.21816898 834.76481822 35.21726753 833.76933074 35.21633875 C830.50726397 35.21204735 827.24526405 35.20044437 823.98321533 35.18893433 C821.57322585 35.18422438 819.16323543 35.17997619 816.7532444 35.17613888 C811.37662502 35.1665911 806.00002617 35.15383148 800.62342072 35.1386528 C792.09222175 35.11472812 783.56101668 35.09859107 775.02979805 35.08354809 C752.7556006 35.04403149 730.48143488 34.99215672 708.20726722 34.938687 C705.13602559 34.9313167 702.0647839 34.92397187 698.99354219 34.91663241 C679.6795682 34.87044458 660.36559557 34.82370819 641.05162621 34.77562046 C636.63054786 34.76462139 632.2094695 34.75362886 627.78839111 34.74264526 C626.6904034 34.73991696 625.59241568 34.73718865 624.46115561 34.73437767 C606.75529926 34.69046989 589.04943711 34.64973424 571.34357028 34.6103071 C552.92785872 34.56924025 534.5121565 34.52504751 516.09645903 34.47808117 C505.85248058 34.45203004 495.60850295 34.4271758 485.3645134 34.4058857 C473.86858604 34.38179584 462.37267362 34.3539188 450.87677002 34.32028198 C449.95091614 34.31757523 449.02506226 34.31486848 448.0711522 34.31207971 C418.85847515 34.22425511 389.65107584 33.94727576 360.44083627 33.56881462 C325.73023893 33.11978732 291.02591489 32.96434888 256.31264403 32.97965996 C250.83579547 32.98200809 245.35894999 32.98220366 239.88210106 32.98114395 C239.0810143 32.98099072 238.27992755 32.98083749 237.45456543 32.98067961 C235.8245863 32.98035972 234.19460716 32.9800355 232.56462803 32.97970702 C217.63123882 32.97692005 202.69785596 32.98003692 187.7644678 32.98550738 C174.98394635 32.99004283 162.20343392 32.98913229 149.4229126 32.98458862 C134.38726425 32.97924538 119.35162119 32.97711927 104.31597203 32.98020089 C102.71978994 32.98051933 101.12360785 32.98083371 99.52742577 32.98114395 C98.35063237 32.98137536 98.35063237 32.98137536 97.15006537 32.98161145 C91.64468757 32.98247199 86.13931319 32.9810253 80.63393593 32.9786644 C73.98220284 32.97587238 67.33048156 32.97659498 60.67874984 32.98194514 C57.29368423 32.98457897 53.9086384 32.9855915 50.52357292 32.98229599 C46.86571654 32.97958586 43.20791681 32.98296278 39.55006409 32.98797607 C38.4738221 32.98574535 37.39758011 32.98351463 36.28872472 32.98121631 C35.31652712 32.98382406 34.34432953 32.98643181 33.34267139 32.98911858 C32.07782814 32.9893621 32.07782814 32.9893621 30.78743249 32.98961055 C28.68923757 32.98639147 28.68923757 32.98639147 26.75811768 34.11495972 C24.30873626 34.21739387 21.89496406 34.25658988 19.44561768 34.23995972 C18.7059375 34.23512573 17.96625732 34.23029175 17.2041626 34.22531128 C14.72186719 34.19963325 12.24015822 34.15870021 9.75811768 34.11495972 C8.39155029 34.09610718 8.39155029 34.09610718 6.99737549 34.07687378 C4.18736294 34.02927937 1.37968305 33.95134693 -1.42938232 33.86495972 C-2.75546509 33.84393188 -2.75546509 33.84393188 -4.1083374 33.82247925 C-9.68908109 33.60781472 -12.98228078 32.82381081 -17.24188232 29.11495972 C-17.24188232 28.45495972 -17.24188232 27.79495972 -17.24188232 27.11495972 C-17.80061035 27.12019653 -18.35933838 27.12543335 -18.93499756 27.13082886 C-21.51644727 27.1518769 -24.09787882 27.16470705 -26.67938232 27.17745972 C-27.55787842 27.18583862 -28.43637451 27.19421753 -29.3414917 27.20285034 C-34.27041725 27.22103826 -39.02454987 26.96644113 -43.91253662 26.35348511 C-47.43817625 25.99245902 -50.96125455 25.95495748 -54.50262451 25.87496948 C-76.93552268 25.31919948 -76.93552268 25.31919948 -86.24188232 19.11495972 C-86.42938232 16.48995972 -86.42938232 16.48995972 -86.24188232 14.11495972 C-83.16751535 12.94405467 -80.08119162 11.80828855 -76.99188232 10.67745972 C-76.13852295 10.35197144 -75.28516357 10.02648315 -74.40594482 9.69113159 C-61.53474219 5.03252467 -47.59053307 5.86582952 -34.06439209 5.78903198 C-31.76225711 5.77349801 -29.46159257 5.73332653 -27.15985107 5.68917847 C-26.46804245 5.69108688 -25.77623383 5.6929953 -25.0634613 5.69496155 C-21.35990796 5.60262857 -18.7455242 5.03435275 -15.62200928 3.14157104 C-10.55392873 0.10291907 -5.81527474 -0.01145545 0 0 Z " transform="translate(127.24188232421875,27.885040283203125)" style="fill: #DEDDDD;"/><path d="M0 0 C135.96 0 271.92 0 412 0 C412 9.24 412 18.48 412 28 C406.72 28 401.44 28 396 28 C396 27.34 396 26.68 396 26 C394.96834497 26.73068288 394.96834497 26.73068288 393.91584843 27.47612703 C390.4503694 29.28724648 388.24341289 29.37745941 384.34642506 29.38196754 C383.68785441 29.38681785 383.02928377 29.39166816 382.35075644 29.39666545 C380.14036372 29.40929523 377.93057375 29.40057688 375.72016907 29.39199829 C374.12097715 29.39672071 372.52178866 29.40275925 370.92260617 29.41000211 C366.52530255 29.42611917 362.12817542 29.42359037 357.73085296 29.41808081 C352.98986693 29.41540326 348.24893089 29.4299824 343.50796509 29.44252014 C335.29252144 29.46192082 327.07712373 29.47048296 318.8616581 29.47182083 C306.98126245 29.47385823 295.10094491 29.49330741 283.22057547 29.51721875 C263.94320109 29.55563671 244.66583199 29.58143854 225.38842773 29.59863281 C206.66576394 29.61537265 187.94311165 29.63555258 169.22045898 29.66210938 C167.49017469 29.66455951 167.49017469 29.66455951 165.72493515 29.66705914 C153.14030406 29.68501467 140.55567568 29.70436001 127.97104931 29.72536278 C126.86607304 29.7272042 125.76109677 29.72904562 124.62263637 29.73094284 C120.20631294 29.73832132 115.78998954 29.74571478 111.37366643 29.75328664 C98.42615562 29.77545035 85.47865607 29.79324179 72.53112986 29.80323945 C64.41465755 29.80960741 56.29819341 29.81914592 48.18172757 29.83120801 C43.49295041 29.8380101 38.80418648 29.8430717 34.11540413 29.84379387 C29.82928957 29.84445886 25.54320538 29.84960173 21.25710001 29.85839514 C19.70069825 29.86075385 18.1442928 29.86139084 16.58788971 29.86019833 C14.48390664 29.85881103 12.38002365 29.86346458 10.27605152 29.86971474 C9.10390718 29.87074656 7.93176284 29.87177839 6.72409898 29.87284148 C4.03425424 29.81411392 4.03425424 29.81411392 2 31 C-0.44938142 31.10243416 -2.86315361 31.14163017 -5.3125 31.125 C-6.42202026 31.11774902 -6.42202026 31.11774902 -7.55395508 31.11035156 C-10.03625048 31.08467353 -12.51795946 31.0437405 -15 31 C-15.91104492 30.98743164 -16.82208984 30.97486328 -17.76074219 30.96191406 C-20.57075474 30.91431966 -23.37843463 30.83638721 -26.1875 30.75 C-27.07155518 30.73598145 -27.95561035 30.72196289 -28.86645508 30.70751953 C-34.44719877 30.49285501 -37.74039846 29.7088511 -42 26 C-42 25.34 -42 24.68 -42 24 C-42.55872803 24.00523682 -43.11745605 24.01047363 -43.69311523 24.01586914 C-46.27456494 24.03691719 -48.85599649 24.04974734 -51.4375 24.0625 C-52.31599609 24.07087891 -53.19449219 24.07925781 -54.09960938 24.08789062 C-59.02853493 24.10607854 -63.78266755 23.85148141 -68.6706543 23.23852539 C-72.19644705 22.87748362 -75.71971356 22.84004731 -79.26123047 22.75976562 C-103.84740163 22.15259837 -103.84740163 22.15259837 -109 17 C-109.04063832 15.33382885 -109.042721 13.66611905 -109 12 C-101.37909328 10.96550397 -93.89888496 10.8704657 -86.21484375 10.90234375 C-84.91801163 10.9037587 -83.6211795 10.90517365 -82.28504944 10.90663147 C-78.86729949 10.91041683 -75.44959325 10.92021223 -72.03186035 10.93133545 C-68.53231395 10.94163603 -65.03276037 10.94614746 -61.53320312 10.95117188 C-54.68878433 10.96183881 -47.84439427 10.9788663 -41 11 C-40.67 8.03 -40.34 5.06 -40 2 C-39.34 2 -38.68 2 -38 2 C-37.93941406 2.61488281 -37.87882812 3.22976562 -37.81640625 3.86328125 C-37.73261719 4.67152344 -37.64882812 5.47976562 -37.5625 6.3125 C-37.48128906 7.11300781 -37.40007812 7.91351563 -37.31640625 8.73828125 C-37.04734307 11.16087179 -37.04734307 11.16087179 -36 14 C-35.34 14 -34.68 14 -34 14 C-34 13.34 -34 12.68 -34 12 C-23.44 12 -12.88 12 -2 12 C-1.67 8.7 -1.34 5.4 -1 2 C-0.67 1.34 -0.34 0.68 0 0 Z " transform="translate(152,31)" style="fill: #302F31;"/></svg>