<?xml version="1.0" encoding="UTF-8"?>
<!-- Generator: visioncortex VTracer -->
<svg id="svg" version="1.1" xmlns="http://www.w3.org/2000/svg" style="display: block;" viewBox="0 0 715 58"><path d="M0 0 C3.39853048 -0.24954766 3.39853048 -0.24954766 7.02169037 -0.24888897 C8.40986827 -0.25348777 9.79804618 -0.25808656 11.22829008 -0.26282471 C12.7431338 -0.25768115 14.25797751 -0.25253759 15.81872559 -0.24723816 C17.43625496 -0.24965257 19.05378434 -0.25206699 20.72032976 -0.25455457 C25.20532687 -0.26096374 29.69023361 -0.25490292 34.17522478 -0.24679029 C39.01555194 -0.24020837 43.85586907 -0.24516323 48.69619751 -0.24867249 C58.18331802 -0.25371602 67.67040369 -0.24806863 77.15751988 -0.23882218 C88.22856168 -0.22842236 99.299596 -0.2285089 110.37064177 -0.22899476 C130.15497944 -0.22949565 149.93930097 -0.22033198 169.72363281 -0.20581055 C188.86491185 -0.19176857 208.00617667 -0.18463783 227.14746094 -0.18530273 C228.32289261 -0.18534269 229.49832427 -0.18538265 230.70937508 -0.18542381 C231.88288012 -0.18546417 233.05638516 -0.18550452 234.26545095 -0.1855461 C256.1068144 -0.18623949 277.94817186 -0.18031971 299.78953335 -0.17139288 C307.47900774 -0.16839657 315.16848102 -0.16731566 322.85795593 -0.16686058 C332.26729745 -0.16617199 341.67662891 -0.16162016 351.08596617 -0.15252777 C355.87353866 -0.14796845 360.66109845 -0.14484196 365.44867325 -0.14612198 C383.86511622 -0.14998054 402.25735462 -0.0242872 420.66387177 0.6446752 C430.45392212 1.00036619 440.21623701 1.12139951 450.01367188 1.06591797 C451.68174083 1.06068808 453.34981151 1.05598771 455.0178833 1.05175781 C458.52759972 1.04203922 462.03728518 1.02928862 465.54698181 1.01403427 C471.10459269 0.99044125 476.66220069 0.97752063 482.21984863 0.96633911 C497.9942703 0.93331364 513.76863373 0.89084088 529.54296875 0.82861328 C538.31749134 0.794088 547.09197532 0.77029118 555.86655855 0.75840485 C561.3867605 0.75034123 566.90670336 0.72919413 572.42682171 0.69819999 C576.64847916 0.67842815 580.87009502 0.67835749 585.09179688 0.67529297 C587.36543121 0.65675766 587.36543121 0.65675766 589.68499756 0.6378479 C591.08022644 0.64052673 592.47545532 0.64320557 593.91296387 0.64596558 C595.72334766 0.63986928 595.72334766 0.63986928 597.57030487 0.63364983 C598.70210426 0.75454538 599.83390366 0.87544094 601 1 C604.88043976 2.45962715 604.88043976 2.45962715 608 4 C608.33 4.33 608.66 4.66 609 5 C609.0813487 7.39526742 609.13934741 9.79133537 609.1875 12.1875 C609.22230469 13.52167969 609.25710938 14.85585938 609.29296875 16.23046875 C609.19628906 17.47441406 609.09960938 18.71835937 609 20 C607.48828125 22.98828125 607.48828125 22.98828125 606 25 C604.68 25.33 603.36 25.66 602 26 C599.83396789 26.09188563 597.66527926 26.1262832 595.49729919 26.12698364 C594.15214674 26.1298063 592.80699429 26.13262896 591.42107964 26.13553715 C589.20255366 26.13249655 589.20255366 26.13249655 586.93920898 26.12939453 C584.59271838 26.13198477 584.59271838 26.13198477 582.19882393 26.13462734 C577.87412431 26.13915117 573.54944794 26.13729973 569.2247479 26.13421178 C565.56153747 26.13233325 561.89833216 26.13397577 558.23512191 26.13566166 C547.36837832 26.14063457 536.50165198 26.13597126 525.63491058 26.12877274 C519.42874676 26.12473948 513.22258331 26.12291523 507.01641846 26.12130737 C459.63458002 26.10740708 412.25481517 26.04198771 364.875 25.5625 C363.81353256 25.55175949 362.75206512 25.54101898 361.65843201 25.529953 C356.20554207 25.47453069 350.75265844 25.41849485 345.29977417 25.36251831 C344.18474392 25.35109676 343.06971367 25.33967522 341.92089462 25.32790756 C339.64728588 25.30460657 337.37367799 25.28122241 335.10007095 25.25775528 C301.48959975 24.9132946 267.87803311 24.69665679 234.26649857 24.48625278 C232.30634815 24.4739819 230.34619775 24.46170843 228.38604736 24.44943237 C227.41834955 24.4433728 226.45065173 24.43731323 225.45362973 24.43107003 C218.66395314 24.38825003 211.87430186 24.34234545 205.08465576 24.29495239 C196.81003267 24.2372046 188.53539627 24.18302258 180.26071924 24.13357192 C175.98494085 24.10793151 171.70918948 24.08063109 167.4334507 24.04902077 C162.74560636 24.01531343 158.0577675 23.98803178 153.36987305 23.96240234 C151.99154737 23.95102517 150.6132217 23.939648 149.19312859 23.92792606 C147.92937464 23.92233394 146.66562069 23.91674181 145.36357117 23.91098022 C144.27220195 23.90398291 143.18083273 23.89698559 142.05639172 23.88977623 C138.95832405 24.00150297 136.04273369 24.42187631 133 25 C132.34 24.67 131.68 24.34 131 24 C121.40178938 23.58107938 111.7720667 24.0329051 102.17895508 24.41088867 C89.59548758 24.89646211 77.15914576 24.96564899 64.57983398 24.40429688 C56.24985622 24.06418796 47.94079047 23.96812519 39.60546875 24 C38.51435791 24.00378159 37.42324707 24.00756317 36.29907227 24.01145935 C30.82105632 24.0339831 25.34351825 24.0716389 19.86572266 24.12524414 C17.82324363 24.1371323 15.78076319 24.14877989 13.73828125 24.16015625 C12.8184697 24.17365112 11.89865814 24.187146 10.95097351 24.2010498 C7.24706538 24.2150514 3.69681072 24.10388576 0.02853394 23.55699158 C-1.84351444 23.21193859 -3.71276544 22.85104029 -5.57759094 22.46887207 C-8.8749672 21.83064475 -12.1494983 21.61483511 -15.5 21.4375 C-17.66838592 21.31996581 -19.8358538 21.17939633 -22 21 C-22.99 20.67 -23.98 20.34 -25 20 C-28.02020454 19.89635142 -31.0412505 19.81655782 -34.0625 19.75 C-37.41940173 19.63365446 -40.64916119 19.36350862 -44 19 C-47.4765625 17.82421875 -47.4765625 17.82421875 -50.1875 16.4375 C-51.445625 15.633125 -52.70375 14.82875 -54 14 C-53.67 13.01 -53.34 12.02 -53 11 C-50.69045448 9.30052311 -48.35471102 7.63632461 -46 6 C-45.01 5.67 -44.02 5.34 -43 5 C-40.36299464 4.73349414 -37.72125922 4.51303826 -35.078125 4.31640625 C-33.49515625 4.19330078 -31.9121875 4.07019531 -30.28125 3.94335938 C-26.94299918 3.68914975 -23.60440634 3.44062806 -20.265625 3.19335938 C-18.6775 3.06896484 -17.089375 2.94457031 -15.453125 2.81640625 C-14.00067383 2.70756104 -12.54822266 2.59871582 -11.05175781 2.48657227 C-9.0461377 2.24571899 -9.0461377 2.24571899 -7 2 C-5.90625486 1.66509778 -4.81250972 1.33019556 -3.68562078 0.98514479 C-2.46936593 0.66004701 -1.25311107 0.33494923 0 0 Z " transform="translate(84,7)" style="fill: #CDCDD0;"/><path d="M0 0 C6.377981 0.00635522 12.75596274 0.00684677 19.13394642 0.00802541 C31.14938969 0.01110353 43.16482361 0.01926822 55.1802628 0.0293749 C68.8857933 0.04064693 82.59132431 0.04607411 96.29685831 0.05107033 C124.43264349 0.0614548 152.56841976 0.0791915 180.70419788 0.10139394 C180.70419788 6.04139394 180.70419788 11.98139394 180.70419788 18.10139394 C174.76419788 18.10139394 168.82419788 18.10139394 162.70419788 18.10139394 C162.70419788 19.42139394 162.70419788 20.74139394 162.70419788 22.10139394 C161.44467587 22.10001125 161.44467587 22.10001125 160.15970898 22.09860063 C139.72855334 22.07651642 119.29740148 22.05996823 98.86623669 22.04958177 C88.98588476 22.04442545 79.10554079 22.03739539 69.22519398 22.02595448 C60.6135071 22.01598738 52.00182599 22.00953567 43.3901335 22.00730544 C38.83031826 22.00600179 34.27051952 22.00293771 29.71070957 21.99566388 C24.62047817 21.98760979 19.53027548 21.98740411 14.44003773 21.98786855 C12.92808826 21.98427327 11.4161388 21.980678 9.85837269 21.97697377 C8.47020344 21.97834844 7.08203419 21.9797231 5.6517992 21.98113942 C4.44793756 21.98021763 3.24407593 21.97929584 2.00373363 21.97834611 C-1.1816789 22.097138 -4.16859964 22.50114741 -7.29580212 23.10139394 C-7.95580212 22.77139394 -8.61580212 22.44139394 -9.29580212 22.10139394 C-18.89401273 21.68247332 -28.52373541 22.13429904 -38.11684704 22.51228261 C-50.70031454 22.99785605 -63.13665636 23.06704293 -75.71596813 22.50569081 C-84.0459459 22.16558189 -92.35501165 22.06951912 -100.69033337 22.10139394 C-101.78144421 22.10517552 -102.87255505 22.10895711 -103.99672985 22.11285329 C-109.4747458 22.13537703 -114.95228387 22.17303284 -120.43007946 22.22663808 C-122.47255848 22.23852624 -124.51503893 22.25017383 -126.55752087 22.26155019 C-127.47733242 22.27504506 -128.39714397 22.28853993 -129.34482861 22.30244374 C-133.04873674 22.31644534 -136.59899139 22.2052797 -140.26726818 21.65838552 C-142.13931656 21.31333253 -144.00856756 20.95243423 -145.87339306 20.57026601 C-149.17076931 19.93203869 -152.44530042 19.71622905 -155.79580212 19.53889394 C-157.96418804 19.42135975 -160.13165592 19.28079027 -162.29580212 19.10139394 C-163.28580212 18.77139394 -164.27580212 18.44139394 -165.29580212 18.10139394 C-168.31600665 17.99774536 -171.33705262 17.91795176 -174.35830212 17.85139394 C-177.71520385 17.7350484 -180.9449633 17.46490255 -184.29580212 17.10139394 C-187.77236462 15.92561269 -187.77236462 15.92561269 -190.48330212 14.53889394 C-191.74142712 13.73451894 -192.99955212 12.93014394 -194.29580212 12.10139394 C-194.29580212 11.44139394 -194.29580212 10.78139394 -194.29580212 10.10139394 C-178.12580212 10.10139394 -161.95580212 10.10139394 -145.29580212 10.10139394 C-145.79080212 6.63639394 -145.79080212 6.63639394 -146.29580212 3.10139394 C-145.30580212 2.77139394 -144.31580212 2.44139394 -143.29580212 2.10139394 C-143.29580212 4.41139394 -143.29580212 6.72139394 -143.29580212 9.10139394 C-135.04580212 9.10139394 -126.79580212 9.10139394 -118.29580212 9.10139394 C-118.29580212 6.46139394 -118.29580212 3.82139394 -118.29580212 1.10139394 C-117.1245277 1.10924916 -117.1245277 1.10924916 -115.92959118 1.11726308 C-112.13500427 1.13899201 -108.34043013 1.15134082 -104.54580212 1.16389394 C-103.32119274 1.17227284 -102.09658337 1.18065175 -100.83486462 1.18928456 C-93.64776562 1.20672898 -86.47667153 1.12198836 -79.29397106 0.87654042 C-52.861427 -0.01938186 -26.4451233 -0.03091429 0 0 Z " transform="translate(224.29580211639404,8.898606061935425)" style="fill: #353439;"/><path d="M0 0 C6.377981 0.00635522 12.75596274 0.00684677 19.13394642 0.00802541 C31.14938969 0.01110353 43.16482361 0.01926822 55.1802628 0.0293749 C68.8857933 0.04064693 82.59132431 0.04607411 96.29685831 0.05107033 C124.43264349 0.0614548 152.56841976 0.0791915 180.70419788 0.10139394 C180.70419788 6.04139394 180.70419788 11.98139394 180.70419788 18.10139394 C174.76419788 18.10139394 168.82419788 18.10139394 162.70419788 18.10139394 C162.70419788 16.78139394 162.70419788 15.46139394 162.70419788 14.10139394 C166.33419788 13.44139394 169.96419788 12.78139394 173.70419788 12.10139394 C173.37419788 11.77139394 173.04419788 11.44139394 172.70419788 11.10139394 C169.40419788 10.77139394 166.10419788 10.44139394 162.70419788 10.10139394 C162.37419788 9.77139394 162.04419788 9.44139394 161.70419788 9.10139394 C160.8795041 9.10253949 160.05481031 9.10368505 159.20512581 9.10486531 C130.1648783 9.13883737 101.12570329 9.02441499 72.08578181 8.89946485 C65.40217778 8.87087536 58.71857002 8.84318164 52.03496265 8.8153832 C39.44227424 8.76287656 26.84958926 8.7095922 14.25690538 8.65601134 C-0.10643383 8.59493564 -14.46977674 8.53475294 -28.83311999 8.47463632 C-58.32068485 8.35119892 -87.80824501 8.22666916 -117.29580212 8.10139394 C-117.29580212 12.72139394 -117.29580212 17.34139394 -117.29580212 22.10139394 C-134.82112028 22.41036135 -134.82112028 22.41036135 -140.58095837 21.69123769 C-142.26813194 21.34769556 -143.95208309 20.98779569 -145.63173962 20.60920644 C-150.15583528 19.74684216 -154.7347498 19.59640673 -159.32705212 19.34748769 C-160.30673962 19.26627675 -161.28642712 19.18506581 -162.29580212 19.10139394 C-163.28580212 18.77139394 -164.27580212 18.44139394 -165.29580212 18.10139394 C-168.31600665 17.99774536 -171.33705262 17.91795176 -174.35830212 17.85139394 C-177.71520385 17.7350484 -180.9449633 17.46490255 -184.29580212 17.10139394 C-187.77236462 15.92561269 -187.77236462 15.92561269 -190.48330212 14.53889394 C-191.74142712 13.73451894 -192.99955212 12.93014394 -194.29580212 12.10139394 C-194.29580212 11.44139394 -194.29580212 10.78139394 -194.29580212 10.10139394 C-178.12580212 10.10139394 -161.95580212 10.10139394 -145.29580212 10.10139394 C-145.79080212 6.63639394 -145.79080212 6.63639394 -146.29580212 3.10139394 C-145.30580212 2.77139394 -144.31580212 2.44139394 -143.29580212 2.10139394 C-143.29580212 4.41139394 -143.29580212 6.72139394 -143.29580212 9.10139394 C-135.04580212 9.10139394 -126.79580212 9.10139394 -118.29580212 9.10139394 C-118.29580212 6.46139394 -118.29580212 3.82139394 -118.29580212 1.10139394 C-117.1245277 1.10924916 -117.1245277 1.10924916 -115.92959118 1.11726308 C-112.13500427 1.13899201 -108.34043013 1.15134082 -104.54580212 1.16389394 C-103.32119274 1.17227284 -102.09658337 1.18065175 -100.83486462 1.18928456 C-93.64776562 1.20672898 -86.47667153 1.12198836 -79.29397106 0.87654042 C-52.861427 -0.01938186 -26.4451233 -0.03091429 0 0 Z " transform="translate(224.29580211639404,8.898606061935425)" style="fill: #888588;"/><path d="M0 0 C1.79244141 0.10828125 1.79244141 0.10828125 3.62109375 0.21875 C6.00521484 0.35796875 6.00521484 0.35796875 8.4375 0.5 C10.78681641 0.63921875 10.78681641 0.63921875 13.18359375 0.78125 C17.80495082 0.99114132 22.37577556 1.03703083 27 1 C27 1.99 27 2.98 27 4 C28.32 3.34 29.64 2.68 31 2 C31 1.34 31 0.68 31 0 C34.7501919 -0.0539165 38.49960961 -0.09363473 42.25 -0.125 C43.84521484 -0.15013672 43.84521484 -0.15013672 45.47265625 -0.17578125 C47.00986328 -0.18544922 47.00986328 -0.18544922 48.578125 -0.1953125 C49.52075195 -0.20578613 50.46337891 -0.21625977 51.43457031 -0.22705078 C52.28116211 -0.15212402 53.12775391 -0.07719727 54 0 C55.32 0.66 56.64 1.32 58 2 C59.32 2 60.64 2 62 2 C62.79946045 1.83773926 63.5989209 1.67547852 64.42260742 1.50830078 C67 1 67 1 69.55200195 0.87060547 C70.88171021 0.86891357 70.88171021 0.86891357 72.23828125 0.8671875 C73.22376953 0.86589844 74.20925781 0.86460938 75.22460938 0.86328125 C76.24361328 0.86714844 77.26261719 0.87101562 78.3125 0.875 C79.82360352 0.86919922 79.82360352 0.86919922 81.36523438 0.86328125 C86.99505444 0.87061652 92.41846693 1.15976921 98 2 C98 1.34 98 0.68 98 0 C101.63 0 105.26 0 109 0 C109.495 0.495 109.495 0.495 110 1 C116.33312126 1.17550513 122.66644066 1.34123313 129 1.5 C129.95429901 1.52400879 130.90859802 1.54801758 131.89181519 1.57275391 C148.19060516 1.97333861 164.47628001 2.08193589 180.77929688 1.96289062 C183.14891602 1.95032227 183.14891602 1.95032227 185.56640625 1.9375 C186.95802979 1.92589844 188.34965332 1.91429688 189.78344727 1.90234375 C190.84490967 1.93457031 191.90637207 1.96679688 193 2 C193.99 2.495 193.99 2.495 195 3 C195 3.66 195 4.32 195 5 C167.94 5.33 140.88 5.66 113 6 C113.99 6.495 113.99 6.495 115 7 C115 7.66 115 8.32 115 9 C115.70084717 8.99476318 116.40169434 8.98952637 117.1237793 8.98413086 C120.31167701 8.96329148 123.49956036 8.95031768 126.6875 8.9375 C127.79029297 8.92912109 128.89308594 8.92074219 130.02929688 8.91210938 C131.6293457 8.90727539 131.6293457 8.90727539 133.26171875 8.90234375 C134.24100342 8.89710693 135.22028809 8.89187012 136.22924805 8.88647461 C139 9 139 9 141.65161133 9.47094727 C142.42657959 9.64553467 143.20154785 9.82012207 144 10 C145.99897128 10.33944795 147.99875639 10.67421616 150 11 C150 11.33 150 11.66 150 12 C140.43 12.33 130.86 12.66 121 13 C201.685 13.495 201.685 13.495 284 14 C282.515 14.99 282.515 14.99 281 16 C105.91439318 16.19766116 105.91439318 16.19766116 37.27865982 15.59428024 C33.624453 15.56249524 29.97023457 15.53256814 26.31600952 15.50296021 C20.68475299 15.45659887 15.05358042 15.40457001 9.42242622 15.34712219 C7.40750027 15.32696814 5.39256004 15.30818417 3.37760735 15.29090881 C0.67956042 15.2670787 -2.01834597 15.23716256 -4.71630859 15.20532227 C-6.20826752 15.18977798 -7.70022644 15.1742337 -9.23739624 15.15821838 C-13 15 -13 15 -16.01773071 14.48716736 C-16.99895401 14.24601952 -16.99895401 14.24601952 -18 14 C-18 12.68 -18 11.36 -18 10 C-12.06 10 -6.12 10 0 10 C0 6.7 0 3.4 0 0 Z " transform="translate(405,17)" style="fill: #C7C7C7;"/><path d="M0 0 C2.40656534 0.00028269 4.81313076 0.00012254 7.21969604 -0.0004425 C13.69777006 -0.00072729 20.17582523 0.00511753 26.6538949 0.01213145 C33.44438231 0.01841844 40.23487024 0.018973 47.02536011 0.02015686 C59.85951133 0.0232545 72.69365395 0.03144661 85.52780139 0.04150635 C100.14946307 0.05271635 114.77112517 0.05819021 129.39279008 0.06320179 C159.44789996 0.07363066 189.50300223 0.09119952 219.55810547 0.11352539 C219.88810547 1.43352539 220.21810547 2.75352539 220.55810547 4.11352539 C216.92810547 4.44352539 213.29810547 4.77352539 209.55810547 5.11352539 C209.55810547 4.45352539 209.55810547 3.79352539 209.55810547 3.11352539 C208.23810547 3.11352539 206.91810547 3.11352539 205.55810547 3.11352539 C205.22810547 3.77352539 204.89810547 4.43352539 204.55810547 5.11352539 C204.22810547 4.78352539 203.89810547 4.45352539 203.55810547 4.11352539 C200.8844758 4.38541993 198.21773841 4.72807134 195.55810547 5.11352539 C192.69137383 6.07379355 192.69137383 6.07379355 190.55810547 7.11352539 C190.55810547 6.45352539 190.55810547 5.79352539 190.55810547 5.11352539 C189.34767578 5.3590918 189.34767578 5.3590918 188.11279297 5.60961914 C183.92976412 6.20259795 179.90681866 6.20851549 175.68310547 6.17602539 C174.15943359 6.16700195 172.63576172 6.15797852 171.06591797 6.14868164 C169.90833984 6.13708008 168.75076172 6.12547852 167.55810547 6.11352539 C168.54810547 6.77352539 169.53810547 7.43352539 170.55810547 8.11352539 C156.48104141 8.24599736 142.40396044 8.37649592 128.32685661 8.50467682 C121.78576659 8.56429527 115.24468347 8.62451919 108.70361328 8.6862793 C29.47656683 9.4329547 29.47656683 9.4329547 -4.54882812 8.85107422 C-6.69424659 8.8169115 -8.83977501 8.78919771 -10.98535156 8.76708984 C-14.20560442 8.73354059 -17.42509258 8.68148637 -20.64501953 8.62524414 C-21.58976135 8.61885422 -22.53450317 8.61246429 -23.50787354 8.60588074 C-26.18344316 8.54688157 -28.78346667 8.42587793 -31.44189453 8.11352539 C-34.86331525 7.28415678 -38.10231213 6.2470154 -41.44189453 5.11352539 C-41.77189453 3.79352539 -42.10189453 2.47352539 -42.44189453 1.11352539 C-28.28190519 0.12562048 -14.18939275 -0.02358984 0 0 Z " transform="translate(152.44189453125,18.886474609375)" style="fill: #1B1A21;"/><path d="M0 0 C3.33752877 -0.25069833 3.33752877 -0.25069833 6.87287998 -0.25168228 C8.22770782 -0.25689778 9.58253566 -0.26211327 10.97841889 -0.26748681 C13.19455404 -0.26079465 13.19455404 -0.26079465 15.45545959 -0.25396729 C17.82245778 -0.25864726 17.82245778 -0.25864726 20.23727411 -0.26342177 C24.61091145 -0.27176793 28.98446146 -0.26764531 33.3580991 -0.26144934 C38.07729567 -0.25692517 42.7964772 -0.26390841 47.51567078 -0.26940918 C56.75777524 -0.27830498 65.99984723 -0.27638039 75.24195296 -0.2705839 C82.75222609 -0.26606843 90.26249011 -0.26545401 97.77276421 -0.26763153 C98.84137288 -0.267938 99.90998155 -0.26824446 101.0109723 -0.26856022 C103.18176918 -0.26919966 105.35256605 -0.26984809 107.52336293 -0.2705054 C127.8811912 -0.27620917 148.23900146 -0.26964991 168.59682678 -0.25890467 C186.0695244 -0.24996783 203.54219544 -0.2515222 221.01489258 -0.26074219 C241.30107973 -0.27144177 261.5872511 -0.27566119 281.87344068 -0.26951766 C284.03597764 -0.26888055 286.1985146 -0.26825181 288.36105156 -0.26763153 C289.42508894 -0.26732298 290.48912631 -0.26701443 291.58540725 -0.26669653 C299.08825877 -0.26496875 306.5911003 -0.26788645 314.09395027 -0.27259064 C323.23502079 -0.27819594 332.37605695 -0.27669034 341.51712353 -0.26602915 C346.18212355 -0.26076793 350.84706627 -0.2587234 355.51206589 -0.26532745 C360.56526865 -0.27237297 365.61832632 -0.26396823 370.67152405 -0.25396729 C372.89100528 -0.26065945 372.89100528 -0.26065945 375.15532452 -0.26748681 C376.50754461 -0.26227132 377.8597647 -0.25705582 379.25296116 -0.25168228 C381.00271648 -0.25119522 381.00271648 -0.25119522 382.7878204 -0.25069833 C383.84783967 -0.16796788 384.90785894 -0.08523743 386 0 C389.42168993 1.01573014 389.42168993 1.01573014 392 2 C392 2.66 392 3.32 392 4 C391.01 4 390.02 4 389 4 C388.67 4.99 388.34 5.98 388 7 C385.69 7 383.38 7 381 7 C380.67 6.01 380.34 5.02 380 4 C379.34 4 378.68 4 378 4 C378 4.99 378 5.98 378 7 C376.35 7 374.7 7 373 7 C372.34 6.34 371.68 5.68 371 5 C369.02 5 367.04 5 365 5 C363.515 5.99 363.515 5.99 362 7 C359.03 7 356.06 7 353 7 C353 6.01 353 5.02 353 4 C348.62653039 4.51888622 344.30438214 5.05841641 340 6 C338.02 5.01 338.02 5.01 336 4 C336 4.66 336 5.32 336 6 C331.05 6.33 326.1 6.66 321 7 C321 5.35 321 3.7 321 2 C291.50306479 2.1078599 262.00615227 2.22072413 232.50925827 2.33933926 C218.80940259 2.39431694 205.10954434 2.44773528 191.40966797 2.49731445 C179.45103074 2.54059631 167.49240995 2.58697519 155.53379846 2.63687855 C149.21805136 2.6631312 142.90230678 2.68796554 136.58654022 2.70907402 C111.52159433 2.79378037 86.48060759 2.9457493 61.42755127 3.78016663 C33.09991239 4.70083363 33.09991239 4.70083363 24.3046875 3.4921875 C23.54414062 3.32976563 22.78359375 3.16734375 22 3 C22 5.64 22 8.28 22 11 C13.75 11 5.5 11 -3 11 C-3 8.69 -3 6.38 -3 4 C-3.66 4.33 -4.32 4.66 -5 5 C-5 7.31 -5 9.62 -5 12 C-20.84 12 -36.68 12 -53 12 C-51.35 10.35 -49.7 8.7 -48 7 C-47.23929199 6.58298828 -46.47858398 6.16597656 -45.69482422 5.73632812 C-43 5 -43 5 -39.23876953 4.52929688 C-37.80130371 4.42681641 -36.36383789 4.32433594 -34.8828125 4.21875 C-33.30628906 4.09886719 -31.72976562 3.97898437 -30.10546875 3.85546875 C-28.46191406 3.73816406 -26.81835938 3.62085938 -25.125 3.5 C-21.87711841 3.26709439 -18.62969081 3.0277477 -15.3828125 2.78125 C-13.22322998 2.6275293 -13.22322998 2.6275293 -11.02001953 2.47070312 C-9.69341309 2.31537109 -8.36680664 2.16003906 -7 2 C-5.90384025 1.6654827 -4.80768049 1.33096539 -3.67830378 0.9863112 C-1.85754341 0.49808715 -1.85754341 0.49808715 0 0 Z " transform="translate(84,7)" style="fill: #C2C1C4;"/><path d="M0 0 C0.66 0 1.32 0 2 0 C2 1.32 2 2.64 2 4 C2.67417969 3.83628906 3.34835937 3.67257812 4.04296875 3.50390625 C7 3 7 3 10.55078125 2.90234375 C11.79214844 2.91394531 13.03351563 2.92554688 14.3125 2.9375 C15.56675781 2.94652344 16.82101562 2.95554687 18.11328125 2.96484375 C19.06589844 2.97644531 20.01851563 2.98804688 21 3 C21.99 2.34 22.98 1.68 24 1 C24 1.66 24 2.32 24 3 C25.32 2.67 26.64 2.34 28 2 C28.33 1.34 28.66 0.68 29 0 C29.66 0 30.32 0 31 0 C31 0.99 31 1.98 31 3 C89.74 2.34 148.48 1.68 209 1 C209 2.98 209 4.96 209 7 C208.34 7.33 207.68 7.66 207 8 C197.21959476 9.39397053 187.37143981 9.12679777 177.515625 9.08984375 C175.50677537 9.08577595 173.49792523 9.0819539 171.48907471 9.07835388 C145.45218236 9.01949955 119.41550718 8.82839496 93.37939453 8.62768555 C86.07200235 8.57159389 78.76458 8.52181499 71.45713425 8.47328281 C65.77996179 8.43452311 60.10282856 8.39141552 54.42569733 8.34705925 C51.72559019 8.32670514 49.02547026 8.30798088 46.32534027 8.29092598 C42.60193221 8.26699678 38.87862284 8.23695858 35.15527344 8.20532227 C33.49314568 8.19668907 33.49314568 8.19668907 31.79743958 8.18788147 C29.197662 8.16255604 26.59846127 8.08650914 24 8 C23.34 7.67 22.68 7.34 22 7 C22 7.66 22 8.32 22 9 C18.47911436 9.0271069 14.95843996 9.04689102 11.4375 9.0625 C10.44685547 9.07087891 9.45621094 9.07925781 8.43554688 9.08789062 C4.14833229 9.10213386 0.04907742 9.00586746 -4.21484375 8.49609375 C-5.13394531 8.33238281 -6.05304688 8.16867188 -7 8 C-7.33 6.68 -7.66 5.36 -8 4 C-7.34 3.34 -6.68 2.68 -6 2 C-3.03 2.495 -3.03 2.495 0 3 C0 2.01 0 1.02 0 0 Z " transform="translate(481,10)" style="fill: #D5D5D7;"/><path d="M0 0 C67.32 0.33 134.64 0.66 204 1 C203.67 1.66 203.34 2.32 203 3 C201.68 3.33 200.36 3.66 199 4 C199 3.34 199 2.68 199 2 C197.78957031 2.24556641 197.78957031 2.24556641 196.5546875 2.49609375 C192.37165866 3.08907256 188.34871319 3.0949901 184.125 3.0625 C182.60132813 3.05347656 181.07765625 3.04445313 179.5078125 3.03515625 C178.35023438 3.02355469 177.19265625 3.01195312 176 3 C176.99 3.66 177.98 4.32 179 5 C164.92293594 5.13247197 150.84585497 5.26297053 136.76875114 5.39115143 C130.22766112 5.45076988 123.686578 5.5109938 117.14550781 5.57275391 C37.93324606 6.3192896 37.93324606 6.3192896 3.78320312 5.73754883 C1.62411306 5.70333319 -0.53508762 5.67563973 -2.69433594 5.65356445 C-5.92940395 5.62011296 -9.16369709 5.56806458 -12.3984375 5.51171875 C-13.35350189 5.50532883 -14.30856628 5.4989389 -15.29257202 5.49235535 C-17.89516871 5.43497496 -20.41697043 5.32578547 -23 5 C-27.66259766 3.46801758 -27.66259766 3.46801758 -31 2 C-31 1.67 -31 1.34 -31 1 C-27.14589793 0.94152955 -23.29191135 0.90624595 -19.4375 0.875 C-18.35146484 0.85824219 -17.26542969 0.84148438 -16.14648438 0.82421875 C-13.08485861 0.80560704 -10.05664819 0.82159436 -7 1 C-2.72265625 2.0078125 -2.72265625 2.0078125 0 3 C0 2.01 0 1.02 0 0 Z " transform="translate(144,22)" style="fill: #333137;"/><path d="M0 0 C59.9838448 -0.12656212 119.96395243 -0.00763567 179.94662857 0.40571976 C184.60099866 0.43733696 189.25537657 0.46738211 193.90975952 0.49703979 C201.33019451 0.54471658 208.75058356 0.59702301 216.17096138 0.65287781 C218.89787451 0.67291313 221.62479711 0.69170947 224.35172844 0.70909119 C241.91879173 0.82312256 259.44830981 1.25077064 277 2 C277.33 1.34 277.66 0.68 278 0 C278 1.32 278 2.64 278 4 C276.74047799 3.99861731 276.74047799 3.99861731 275.45551109 3.99720669 C255.02435545 3.97512249 234.59320359 3.95857429 214.1620388 3.94818783 C204.28168687 3.94303152 194.40134291 3.93600145 184.52099609 3.92456055 C175.90930921 3.91459344 167.2976281 3.90814173 158.68593562 3.90591151 C154.12612037 3.90460785 149.56632164 3.90154377 145.00651169 3.89426994 C139.91628029 3.88621585 134.82607759 3.88601017 129.73583984 3.88647461 C128.22389038 3.88287933 126.71194092 3.87928406 125.1541748 3.87557983 C123.76600555 3.8769545 122.3778363 3.87832916 120.94760132 3.87974548 C119.74373968 3.87882369 118.53987804 3.8779019 117.29953575 3.87695217 C114.11412322 3.99574406 111.12720248 4.39975348 108 5 C107.01 4.505 107.01 4.505 106 4 C97.66579065 3.6362476 89.2969574 3.93354167 80.96484375 4.26171875 C66.6120996 4.82643809 52.41116108 5.00653884 38.05712891 4.40869141 C25.36876321 3.88766749 12.69675835 3.9079945 0 4 C0 2.68 0 1.36 0 0 Z " transform="translate(109,27)" style="fill: #5E5E61;"/><path d="M0 0 C76.23 0 152.46 0 231 0 C231 5.94 231 11.88 231 18 C225.06 18 219.12 18 213 18 C213 16.68 213 15.36 213 14 C216.63 13.34 220.26 12.68 224 12 C223.67 11.67 223.34 11.34 223 11 C219.7 10.67 216.4 10.34 213 10 C212.67 9.67 212.34 9.34 212 9 C210.86691406 9.01740234 210.86691406 9.01740234 209.7109375 9.03515625 C198.45212581 9.12744159 187.24051287 8.56913989 176 8 C176 7.01 176 6.02 176 5 C177.65 4.67 179.3 4.34 181 4 C181 3.34 181 2.68 181 2 C181.67804688 2.165 182.35609375 2.33 183.0546875 2.5 C186.05812075 3.08518016 186.05812075 3.08518016 189.3828125 3.0625 C191.23519531 3.0315625 191.23519531 3.0315625 193.125 3 C199.49971164 2.9499532 205.66586043 3.30584772 212 4 C212 3.01 212 2.02 212 1 C211.14674605 1.07193542 210.29349211 1.14387083 209.41438198 1.21798611 C198.67054139 2.03787882 187.97906163 2.10025732 177.21313477 2.02172852 C175.27006259 2.01156096 173.32698787 2.00187007 171.38391113 1.99261475 C166.15559178 1.9663814 160.92733296 1.93355417 155.69905972 1.89946485 C150.21784626 1.86487367 144.73660072 1.83645521 139.25535583 1.80735779 C128.89665707 1.75144266 118.53799848 1.69004558 108.17934316 1.62663645 C96.37755041 1.55466343 84.57572569 1.48886645 72.77389443 1.42356598 C48.51588797 1.2892073 24.25793198 1.14716506 0 1 C0 0.67 0 0.34 0 0 Z " transform="translate(174,9)" style="fill: #7D7C82;"/><path d="M0 0 C5.0487251 0.00636209 10.09745118 0.00684728 15.14617968 0.00802541 C24.65437348 0.01110159 34.16255542 0.01926351 43.67074406 0.0293749 C54.51766465 0.04065315 65.36458588 0.04607563 76.2115109 0.05107033 C98.47606657 0.06145039 120.7406113 0.07897584 143.00515795 0.10139394 C143.00515795 1.09139394 143.00515795 2.08139394 143.00515795 3.10139394 C138.77604926 3.159566 134.54704386 3.19504857 130.31765795 3.22639394 C129.11947435 3.24315175 127.92129076 3.25990956 126.68679857 3.27717519 C125.52986498 3.2836205 124.37293139 3.29006581 123.1809392 3.29670644 C121.5863286 3.31241689 121.5863286 3.31241689 119.95950365 3.32844472 C118.98456957 3.25351796 118.00963549 3.1785912 117.00515795 3.10139394 C114.11917162 2.08918691 114.11917162 2.08918691 112.00515795 1.10139394 C112.00515795 1.76139394 112.00515795 2.42139394 112.00515795 3.10139394 C52.27515795 3.10139394 -7.45484205 3.10139394 -68.99484205 3.10139394 C-69.32484205 2.44139394 -69.65484205 1.78139394 -69.99484205 1.10139394 C-46.66119869 0.08515874 -23.34981256 -0.03453089 0 0 Z " transform="translate(242.99484205245972,9.898606061935425)" style="fill: #4D4C52;"/><path d="M0 0 C7.63328721 -0.03923454 15.26654032 -0.06885902 22.89990044 -0.08934021 C25.58240531 -0.09802772 28.26490168 -0.11011336 30.94737434 -0.12586975 C34.53936469 -0.14636406 38.13116508 -0.15452987 41.72320557 -0.15917969 C42.74942205 -0.16791107 43.77563854 -0.17664246 44.8329525 -0.18563843 C47.40380662 -0.18169672 49.97394861 -0.07038195 52.54180908 0.05371094 C56.2179718 1.0670166 56.2179718 1.0670166 58.54180908 2.05371094 C58.54180908 2.71371094 58.54180908 3.37371094 58.54180908 4.05371094 C57.55180908 4.05371094 56.56180908 4.05371094 55.54180908 4.05371094 C55.21180908 5.04371094 54.88180908 6.03371094 54.54180908 7.05371094 C52.23180908 7.05371094 49.92180908 7.05371094 47.54180908 7.05371094 C47.21180908 6.06371094 46.88180908 5.07371094 46.54180908 4.05371094 C45.88180908 4.05371094 45.22180908 4.05371094 44.54180908 4.05371094 C44.54180908 5.04371094 44.54180908 6.03371094 44.54180908 7.05371094 C42.89180908 7.05371094 41.24180908 7.05371094 39.54180908 7.05371094 C38.55180908 6.06371094 38.55180908 6.06371094 37.54180908 5.05371094 C35.56180908 5.05371094 33.58180908 5.05371094 31.54180908 5.05371094 C30.55180908 5.71371094 29.56180908 6.37371094 28.54180908 7.05371094 C25.57180908 7.05371094 22.60180908 7.05371094 19.54180908 7.05371094 C19.54180908 6.06371094 19.54180908 5.07371094 19.54180908 4.05371094 C15.16833948 4.57259716 10.84619122 5.11212734 6.54180908 6.05371094 C4.56180908 5.06371094 4.56180908 5.06371094 2.54180908 4.05371094 C2.54180908 4.71371094 2.54180908 5.37371094 2.54180908 6.05371094 C-2.40819092 6.38371094 -7.35819092 6.71371094 -12.45819092 7.05371094 C-12.45819092 5.40371094 -12.45819092 3.75371094 -12.45819092 2.05371094 C-75.81819092 2.05371094 -139.17819092 2.05371094 -204.45819092 2.05371094 C-204.45819092 1.72371094 -204.45819092 1.39371094 -204.45819092 1.05371094 C-180.2517985 0.92124147 -156.0453959 0.79079621 -131.83898067 0.66255951 C-120.59152157 0.60293077 -109.34406636 0.54270052 -98.09661865 0.48095703 C-71.70174431 0.33635528 -45.30685472 0.20370161 -18.91182339 0.09109783 C-12.60786372 0.06392158 -6.30393184 0.03295576 0 0 Z " transform="translate(417.45819091796875,6.9462890625)" style="fill: #C0C0C2;"/><path d="M0 0 C1.485 0.99 1.485 0.99 3 2 C2.34 2 1.68 2 1 2 C1 2.99 1 3.98 1 5 C7.27 5 13.54 5 20 5 C20 4.34 20 3.68 20 3 C19.01 2.67 18.02 2.34 17 2 C17.33 1.67 17.66 1.34 18 1 C40.47417486 -0.31015369 40.47417486 -0.31015369 50.9296875 0.74609375 C51.61289063 0.82988281 52.29609375 0.91367188 53 1 C52.34 1.66 51.68 2.32 51 3 C50.01 3.33 49.02 3.66 48 4 C144.03 4.495 144.03 4.495 242 5 C242 4.34 242 3.68 242 3 C195.47 3 148.94 3 101 3 C101 2.67 101 2.34 101 2 C148.85 1.67 196.7 1.34 246 1 C245.67 1.66 245.34 2.32 245 3 C244.34 3 243.68 3 243 3 C243 3.99 243 4.98 243 6 C243.64324219 5.82597656 244.28648437 5.65195312 244.94921875 5.47265625 C245.95597656 5.31667969 246.96273437 5.16070313 248 5 C250.93990015 5.08462108 253.87829882 5.23591366 256.8125 5.4375 C259.11154297 5.59025391 259.11154297 5.59025391 261.45703125 5.74609375 C263.21080078 5.87177734 263.21080078 5.87177734 265 6 C265 6.33 265 6.66 265 7 C133.825 6.505 133.825 6.505 0 6 C0 4.02 0 2.04 0 0 Z " transform="translate(107,11)" style="fill: #646368;"/><path d="M0 0 C2.70586672 -0.09282608 5.41412643 -0.11747212 8.12158203 -0.11352539 C8.96068115 -0.11367142 9.79978027 -0.11381744 10.66430664 -0.1139679 C13.44550131 -0.11326968 16.22662949 -0.10548155 19.0078125 -0.09765625 C20.93309492 -0.09579175 22.85837782 -0.094368 24.78366089 -0.09336853 C29.8570079 -0.08954591 34.93032639 -0.07971779 40.00366211 -0.06866455 C45.17821873 -0.05844495 50.35277995 -0.05386973 55.52734375 -0.04882812 C65.68490894 -0.03809531 75.84245092 -0.02102193 86 0 C85.67 1.32 85.34 2.64 85 4 C28.24 4 -28.52 4 -87 4 C-87.33 3.34 -87.66 2.68 -88 2 C-86.92702667 1.98969254 -85.85405334 1.97938507 -84.74856567 1.96876526 C-74.65385713 1.87092799 -64.55920907 1.76843339 -54.46460152 1.66066074 C-49.27443724 1.60541475 -44.08426734 1.55199207 -38.89404297 1.50268555 C-33.88844661 1.45506673 -28.88292019 1.40272483 -23.87740707 1.34705925 C-21.96439218 1.32662443 -20.05135809 1.30791324 -18.13830948 1.29092598 C-15.46599619 1.2669069 -12.79381579 1.23684898 -10.12158203 1.20532227 C-8.59824249 1.18977798 -7.07490295 1.1742337 -5.50540161 1.15821838 C-4.34861908 1.10600632 -3.19183655 1.05379425 -2 1 C-1.34 0.67 -0.68 0.34 0 0 Z " transform="translate(602,13)" style="fill: #DEDFE2;"/><path d="M0 0 C0 0.33 0 0.66 0 1 C-9.57 1.33 -19.14 1.66 -29 2 C-6.27606993 2.75653768 16.42841448 3.18641737 39.1640625 3.31640625 C42.27672548 3.33706086 45.38938619 3.35805894 48.50204468 3.37937927 C56.56695687 3.43372434 64.6318905 3.48350732 72.69683838 3.53222656 C80.97759855 3.58309484 89.25832842 3.6384345 97.5390625 3.69335938 C113.69268247 3.79986428 129.84632821 3.90168576 146 4 C146 4.66 146 5.32 146 6 C81.98 6 17.96 6 -48 6 C-48.33 5.34 -48.66 4.68 -49 4 C-47.68 3.67 -46.36 3.34 -45 3 C-48.63 2.67 -52.26 2.34 -56 2 C-56 1.67 -56 1.34 -56 1 C-37.32393699 0.06702986 -18.69763861 -0.12115906 0 0 Z " transform="translate(203,10)" style="fill: #727177;"/><path d="M0 0 C8.02454119 0.49690835 16.01865759 1.01983514 24 2 C24.495 3.485 24.495 3.485 25 5 C24.05125 4.979375 23.1025 4.95875 22.125 4.9375 C21.09375 4.958125 20.0625 4.97875 19 5 C18.34 5.33 17.68 5.66 17 6 C17.99 6.66 18.98 7.32 20 8 C19.34 8 18.68 8 18 8 C18.495 9.485 18.495 9.485 19 11 C17.02 11.99 17.02 11.99 15 13 C43.71 13.33 72.42 13.66 102 14 C102 14.33 102 14.66 102 15 C87.09221889 15.02315598 72.18444204 15.04093175 57.27664661 15.05181217 C50.35459064 15.05703385 43.43254695 15.06411858 36.51049805 15.07543945 C29.83210313 15.08629365 23.15372005 15.09228224 16.475317 15.09487724 C13.92560324 15.09672691 11.37589014 15.10033876 8.82618141 15.10573006 C5.25886249 15.11297402 1.69159266 15.11398951 -1.87573242 15.11352539 C-2.93309097 15.11712067 -3.99044952 15.12071594 -5.07984924 15.12442017 C-7.72022261 15.12069557 -10.36039747 15.0639051 -13 15 C-14.67261998 14.69795484 -16.34175538 14.37297946 -18 14 C-18 12.68 -18 11.36 -18 10 C-12.06 10 -6.12 10 0 10 C0 6.7 0 3.4 0 0 Z " transform="translate(405,17)" style="fill: #C4C5C4;"/><path d="M0 0 C22.44 0 44.88 0 68 0 C68.495 1.485 68.495 1.485 69 3 C69.03979656 5.66636969 69.04370997 8.33369159 69 11 C51.44843049 11.30672646 51.44843049 11.30672646 45.4453125 10.5546875 C43.28062167 10.1092004 41.13543281 9.56944875 39 9 C39 7.02 39 5.04 39 3 C38.10796875 3.01160156 37.2159375 3.02320313 36.296875 3.03515625 C34.54117188 3.04869141 34.54117188 3.04869141 32.75 3.0625 C31.00976562 3.07990234 31.00976562 3.07990234 29.234375 3.09765625 C28.16703125 3.06542969 27.0996875 3.03320312 26 3 C24.68 2.67 23.36 2.34 22 2 C20.2683761 1.8562677 18.53301667 1.75425068 16.796875 1.68359375 C15.32734375 1.62075195 15.32734375 1.62075195 13.828125 1.55664062 C12.81234375 1.51732422 11.7965625 1.47800781 10.75 1.4375 C9.71875 1.39431641 8.6875 1.35113281 7.625 1.30664062 C5.08348412 1.20074413 2.54175923 1.09988519 0 1 C0 0.67 0 0.34 0 0 Z " transform="translate(38,20)" style="fill: #706254;"/><path d="M0 0 C79.86 0 159.72 0 242 0 C242 0.33 242 0.66 242 1 C163.13 1.33 84.26 1.66 3 2 C3.33 3.32 3.66 4.64 4 6 C7.34630644 7.15812943 10.56041117 8.18993224 14 9 C18.04623896 9.43224568 22.06575302 9.4872926 26.1328125 9.51171875 C27.25066132 9.52966995 28.36851013 9.54762115 29.52023315 9.56611633 C33.05511822 9.61985985 36.58987107 9.65399966 40.125 9.6875 C42.53647659 9.72070478 44.94793581 9.75519731 47.359375 9.79101562 C53.23948737 9.87556569 59.11956297 9.94254782 65 10 C65 10.33 65 10.66 65 11 C44.21 11 23.42 11 2 11 C2 11.99 2 12.98 2 14 C1.34 14 0.68 14 0 14 C-0.33 10.04 -0.66 6.08 -1 2 C-0.67 1.34 -0.34 0.68 0 0 Z " transform="translate(107,17)" style="fill: #49484E;"/><path d="M0 0 C0.99 0.33 1.98 0.66 3 1 C2.835 1.7425 2.67 2.485 2.5 3.25 C2.335 4.1575 2.17 5.065 2 6 C2 7.32 2 8.64 2 10 C-13.84 10 -29.68 10 -46 10 C-44.35 8.35 -42.7 6.7 -41 5 C-39.86328857 4.37774536 -39.86328857 4.37774536 -38.70361328 3.74291992 C-36 3 -36 3 -32.17529297 2.48168945 C-29.98090576 2.29932739 -29.98090576 2.29932739 -27.7421875 2.11328125 C-26.14761719 1.97986328 -24.55304687 1.84644531 -22.91015625 1.70898438 C-21.67096436 1.61170044 -21.67096436 1.61170044 -20.40673828 1.51245117 C-17.8756317 1.31254989 -15.34612043 1.09760085 -12.81640625 0.88085938 C-3.61137016 0.13178559 -3.61137016 0.13178559 0 0 Z " transform="translate(77,9)" style="fill: #C5BEB4;"/><path d="M0 0 C0.33 1.32 0.66 2.64 1 4 C-54.44 4 -109.88 4 -167 4 C-166.67 3.34 -166.34 2.68 -166 2 C-148.34301867 1.8448612 -130.68598881 1.69696208 -113.02888012 1.5570364 C-104.82724642 1.49183787 -96.62564366 1.42445066 -88.42407227 1.35180664 C-80.48774687 1.28159677 -72.55139219 1.21746884 -64.61498451 1.15730476 C-61.60895358 1.13349657 -58.60293826 1.10761082 -55.59694481 1.07946587 C-37.03134268 0.90729162 -18.54720286 1.12823536 0 2 C0 1.34 0 0.68 0 0 Z " transform="translate(386,27)" style="fill: #706F74;"/><path d="M0 0 C2.64 0.33 5.28 0.66 8 1 C8.33 0.67 8.66 0.34 9 0 C11.64 0 14.28 0 17 0 C17 0.99 17 1.98 17 3 C20.00711407 2.73851182 23.00801653 2.39893113 26 2 C26.99 1.34 27.98 0.68 29 0 C30.98 0 32.96 0 35 0 C35.66 0.66 36.32 1.32 37 2 C39.475 2.495 39.475 2.495 42 3 C42 2.01 42 1.02 42 0 C42.66 0 43.32 0 44 0 C44.495 0.99 44.495 0.99 45 2 C45.78375 2.144375 46.5675 2.28875 47.375 2.4375 C48.24125 2.623125 49.1075 2.80875 50 3 C50.99 3.495 50.99 3.495 52 4 C52 4.66 52 5.32 52 6 C39.89580268 6.75578562 28.10408668 7.20854936 16 6 C16 6.66 16 7.32 16 8 C14.35 8.99 12.7 9.98 11 11 C11.33 9.68 11.66 8.36 12 7 C10.90945313 7.12568359 10.90945313 7.12568359 9.796875 7.25390625 C5.38494534 7.70075554 1.0734054 8.03864758 -3.36328125 7.87890625 C-6.25761705 7.64919706 -9.12492214 7.40494054 -12 7 C-12.99 6.67 -13.98 6.34 -15 6 C-15 5.01 -15 4.02 -15 3 C-14.01 2.67 -13.02 2.34 -12 2 C-9.93854893 1.931009 -7.87498599 1.91532273 -5.8125 1.9375 C-4.18248047 1.95103516 -4.18248047 1.95103516 -2.51953125 1.96484375 C-1.68808594 1.97644531 -0.85664063 1.98804688 0 2 C0 1.34 0 0.68 0 0 Z " transform="translate(420,11)" style="fill: #D7D7D6;"/><path d="M0 0 C0.67804688 0.165 1.35609375 0.33 2.0546875 0.5 C5.05812075 1.08518016 5.05812075 1.08518016 8.3828125 1.0625 C9.61773437 1.041875 10.85265625 1.02125 12.125 1 C18.49971164 0.9499532 24.66586043 1.30584772 31 2 C31 1.34 31 0.68 31 0 C36.61 0 42.22 0 48 0 C48 0.66 48 1.32 48 2 C42.72 2 37.44 2 32 2 C32 2.99 32 3.98 32 5 C37.61 5.33 43.22 5.66 49 6 C49 9.3 49 12.6 49 16 C43.39 16 37.78 16 32 16 C32 14.68 32 13.36 32 12 C35.63 11.34 39.26 10.68 43 10 C42.505 9.505 42.505 9.505 42 9 C38.7 8.67 35.4 8.34 32 8 C31.505 7.505 31.505 7.505 31 7 C29.86691406 7.01740234 29.86691406 7.01740234 28.7109375 7.03515625 C17.45212581 7.12744159 6.24051287 6.56913989 -5 6 C-5 5.01 -5 4.02 -5 3 C-3.35 2.67 -1.7 2.34 0 2 C0 1.34 0 0.68 0 0 Z " transform="translate(355,11)" style="fill: #82838C;"/><path d="M0 0 C67.32 0.33 134.64 0.66 204 1 C203.67 1.66 203.34 2.32 203 3 C201.68 3.33 200.36 3.66 199 4 C199 3.34 199 2.68 199 2 C197.78957031 2.24556641 197.78957031 2.24556641 196.5546875 2.49609375 C192.37165866 3.08907256 188.34871319 3.0949901 184.125 3.0625 C182.60132813 3.05347656 181.07765625 3.04445313 179.5078125 3.03515625 C178.35023438 3.02355469 177.19265625 3.01195312 176 3 C176.99 3.66 177.98 4.32 179 5 C175.37 5 171.74 5 168 5 C168.33 4.34 168.66 3.68 169 3 C156.2914735 2.97684681 143.582952 2.95906968 130.87440872 2.94818783 C124.97355658 2.94296554 119.07271885 2.93587969 113.171875 2.92456055 C107.47903044 2.91370852 101.78619975 2.90771823 96.09334564 2.90512276 C93.91960176 2.9032727 91.74585865 2.89966009 89.57212067 2.89426994 C86.53146208 2.88702885 83.49086111 2.88601037 80.45019531 2.88647461 C79.54820404 2.88287933 78.64621277 2.87928406 77.71688843 2.87557983 C75.47754461 2.8792883 73.2384302 2.93593174 71 3 C69.68 3.33 68.36 3.66 67 4 C65.25053149 4.00412327 63.50036973 3.94632866 61.75390625 3.84375 C60.75166016 3.79089844 59.74941406 3.73804688 58.71679688 3.68359375 C56.61782534 3.56142451 54.51886693 3.43902952 52.41992188 3.31640625 C51.41638672 3.26355469 50.41285156 3.21070313 49.37890625 3.15625 C48.4669751 3.10275391 47.55504395 3.04925781 46.61547852 2.99414062 C43.94983943 2.92682782 43.94983943 2.92682782 41.16381836 3.49023438 C40.4497583 3.65845703 39.73569824 3.82667969 39 4 C39 3.34 39 2.68 39 2 C38.17628906 2.16242187 37.35257813 2.32484375 36.50390625 2.4921875 C29.71599965 3.47594208 22.84277248 3.1449484 16 3 C6.89109209 2.63454733 6.89109209 2.63454733 3 2 C2.01 1.34 1.02 0.68 0 0 Z " transform="translate(144,22)" style="fill: #2A292F;"/><path d="M0 0 C0 0.99 0 1.98 0 3 C-6.19303089 3.0247204 -12.38603305 3.04286973 -18.57910156 3.05493164 C-20.68587749 3.05996013 -22.79264992 3.06678376 -24.89941406 3.07543945 C-27.92774314 3.08756989 -30.95602606 3.09324317 -33.984375 3.09765625 C-35.39707672 3.10539818 -35.39707672 3.10539818 -36.83831787 3.11329651 C-39.22584394 3.11350129 -41.61323563 3.06030458 -44 3 C-45.32 2.67 -46.64 2.34 -48 2 C-48 2.99 -48 3.98 -48 5 C-49.52625 4.835 -51.0525 4.67 -52.625 4.5 C-62.39195803 3.66451323 -72.20665803 3.92158356 -82 4 C-82 2.68 -82 1.36 -82 0 C-54.68702079 -1.93122075 -27.33994699 -0.76259793 0 0 Z " transform="translate(192,20)" style="fill: #232228;"/><path d="M0 0 C59.4 0 118.8 0 180 0 C180.33 1.32 180.66 2.64 181 4 C177.37 4.33 173.74 4.66 170 5 C170 4.34 170 3.68 170 3 C168.68 3 167.36 3 166 3 C165.67 3.66 165.34 4.32 165 5 C164.67 4.67 164.34 4.34 164 4 C161.36 4 158.72 4 156 4 C156.33 3.01 156.66 2.02 157 1 C105.19 1 53.38 1 0 1 C0 0.67 0 0.34 0 0 Z " transform="translate(192,19)" style="fill: #232228;"/><path d="M0 0 C26.73 0 53.46 0 81 0 C81 0.99 81 1.98 81 3 C53.94 3 26.88 3 -1 3 C-0.67 2.01 -0.34 1.02 0 0 Z " transform="translate(521,23)" style="fill: #D4D4D3;"/><path d="M0 0 C1.485 0.99 1.485 0.99 3 2 C2.34 2 1.68 2 1 2 C1 2.99 1 3.98 1 5 C7.27 5 13.54 5 20 5 C20 4.34 20 3.68 20 3 C19.01 2.67 18.02 2.34 17 2 C17.33 1.67 17.66 1.34 18 1 C40.47417486 -0.31015369 40.47417486 -0.31015369 50.9296875 0.74609375 C51.61289063 0.82988281 52.29609375 0.91367188 53 1 C52.34 1.66 51.68 2.32 51 3 C50.01 3.33 49.02 3.66 48 4 C59.22 4.33 70.44 4.66 82 5 C82 5.33 82 5.66 82 6 C54.94 6 27.88 6 0 6 C0 4.02 0 2.04 0 0 Z " transform="translate(107,11)" style="fill: #6A696F;"/><path d="M0 0 C16.83 0 33.66 0 51 0 C50.67 0.99 50.34 1.98 50 3 C19.64 3 -10.72 3 -42 3 C-42 2.67 -42 2.34 -42 2 C-28.14 1.67 -14.28 1.34 0 1 C0 0.67 0 0.34 0 0 Z " transform="translate(298,20)" style="fill: #1F1D24;"/><path d="M0 0 C4.7293251 0.14095066 9.45841667 0.28867493 14.1875 0.4375 C15.50943359 0.47681641 16.83136719 0.51613281 18.19335938 0.55664062 C26.48592757 0.82151381 34.73421753 1.28112126 43 2 C43 3.98 43 5.96 43 8 C40.56221158 7.85907004 38.12477194 7.71209648 35.6875 7.5625 C34.33011719 7.48128906 32.97273438 7.40007813 31.57421875 7.31640625 C29.80498047 7.15978516 29.80498047 7.15978516 28 7 C27.01 6.67 26.02 6.34 25 6 C21.07359505 5.80294994 17.15288061 5.65535599 13.22265625 5.5703125 C10.80932265 5.47938627 8.40290292 5.24187637 6 5 C1.890625 3.4609375 1.890625 3.4609375 -1 2 C-0.67 1.34 -0.34 0.68 0 0 Z " transform="translate(34,21)" style="fill: #948C81;"/><path d="M0 0 C5.61 0 11.22 0 17 0 C16.67 1.32 16.34 2.64 16 4 C50.32 4 84.64 4 120 4 C120 4.33 120 4.66 120 5 C105.09221889 5.02315598 90.18444204 5.04093175 75.27664661 5.05181217 C68.35459064 5.05703385 61.43254695 5.06411858 54.51049805 5.07543945 C47.83210313 5.08629365 41.15372005 5.09228224 34.475317 5.09487724 C31.92560324 5.09672691 29.37589014 5.10033876 26.82618141 5.10573006 C23.25886249 5.11297402 19.69159266 5.11398951 16.12426758 5.11352539 C15.06690903 5.11712067 14.00955048 5.12071594 12.92015076 5.12442017 C10.27977739 5.12069557 7.63960253 5.0639051 5 5 C3.32738002 4.69795484 1.65824462 4.37297946 0 4 C0 2.68 0 1.36 0 0 Z " transform="translate(387,27)" style="fill: #B6B7B7;"/><path d="M0 0 C0 1.98 0 3.96 0 6 C-3.375 7.5 -3.375 7.5 -8 9 C-11.41656415 9.30190552 -14.55278262 9.18385159 -18 9 C-18.99 8.67 -19.98 8.34 -21 8 C-21 7.34 -21 6.68 -21 6 C-18.36 6 -15.72 6 -13 6 C-13.495 4.515 -13.495 4.515 -14 3 C-30.83 2.67 -47.66 2.34 -65 2 C-65 1.67 -65 1.34 -65 1 C-57.51101109 0.85625301 -50.02199766 0.71388443 -42.53295898 0.57275391 C-39.9890066 0.52462377 -37.44506112 0.47612697 -34.90112305 0.42724609 C-31.22967283 0.35676576 -27.55819921 0.28763489 -23.88671875 0.21875 C-22.76230881 0.19687622 -21.63789886 0.17500244 -20.47941589 0.15246582 C-13.65155871 0.02592678 -6.82904221 -0.019888 0 0 Z " transform="translate(386,17)" style="fill: #333238;"/><path d="M0 0 C0 0.66 0 1.32 0 2 C-26.4 2 -52.8 2 -80 2 C-80.66 1.34 -81.32 0.68 -82 0 C-54.62415444 -0.74161483 -27.36883372 -1.30864748 0 0 Z " transform="translate(601,11)" style="fill: #C6C6C6;"/><path d="M0 0 C8.91 0 17.82 0 27 0 C27 1.98 27 3.96 27 6 C18.42 6 9.84 6 1 6 C0.67 4.02 0.34 2.04 0 0 Z " transform="translate(79,23)" style="fill: #AEA199;"/><path d="M0 0 C28.05 0 56.1 0 85 0 C85 0.66 85 1.32 85 2 C68.61439854 2.77449627 52.36463354 3.08724337 35.97167969 2.40869141 C23.97677867 1.91777427 12.00283832 1.90440217 0 2 C0 1.34 0 0.68 0 0 Z " transform="translate(111,29)" style="fill: #777679;"/><path d="M0 0 C8.25 0 16.5 0 25 0 C25 1.98 25 3.96 25 6 C16.75 6 8.5 6 0 6 C0 4.02 0 2.04 0 0 Z " transform="translate(81,12)" style="fill: #F5F0EC;"/><path d="M0 0 C62.37 0.495 62.37 0.495 126 1 C126 1.33 126 1.66 126 2 C87.72 2.33 49.44 2.66 10 3 C9.67 3.66 9.34 4.32 9 5 C8.34 5 7.68 5 7 5 C6.67 4.01 6.34 3.02 6 2 C3.03 1.505 3.03 1.505 0 1 C0 0.67 0 0.34 0 0 Z " transform="translate(210,27)" style="fill: #4F4F53;"/><path d="M0 0 C4.29 0 8.58 0 13 0 C13 0.33 13 0.66 13 1 C9.7 1 6.4 1 3 1 C3.33 2.32 3.66 3.64 4 5 C7.34630644 6.15812943 10.56041117 7.18993224 14 8 C18.04623896 8.43224568 22.06575302 8.4872926 26.1328125 8.51171875 C27.25066132 8.52966995 28.36851013 8.54762115 29.52023315 8.56611633 C33.05511822 8.61985985 36.58987107 8.65399966 40.125 8.6875 C42.53647659 8.72070478 44.94793581 8.75519731 47.359375 8.79101562 C53.23948737 8.87556569 59.11956297 8.94254782 65 9 C65 9.33 65 9.66 65 10 C44.21 10 23.42 10 2 10 C2 10.99 2 11.98 2 13 C1.34 13 0.68 13 0 13 C-0.33 9.04 -0.66 5.08 -1 1 C-0.67 0.67 -0.34 0.34 0 0 Z " transform="translate(107,18)" style="fill: #444244;"/><path d="M0 0 C1.216875 0.185625 2.43375 0.37125 3.6875 0.5625 C5.110625 0.706875 6.53375 0.85125 8 1 C10.85622487 0.64933615 10.85622487 0.64933615 13 0 C13 0.66 13 1.32 13 2 C13.66 2.33 14.32 2.66 15 3 C14.29875 2.79375 13.5975 2.5875 12.875 2.375 C11.92625 2.25125 10.9775 2.1275 10 2 C6.75763432 2.85771342 6.75763432 2.85771342 4 4 C3.67 4.66 3.34 5.32 3 6 C6.63 6 10.26 6 14 6 C14.66 6.66 15.32 7.32 16 8 C14.35 8.99 12.7 9.98 11 11 C11.33 9.68 11.66 8.36 12 7 C10.90945313 7.12568359 10.90945313 7.12568359 9.796875 7.25390625 C5.38494534 7.70075554 1.0734054 8.03864758 -3.36328125 7.87890625 C-6.25761705 7.64919706 -9.12492214 7.40494054 -12 7 C-12.99 6.67 -13.98 6.34 -15 6 C-15 5.01 -15 4.02 -15 3 C-14.01 2.67 -13.02 2.34 -12 2 C-9.93854893 1.931009 -7.87498599 1.91532273 -5.8125 1.9375 C-4.18248047 1.95103516 -4.18248047 1.95103516 -2.51953125 1.96484375 C-1.68808594 1.97644531 -0.85664063 1.98804688 0 2 C0 1.34 0 0.68 0 0 Z " transform="translate(420,11)" style="fill: #D3D3D3;"/><path d="M0 0 C0.66 0 1.32 0 2 0 C1.67 2.64 1.34 5.28 1 8 C9.58 8 18.16 8 27 8 C27 8.33 27 8.66 27 9 C11.82 9.33 -3.36 9.66 -19 10 C-19 10.33 -19 10.66 -19 11 C-28.57 11 -38.14 11 -48 11 C-48.33 10.01 -48.66 9.02 -49 8 C-32.83 8 -16.66 8 0 8 C-0.495 4.535 -0.495 4.535 -1 1 C-0.67 0.67 -0.34 0.34 0 0 Z " transform="translate(79,11)" style="fill: #847B72;"/><path d="M0 0 C5.445 0.495 5.445 0.495 11 1 C11.99 1.99 12.98 2.98 14 4 C7.565 4.495 7.565 4.495 1 5 C0.67 6.98 0.34 8.96 0 11 C-8.91 11 -17.82 11 -27 11 C-26.67 10.34 -26.34 9.68 -26 9 C-19.73 8.67 -13.46 8.34 -7 8 C-5.68 7.01 -4.36 6.02 -3 5 C-2.01 5 -1.02 5 0 5 C0 3.35 0 1.7 0 0 Z " transform="translate(386,18)" style="fill: #454650;"/><path d="M0 0 C11.22 0 22.44 0 34 0 C34 0.99 34 1.98 34 3 C22.30301778 3.90349104 10.72318572 4.11468334 -1 4 C-0.67 2.68 -0.34 1.36 0 0 Z " transform="translate(42,15)" style="fill: #E9E0D1;"/><path d="M0 0 C6.27 0 12.54 0 19 0 C19 5.94 19 11.88 19 18 C18.67 18 18.34 18 18 18 C18 14.7 18 11.4 18 8 C17.19175781 8.01160156 16.38351562 8.02320313 15.55078125 8.03515625 C14.48214844 8.04417969 13.41351563 8.05320312 12.3125 8.0625 C10.72888672 8.07990234 10.72888672 8.07990234 9.11328125 8.09765625 C6 8 6 8 3.10546875 7.49609375 C2.41066406 7.33238281 1.71585937 7.16867188 1 7 C1 6.01 1 5.02 1 4 C6.28 4 11.56 4 17 4 C17 3.34 17 2.68 17 2 C11.39 2 5.78 2 0 2 C0 1.34 0 0.68 0 0 Z " transform="translate(386,9)" style="fill: #9C9EA9;"/><path d="M0 0 C4.41665288 -0.02902168 8.83328123 -0.04680608 13.25 -0.0625 C15.13138672 -0.07506836 15.13138672 -0.07506836 17.05078125 -0.08789062 C18.85869141 -0.09272461 18.85869141 -0.09272461 20.703125 -0.09765625 C22.36843262 -0.10551147 22.36843262 -0.10551147 24.06738281 -0.11352539 C25.03514648 -0.07606201 26.00291016 -0.03859863 27 0 C28.32 0.33 29.64 0.66 31 1 C33.66637836 1.03921145 36.33370363 1.04443827 39 1 C39.66 1.66 40.32 2.32 41 3 C25.56835439 3.7860948 10.42103478 4.13134002 -5 3 C-3.68 2.34 -2.36 1.68 -1 1 C-0.67 0.67 -0.34 0.34 0 0 Z " transform="translate(561,26)" style="fill: #CACACA;"/><path d="M0 0 C4.62 0 9.24 0 14 0 C14.99 0.66 15.98 1.32 17 2 C17 4.31 17 6.62 17 9 C11.39 9 5.78 9 0 9 C0 7.68 0 6.36 0 5 C3.63 4.34 7.26 3.68 11 3 C10.67 2.67 10.34 2.34 10 2 C6.7 1.67 3.4 1.34 0 1 C0 0.67 0 0.34 0 0 Z " transform="translate(387,18)" style="fill: #676A77;"/><path d="M0 0 C5.61 0.66 11.22 1.32 17 2 C17 2.66 17 3.32 17 4 C23.93 4.495 23.93 4.495 31 5 C31 5.33 31 5.66 31 6 C18.92862018 7.33897558 7.08449692 6.71021004 -5 6 C-5 5.01 -5 4.02 -5 3 C-3.35 2.67 -1.7 2.34 0 2 C0 1.34 0 0.68 0 0 Z " transform="translate(355,11)" style="fill: #77767C;"/><path d="M0 0 C14.85 0 29.7 0 45 0 C45 0.99 45 1.98 45 3 C40.77089131 3.05817206 36.54188591 3.09365463 32.3125 3.125 C30.51522461 3.15013672 30.51522461 3.15013672 28.68164062 3.17578125 C27.52470703 3.18222656 26.36777344 3.18867188 25.17578125 3.1953125 C23.58117065 3.21102295 23.58117065 3.21102295 21.9543457 3.22705078 C20.97941162 3.15212402 20.00447754 3.07719727 19 3 C16.11401367 1.98779297 16.11401367 1.98779297 14 1 C14 1.66 14 2.32 14 3 C9.38 2.34 4.76 1.68 0 1 C0 0.67 0 0.34 0 0 Z " transform="translate(341,10)" style="fill: #56555B;"/><path d="M0 0 C0 0.66 0 1.32 0 2 C-1.32 2 -2.64 2 -4 2 C-4 2.66 -4 3.32 -4 4 C-8.95 4.33 -13.9 4.66 -19 5 C-19 3.35 -19 1.7 -19 0 C-25.27 0 -31.54 0 -38 0 C-38 -0.33 -38 -0.66 -38 -1 C-25.00534362 -1.93998492 -12.92133312 -2.0491236 0 0 Z " transform="translate(424,9)" style="fill: #C1C1C4;"/><path d="M0 0 C3.85410207 -0.05847045 7.70808865 -0.09375405 11.5625 -0.125 C12.64853516 -0.14175781 13.73457031 -0.15851562 14.85351562 -0.17578125 C17.91514139 -0.19439296 20.94335181 -0.17840564 24 0 C28.27734375 1.0078125 28.27734375 1.0078125 31 2 C30.01 2.66 29.02 3.32 28 4 C24.83280371 4.08159761 21.66774848 4.14078461 18.5 4.1875 C17.613125 4.21263672 16.72625 4.23777344 15.8125 4.26367188 C13.17542669 4.29275724 10.62545859 4.25637664 8 4 C3.34375 2.48828125 3.34375 2.48828125 0 1 C0 0.67 0 0.34 0 0 Z " transform="translate(113,23)" style="fill: #313134;"/><path d="M0 0 C7.26 0 14.52 0 22 0 C22.33 1.32 22.66 2.64 23 4 C19.37 4.33 15.74 4.66 12 5 C12 4.34 12 3.68 12 3 C10.68 3 9.36 3 8 3 C7.67 3.66 7.34 4.32 7 5 C6.67 4.67 6.34 4.34 6 4 C3.36 4 0.72 4 -2 4 C-1.34 3.67 -0.68 3.34 0 3 C0 2.01 0 1.02 0 0 Z " transform="translate(350,19)" style="fill: #28262D;"/><path d="M0 0 C2.0992888 -0.01555417 4.19941779 0.03205076 6.296875 0.12109375 C8.10478516 0.19360352 8.10478516 0.19360352 9.94921875 0.26757812 C11.83060547 0.35168945 11.83060547 0.35168945 13.75 0.4375 C15.65458984 0.51581055 15.65458984 0.51581055 17.59765625 0.59570312 C20.73202407 0.72531984 23.86606874 0.86028471 27 1 C27 1.66 27 2.32 27 3 C23.98633134 3.56776417 21.09114726 3.99652309 18.02392578 4.11352539 C17.0079834 4.10828857 15.99204102 4.10305176 14.9453125 4.09765625 C13.83671875 4.09443359 12.728125 4.09121094 11.5859375 4.08789062 C10.44382812 4.07951172 9.30171875 4.07113281 8.125 4.0625 C6.9596875 4.05798828 5.794375 4.05347656 4.59375 4.04882812 C1.72911355 4.03708781 -1.13541633 4.0206657 -4 4 C-4 3.01 -4 2.02 -4 1 C-2.68 0.67 -1.36 0.34 0 0 Z " transform="translate(485,13)" style="fill: #DBDBDC;"/><path d="M0 0 C2.82836801 -0.01596023 5.65730449 0.03395802 8.484375 0.12109375 C9.29996887 0.14470474 10.11556274 0.16831573 10.95587158 0.19264221 C13.5541014 0.26905433 16.15201614 0.35317484 18.75 0.4375 C20.51430764 0.49074319 22.27863053 0.54348343 24.04296875 0.59570312 C28.36217127 0.7246388 32.68112472 0.86048755 37 1 C37 1.66 37 2.32 37 3 C23.8 3 10.6 3 -3 3 C-3.33 2.34 -3.66 1.68 -4 1 C-2.68 0.67 -1.36 0.34 0 0 Z " transform="translate(158,13)" style="fill: #79797F;"/></svg>