<?xml version="1.0" encoding="UTF-8"?>
<!-- Generator: visioncortex VTracer -->
<svg id="svg" version="1.1" xmlns="http://www.w3.org/2000/svg" style="display: block;" viewBox="0 0 203 99"><path d="M0 0 C2.31 0.33 4.62 0.66 7 1 C7.99 2.32 8.98 3.64 10 5 C11.0510063 7.64697882 12.05916158 10.31189022 13 13 C17.62 12.67 22.24 12.34 27 12 C28.32 10.02 29.64 8.04 31 6 C32.32 5.67 33.64 5.34 35 5 C36.65 6.65 38.3 8.3 40 10 C40 10.99 40 11.98 40 13 C42.31 13 44.62 13 47 13 C47.495 14.98 47.495 14.98 48 17 C45.87890625 18.43457031 45.87890625 18.43457031 43 20 C40.15234375 20.65136719 40.15234375 20.65136719 36.9375 21.046875 C35.07931641 21.28180664 35.07931641 21.28180664 33.18359375 21.52148438 C31.11271484 21.75834961 31.11271484 21.75834961 29 22 C27.48535156 22.17337891 25.97070312 22.34675781 24.41015625 22.52539062 C21.05820991 22.90271792 17.7060449 23.2773741 14.35351562 23.64941406 C-4.92456008 25.8019757 -24.1550576 28.23707996 -43 33 C-43.99 33.495 -43.99 33.495 -45 34 C-45 35.32 -45 36.64 -45 38 C-32.77163439 39.30487421 -20.52966152 39.15334735 -8.25 39.125 C-7.15181946 39.12411377 -6.05363892 39.12322754 -4.92218018 39.12231445 C13.73402088 39.10465692 32.35813648 38.76537898 51 38 C56.3280363 32.2253821 56.3280363 32.2253821 61.05859375 25.96875 C61.51363281 25.1540625 61.96867187 24.339375 62.4375 23.5 C63.28816371 21.99801067 64.14134998 20.49743809 65 19 C65.33 18.67 65.66 18.34 66 18 C75.62039539 17.4027249 85.23671712 16.90748828 94.875 16.75 C96.31617188 16.72421875 97.75734375 16.6984375 99.2421875 16.671875 C100.48226562 16.78015625 101.72234375 16.8884375 103 17 C106.0078125 18.515625 106.0078125 18.515625 108 20 C108.98046875 22.40625 108.98046875 22.40625 110 26 C110.20985302 29.16142218 110.30502743 32.33162934 110.3125 35.5 C110.32925781 37.1396875 110.34601563 38.779375 110.36328125 40.46875 C110.24339844 41.9640625 110.12351563 43.459375 110 45 C109.53980469 46.1446875 109.07960937 47.289375 108.60546875 48.46875 C108.07566406 49.3040625 107.54585937 50.139375 107 51 C106.01 51.99 106.01 51.99 105 53 C103.68 53.33 102.36 53.66 101 54 C98.11757549 54.14639856 95.23217921 54.2363237 92.34667969 54.29711914 C91.03081438 54.32657765 91.03081438 54.32657765 89.68836594 54.35663128 C86.76628041 54.42072671 83.84410526 54.4780701 80.921875 54.53515625 C78.8584333 54.57851985 76.7949975 54.62216543 74.73156738 54.66607666 C68.07118565 54.80569357 61.41061347 54.9345016 54.75 55.0625 C52.48124135 55.10677495 50.21248321 55.15107628 47.94372559 55.19540405 C-4.25626062 56.20820413 -4.25626062 56.20820413 -28.26452637 56.29855347 C-30.57224953 56.30778743 -32.87995891 56.32181902 -35.18762207 56.34085083 C-38.3075871 56.36409589 -41.42684222 56.36738501 -44.546875 56.36328125 C-45.85863708 56.37696747 -45.85863708 56.37696747 -47.19689941 56.39093018 C-49.46827439 56.37359274 -51.73677953 56.19307514 -54 56 C-58.09082031 54.47729492 -58.09082031 54.47729492 -61 53 C-62.4375 51.0625 -62.4375 51.0625 -64 48 C-64.28875 46.5975 -64.5775 45.195 -64.875 43.75 C-64.91625 42.1825 -64.9575 40.615 -65 39 C-64.248008 35.83396999 -63.20599654 33.03911129 -62 30 C-59.76171875 28.1875 -59.76171875 28.1875 -56 26 C-51.99415397 24.73695578 -47.91882213 23.87233365 -43.8125 23 C-42.09474365 22.61980713 -42.09474365 22.61980713 -40.34228516 22.23193359 C-36.89776464 21.47368769 -33.4497532 20.73403277 -30 20 C-28.48043701 19.67370605 -28.48043701 19.67370605 -26.93017578 19.34082031 C-21.62501784 18.20290238 -16.31551403 17.08871974 -11 16 C-7.535 9.07 -7.535 9.07 -4 2 C-2.68 1.34 -1.36 0.68 0 0 Z " transform="translate(76,13)" style="fill: #1C1B21;"/><path d="M0 0 C2.31 0.33 4.62 0.66 7 1 C7.99 2.32 8.98 3.64 10 5 C11.0510063 7.64697882 12.05916158 10.31189022 13 13 C17.62 12.67 22.24 12.34 27 12 C28.32 10.02 29.64 8.04 31 6 C32.32 5.67 33.64 5.34 35 5 C36.65 6.65 38.3 8.3 40 10 C40 10.99 40 11.98 40 13 C42.31 13 44.62 13 47 13 C47.495 14.98 47.495 14.98 48 17 C45.87890625 18.43457031 45.87890625 18.43457031 43 20 C40.15234375 20.65136719 40.15234375 20.65136719 36.9375 21.046875 C35.07931641 21.28180664 35.07931641 21.28180664 33.18359375 21.52148438 C31.11271484 21.75834961 31.11271484 21.75834961 29 22 C27.48535156 22.17337891 25.97070312 22.34675781 24.41015625 22.52539062 C21.05820991 22.90271792 17.7060449 23.2773741 14.35351562 23.64941406 C-4.92456008 25.8019757 -24.1550576 28.23707996 -43 33 C-43.99 33.495 -43.99 33.495 -45 34 C-45 35.32 -45 36.64 -45 38 C-44.030625 38.309375 -43.06125 38.61875 -42.0625 38.9375 C-40.5465625 39.4634375 -40.5465625 39.4634375 -39 40 C-38.505 40.495 -38.505 40.495 -38 41 C-29.75 41.33 -21.5 41.66 -13 42 C-12.67 42.99 -12.34 43.98 -12 45 C-10.02 44.505 -10.02 44.505 -8 44 C-7.32113235 44.32531708 -6.64226471 44.65063416 -5.94282532 44.98580933 C-4.97169296 45.32049225 -4.00056061 45.65517517 -3 46 C0.37554586 46.28840882 0.37554586 46.28840882 4.08520508 46.22705078 C6.21684868 46.22682419 6.21684868 46.22682419 8.39155579 46.22659302 C10.68240364 46.21110916 10.68240364 46.21110916 13.01953125 46.1953125 C14.5883757 46.1924826 16.15722015 46.18965271 17.77360535 46.18673706 C21.93457279 46.17744147 26.09531949 46.159486 30.25622559 46.1373291 C34.50608416 46.11683172 38.75596557 46.10772703 43.00585938 46.09765625 C51.33730048 46.07559941 59.6686375 46.04212414 68 46 C68 46.99 68 47.98 68 49 C53.66899837 50.21665376 39.37020924 50.11449489 25 50.0625 C22.56770926 50.05747327 20.13541751 50.05291244 17.703125 50.04882812 C11.80205796 50.03791943 5.90104041 50.02071995 0 50 C0 50.66 0 51.32 0 52 C7.59 52 15.18 52 23 52 C23 52.33 23 52.66 23 53 C6.99404249 54.31957285 -9.01594121 54.11258938 -25.0625 54.0625 C-27.87565024 54.05747449 -30.68880136 54.05291345 -33.50195312 54.04882812 C-40.33465467 54.0379069 -47.16732318 54.02125227 -54 54 C-54.495 52.515 -54.495 52.515 -55 51 C-55.66 50.67 -56.32 50.34 -57 50 C-56.67 48.68 -56.34 47.36 -56 46 C-57.98 46.495 -57.98 46.495 -60 47 C-60 44.69 -60 42.38 -60 40 C-60.66 40 -61.32 40 -62 40 C-62.33 40.66 -62.66 41.32 -63 42 C-62.67 40.68 -62.34 39.36 -62 38 C-61.34 38.33 -60.68 38.66 -60 39 C-60 38.34 -60 37.68 -60 37 C-60.66 37 -61.32 37 -62 37 C-62 35.35 -62 33.7 -62 32 C-61.01 31.34 -60.02 30.68 -59 30 C-58.34 30.33 -57.68 30.66 -57 31 C-56.67 29.35 -56.34 27.7 -56 26 C-41.03224047 22.50209015 -26.05901362 19.08437628 -11 16 C-7.535 9.07 -7.535 9.07 -4 2 C-2.68 1.34 -1.36 0.68 0 0 Z " transform="translate(76,13)" style="fill: #2D2C31;"/><path d="M0 0 C0.495 0.99 0.495 0.99 1 2 C0.34 3.98 -0.32 5.96 -1 8 C-1.99 8.66 -2.98 9.32 -4 10 C-4.33 10.99 -4.66 11.98 -5 13 C-1.37 13 2.26 13 6 13 C6.33 13.66 6.66 14.32 7 15 C7.66 15 8.32 15 9 15 C9 15.66 9 16.32 9 17 C10.65 16.67 12.3 16.34 14 16 C14.33 17.65 14.66 19.3 15 21 C16.32 21.33 17.64 21.66 19 22 C20.65 22 22.3 22 24 22 C24 22.99 24 23.98 24 25 C30.93 25 37.86 25 45 25 C44.67 25.66 44.34 26.32 44 27 C42.02 27.495 42.02 27.495 40 28 C37.11757549 28.14639856 34.23217921 28.2363237 31.34667969 28.29711914 C30.03081438 28.32657765 30.03081438 28.32657765 28.68836594 28.35663128 C25.76628041 28.42072671 22.84410526 28.4780701 19.921875 28.53515625 C17.8584333 28.57851985 15.7949975 28.62216543 13.73156738 28.66607666 C7.07118565 28.80569357 0.41061347 28.9345016 -6.25 29.0625 C-8.51875865 29.10677495 -10.78751679 29.15107628 -13.05627441 29.19540405 C-65.25626062 30.20820413 -65.25626062 30.20820413 -89.26452637 30.29855347 C-91.57224953 30.30778743 -93.87995891 30.32181902 -96.18762207 30.34085083 C-99.3075871 30.36409589 -102.42684222 30.36738501 -105.546875 30.36328125 C-106.85863708 30.37696747 -106.85863708 30.37696747 -108.19689941 30.39093018 C-110.46827439 30.37359274 -112.73677953 30.19307514 -115 30 C-119.09082031 28.47729492 -119.09082031 28.47729492 -122 27 C-123.4375 25.0625 -123.4375 25.0625 -125 22 C-125.28875 20.5975 -125.5775 19.195 -125.875 17.75 C-125.91625 16.1825 -125.9575 14.615 -126 13 C-125.248008 9.83396999 -124.20599654 7.03911129 -123 4 C-121.68 3.01 -120.36 2.02 -119 1 C-118.34 1.33 -117.68 1.66 -117 2 C-117.33 2.99 -117.66 3.98 -118 5 C-118.66 5 -119.32 5 -120 5 C-120.66 5.66 -121.32 6.32 -122 7 C-122.33 8.32 -122.66 9.64 -123 11 C-122.34 11 -121.68 11 -121 11 C-121 11.66 -121 12.32 -121 13 C-121.99 13.495 -121.99 13.495 -123 14 C-122.34 14 -121.68 14 -121 14 C-121 16.31 -121 18.62 -121 21 C-119.68 20.67 -118.36 20.34 -117 20 C-116.855625 20.78375 -116.71125 21.5675 -116.5625 22.375 C-116.2840625 23.674375 -116.2840625 23.674375 -116 25 C-115.67 25.66 -115.34 26.32 -115 27 C-95.2 27 -75.4 27 -55 27 C-56.98 26.67 -58.96 26.34 -61 26 C-61 25.34 -61 24.68 -61 24 C-38.56 23.67 -16.12 23.34 7 23 C7 22.01 7 21.02 7 20 C6.01 20.33 5.02 20.66 4 21 C1.84452764 21.09954888 -0.31392101 21.13829479 -2.47167969 21.14526367 C-4.47956573 21.15483345 -4.47956573 21.15483345 -6.52801514 21.16459656 C-8.70297577 21.16626579 -8.70297577 21.16626579 -10.921875 21.16796875 C-13.15460175 21.17296135 -13.15460175 21.17296135 -15.43243408 21.17805481 C-18.58646332 21.18312423 -21.74049794 21.18546313 -24.89453125 21.18530273 C-29.71623618 21.18748472 -34.53771072 21.20562839 -39.359375 21.22460938 C-42.42187422 21.22754418 -45.48437452 21.22952839 -48.546875 21.23046875 C-50.70969025 21.24124702 -50.70969025 21.24124702 -52.91619873 21.25224304 C-54.26739807 21.24916641 -55.61859741 21.24608978 -57.01074219 21.24291992 C-58.19416199 21.24434494 -59.37758179 21.24576996 -60.59686279 21.24723816 C-61.71989807 21.16564957 -62.84293335 21.08406097 -64 21 C-66.34983341 20.39405294 -68.68975897 19.74274845 -71 19 C-71.99 19.495 -71.99 19.495 -73 20 C-73.66 19.34 -74.32 18.68 -75 18 C-74.67 17.34 -74.34 16.68 -74 16 C-82.25 16 -90.5 16 -99 16 C-99.66 15.01 -100.32 14.02 -101 13 C-99.41582275 13.00523682 -97.83164551 13.01047363 -96.19946289 13.01586914 C-53.08946233 13.17655172 -53.08946233 13.17655172 -10 12 C-8.70601853 10.56458334 -7.41489889 9.12658648 -6.125 7.6875 C-5.40570313 6.88699219 -4.68640625 6.08648437 -3.9453125 5.26171875 C-1.88394498 2.95810917 -1.88394498 2.95810917 0 0 Z " transform="translate(137,39)" style="fill: #343337;"/><path d="M0 0 C1.65 0.33 3.3 0.66 5 1 C5 3.31 5 5.62 5 8 C6.32 8 7.64 8 9 8 C9 10.64 9 13.28 9 16 C9.66 15.67 10.32 15.34 11 15 C11 14.34 11 13.68 11 13 C12.65 12.67 14.3 12.34 16 12 C16.66 12.66 17.32 13.32 18 14 C26.25 14.33 34.5 14.66 43 15 C43.495 16.485 43.495 16.485 44 18 C45.32 17.67 46.64 17.34 48 17 C48.67886765 17.32531708 49.35773529 17.65063416 50.05717468 17.98580933 C51.51387321 18.48783371 51.51387321 18.48783371 53 19 C56.37554586 19.28840882 56.37554586 19.28840882 60.08520508 19.22705078 C62.21684868 19.22682419 62.21684868 19.22682419 64.39155579 19.22659302 C66.68240364 19.21110916 66.68240364 19.21110916 69.01953125 19.1953125 C70.5883757 19.1924826 72.15722015 19.18965271 73.77360535 19.18673706 C77.93457279 19.17744147 82.09531949 19.159486 86.25622559 19.1373291 C90.50608416 19.11683172 94.75596557 19.10772703 99.00585938 19.09765625 C107.33730048 19.07559941 115.6686375 19.04212414 124 19 C124 19.99 124 20.98 124 22 C109.66899837 23.21665376 95.37020924 23.11449489 81 23.0625 C78.56770926 23.05747327 76.13541751 23.05291244 73.703125 23.04882812 C67.80205796 23.03791943 61.90104041 23.02071995 56 23 C56 23.66 56 24.32 56 25 C63.59 25 71.18 25 79 25 C79 25.33 79 25.66 79 26 C62.99404249 27.31957285 46.98405879 27.11258938 30.9375 27.0625 C28.12434976 27.05747449 25.31119864 27.05291345 22.49804688 27.04882812 C15.66534533 27.0379069 8.83267682 27.02125227 2 27 C1.67 26.01 1.34 25.02 1 24 C0.34 23.67 -0.32 23.34 -1 23 C-0.67 21.68 -0.34 20.36 0 19 C-1.32 19.33 -2.64 19.66 -4 20 C-4 17.69 -4 15.38 -4 13 C-4.66 13 -5.32 13 -6 13 C-6.33 13.66 -6.66 14.32 -7 15 C-6.67 13.68 -6.34 12.36 -6 11 C-5.34 11.33 -4.68 11.66 -4 12 C-4 11.34 -4 10.68 -4 10 C-4.66 10 -5.32 10 -6 10 C-6 8.35 -6 6.7 -6 5 C-5.01 4.34 -4.02 3.68 -3 3 C-2.34 3.33 -1.68 3.66 -1 4 C-0.67 2.68 -0.34 1.36 0 0 Z " transform="translate(20,40)" style="fill: #141318;"/><path d="M0 0 C1.44117188 -0.02578125 2.88234375 -0.0515625 4.3671875 -0.078125 C6.22730469 0.08429687 6.22730469 0.08429687 8.125 0.25 C11.1328125 1.765625 11.1328125 1.765625 13.125 3.25 C14.10546875 5.65625 14.10546875 5.65625 15.125 9.25 C15.33485302 12.41142218 15.43002743 15.58162934 15.4375 18.75 C15.45425781 20.3896875 15.47101563 22.029375 15.48828125 23.71875 C15.36839844 25.2140625 15.24851563 26.709375 15.125 28.25 C13.60546875 31.84375 13.60546875 31.84375 12.125 34.25 C11.135 32.93 10.145 31.61 9.125 30.25 C9.455 28.93 9.785 27.61 10.125 26.25 C10.455 25.59 10.785 24.93 11.125 24.25 C12.115 24.25 13.105 24.25 14.125 24.25 C13.135 16.825 13.135 16.825 12.125 9.25 C11.465 11.23 10.805 13.21 10.125 15.25 C8.805 15.25 7.485 15.25 6.125 15.25 C6.125 14.59 6.125 13.93 6.125 13.25 C5.135 13.91 4.145 14.57 3.125 15.25 C-0.375053 15.27715558 -3.87489187 15.29691428 -7.375 15.3125 C-8.84839844 15.32506836 -8.84839844 15.32506836 -10.3515625 15.33789062 C-15.95014967 15.35655258 -21.32300148 15.0894093 -26.875 14.25 C-26.875 11.61 -26.875 8.97 -26.875 6.25 C-28.195 6.25 -29.515 6.25 -30.875 6.25 C-31.205 7.24 -31.535 8.23 -31.875 9.25 C-32.205 8.59 -32.535 7.93 -32.875 7.25 C-31.555 5.27 -30.235 3.29 -28.875 1.25 C-19.25460461 0.6527249 -9.63828288 0.15748828 0 0 Z " transform="translate(170.875,29.75)" style="fill: #4D4C50;"/><path d="M0 0 C2.31 0.33 4.62 0.66 7 1 C7.99 2.98 7.99 2.98 9 5 C8.29875 4.67 7.5975 4.34 6.875 4 C5.92625 3.67 4.9775 3.34 4 3 C0.79129767 2.83242243 0.79129767 2.83242243 -2 3 C-2 3.99 -2 4.98 -2 6 C-2.33 6.99 -2.66 7.98 -3 9 C-2.34 9.33 -1.68 9.66 -1 10 C-2.98 10.99 -4.96 11.98 -7 13 C-7.99 14.65 -8.98 16.3 -10 18 C-10.66 18 -11.32 18 -12 18 C-12 18.66 -12 19.32 -12 20 C-12.99 20.33 -13.98 20.66 -15 21 C-15 21.99 -15 22.98 -15 24 C-9.39 24 -3.78 24 2 24 C2 24.33 2 24.66 2 25 C1.31188232 25.10022461 0.62376465 25.20044922 -0.08520508 25.30371094 C-14.48271359 27.41679897 -28.84510162 29.57387119 -43 33 C-43.99 33.495 -43.99 33.495 -45 34 C-45 35.32 -45 36.64 -45 38 C-44.01 38.66 -43.02 39.32 -42 40 C-42.99 40 -43.98 40 -45 40 C-44.67 41.65 -44.34 43.3 -44 45 C-44.33 44.34 -44.66 43.68 -45 43 C-45.66 43 -46.32 43 -47 43 C-47 40.36 -47 37.72 -47 35 C-48.32 35 -49.64 35 -51 35 C-51.33 32.69 -51.66 30.38 -52 28 C-53.32 27.34 -54.64 26.68 -56 26 C-41.03224047 22.50209015 -26.05901362 19.08437628 -11 16 C-7.535 9.07 -7.535 9.07 -4 2 C-2.68 1.34 -1.36 0.68 0 0 Z " transform="translate(76,13)" style="fill: #4E4E53;"/><path d="M0 0 C0.495 0.99 0.495 0.99 1 2 C0.34 3.98 -0.32 5.96 -1 8 C-1.99 8.66 -2.98 9.32 -4 10 C-4.33 10.99 -4.66 11.98 -5 13 C-1.37 13 2.26 13 6 13 C5.01 13.66 4.02 14.32 3 15 C-0.3 15 -3.6 15 -7 15 C-7.66 15.99 -8.32 16.98 -9 18 C-9.66 18 -10.32 18 -11 18 C-11 17.34 -11 16.68 -11 16 C-38.01950173 15.78636672 -38.01950173 15.78636672 -65 17 C-54.44 16.67 -43.88 16.34 -33 16 C-32.505 16.99 -32.505 16.99 -32 18 C-30.35 18.33 -28.7 18.66 -27 19 C-27 19.66 -27 20.32 -27 21 C-32.14116422 21.0496657 -37.2822343 21.08584502 -42.42358398 21.10986328 C-44.17035355 21.11988268 -45.9171065 21.13350195 -47.66381836 21.15087891 C-50.18335612 21.17530556 -52.70301939 21.18545091 -55.22265625 21.1953125 C-56.73609619 21.20578613 -58.24953613 21.21625977 -59.80883789 21.22705078 C-61.19192139 21.15212402 -62.57500488 21.07719727 -64 21 C-68.04858398 19.98779297 -68.04858398 19.98779297 -71 19 C-71.66 19.33 -72.32 19.66 -73 20 C-73.66 19.34 -74.32 18.68 -75 18 C-74.67 17.34 -74.34 16.68 -74 16 C-82.25 16 -90.5 16 -99 16 C-99.66 15.01 -100.32 14.02 -101 13 C-98.62373413 13.00785522 -98.62373413 13.00785522 -96.19946289 13.01586914 C-53.08946233 13.17655172 -53.08946233 13.17655172 -10 12 C-8.70601853 10.56458334 -7.41489889 9.12658648 -6.125 7.6875 C-5.40570313 6.88699219 -4.68640625 6.08648437 -3.9453125 5.26171875 C-1.88394498 2.95810917 -1.88394498 2.95810917 0 0 Z " transform="translate(137,39)" style="fill: #39383E;"/><path d="M0 0 C1.33333333 2.66666667 2.66666667 5.33333333 4 8 C8.62 7.67 13.24 7.34 18 7 C19.32 5.02 20.64 3.04 22 1 C23.32 0.67 24.64 0.34 26 0 C27.65 1.65 29.3 3.3 31 5 C31 5.99 31 6.98 31 8 C33.31 8 35.62 8 38 8 C38.495 9.98 38.495 9.98 39 12 C36.87890625 13.43359375 36.87890625 13.43359375 34 15 C31.15234375 15.66015625 31.15234375 15.66015625 27.9375 16.0625 C26.72707031 16.21589844 25.51664063 16.36929688 24.26953125 16.52734375 C16.18633258 17.42219008 8.09638738 18.23434566 0 19 C0.33 18.01 0.66 17.02 1 16 C1.99 15.34 2.98 14.68 4 14 C6.67646277 13.57030556 9.36718109 13.22619752 12.0625 12.9375 C14.71111812 12.64955499 17.35783475 12.34213021 20 12 C20.66 11.67 21.32 11.34 22 11 C15.07 10.67 8.14 10.34 1 10 C0.67 10.99 0.34 11.98 0 13 C-0.66 13 -1.32 13 -2 13 C-1.67 11.68 -1.34 10.36 -1 9 C-0.34 9 0.32 9 1 9 C0.67 6.03 0.34 3.06 0 0 Z " transform="translate(85,18)" style="fill: #2B2A2D;"/><path d="M0 0 C1.65 0.33 3.3 0.66 5 1 C5 3.31 5 5.62 5 8 C5.66 8.33 6.32 8.66 7 9 C5.35 9 3.7 9 2 9 C1.67 7.35 1.34 5.7 1 4 C1.33 8.62 1.66 13.24 2 18 C3.98 18 5.96 18 8 18 C8 18.99 8 19.98 8 21 C8.66 21 9.32 21 10 21 C10.66 21.66 11.32 22.32 12 23 C12.7528125 22.98839844 13.505625 22.97679688 14.28125 22.96484375 C23.22409428 22.88887299 32.08193129 23.35890649 41 24 C41 24.33 41 24.66 41 25 C36.71 25 32.42 25 28 25 C28 25.66 28 26.32 28 27 C19.42 27 10.84 27 2 27 C1.67 26.01 1.34 25.02 1 24 C0.34 23.67 -0.32 23.34 -1 23 C-0.67 21.68 -0.34 20.36 0 19 C-1.32 19.33 -2.64 19.66 -4 20 C-4 17.69 -4 15.38 -4 13 C-4.66 13 -5.32 13 -6 13 C-6.33 13.66 -6.66 14.32 -7 15 C-6.67 13.68 -6.34 12.36 -6 11 C-5.34 11.33 -4.68 11.66 -4 12 C-4 11.34 -4 10.68 -4 10 C-4.66 10 -5.32 10 -6 10 C-6 8.35 -6 6.7 -6 5 C-5.01 4.34 -4.02 3.68 -3 3 C-2.34 3.33 -1.68 3.66 -1 4 C-0.67 2.68 -0.34 1.36 0 0 Z " transform="translate(20,40)" style="fill: #2C2C31;"/><path d="M0 0 C0.66 0.33 1.32 0.66 2 1 C1.67 1.99 1.34 2.98 1 4 C0.34 4 -0.32 4 -1 4 C-1.66 4.66 -2.32 5.32 -3 6 C-3.33 7.32 -3.66 8.64 -4 10 C-3.34 10 -2.68 10 -2 10 C-2 10.66 -2 11.32 -2 12 C-2.99 12.495 -2.99 12.495 -4 13 C-3.34 13 -2.68 13 -2 13 C-2 15.31 -2 17.62 -2 20 C-0.68 19.67 0.64 19.34 2 19 C2.144375 19.78375 2.28875 20.5675 2.4375 21.375 C2.7159375 22.674375 2.7159375 22.674375 3 24 C3.33 24.66 3.66 25.32 4 26 C38.65 26.33 73.3 26.66 109 27 C109 27.33 109 27.66 109 28 C83.70385894 28.64335424 58.4052289 29.12884662 33.10058594 29.23217773 C30.6236673 29.24402669 28.14676793 29.26108776 25.66992188 29.28344727 C22.18347088 29.31328414 18.69750146 29.32334404 15.2109375 29.328125 C14.17754242 29.34043152 13.14414734 29.35273804 12.07943726 29.36541748 C9.3521238 29.35704231 6.71055127 29.30265751 4 29 C-0.20068359 27.47949219 -0.20068359 27.47949219 -3 26 C-4.4375 24.0625 -4.4375 24.0625 -6 21 C-6.28875 19.5975 -6.5775 18.195 -6.875 16.75 C-6.91625 15.1825 -6.9575 13.615 -7 12 C-6.248008 8.83396999 -5.20599654 6.03911129 -4 3 C-2.68 2.01 -1.36 1.02 0 0 Z " transform="translate(18,40)" style="fill: #4F4E52;"/><path d="M0 0 C1.32 0.66 2.64 1.32 4 2 C6.80317836 2.36448829 6.80317836 2.36448829 9.859375 2.4140625 C11.53193359 2.47207031 11.53193359 2.47207031 13.23828125 2.53125 C14.39714844 2.5621875 15.55601563 2.593125 16.75 2.625 C18.51150391 2.68300781 18.51150391 2.68300781 20.30859375 2.7421875 C23.20557268 2.8363982 26.10254626 2.92201602 29 3 C29.495 4.485 29.495 4.485 30 6 C31.32 5.67 32.64 5.34 34 5 C35.0058313 5.48218994 35.0058313 5.48218994 36.03198242 5.97412109 C37.50115112 6.48193115 37.50115112 6.48193115 39 7 C41.48962735 7.22647164 43.98908844 7.35432084 46.48828125 7.4140625 C47.91591797 7.45273437 49.34355469 7.49140625 50.81445312 7.53125 C53.04098633 7.57765625 53.04098633 7.57765625 55.3125 7.625 C56.81619141 7.66367187 58.31988281 7.70234375 59.86914062 7.7421875 C63.57930474 7.83641389 67.28946445 7.92203026 71 8 C71 8.33 71 8.66 71 9 C62.49577476 9.02545069 53.99155943 9.04290911 45.48730469 9.05493164 C42.59700147 9.05994616 39.70670078 9.0667594 36.81640625 9.07543945 C32.65103532 9.08763148 28.48569808 9.09325726 24.3203125 9.09765625 C23.03762482 9.10281754 21.75493713 9.10797882 20.43338013 9.11329651 C13.54544463 9.11372277 6.83325581 8.898822 0 8 C-0.66 7.67 -1.32 7.34 -2 7 C-2.33 5.02 -2.66 3.04 -3 1 C-2.01 0.67 -1.02 0.34 0 0 Z " transform="translate(34,52)" style="fill: #302F35;"/><path d="M0 0 C-0.33 1.32 -0.66 2.64 -1 4 C-4.3 4 -7.6 4 -11 4 C-11.33 4.66 -11.66 5.32 -12 6 C-27.84 5.67 -43.68 5.34 -60 5 C-60 4.67 -60 4.34 -60 4 C-62.97 3.505 -62.97 3.505 -66 3 C-66 2.34 -66 1.68 -66 1 C-58.85078313 0.8558038 -51.70153248 0.71346151 -44.55224609 0.57275391 C-42.12580394 0.52474702 -39.69937134 0.47625476 -37.27294922 0.42724609 C-11.40207128 -0.09464482 -11.40207128 -0.09464482 0 0 Z " transform="translate(142,62)" style="fill: #2C2C2F;"/><path d="M0 0 C1.58361328 0.01740234 1.58361328 0.01740234 3.19921875 0.03515625 C4.80216797 0.04869141 4.80216797 0.04869141 6.4375 0.0625 C7.24574219 0.07410156 8.05398437 0.08570313 8.88671875 0.09765625 C8.88671875 1.08765625 8.88671875 2.07765625 8.88671875 3.09765625 C9.87671875 3.09765625 10.86671875 3.09765625 11.88671875 3.09765625 C11.88671875 2.43765625 11.88671875 1.77765625 11.88671875 1.09765625 C14.52671875 1.09765625 17.16671875 1.09765625 19.88671875 1.09765625 C20.54671875 3.73765625 21.20671875 6.37765625 21.88671875 9.09765625 C20.89671875 9.59265625 20.89671875 9.59265625 19.88671875 10.09765625 C17.42997859 10.19546558 14.97040057 10.22741192 12.51171875 10.22265625 C10.52011719 10.22652344 10.52011719 10.22652344 8.48828125 10.23046875 C7.29976562 10.18664062 6.11125 10.1428125 4.88671875 10.09765625 C3.56671875 9.76765625 2.24671875 9.43765625 0.88671875 9.09765625 C0.88671875 8.10765625 0.88671875 7.11765625 0.88671875 6.09765625 C-3.56828125 6.59265625 -3.56828125 6.59265625 -8.11328125 7.09765625 C-8.44328125 6.43765625 -8.77328125 5.77765625 -9.11328125 5.09765625 C-8.78328125 3.77765625 -8.45328125 2.45765625 -8.11328125 1.09765625 C-5.35717315 0.44825787 -2.83738387 0.089002 0 0 Z " transform="translate(160.11328125,54.90234375)" style="fill: #26252A;"/><path d="M0 0 C1.32 0.33 2.64 0.66 4 1 C4 1.66 4 2.32 4 3 C5.65 2.67 7.3 2.34 9 2 C9.33 3.65 9.66 5.3 10 7 C11.32 7.33 12.64 7.66 14 8 C15.65 8 17.3 8 19 8 C19 8.99 19 9.98 19 11 C25.93 11 32.86 11 40 11 C39.67 11.66 39.34 12.32 39 13 C37.68 13.33 36.36 13.66 35 14 C31.50860391 14.08475147 28.03782145 14.11593822 24.546875 14.09765625 C23.53151672 14.0962413 22.51615845 14.09482635 21.47003174 14.09336853 C18.22999108 14.08777516 14.99001975 14.07522385 11.75 14.0625 C9.55208433 14.05748414 7.35416758 14.05292139 5.15625 14.04882812 C-0.22919334 14.0378079 -5.61458492 14.02054778 -11 14 C-11 13.67 -11 13.34 -11 13 C-7.7 12.67 -4.4 12.34 -1 12 C-0.67 11.01 -0.34 10.02 0 9 C0.66 9 1.32 9 2 9 C2 8.01 2 7.02 2 6 C1.34 6 0.68 6 0 6 C-0.33 4.35 -0.66 2.7 -1 1 C-0.67 0.67 -0.34 0.34 0 0 Z " transform="translate(142,53)" style="fill: #37363B;"/><path d="M0 0 C1.44117188 -0.02578125 2.88234375 -0.0515625 4.3671875 -0.078125 C6.22730469 0.08429687 6.22730469 0.08429687 8.125 0.25 C11.1328125 1.765625 11.1328125 1.765625 13.125 3.25 C12.795 3.91 12.465 4.57 12.125 5.25 C9.65 4.755 9.65 4.755 7.125 4.25 C7.125 3.59 7.125 2.93 7.125 2.25 C1.185 2.25 -4.755 2.25 -10.875 2.25 C-10.545 2.91 -10.215 3.57 -9.875 4.25 C-6.905 4.745 -6.905 4.745 -3.875 5.25 C-4.205 5.91 -4.535 6.57 -4.875 7.25 C-6.091875 7.20875 -7.30875 7.1675 -8.5625 7.125 C-9.985625 7.16625 -11.40875 7.2075 -12.875 7.25 C-15.75714887 8.13214887 -15.75714887 8.13214887 -17.875 9.25 C-18.205 9.91 -18.535 10.57 -18.875 11.25 C-21.185 11.58 -23.495 11.91 -25.875 12.25 C-25.875 10.27 -25.875 8.29 -25.875 6.25 C-27.525 6.25 -29.175 6.25 -30.875 6.25 C-31.205 7.24 -31.535 8.23 -31.875 9.25 C-32.205 8.59 -32.535 7.93 -32.875 7.25 C-31.555 5.27 -30.235 3.29 -28.875 1.25 C-19.25460461 0.6527249 -9.63828288 0.15748828 0 0 Z " transform="translate(170.875,29.75)" style="fill: #525256;"/><path d="M0 0 C0.495 0.99 0.495 0.99 1 2 C0.34 3.98 -0.32 5.96 -1 8 C-1.99 8.66 -2.98 9.32 -4 10 C-4.33 10.99 -4.66 11.98 -5 13 C-1.37 13 2.26 13 6 13 C5.01 13.66 4.02 14.32 3 15 C-0.3 15 -3.6 15 -7 15 C-7.66 15.99 -8.32 16.98 -9 18 C-9.66 18 -10.32 18 -11 18 C-11 17.34 -11 16.68 -11 16 C-34.1 15.67 -57.2 15.34 -81 15 C-81 14.67 -81 14.34 -81 14 C-57.57 13.34 -34.14 12.68 -10 12 C-4.71449986 6.22035572 -4.71449986 6.22035572 0 0 Z " transform="translate(137,39)" style="fill: #66666C;"/><path d="M0 0 C1.32 0.33 2.64 0.66 4 1 C1.69 1.33 -0.62 1.66 -3 2 C-3 2.66 -3 3.32 -3 4 C-2.34 4 -1.68 4 -1 4 C-1 4.66 -1 5.32 -1 6 C-2.65 6 -4.3 6 -6 6 C-6.66 5.34 -7.32 4.68 -8 4 C-8.99 4.33 -9.98 4.66 -11 5 C-11.33 5.99 -11.66 6.98 -12 8 C-16.29 7.67 -20.58 7.34 -25 7 C-25 8.98 -25 10.96 -25 13 C-23.97519531 12.7834375 -22.95039063 12.566875 -21.89453125 12.34375 C-20.54746094 12.0653125 -19.20039062 11.786875 -17.8125 11.5 C-16.47832031 11.2215625 -15.14414062 10.943125 -13.76953125 10.65625 C-10 10 -10 10 -5 10 C-6.98 10.99 -6.98 10.99 -9 12 C-11.07158792 12.58498208 -13.15642808 13.12436324 -15.25 13.625 C-16.32765625 13.88539062 -17.4053125 14.14578125 -18.515625 14.4140625 C-19.74539062 14.70410156 -19.74539062 14.70410156 -21 15 C-21 16.32 -21 17.64 -21 19 C-20.01 19.66 -19.02 20.32 -18 21 C-18.99 21 -19.98 21 -21 21 C-20.67 22.65 -20.34 24.3 -20 26 C-20.33 25.34 -20.66 24.68 -21 24 C-21.66 24 -22.32 24 -23 24 C-23 21.36 -23 18.72 -23 16 C-24.32 16 -25.64 16 -27 16 C-27.33 13.69 -27.66 11.38 -28 9 C-29.32 8.34 -30.64 7.68 -32 7 C-27.79236851 6.01780092 -23.58377715 5.03977716 -19.375 4.0625 C-18.18519531 3.78470703 -16.99539062 3.50691406 -15.76953125 3.22070312 C-14.61582031 2.95322266 -13.46210937 2.68574219 -12.2734375 2.41015625 C-11.21560059 2.16402588 -10.15776367 1.91789551 -9.06787109 1.66430664 C-6.04047708 1.00876477 -3.07567909 0.3759864 0 0 Z " transform="translate(52,32)" style="fill: #58585C;"/><path d="M0 0 C1.32 0.66 2.64 1.32 4 2 C4.495 3.98 4.495 3.98 5 6 C5.14696406 9.13711737 5.23086912 12.23753637 5.25 15.375 C5.270625 16.21289062 5.29125 17.05078125 5.3125 17.9140625 C5.32736936 20.27829074 5.16816308 22.64171302 5 25 C3.484375 28.6015625 3.484375 28.6015625 2 31 C1.01 29.68 0.02 28.36 -1 27 C-0.67 25.68 -0.34 24.36 0 23 C0.33 22.34 0.66 21.68 1 21 C1.99 21 2.98 21 4 21 C3.01 13.575 3.01 13.575 2 6 C1.34 7.98 0.68 9.96 0 12 C-1.32 12 -2.64 12 -4 12 C-4 11.34 -4 10.68 -4 10 C-4.99 10.66 -5.98 11.32 -7 12 C-10.500053 12.02715558 -13.99989187 12.04691428 -17.5 12.0625 C-18.97339844 12.07506836 -18.97339844 12.07506836 -20.4765625 12.08789062 C-26.07514967 12.10655258 -31.44800148 11.8394093 -37 11 C-37 8.36 -37 5.72 -37 3 C-36.67 3 -36.34 3 -36 3 C-36 5.31 -36 7.62 -36 10 C-24.12 9.67 -12.24 9.34 0 9 C0 6.03 0 3.06 0 0 Z " transform="translate(181,33)" style="fill: #4F4C4D;"/><path d="M0 0 C10.23 0 20.46 0 31 0 C31 0.66 31 1.32 31 2 C38.59 2 46.18 2 54 2 C54 2.33 54 2.66 54 3 C37.03663336 4.47050856 20.00959118 4.09466765 3 4 C3 3.34 3 2.68 3 2 C2.01 1.34 1.02 0.68 0 0 Z " transform="translate(45,63)" style="fill: #212125;"/><path d="M0 0 C0.66 0.66 1.32 1.32 2 2 C2 3.65 2 5.3 2 7 C5.465 6.505 5.465 6.505 9 6 C9 8.64 9 11.28 9 14 C9.66 14 10.32 14 11 14 C11.99 14.99 12.98 15.98 14 17 C17.3 17.33 20.6 17.66 24 18 C24 18.33 24 18.66 24 19 C22.5975 19.12375 21.195 19.2475 19.75 19.375 C18.1825 19.58125 16.615 19.7875 15 20 C13.02 20.99 13.02 20.99 11 22 C10.67 21.01 10.34 20.02 10 19 C9.34 19 8.68 19 8 19 C8 18.01 8 17.02 8 16 C5.69 16.33 3.38 16.66 1 17 C0.67 11.39 0.34 5.78 0 0 Z " transform="translate(20,42)" style="fill: #1D1C21;"/><path d="M0 0 C1.33333333 2.66666667 2.66666667 5.33333333 4 8 C8.62 7.67 13.24 7.34 18 7 C19.32 5.02 20.64 3.04 22 1 C23.32 0.67 24.64 0.34 26 0 C27.32 0.99 28.64 1.98 30 3 C29.67 3.66 29.34 4.32 29 5 C28.67 5.33 28.34 5.66 28 6 C27.34 6 26.68 6 26 6 C25.34 5.34 24.68 4.68 24 4 C23.34 5.32 22.68 6.64 22 8 C23.65 7.67 25.3 7.34 27 7 C27.33 7.99 27.66 8.98 28 10 C28.66 10.33 29.32 10.66 30 11 C29.01 11.33 28.02 11.66 27 12 C25.32613082 11.7049562 23.65949202 11.36738963 22 11 C20.30842606 10.86081463 18.61369627 10.7564164 16.91796875 10.68359375 C15.98662109 10.64169922 15.05527344 10.59980469 14.09570312 10.55664062 C13.13599609 10.51732422 12.17628906 10.47800781 11.1875 10.4375 C10.20845703 10.39431641 9.22941406 10.35113281 8.22070312 10.30664062 C5.81395102 10.20097834 3.40699297 10.10002535 1 10 C0.67 10.99 0.34 11.98 0 13 C-0.66 13 -1.32 13 -2 13 C-1.67 11.68 -1.34 10.36 -1 9 C-0.34 9 0.32 9 1 9 C0.67 6.03 0.34 3.06 0 0 Z " transform="translate(85,18)" style="fill: #646468;"/><path d="M0 0 C19.73420479 1.4335512 19.73420479 1.4335512 26 3 C26 3.66 26 4.32 26 5 C24.68 5 23.36 5 22 5 C22 5.66 22 6.32 22 7 C19.08338395 7.0270057 16.16669663 7.04639836 13.25 7.0625 C10.81367188 7.07990234 10.81367188 7.07990234 8.328125 7.09765625 C6.89984375 7.06542969 5.4715625 7.03320312 4 7 C2.68 6.67 1.36 6.34 0 6 C0 4.02 0 2.04 0 0 Z " transform="translate(146,47)" style="fill: #121118;"/><path d="M0 0 C0 0.66 0 1.32 0 2 C0.63292969 1.84660156 1.26585938 1.69320312 1.91796875 1.53515625 C6.04331925 0.81884064 10.13187248 0.6480352 14.3125 0.4375 C16.75076172 0.31181641 16.75076172 0.31181641 19.23828125 0.18359375 C20.47964844 0.12300781 21.72101563 0.06242187 23 0 C22.67 0.66 22.34 1.32 22 2 C21.34 2 20.68 2 20 2 C19.67 2.99 19.34 3.98 19 5 C14.88232004 5.72530562 10.89452978 6.07453305 6.72265625 6.09765625 C4.83591256 6.09108223 2.94918066 6.07926476 1.0625 6.0625 C0.09248047 6.05798828 -0.87753906 6.05347656 -1.87695312 6.04882812 C-4.25132906 6.03713169 -6.62567288 6.01919941 -9 6 C-7.68 5.67 -6.36 5.34 -5 5 C-5 4.01 -5 3.02 -5 2 C-5.99 1.67 -6.98 1.34 -8 1 C-2.25 0 -2.25 0 0 0 Z " transform="translate(66,32)" style="fill: #1E1D23;"/><path d="M0 0 C0.33 0 0.66 0 1 0 C1.38439788 1.65563497 1.70540343 3.32605205 2 5 C2.06533435 6.93651019 2.08584303 8.87502861 2.0625 10.8125 C2.05347656 11.78832031 2.04445312 12.76414062 2.03515625 13.76953125 C2.02355469 14.50558594 2.01195312 15.24164063 2 16 C1.01 16 0.02 16 -1 16 C-1.33 16.99 -1.66 17.98 -2 19 C-2.495 16.525 -2.495 16.525 -3 14 C-5.31 13.67 -7.62 13.34 -10 13 C-10 12.01 -10 11.02 -10 10 C-10.80824219 10.01160156 -11.61648437 10.02320313 -12.44921875 10.03515625 C-13.51785156 10.04417969 -14.58648437 10.05320312 -15.6875 10.0625 C-17.27111328 10.07990234 -17.27111328 10.07990234 -18.88671875 10.09765625 C-22 10 -22 10 -24.89453125 9.49609375 C-25.58933594 9.33238281 -26.28414062 9.16867188 -27 9 C-27 8.67 -27 8.34 -27 8 C-18.42 8 -9.84 8 -1 8 C-1 5.69 -1 3.38 -1 1 C-0.67 0.67 -0.34 0.34 0 0 Z " transform="translate(183,38)" style="fill: #2A2727;"/><path d="M0 0 C0.66 0.33 1.32 0.66 2 1 C1.67 1.99 1.34 2.98 1 4 C0.34 4 -0.32 4 -1 4 C-1.66 4.66 -2.32 5.32 -3 6 C-3.33 7.32 -3.66 8.64 -4 10 C-3.34 10 -2.68 10 -2 10 C-2 10.66 -2 11.32 -2 12 C-2.99 12.495 -2.99 12.495 -4 13 C-3.34 13 -2.68 13 -2 13 C-2 15.31 -2 17.62 -2 20 C-0.68 19.67 0.64 19.34 2 19 C2.144375 19.763125 2.28875 20.52625 2.4375 21.3125 C2.9632594 24.08172908 2.9632594 24.08172908 4 27 C1.03 26.01 -1.94 25.02 -5 24 C-5.938602 20.00925337 -6.69202476 16.09167098 -7 12 C-6.46484375 9.19921875 -6.46484375 9.19921875 -5.625 6.75 C-5.08875 5.5125 -4.5525 4.275 -4 3 C-2.68 2.01 -1.36 1.02 0 0 Z " transform="translate(18,40)" style="fill: #5F6166;"/><path d="M0 0 C0.33 0.99 0.66 1.98 1 3 C3.31 3 5.62 3 8 3 C8.495 4.98 8.495 4.98 9 7 C6.87890625 8.43359375 6.87890625 8.43359375 4 10 C1.15234375 10.66015625 1.15234375 10.66015625 -2.0625 11.0625 C-3.27292969 11.21589844 -4.48335937 11.36929688 -5.73046875 11.52734375 C-13.81366742 12.42219008 -21.90361262 13.23434566 -30 14 C-29.67 13.34 -29.34 12.68 -29 12 C-26.69750663 11.23357115 -24.35191106 10.59783214 -22 10 C-18.30155382 9.51388222 -14.59375932 9.22222525 -10.875 8.9375 C-8.93469591 8.78242946 -6.99458191 8.62495782 -5.0546875 8.46484375 C-4.20374512 8.399021 -3.35280273 8.33319824 -2.47607422 8.26538086 C0.06032157 7.99353485 2.50754635 7.53744054 5 7 C4.505 6.01 4.505 6.01 4 5 C2.68 4.67 1.36 4.34 0 4 C0 2.68 0 1.36 0 0 Z " transform="translate(115,23)" style="fill: #626062;"/><path d="M0 0 C0.66 0.474375 1.32 0.94875 2 1.4375 C2.99 1.953125 3.98 2.46875 5 3 C9.19636827 3.7231422 9.19636827 3.7231422 13 4 C13 4.66 13 5.32 13 6 C3.76 6 -5.48 6 -15 6 C-14.67 5.01 -14.34 4.02 -14 3 C-11.68874918 2.26039974 -9.34972177 1.60637981 -7 1 C-3.5625 0.875 -3.5625 0.875 -1 1 C-0.67 0.67 -0.34 0.34 0 0 Z " transform="translate(167,35)" style="fill: #59585D;"/><path d="M0 0 C1.44117188 -0.02578125 2.88234375 -0.0515625 4.3671875 -0.078125 C6.22730469 0.08429687 6.22730469 0.08429687 8.125 0.25 C11.1328125 1.765625 11.1328125 1.765625 13.125 3.25 C12.795 3.91 12.465 4.57 12.125 5.25 C9.65 4.755 9.65 4.755 7.125 4.25 C7.125 3.59 7.125 2.93 7.125 2.25 C-3.765 2.25 -14.655 2.25 -25.875 2.25 C-25.545 3.9 -25.215 5.55 -24.875 7.25 C-27.845 6.755 -27.845 6.755 -30.875 6.25 C-31.205 7.24 -31.535 8.23 -31.875 9.25 C-32.205 8.59 -32.535 7.93 -32.875 7.25 C-31.555 5.27 -30.235 3.29 -28.875 1.25 C-19.25460461 0.6527249 -9.63828288 0.15748828 0 0 Z " transform="translate(170.875,29.75)" style="fill: #848485;"/><path d="M0 0 C0.33 0.66 0.66 1.32 1 2 C0.34 3.32 -0.32 4.64 -1 6 C-0.01 5.01 0.98 4.02 2 3 C8.93 3 15.86 3 23 3 C23.33 3.66 23.66 4.32 24 5 C20.01512198 5.84527716 16.04570145 6.5175628 12 7 C6.66143865 7.16264434 1.33910772 7.12195931 -4 7 C-3.37943989 5.31562256 -2.70710678 3.64991582 -2 2 C-1.34 1.34 -0.68 0.68 0 0 Z " transform="translate(84,25)" style="fill: #343438;"/><path d="M0 0 C6.6 0 13.2 0 20 0 C20.99 0.66 21.98 1.32 23 2 C15.32224198 3.91342245 7.89547185 5.41078568 0 6 C0 4.02 0 2.04 0 0 Z " transform="translate(27,39)" style="fill: #252428;"/></svg>