<?xml version="1.0" encoding="UTF-8"?>
<!-- Generator: visioncortex VTracer -->
<svg id="svg" version="1.1" xmlns="http://www.w3.org/2000/svg" style="display: block;" viewBox="0 0 259 127"><path d="M0 0 C3.68861306 2.25662883 4.83925046 3.48428475 6.14453125 7.671875 C6.38804756 9.0276685 6.6103041 10.38743146 6.8125 11.75 C6.93302734 12.44738281 7.05355469 13.14476562 7.17773438 13.86328125 C7.47039918 15.57244369 7.73776895 17.28590438 8 19 C10.93797442 18.69152766 13.87532282 18.37839777 16.8125 18.0625 C17.64587891 17.97548828 18.47925781 17.88847656 19.33789062 17.79882812 C20.14033203 17.71181641 20.94277344 17.62480469 21.76953125 17.53515625 C22.50792236 17.456604 23.24631348 17.37805176 24.00708008 17.29711914 C26.20269378 17.02848004 26.20269378 17.02848004 29 16 C29.45375 15.030625 29.9075 14.06125 30.375 13.0625 C32 10 32 10 34.25 8.5625 C37.96580648 7.80244867 40.36441301 7.85546335 44 9 C45.72492224 12.0603459 47 14.4419477 47 18 C48.32 18.33 49.64 18.66 51 19 C51 20.65 51 22.3 51 24 C40.47655911 26.44100433 29.78382444 27.18657881 19.04931641 28.17456055 C-2.95655904 30.21571563 -24.44390708 33.93243091 -46.125 38.1875 C-49.67889612 38.88215796 -53.23302455 39.57557951 -56.78756714 40.266922 C-58.97818696 40.69325722 -61.16841024 41.12163627 -63.35818481 41.55229187 C-64.33455902 41.74281631 -65.31093323 41.93334076 -66.31689453 42.12963867 C-67.17590363 42.29823898 -68.03491272 42.46683929 -68.91995239 42.64054871 C-71 43 -71 43 -73 43 C-73 46.3 -73 49.6 -73 53 C-56.77102159 52.9157157 -40.54215288 52.8210097 -24.31332016 52.71247292 C-16.77807395 52.66234064 -9.24283866 52.61589781 -1.70751953 52.578125 C4.85988846 52.54519476 11.42721192 52.50535787 17.99452662 52.45720994 C21.47221053 52.43195514 24.94983843 52.4101709 28.42758942 52.39665604 C32.30892445 52.38144345 36.19005401 52.35081196 40.07128906 52.31884766 C41.22575027 52.31668747 42.38021149 52.31452728 43.56965637 52.31230164 C44.62692429 52.30113815 45.6841922 52.28997467 46.77349854 52.2784729 C47.69160435 52.27294214 48.60971016 52.26741138 49.55563736 52.26171303 C53.91228669 51.79525528 55.67854379 50.36127405 58.5859375 47.09375 C59.52488671 45.90307894 60.45417479 44.70474235 61.375 43.5 C61.85960693 42.87649658 62.34421387 42.25299316 62.84350586 41.6105957 C66.22069489 37.19914607 69.19946607 32.66684658 71.87890625 27.79296875 C73 26 73 26 75 25 C76.51001203 24.89513995 78.02448857 24.85131617 79.53808594 24.83886719 C80.47956482 24.82925964 81.4210437 24.8196521 82.39105225 24.80975342 C83.41184875 24.80550354 84.43264526 24.80125366 85.484375 24.796875 C86.53272522 24.79117493 87.58107544 24.78547485 88.66119385 24.77960205 C90.88381946 24.77014266 93.10645915 24.76361436 95.32910156 24.75976562 C98.7222563 24.7500792 102.11480051 24.71907208 105.5078125 24.6875 C107.66666307 24.68096811 109.82551797 24.67571837 111.984375 24.671875 C112.99707458 24.6595282 114.00977417 24.6471814 115.05316162 24.63446045 C120.64813037 24.65205952 125.76299815 24.76299815 130 29 C130.29237299 34.50290384 130.31406277 40.00838199 130.35009766 45.51831055 C130.36665249 47.37585991 130.39393645 49.2333457 130.43212891 51.09057617 C130.4868723 53.76514821 130.50876778 56.43822456 130.5234375 59.11328125 C130.54610687 59.94257645 130.56877625 60.77187164 130.59213257 61.626297 C130.57092973 67.40886601 130.57092973 67.40886601 127.59228516 70.49291992 C123.90773903 72.63500914 122.02674057 73.12983831 117.76805115 73.15821838 C116.65601318 73.1680072 115.54397522 73.17779602 114.39823914 73.18788147 C113.170392 73.19363693 111.94254486 73.1993924 110.67749023 73.20532227 C109.38684662 73.21522186 108.096203 73.22512146 106.76644897 73.23532104 C103.19828743 73.26251161 99.63011276 73.2834898 96.06190372 73.30332303 C92.26325689 73.32537882 88.46464776 73.3527328 84.66603088 73.37937927 C78.21853438 73.42382606 71.77102266 73.46447622 65.32348633 73.50268555 C58.84559696 73.54109354 52.36773823 73.58249333 45.88989258 73.62768555 C44.71894973 73.63584036 44.71894973 73.63584036 43.52435148 73.64415991 C42.74498971 73.64958788 41.96562794 73.65501584 41.16264915 73.66060829 C25.45001475 73.76999616 9.73738561 73.86133469 -5.9754734 73.93166542 C-14.60972534 73.97075971 -23.24378648 74.02069425 -31.87789613 74.08392793 C-37.97620179 74.12782396 -44.07450441 74.16052917 -50.17291945 74.18479842 C-53.73552483 74.19933066 -57.29792515 74.21882784 -60.86041451 74.25146675 C-64.75841487 74.28701078 -68.65628854 74.29871873 -72.55444336 74.30834961 C-73.69008413 74.32244055 -74.82572491 74.33653149 -75.99577904 74.35104942 C-82.3785971 74.34403548 -88.21074592 73.91120384 -94 71 C-98.56885825 65.69422912 -99.49780753 58.37155502 -99.30078125 51.55859375 C-98.7784714 47.11556839 -97.57359352 43.66413521 -95 40 C-89.39682382 35.81586688 -82.8891611 33.74327881 -76.1875 32.0625 C-75.23770264 31.81580566 -74.28790527 31.56911133 -73.30932617 31.31494141 C-66.79469192 29.70800845 -60.25300413 28.49050155 -53.6328125 27.42578125 C-52.82376968 27.29536942 -52.01472687 27.16495758 -51.1811676 27.03059387 C-47.12043204 26.383044 -43.05740697 25.76399461 -38.98706055 25.17993164 C-37.4770316 24.95080999 -35.967021 24.72156737 -34.45703125 24.4921875 C-33.76316315 24.40064896 -33.06929504 24.30911041 -32.35440063 24.21479797 C-28.00359833 23.53767918 -25.70882519 22.49813798 -23 19 C-22.00220273 16.61030665 -22.00220273 16.61030665 -21.4375 14.0625 C-18.97417336 5.31255851 -18.97417336 5.31255851 -14.83203125 2.55859375 C-9.63736543 -0.3255853 -5.89971055 -1.96657018 0 0 Z " transform="translate(109,19)" style="fill: #232425;"/></svg>