<?xml version="1.0" encoding="UTF-8"?>
<!-- Generator: visioncortex VTracer -->
<svg id="svg" version="1.1" xmlns="http://www.w3.org/2000/svg" style="display: block;" viewBox="0 0 1254 199"><path d="M0 0 C4.55501894 0.00166078 9.11003359 -0.00253024 13.66505107 -0.00590918 C21.61774402 -0.01102021 29.57043089 -0.01248794 37.52312532 -0.01145306 C49.34839196 -0.00991804 61.17365196 -0.01411171 72.9989173 -0.01932769 C95.34476867 -0.02896009 117.69061772 -0.03181026 140.03647092 -0.03238475 C157.28069273 -0.03284518 174.52491363 -0.03490815 191.76913514 -0.03808537 C196.74146522 -0.03898294 201.71379529 -0.03987276 206.68612536 -0.04076025 C207.92234806 -0.0409813 209.15857076 -0.04120235 210.43225475 -0.04143009 C245.15946557 -0.0475763 279.88667607 -0.0515314 314.61388745 -0.05108681 C315.92096917 -0.05107124 317.22805089 -0.05105566 318.57474114 -0.05103961 C325.19899452 -0.0509565 331.8232479 -0.05085746 338.44750127 -0.0507549 C339.76302611 -0.05073495 341.07855095 -0.05071501 342.43394018 -0.05069446 C345.09423451 -0.05065402 347.75452883 -0.05061222 350.41482316 -0.05056907 C391.8805469 -0.0499552 433.34626234 -0.05748115 474.81198373 -0.07114163 C521.42761125 -0.08649051 568.04323342 -0.09510905 614.65886363 -0.09417841 C619.62333483 -0.09410378 624.58780603 -0.09405507 629.55227723 -0.09402409 C630.77461351 -0.09401244 631.99694978 -0.09400078 633.25632655 -0.09398878 C652.95246069 -0.09395796 672.64858776 -0.10035133 692.34471979 -0.10895636 C712.10731344 -0.11741248 731.86989669 -0.11843864 751.63249114 -0.11184704 C763.38283088 -0.1081395 775.13313911 -0.1100197 786.88347554 -0.11978938 C794.71999969 -0.12575686 802.55650085 -0.12453026 810.39302391 -0.11731888 C814.86511486 -0.11341023 819.33714452 -0.112739 823.80923131 -0.12077623 C827.87146028 -0.12801348 831.93357646 -0.12616819 835.99580026 -0.11685236 C837.46174757 -0.11512072 838.92770354 -0.11679268 840.39364208 -0.12215357 C842.3747895 -0.12891751 844.35596936 -0.12227234 846.33711454 -0.11487874 C847.43684067 -0.11496697 848.53656681 -0.11505519 849.66961798 -0.11514608 C852.52406363 0.1378647 854.12559451 0.54408488 856.48800912 2.13466892 C858.48800912 5.13466892 858.48800912 5.13466892 858.48800912 9.13466892 C859.35683725 9.09986423 860.22566537 9.06505954 861.12082162 9.02920017 C873.43620329 8.73991268 873.43620329 8.73991268 877.48800912 12.13466892 C880.02983119 18.52000741 879.78549276 24.90305171 879.73800912 31.69716892 C879.7457435 32.80769626 879.75347787 33.9182236 879.76144662 35.06240329 C879.7337469 46.63396002 879.7337469 46.63396002 876.29269662 51.99795017 C873.48701111 53.76516766 870.88314367 53.36019374 867.61300912 53.32216892 C862.61333131 53.39372171 862.61333131 53.39372171 858.56222787 55.90029392 C857.26883997 58.02431501 857.26883997 58.02431501 856.38254037 60.22451267 C855.48800912 62.13466892 855.48800912 62.13466892 852.48800912 64.13466892 C849.89863305 64.38495658 849.89863305 64.38495658 846.71565958 64.38536724 C845.50177977 64.39037428 844.28789996 64.39538132 843.03723591 64.40054008 C841.68045016 64.395986 840.32366502 64.3912496 838.96688047 64.3863512 C837.52713782 64.38843602 836.08739621 64.39139742 834.64765697 64.39515993 C830.66400623 64.40299459 826.68045158 64.39826384 822.69680229 64.39160402 C818.37303458 64.38655469 814.04928221 64.3930409 809.72551664 64.39809069 C802.13816926 64.40533464 794.55085031 64.40508235 786.9635016 64.39999637 C775.68044472 64.39245356 764.39741197 64.39628746 753.11435527 64.40241298 C732.96300995 64.41296505 712.81167728 64.41202319 692.66033074 64.40625516 C675.01775179 64.40122992 657.37517749 64.39990787 639.73259797 64.40230045 C638.56366316 64.40245322 637.39472834 64.40260599 636.19037126 64.40276339 C631.44549455 64.40338604 626.70061783 64.40402284 621.95574112 64.40468291 C577.403443 64.41080686 532.85115294 64.40524553 488.29885606 64.39448912 C448.7169646 64.38500536 409.13508601 64.3858397 369.55319467 64.3954111 C325.10354815 64.4061236 280.65390878 64.41036451 236.20426115 64.40418658 C231.46384917 64.40354513 226.7234372 64.40291945 221.98302522 64.40230045 C220.81578133 64.40214229 219.64853744 64.40198414 218.44592253 64.40182119 C200.82346275 64.39954678 183.20100812 64.40220598 165.57854905 64.40725955 C145.52969987 64.41298021 125.48086534 64.41154423 105.43201798 64.40069806 C94.21312021 64.39482886 82.99425419 64.39443721 71.77535724 64.40199041 C64.27683695 64.40648153 56.77834207 64.40367253 49.27982554 64.39498088 C45.01017228 64.39023297 40.74058199 64.38857647 36.47093076 64.39579284 C32.57801743 64.40230511 28.6852223 64.39943502 24.7923174 64.38943152 C22.75052532 64.38650247 20.70872612 64.39325761 18.66694492 64.40054008 C10.69303118 64.36850794 3.02350001 63.71201917 -4.85630354 62.59345682 C-10.83451933 61.84319214 -16.80653664 61.79289921 -22.82449088 61.69716892 C-35.97527694 61.40050589 -49.07797455 60.67279328 -62.19949088 59.75966892 C-63.04887229 59.70231571 -63.8982537 59.64496249 -64.77337394 59.58587131 C-90.68786424 57.82271427 -116.42665084 54.76963572 -142.14114127 51.17299899 C-145.79205845 50.6624568 -149.44427605 50.16193005 -153.09691272 49.66385803 C-155.95855807 49.27245185 -158.81943623 48.87565579 -161.68011412 48.4772459 C-163.67489662 48.20046908 -165.67033372 47.92842315 -167.66578421 47.65650424 C-168.87307685 47.48615161 -170.08036948 47.31579898 -171.32424674 47.14028415 C-172.37817115 46.99388995 -173.43209555 46.84749576 -174.51795707 46.69666538 C-182.37644358 45.22158464 -182.37644358 45.22158464 -185.33620963 42.38857517 C-189.03771943 35.29298992 -187.6553342 25.86776158 -186.27761588 18.27920017 C-185.51199088 16.13466892 -185.51199088 16.13466892 -182.51199088 14.13466892 C-180.60360465 13.69669589 -180.60360465 13.69669589 -178.39187369 13.42592868 C-177.116155 13.2641035 -177.116155 13.2641035 -175.81466422 13.09900913 C-174.40413779 12.93296932 -174.40413779 12.93296932 -172.96511588 12.76357517 C-171.96143973 12.63930652 -170.95776358 12.51503787 -169.92367301 12.38700351 C-166.4541367 11.96064951 -162.98317964 11.54734343 -159.51199088 11.13466892 C-157.551961 10.89782529 -155.59193208 10.6609735 -153.63194785 10.4237524 C-145.68360033 9.46286864 -137.73244174 8.52705815 -129.78005729 7.60024509 C-126.7747683 7.249762 -123.76991885 6.89582007 -120.76540885 6.53872165 C-80.51583135 1.7580285 -40.51151649 -0.02478515 0 0 Z " transform="translate(253.51199087966233,65.86533108446747)" style="fill: #E3E2E6;"/><path d="M0 0 C-0.0714624 0.65637451 -0.1429248 1.31274902 -0.21655273 1.98901367 C-1.31535155 13.74760052 -1.10945419 25.51459412 -1.0625 37.3125 C-1.05747483 39.51757711 -1.05291372 41.72265533 -1.04882812 43.92773438 C-1.03790343 49.28518078 -1.02124601 54.6425851 -1 60 C-22.13445278 60.32653659 -43.15963009 60.21094424 -64.25 58.6875 C-65.08197906 58.6285556 -65.91395813 58.56961121 -66.77114868 58.50888062 C-92.50416783 56.6509986 -118.08599658 53.61102803 -143.62915039 50.03833008 C-147.28006757 49.52778788 -150.93228517 49.02726113 -154.58492184 48.52918911 C-157.44656719 48.13778293 -160.30744535 47.74098688 -163.16812325 47.34257698 C-165.16290574 47.06580017 -167.15834284 46.79375423 -169.15379333 46.52183533 C-170.36108597 46.3514827 -171.5683786 46.18113007 -172.81225586 46.00561523 C-173.86618027 45.85922104 -174.92010468 45.71282684 -176.00596619 45.56199646 C-183.8644527 44.08691572 -183.8644527 44.08691572 -186.82421875 41.25390625 C-190.52572856 34.15832101 -189.14334332 24.73309267 -187.765625 17.14453125 C-187 15 -187 15 -184 13 C-181.94284058 12.54814148 -181.94284058 12.54814148 -179.55029297 12.26049805 C-178.65077911 12.14801224 -177.75126526 12.03552643 -176.82449341 11.91963196 C-175.36062698 11.74865242 -175.36062698 11.74865242 -173.8671875 11.57421875 C-171.76658394 11.31573565 -169.6659986 11.05710442 -167.56542969 10.79833984 C-166.47870972 10.66715759 -165.39198975 10.53597534 -164.27233887 10.40081787 C-161.13389425 10.01640026 -157.99891904 9.61179308 -154.86425781 9.19775391 C-128.83243844 5.76072813 -103.28302574 2.87271747 -77 4 C-77 3.67 -77 3.34 -77 3 C-60.77989655 1.26132913 -44.68077776 0.60010133 -28.375 0.375 C-26.05207106 0.33667427 -23.7291541 0.29761507 -21.40625 0.2578125 C-5.99000962 0 -5.99000962 0 0 0 Z " transform="translate(255,67)" style="fill: #0E0E0E;"/><path d="M0 0 C24.67608214 -0.20393456 49.33246948 0.41729023 74 1 C74 6.94 74 12.88 74 19 C67.85179738 19.14570302 61.70352622 19.28792013 55.55517578 19.42724609 C53.47442582 19.47484808 51.39369543 19.52331596 49.31298828 19.57275391 C38.15983483 19.83714893 27.00802857 20.05204665 15.8515625 20.09375 C14.94683197 20.1002356 14.04210144 20.10672119 13.10995483 20.11340332 C11.83857162 20.11430969 11.83857162 20.11430969 10.54150391 20.11523438 C9.8063858 20.11728882 9.0712677 20.11934326 8.31387329 20.12145996 C5.52132819 19.97487353 2.75834187 19.45972365 0 19 C0 12.73 0 6.46 0 0 Z " transform="translate(930,82)" style="fill: #060606;"/><path d="M0 0 C16 0 16 0 20 4 C21.72308343 9.57086697 21.18418641 15.66191233 21.1875 21.4375 C21.19974609 22.55705078 21.21199219 23.67660156 21.22460938 24.83007812 C21.24374877 35.58004004 21.24374877 35.58004004 19 40 C12.72515161 43.00101445 7.22770829 42 0 42 C0 28.14 0 14.28 0 0 Z " transform="translate(1112,76)" style="fill: #0F0F0F;"/><path d="M0 0 C-3.08572639 1.78112596 -5.41772392 2.2795708 -8.96459961 2.39477539 C-9.94919662 2.43143814 -10.93379364 2.46810089 -11.94822693 2.50587463 C-13.00558548 2.53616257 -14.06294403 2.5664505 -15.15234375 2.59765625 C-16.24462784 2.63684677 -17.33691193 2.67603729 -18.46229553 2.71641541 C-21.95379373 2.84048227 -25.44554155 2.95221245 -28.9375 3.0625 C-32.42579118 3.17812732 -35.91394945 3.29641591 -39.4019928 3.41929626 C-41.57211351 3.49519167 -43.7423962 3.56661779 -45.91282654 3.6330719 C-47.3944503 3.68333778 -47.3944503 3.68333778 -48.90600586 3.73461914 C-49.77108261 3.7618959 -50.63615936 3.78917267 -51.52745056 3.817276 C-54.08931939 4.0066008 -56.48372827 4.49231046 -59 5 C-60.90836584 5.18511145 -62.82006311 5.33753094 -64.7331543 5.46484375 C-65.86170334 5.54162354 -66.99025238 5.61840332 -68.15299988 5.69750977 C-69.97025322 5.81630493 -69.97025322 5.81630493 -71.82421875 5.9375 C-73.08079788 6.02249756 -74.33737701 6.10749512 -75.6320343 6.19506836 C-78.97022316 6.4205379 -82.30856512 6.64335866 -85.64703369 6.86462402 C-90.32801846 7.1751868 -95.00876897 7.48919363 -99.68940735 7.80493164 C-102.17690883 7.97255317 -104.66452429 8.13849461 -107.15226746 8.30249023 C-118.37779385 8.34671285 -118.37779385 8.34671285 -129 11 C-131.48467396 11.23761345 -133.94709301 11.4234142 -136.4375 11.5625 C-137.15164062 11.6049585 -137.86578125 11.64741699 -138.6015625 11.69116211 C-144.40379684 12.01473824 -150.18904964 12.11080202 -156 12 C-156.33 12.66 -156.66 13.32 -157 14 C-156.67 12.68 -156.34 11.36 -156 10 C-144.17526583 6.13820518 -131.36736841 5.39318447 -119.0625 3.875 C-118.32117954 3.78276154 -117.57985909 3.69052307 -116.81607437 3.5954895 C-77.9366474 -1.20879274 -39.10388067 -0.81820576 0 0 Z " transform="translate(225,71)" style="fill: #454545;"/><path d="M0 0 C-0.33 4.29 -0.66 8.58 -1 13 C-1.99 11.02 -1.99 11.02 -3 9 C-3.33 9.66 -3.66 10.32 -4 11 C-20.83 11 -37.66 11 -55 11 C-55 10.34 -55 9.68 -55 9 C-53.68 8.67 -52.36 8.34 -51 8 C-52.32 7.34 -53.64 6.68 -55 6 C-44.605 5.505 -44.605 5.505 -34 5 C-48.19 4.67 -62.38 4.34 -77 4 C-77 3.67 -77 3.34 -77 3 C-60.77989655 1.26132913 -44.68077776 0.60010133 -28.375 0.375 C-26.05207106 0.33667427 -23.7291541 0.29761507 -21.40625 0.2578125 C-5.99000962 0 -5.99000962 0 0 0 Z " transform="translate(255,67)" style="fill: #3E3E3E;"/><path d="M0 0 C38.94 0 77.88 0 118 0 C118 0.99 118 1.98 118 3 C118.99 3.33 119.98 3.66 121 4 C121 4.66 121 5.32 121 6 C113.00256118 6.02319531 105.00513648 6.04095173 97.00767231 6.05181217 C93.29392112 6.05702527 89.580193 6.06409433 85.86645508 6.07543945 C82.28085797 6.08632426 78.695283 6.09228869 75.10967064 6.09487724 C73.74337605 6.09672141 72.37708264 6.1003226 71.0107975 6.10573006 C69.09355481 6.11301462 67.17628973 6.11340869 65.2590332 6.11352539 C64.16871292 6.115746 63.07839264 6.11796661 61.95503235 6.12025452 C59.18954176 6.00771337 56.69023309 5.628804 54 5 C54 4.67 54 4.34 54 4 C53.38247864 3.98969254 52.76495728 3.97938507 52.12872314 3.96876526 C45.70484982 3.86063254 39.28111484 3.74603989 32.85742188 3.62768555 C30.45966485 3.58435845 28.0618774 3.54268178 25.6640625 3.50268555 C22.21865674 3.44492937 18.77340375 3.38124994 15.328125 3.31640625 C14.25508118 3.29969376 13.18203735 3.28298126 12.07647705 3.26576233 C11.07574158 3.24581711 10.0750061 3.22587189 9.04394531 3.20532227 C8.16458313 3.18977798 7.28522095 3.1742337 6.37921143 3.15821838 C4.13042229 3.00867313 2.16009502 2.62461828 0 2 C0 1.34 0 0.68 0 0 Z " transform="translate(130,93)" style="fill: #575757;"/><path d="M0 0 C1.3293457 0.00483398 1.3293457 0.00483398 2.68554688 0.00976562 C4.05356445 0.02233398 4.05356445 0.02233398 5.44921875 0.03515625 C6.38056641 0.03966797 7.31191406 0.04417969 8.27148438 0.04882812 C10.55996248 0.06056391 12.84830683 0.07698262 15.13671875 0.09765625 C15.13671875 0.42765625 15.13671875 0.75765625 15.13671875 1.09765625 C14.33975586 1.17806152 13.54279297 1.2584668 12.72167969 1.34130859 C9.10914845 1.71035325 5.49797716 2.09136602 1.88671875 2.47265625 C0.63246094 2.59898438 -0.62179688 2.7253125 -1.9140625 2.85546875 C-3.11933594 2.984375 -4.32460937 3.11328125 -5.56640625 3.24609375 C-6.67661133 3.36130371 -7.78681641 3.47651367 -8.93066406 3.59521484 C-11.67603454 4.06557552 -13.43519064 4.81557396 -15.86328125 6.09765625 C-18.73828125 6.0390625 -18.73828125 6.0390625 -21.86328125 5.66015625 C-25.54651025 5.22277281 -28.31448818 5.01434047 -31.86328125 6.09765625 C-33.08015625 6.26265625 -34.29703125 6.42765625 -35.55078125 6.59765625 C-38.7015394 6.73803141 -38.7015394 6.73803141 -39.86328125 8.09765625 C-41.60712226 8.24325778 -43.35639331 8.32490294 -45.10546875 8.37890625 C-46.17152344 8.41628906 -47.23757812 8.45367187 -48.3359375 8.4921875 C-49.45871094 8.52699219 -50.58148438 8.56179687 -51.73828125 8.59765625 C-53.94414099 8.66650968 -56.14988379 8.73925068 -58.35546875 8.81640625 C-59.3388623 8.84669922 -60.32225586 8.87699219 -61.33544922 8.90820312 C-63.98804723 9.00344416 -63.98804723 9.00344416 -66.86328125 10.09765625 C-69.47020651 10.30774215 -72.06081679 10.47215974 -74.671875 10.59765625 C-75.81657005 10.65856445 -75.81657005 10.65856445 -76.98439026 10.72070312 C-79.42299955 10.85031115 -81.86183355 10.97459118 -84.30078125 11.09765625 C-87.50806579 11.2598419 -90.71501874 11.42723594 -93.921875 11.59765625 C-95.02516396 11.65083008 -95.02516396 11.65083008 -96.15074158 11.70507812 C-101.10008167 11.89746269 -101.10008167 11.89746269 -105.86328125 13.09765625 C-107.00681041 15.38471456 -106.96662564 16.69030387 -106.92578125 19.22265625 C-106.90515625 20.50140625 -106.88453125 21.78015625 -106.86328125 23.09765625 C-106.25484375 23.08605469 -105.64640625 23.07445313 -105.01953125 23.0625 C-96.59989726 22.9758273 -88.25659361 23.50791285 -79.86328125 24.09765625 C-80.19328125 24.75765625 -80.52328125 25.41765625 -80.86328125 26.09765625 C-81.54430908 26.1227124 -82.22533691 26.14776855 -82.92700195 26.17358398 C-86.0101188 26.28956577 -89.09293171 26.41228241 -92.17578125 26.53515625 C-93.24763672 26.57447266 -94.31949219 26.61378906 -95.42382812 26.65429688 C-96.96586914 26.71713867 -96.96586914 26.71713867 -98.5390625 26.78125 C-99.48692627 26.81790771 -100.43479004 26.85456543 -101.41137695 26.89233398 C-103.99945225 27.01195812 -103.99945225 27.01195812 -106.86328125 28.09765625 C-106.86328125 30.07765625 -106.86328125 32.05765625 -106.86328125 34.09765625 C-110.58858933 30.37234817 -109.73377193 24.1544064 -109.86328125 19.09765625 C-109.69281257 16.35798105 -109.34107688 13.80516485 -108.86328125 11.09765625 C-108.20328125 11.09765625 -107.54328125 11.09765625 -106.86328125 11.09765625 C-106.86328125 10.43765625 -106.86328125 9.77765625 -106.86328125 9.09765625 C-105.65212646 9.01463257 -105.65212646 9.01463257 -104.41650391 8.92993164 C-100.77344306 8.67773589 -97.13087339 8.41902999 -93.48828125 8.16015625 C-92.21726562 8.07314453 -90.94625 7.98613281 -89.63671875 7.89648438 C-88.425 7.80947266 -87.21328125 7.72246094 -85.96484375 7.6328125 C-84.84416504 7.55426025 -83.72348633 7.47570801 -82.56884766 7.39477539 C-79.89857712 7.25984756 -79.89857712 7.25984756 -77.86328125 6.09765625 C-76.28598041 5.89898867 -74.70194284 5.75260153 -73.11669922 5.6328125 C-72.12741425 5.55603271 -71.13812927 5.47925293 -70.11886597 5.40014648 C-68.50348434 5.28135132 -68.50348434 5.28135132 -66.85546875 5.16015625 C-65.74205109 5.07515869 -64.62863342 4.99016113 -63.48147583 4.90258789 C-59.90069549 4.63035697 -56.31949847 4.3640715 -52.73828125 4.09765625 C-50.37757674 3.91832946 -48.01689929 3.73864605 -45.65625 3.55859375 C-34.74403994 2.73152608 -23.83503425 1.92651316 -12.90673828 1.34375 C-8.52038365 0.98906963 -4.42575544 -0.02855326 0 0 Z " transform="translate(175.86328125,73.90234375)" style="fill: #323232;"/><path d="M0 0 C5.35949405 0.00257291 10.71898658 0.00017327 16.07848072 -0.00138617 C25.04770185 -0.00319057 34.01691467 -0.00084414 42.98613453 0.00395441 C53.33450152 0.00942707 63.68284889 0.00760579 74.03121543 0.00212801 C82.97114662 -0.0024131 91.91107192 -0.00304978 100.85100389 -0.00043333 C106.1678072 0.00111969 111.48460129 0.00134938 116.801404 -0.00196981 C121.78229347 -0.00486421 126.76315756 -0.00284407 131.7440443 0.00292444 C133.56570296 0.00424219 135.38736378 0.00387472 137.20902157 0.00166178 C139.70260514 -0.00108774 142.19610827 0.00237715 144.68968678 0.00734186 C145.40242465 0.00511114 146.11516252 0.00288042 146.84949851 0.0005821 C151.94535669 0.02014454 156.92657862 0.48874649 161.97978687 1.1343255 C161.97978687 1.4643255 161.97978687 1.7943255 161.97978687 2.1343255 C161.14035636 2.13340371 160.30092585 2.13248192 159.43605804 2.13153219 C138.73876186 2.10917051 118.04146783 2.09276793 97.34416199 2.08251333 C87.33394585 2.07741889 77.32373799 2.07048184 67.31352711 2.05888605 C13.57564962 1.93915201 13.57564962 1.93915201 -40.15693188 2.57573175 C-41.16213186 2.59526344 -42.16733185 2.61479513 -43.20299244 2.63491869 C-52.06029683 2.81458285 -60.91533707 3.05661798 -69.76166821 3.54423761 C-70.95399563 3.60880655 -72.14632305 3.67337549 -73.37478161 3.73990107 C-74.68427021 3.93514116 -74.68427021 3.93514116 -76.02021313 4.1343255 C-76.35021313 4.7943255 -76.68021313 5.4543255 -77.02021313 6.1343255 C-87.25021313 5.8043255 -97.48021313 5.4743255 -108.02021313 5.1343255 C-108.02021313 4.8043255 -108.02021313 4.4743255 -108.02021313 4.1343255 C-103.28265094 3.71559859 -98.54430307 3.30754599 -93.80512524 2.90751886 C-92.20854607 2.771462 -90.61217212 2.63296472 -89.01606274 2.49150324 C-59.39569974 -0.12734149 -29.70870989 -0.01878115 0 0 Z " transform="translate(261.02021312713623,65.86567449569702)" style="fill: #FAFAFA;"/><path d="M0 0 C16 0 16 0 20 4 C21.72308343 9.57086697 21.18418641 15.66191233 21.1875 21.4375 C21.19974609 22.55705078 21.21199219 23.67660156 21.22460938 24.83007812 C21.24266966 34.97393796 21.24266966 34.97393796 19 40 C17.74751498 37.49502996 17.88625594 35.79146726 17.90234375 32.9921875 C17.90556641 32.00605469 17.90878906 31.01992187 17.91210938 30.00390625 C17.92048828 28.97136719 17.92886719 27.93882813 17.9375 26.875 C17.94201172 25.83472656 17.94652344 24.79445313 17.95117188 23.72265625 C17.96298033 21.14841313 17.98091615 18.57419947 18 16 C12.39 15.67 6.78 15.34 1 15 C1 22.92 1 30.84 1 39 C0.67 39 0.34 39 0 39 C0 26.13 0 13.26 0 0 Z " transform="translate(1112,76)" style="fill: #4D4D4D;"/><path d="M0 0 C1.21519569 -0.00021904 1.21519569 -0.00021904 2.4549408 -0.0004425 C5.12786554 0.00025315 7.80072027 0.00802934 10.47363281 0.01586914 C12.328796 0.01773455 14.18395968 0.01915787 16.03912354 0.02015686 C20.91845056 0.02397234 25.79774774 0.03379437 30.67706299 0.04486084 C35.65742591 0.05509578 40.63779365 0.05965895 45.61816406 0.06469727 C55.38770841 0.07541749 65.15723063 0.0924823 74.92675781 0.11352539 C74.92675781 0.77352539 74.92675781 1.43352539 74.92675781 2.11352539 C74.00338623 2.13334473 73.08001465 2.15316406 72.12866211 2.17358398 C68.70114607 2.25170278 65.27406983 2.33839536 61.84692383 2.4309082 C60.36393569 2.46917886 58.88085533 2.50403517 57.39770508 2.53540039 C55.26512709 2.58109339 53.13318291 2.63907877 51.00097656 2.69946289 C49.71795654 2.73088379 48.43493652 2.76230469 47.11303711 2.79467773 C43.77288322 2.87731767 43.77288322 2.87731767 40.92675781 5.11352539 C38.90904236 5.39872742 38.90904236 5.39872742 36.57885742 5.44824219 C35.70462631 5.47133957 34.8303952 5.49443695 33.92967224 5.51823425 C32.98898392 5.53292252 32.04829559 5.54761078 31.07910156 5.56274414 C30.11146378 5.58448196 29.14382599 5.60621979 28.14686584 5.62861633 C26.10182877 5.67252523 24.05668602 5.71172686 22.01147461 5.74658203 C18.87286685 5.80087646 15.73491288 5.87104463 12.59667969 5.94360352 C10.61167265 5.98425564 8.62664676 6.0240001 6.64160156 6.06274414 C5.22753273 6.09388557 5.22753273 6.09388557 3.78489685 6.12565613 C2.9138179 6.13929703 2.04273895 6.15293793 1.14526367 6.16699219 C-0.00698448 6.18792183 -0.00698448 6.18792183 -1.18251038 6.20927429 C-3.07324219 6.11352539 -3.07324219 6.11352539 -5.07324219 5.11352539 C-7.24999002 4.95883172 -9.43107699 4.86350433 -11.61230469 4.79711914 C-12.91425781 4.75522461 -14.21621094 4.71333008 -15.55761719 4.67016602 C-16.93782264 4.6303524 -18.31803102 4.59064017 -19.69824219 4.55102539 C-21.08627633 4.50783132 -22.47429746 4.46421674 -23.86230469 4.42016602 C-27.26584475 4.31380539 -30.66945997 4.21177825 -34.07324219 4.11352539 C-31.6541646 1.6944478 -30.96134132 1.83827914 -27.64355469 1.73461914 C-26.76570312 1.70045898 -25.88785156 1.66629883 -24.98339844 1.63110352 C-24.06429687 1.60467773 -23.14519531 1.57825195 -22.19824219 1.55102539 C-20.38822174 1.49086205 -18.57831385 1.42718702 -16.76855469 1.35961914 C-15.96434082 1.33569092 -15.16012695 1.3117627 -14.33154297 1.28710938 C-12.14947962 1.20270821 -12.14947962 1.20270821 -10.43667603 0.60977173 C-6.97128017 -0.11785177 -3.52431369 -0.01663434 0 0 Z " transform="translate(178.0732421875,81.886474609375)" style="fill: #393938;"/><path d="M0 0 C5.94 0 11.88 0 18 0 C18 6.27 18 12.54 18 19 C12.06 19 6.12 19 0 19 C0 12.73 0 6.46 0 0 Z " transform="translate(1031,83)" style="fill: #131314;"/><path d="M0 0 C2.54656011 1.88634082 3.7175023 4.13904359 5 7 C5.66 6.01 6.32 5.02 7 4 C7.66 4 8.32 4 9 4 C9.33 4.66 9.66 5.32 10 6 C11.98 5.34 13.96 4.68 16 4 C16 3.34 16 2.68 16 2 C13.69 2 11.38 2 9 2 C9 1.34 9 0.68 9 0 C12.3 0 15.6 0 19 0 C18.08780899 3.64876405 16.90129161 6.79695313 15.4375 10.25 C14.98246094 11.32765625 14.52742187 12.4053125 14.05859375 13.515625 C13.70925781 14.33546875 13.35992188 15.1553125 13 16 C12.01 16 11.02 16 10 16 C10 15.01 10 14.02 10 13 C9.34 13 8.68 13 8 13 C7.67 13.99 7.34 14.98 7 16 C3.9375 17.1875 3.9375 17.1875 1 18 C1 17.67 1 17.34 1 17 C-0.11375 16.7525 -1.2275 16.505 -2.375 16.25 C-6 15 -6 15 -7.4375 13.375 C-8.42033112 9.22526861 -9.07370904 4.80835207 -6.8125 1 C-4.33474158 -0.36703913 -2.78844081 -0.41826612 0 0 Z " transform="translate(671,82)" style="fill: #DBDADF;"/><path d="M0 0 C7.95993 -0.00035807 15.91981741 -0.01210879 23.8797338 -0.02593619 C31.66956 -0.03897649 39.45936689 -0.04437876 47.24920392 -0.04373711 C51.85273072 -0.04348351 56.45620395 -0.04626626 61.05971956 -0.05691516 C65.33193171 -0.06654992 69.60403784 -0.06670769 73.8762536 -0.05939853 C75.43880986 -0.05835091 77.00137268 -0.06072608 78.56391764 -0.06675899 C80.69182292 -0.0744483 82.81935768 -0.069857 84.94725466 -0.06212795 C86.73067955 -0.0629451 86.73067955 -0.0629451 88.55013323 -0.06377876 C91.5099795 0.18053907 93.1354016 0.52093086 95.56535769 2.18511021 C97.56535769 5.18511021 97.56535769 5.18511021 97.19035769 7.37261021 C96.98410769 7.97073521 96.77785769 8.56886021 96.56535769 9.18511021 C96.56535769 8.52511021 96.56535769 7.86511021 96.56535769 7.18511021 C95.90535769 7.18511021 95.24535769 7.18511021 94.56535769 7.18511021 C94.56535769 5.86511021 94.56535769 4.54511021 94.56535769 3.18511021 C89.73220567 1.93552086 84.99650073 2.04881896 80.04257631 2.06485569 C79.07866938 2.06400127 78.11476246 2.06314685 77.12164623 2.06226653 C73.88956699 2.06061852 70.65753957 2.06612204 67.42546511 2.07158482 C65.10948612 2.07186686 62.79350703 2.07170862 60.4775281 2.07114232 C54.18669468 2.07085501 47.89588027 2.07674095 41.60505128 2.08371627 C35.03203204 2.08996093 28.45901237 2.09055449 21.88599062 2.09174168 C10.85243318 2.09433162 -0.18111758 2.10074749 -11.21467161 2.10967076 C-22.57860355 2.11885165 -33.94253359 2.12592917 -45.30646849 2.13017857 C-46.00709883 2.13044129 -46.70772917 2.13070402 -47.42959074 2.1309747 C-50.9444943 2.13227975 -54.45939787 2.13354346 -57.97430146 2.13478661 C-87.12775295 2.14515106 -116.28119754 2.16283666 -145.43464231 2.18511021 C-145.43464231 1.85511021 -145.43464231 1.52511021 -145.43464231 1.18511021 C-96.95614006 0.20877061 -48.48732733 -0.00320494 0 0 Z " transform="translate(1014.4346423149109,65.81488978862762)" style="fill: #F9F9FA;"/><path d="M0 0 C2.64 0 5.28 0 8 0 C8 0.99 8 1.98 8 3 C6.35 3 4.7 3 3 3 C3 3.66 3 4.32 3 5 C4.31571603 4.7452486 5.62760376 4.47065859 6.9375 4.1875 C7.66839844 4.03667969 8.39929688 3.88585937 9.15234375 3.73046875 C9.76207031 3.48941406 10.37179687 3.24835938 11 3 C11.33 2.01 11.66 1.02 12 0 C17.625 -0.25 17.625 -0.25 21 2 C21 3.32 21 4.64 21 6 C20.34 6 19.68 6 19 6 C19.99 7.485 19.99 7.485 21 9 C21.3125 12.0625 21.3125 12.0625 21 15 C18 17 18 17 16.0546875 16.72265625 C15.33539062 16.50480469 14.61609375 16.28695312 13.875 16.0625 C8.92218783 14.78566665 5.02779901 15.20193666 0 16 C-0.33 15.01 -0.66 14.02 -1 13 C1.31 13 3.62 13 6 13 C6 11.35 6 9.7 6 8 C4.02 8 2.04 8 0 8 C0 5.36 0 2.72 0 0 Z " transform="translate(620,82)" style="fill: #E0E0E2;"/><path d="M0 0 C15.84 0 31.68 0 48 0 C48 6.6 48 13.2 48 20 C32.82 20 17.64 20 2 20 C2.33 21.32 2.66 22.64 3 24 C0.67806299 26.32193701 -4.74190296 25.52499497 -7.875 25.6875 C-8.79925781 25.74744141 -9.72351563 25.80738281 -10.67578125 25.86914062 C-11.56394531 25.91619141 -12.45210937 25.96324219 -13.3671875 26.01171875 C-14.18300293 26.05772217 -14.99881836 26.10372559 -15.83935547 26.15112305 C-18 26 -18 26 -21 24 C-21 22.68 -21 21.36 -21 20 C-5.52827713 19.15297999 9.88201805 18.87202974 25.375 18.9375 C27.49088433 18.9425355 29.60676985 18.94709471 31.72265625 18.95117188 C36.81513455 18.96199112 41.90755336 18.97913721 47 19 C47 13.06 47 7.12 47 1 C31.49 1 15.98 1 0 1 C0 0.67 0 0.34 0 0 Z " transform="translate(957,82)" style="fill: #888889;"/><path d="M0 0 C0 0.33 0 0.66 0 1 C-0.72590332 1.08040527 -1.45180664 1.16081055 -2.19970703 1.24365234 C-5.50893047 1.61404443 -8.81693272 1.99442589 -12.125 2.375 C-13.83816406 2.56449219 -13.83816406 2.56449219 -15.5859375 2.7578125 C-16.69453125 2.88671875 -17.803125 3.015625 -18.9453125 3.1484375 C-19.96125488 3.26364746 -20.97719727 3.37885742 -22.02392578 3.49755859 C-25.16743065 4.0282668 -27.98902334 4.96673086 -31 6 C-33.59070517 6.36584226 -36.14991902 6.67929406 -38.75 6.9375 C-43.31646169 7.43838118 -47.64620955 8.03719246 -52 9.5625 C-61.94781853 12.88403131 -73.64055594 12.19753177 -84 12 C-84.33 12.66 -84.66 13.32 -85 14 C-84.67 12.68 -84.34 11.36 -84 10 C-79.31424017 8.5618448 -74.88524829 7.60583163 -69.99829102 7.03857422 C-69.3371228 6.9602536 -68.67595459 6.88193298 -67.99475098 6.80123901 C-65.83176758 6.54659126 -63.6679225 6.30039051 -61.50390625 6.0546875 C-59.98603474 5.87856413 -58.46820806 5.70205409 -56.95042419 5.525177 C-53.77783247 5.15676726 -50.60480626 4.79244603 -47.43139648 4.43115234 C-43.38134893 3.969806 -39.33244557 3.49918413 -35.28381443 3.02558708 C-32.1519407 2.66012331 -29.01956017 2.29916619 -25.88700676 1.93957901 C-24.39465643 1.76781997 -22.90245117 1.59479518 -21.4104023 1.42043686 C-7.09984834 -0.24654242 -7.09984834 -0.24654242 0 0 Z " transform="translate(153,71)" style="fill: #A8A8A8;"/><path d="M0 0 C8.91 0 17.82 0 27 0 C27 0.33 27 0.66 27 1 C17.595 1.495 17.595 1.495 8 2 C5.95771544 8.12685369 5.95026166 9.3062824 8 15 C9.65 15 11.3 15 13 15 C13.33 15.99 13.66 16.98 14 18 C20.93 18.495 20.93 18.495 28 19 C28 19.33 28 19.66 28 20 C24.45835085 20.0292067 20.91673303 20.04686814 17.375 20.0625 C15.87646484 20.07506836 15.87646484 20.07506836 14.34765625 20.08789062 C13.37441406 20.09111328 12.40117188 20.09433594 11.3984375 20.09765625 C10.06304932 20.10551147 10.06304932 20.10551147 8.70068359 20.11352539 C6 20 6 20 0 19 C0 12.73 0 6.46 0 0 Z " transform="translate(930,82)" style="fill: #141415;"/><path d="M0 0 C0.495 1.485 0.495 1.485 1 3 C-1.54030376 3.50806075 -4.08011868 4.0152607 -6.625 4.5 C-9.13198898 4.98065971 -9.13198898 4.98065971 -12 6 C-13.517253 6.16860076 -15.03966235 6.29291023 -16.56323242 6.38891602 C-17.48396042 6.44890274 -18.40468842 6.50888947 -19.35331726 6.57069397 C-20.83938225 6.66138405 -20.83938225 6.66138405 -22.35546875 6.75390625 C-23.37224197 6.81907944 -24.3890152 6.88425262 -25.43659973 6.95140076 C-28.68667405 7.15885696 -31.93706743 7.36074239 -35.1875 7.5625 C-37.38999722 7.70210743 -39.59247153 7.84207687 -41.79492188 7.98242188 C-47.19635563 8.32581703 -52.59806185 8.66463813 -58 9 C-55.15879091 6.15879091 -52.0769625 6.37035121 -48.25 6 C-42.66115725 5.46590488 -42.66115725 5.46590488 -37.25390625 4.0390625 C-32.17495703 2.41721317 -26.97099817 1.9809483 -21.6875 1.375 C-20.05264648 1.17390625 -20.05264648 1.17390625 -18.38476562 0.96875 C-12.20848073 0.24081744 -6.21795951 -0.14414659 0 0 Z " transform="translate(162,71)" style="fill: #595959;"/><path d="M0 0 C-0.33 0.66 -0.66 1.32 -1 2 C-7.95746898 3.32570534 -14.9719861 3.12843827 -22.03125 3.09765625 C-23.26290894 3.0962413 -24.49456787 3.09482635 -25.7635498 3.09336853 C-29.67572516 3.08779612 -33.58784211 3.07524867 -37.5 3.0625 C-40.1614575 3.05691482 -42.82291444 3.05291916 -45.484375 3.04882812 C-51.98960307 3.03783572 -58.49479736 3.02112514 -65 3 C-65 2.67 -65 2.34 -65 2 C-43.43134033 -0.8588046 -21.70643435 -0.19146672 0 0 Z " transform="translate(243,68)" style="fill: #2D2D2D;"/><path d="M0 0 C1.04663126 0.00385208 1.04663126 0.00385208 2.11440659 0.00778198 C10.80564948 0.04213018 19.49660262 0.10261279 28.1875 0.1875 C28.1875 0.5175 28.1875 0.8475 28.1875 1.1875 C27.27906593 1.2029612 27.27906593 1.2029612 26.35227966 1.21873474 C19.97541056 1.32799835 13.59864939 1.44247817 7.22192383 1.55981445 C4.85085334 1.60278437 2.47975938 1.64448094 0.10864258 1.68481445 C-15.90368185 1.93039866 -15.90368185 1.93039866 -31.90234375 2.59765625 C-33.61538696 2.69445679 -33.61538696 2.69445679 -35.36303711 2.79321289 C-36.17135986 2.92332764 -36.97968262 3.05344238 -37.8125 3.1875 C-38.1425 3.8475 -38.4725 4.5075 -38.8125 5.1875 C-49.0425 4.8575 -59.2725 4.5275 -69.8125 4.1875 C-69.8125 3.8575 -69.8125 3.5275 -69.8125 3.1875 C-46.54631244 0.54909047 -23.39351663 -0.08670956 0 0 Z " transform="translate(222.8125,66.8125)" style="fill: #C7C7C7;"/><path d="M0 0 C1.59134766 -0.02513672 1.59134766 -0.02513672 3.21484375 -0.05078125 C6.0625 0.3125 6.0625 0.3125 7.9296875 1.5078125 C9.46106258 3.94745142 9.36130809 5.64309248 9.25 8.5 C9.22292969 9.40105469 9.19585938 10.30210938 9.16796875 11.23046875 C9.13316406 11.91753906 9.09835937 12.60460937 9.0625 13.3125 C7.7425 13.3125 6.4225 13.3125 5.0625 13.3125 C5.0625 10.0125 5.0625 6.7125 5.0625 3.3125 C4.0725 3.3125 3.0825 3.3125 2.0625 3.3125 C2.0625 6.6125 2.0625 9.9125 2.0625 13.3125 C1.0725 13.3125 0.0825 13.3125 -0.9375 13.3125 C-1.2675 10.0125 -1.5975 6.7125 -1.9375 3.3125 C-2.5975 3.3125 -3.2575 3.3125 -3.9375 3.3125 C-4.2675 6.6125 -4.5975 9.9125 -4.9375 13.3125 C-5.9275 13.3125 -6.9175 13.3125 -7.9375 13.3125 C-7.99141993 11.52116022 -8.03025571 9.72936101 -8.0625 7.9375 C-8.08570313 6.93976563 -8.10890625 5.94203125 -8.1328125 4.9140625 C-7.73539412 -0.37955029 -4.49882342 0.01635936 0 0 Z " transform="translate(504.9375,83.6875)" style="fill: #2A292C;"/><path d="M0 0 C3.5 0.25 3.5 0.25 5.5 2.25 C5.81537716 6.58643601 5.94897847 8.57653229 3.5 12.25 C0.4003407 12.64570119 -1.62198451 12.74754211 -4.375 11.1875 C-6.11973477 8.18267901 -5.80835443 5.64189869 -5.5 2.25 C-3.5 0.25 -3.5 0.25 0 0 Z " transform="translate(520.5,84.75)" style="fill: #1E1E1F;"/><path d="M0 0 C5.28 0 10.56 0 16 0 C16 0.33 16 0.66 16 1 C11.05 1 6.1 1 1 1 C1 4.3 1 7.6 1 11 C1.66 10.67 2.32 10.34 3 10 C5.37402501 9.92883618 7.75000677 9.91590915 10.125 9.9375 C11.40632813 9.94652344 12.68765625 9.95554687 14.0078125 9.96484375 C14.99523438 9.97644531 15.98265625 9.98804687 17 10 C17 11.32 17 12.64 17 14 C11.72 14 6.44 14 1 14 C1 22.25 1 30.5 1 39 C0.67 39 0.34 39 0 39 C0 26.13 0 13.26 0 0 Z " transform="translate(1112,76)" style="fill: #747474;"/><path d="M0 0 C1.17433594 0.01417969 2.34867188 0.02835937 3.55859375 0.04296875 C5.32396484 0.05263672 5.32396484 0.05263672 7.125 0.0625 C9.99609375 0.23046875 9.99609375 0.23046875 10.99609375 1.23046875 C11.06814886 2.91655841 11.07995443 4.60547534 11.05859375 6.29296875 C11.04957031 7.21207031 11.04054688 8.13117188 11.03125 9.078125 C11.01964844 9.78839844 11.00804687 10.49867187 10.99609375 11.23046875 C10.33609375 11.23046875 9.67609375 11.23046875 8.99609375 11.23046875 C8.66609375 8.26046875 8.33609375 5.29046875 7.99609375 2.23046875 C7.33609375 2.23046875 6.67609375 2.23046875 5.99609375 2.23046875 C5.66609375 5.53046875 5.33609375 8.83046875 4.99609375 12.23046875 C4.00609375 12.23046875 3.01609375 12.23046875 1.99609375 12.23046875 C1.94710937 11.52019531 1.898125 10.80992188 1.84765625 10.078125 C1.77289062 9.15902344 1.698125 8.23992187 1.62109375 7.29296875 C1.51667969 5.91818359 1.51667969 5.91818359 1.41015625 4.515625 C1.27351562 3.76152344 1.136875 3.00742188 0.99609375 2.23046875 C0.33609375 1.90046875 -0.32390625 1.57046875 -1.00390625 1.23046875 C-1.00390625 4.86046875 -1.00390625 8.49046875 -1.00390625 12.23046875 C-2.32390625 12.23046875 -3.64390625 12.23046875 -5.00390625 12.23046875 C-5.05786103 10.60583033 -5.0966782 8.98068334 -5.12890625 7.35546875 C-5.15210938 6.45054688 -5.1753125 5.545625 -5.19921875 4.61328125 C-4.88874048 0.82544642 -3.67625913 0.28205369 0 0 Z " transform="translate(557.00390625,84.76953125)" style="fill: #2B2A2C;"/><path d="M0 0 C0.33 0 0.66 0 1 0 C1.33 3.96 1.66 7.92 2 12 C3.485 11.979375 4.97 11.95875 6.5 11.9375 C14.02129633 11.92766824 21.50117359 12.4731063 29 13 C28.67 13.66 28.34 14.32 28 15 C26.97845825 15.03758423 26.97845825 15.03758423 25.9362793 15.07592773 C22.85316245 15.19190952 19.77034954 15.31462616 16.6875 15.4375 C15.61564453 15.47681641 14.54378906 15.51613281 13.43945312 15.55664062 C11.89741211 15.61948242 11.89741211 15.61948242 10.32421875 15.68359375 C9.37635498 15.72025146 8.42849121 15.75690918 7.4519043 15.79467773 C4.863829 15.91430187 4.863829 15.91430187 2 17 C2 18.98 2 20.96 2 23 C-1.72530808 19.27469192 -0.87049068 13.05675015 -1 8 C-0.82953132 5.2603248 -0.47779563 2.7075086 0 0 Z " transform="translate(67,85)" style="fill: #656565;"/><path d="M0 0 C5.625 -0.25 5.625 -0.25 9 2 C9 3.32 9 4.64 9 6 C8.34 6 7.68 6 7 6 C7.99 7.485 7.99 7.485 9 9 C9.3125 12.0625 9.3125 12.0625 9 15 C8.01 15.66 7.02 16.32 6 17 C2.3125 16.125 2.3125 16.125 -1 15 C-1 14.34 -1 13.68 -1 13 C1.31 13 3.62 13 6 13 C6 11.68 6 10.36 6 9 C4.35 9 2.7 9 1 9 C1.33 8.01 1.66 7.02 2 6 C3.32 6 4.64 6 6 6 C5.67 5.01 5.34 4.02 5 3 C3.35 2.67 1.7 2.34 0 2 C0 1.34 0 0.68 0 0 Z " transform="translate(632,82)" style="fill: #3E3E41;"/><path d="M0 0 C0.99 0 1.98 0 3 0 C3 1.65 3 3.3 3 5 C3.99 5 4.98 5 6 5 C6 3.35 6 1.7 6 0 C7.32 0.33 8.64 0.66 10 1 C10 4.3 10 7.6 10 11 C8.68 11 7.36 11 6 11 C6 9.68 6 8.36 6 7 C5.01 7 4.02 7 3 7 C3 8.32 3 9.64 3 11 C2.01 11 1.02 11 0 11 C0 7.37 0 3.74 0 0 Z " transform="translate(541,86)" style="fill: #303032;"/><path d="M0 0 C20.13 0 40.26 0 61 0 C61 0.33 61 0.66 61 1 C59.72584229 1.02505615 58.45168457 1.0501123 57.13891602 1.07592773 C52.32846109 1.17140792 47.51810449 1.27126161 42.70776367 1.37231445 C40.64138112 1.4151402 38.5749749 1.45684157 36.50854492 1.49731445 C23.98379337 1.74349375 11.49862885 2.13959097 -1 3 C-0.67 2.01 -0.34 1.02 0 0 Z " transform="translate(190,78)" style="fill: #202020;"/><path d="M0 0 C4.14577275 -0.05863894 8.29143705 -0.09380984 12.4375 -0.125 C14.18450195 -0.15013672 14.18450195 -0.15013672 15.96679688 -0.17578125 C22.65433933 -0.21345755 28.54036491 0.24519004 35 2 C33.703125 3.4909668 33.703125 3.4909668 32 5 C28.75 5.14453125 28.75 5.14453125 25 4.8125 C23.7625 4.71582031 22.525 4.61914062 21.25 4.51953125 C18 4 18 4 15 2 C12.41114829 1.70008931 9.90850918 1.49134775 7.3125 1.375 C6.2596582 1.31699219 6.2596582 1.31699219 5.18554688 1.2578125 C3.45745345 1.1637666 1.72876325 1.0808032 0 1 C0 0.67 0 0.34 0 0 Z " transform="translate(80,97)" style="fill: #2C2C2C;"/><path d="M0 0 C0.79622772 0.00141495 1.59245544 0.0028299 2.41281128 0.00428772 C4.9601413 0.0098928 7.50738397 0.02244611 10.0546875 0.03515625 C11.77994665 0.0401706 13.50520717 0.04473362 15.23046875 0.04882812 C19.46357541 0.05986388 23.69661664 0.07713189 27.9296875 0.09765625 C24.35550526 2.29937025 21.26775643 2.43063936 17.1171875 2.58203125 C16.46645264 2.60614075 15.81571777 2.63025024 15.14526367 2.65509033 C13.77375499 2.70323869 12.40207324 2.74666196 11.03027344 2.78564453 C8.93604571 2.84746855 6.84339811 2.93057148 4.75 3.015625 C3.41410449 3.05987984 2.07816705 3.10289044 0.7421875 3.14453125 C-0.46824219 3.18416992 -1.67867187 3.22380859 -2.92578125 3.26464844 C-5.94723545 3.10419233 -7.54783467 2.69532986 -10.0703125 1.09765625 C-6.89740537 -0.48879732 -3.48205866 -0.02312588 0 0 Z " transform="translate(197.0703125,70.90234375)" style="fill: #4E4E4E;"/><path d="M0 0 C2 2 2 2 2.23046875 4.53125 C2.20919922 6.00078125 2.20919922 6.00078125 2.1875 7.5 C2.17783203 8.96953125 2.17783203 8.96953125 2.16796875 10.46875 C2 13 2 13 1 15 C0.01 14.67 -0.98 14.34 -2 14 C-1.67 13.67 -1.34 13.34 -1 13 C-0.92794489 11.31391034 -0.91613932 9.62499341 -0.9375 7.9375 C-0.95103516 6.55884766 -0.95103516 6.55884766 -0.96484375 5.15234375 C-0.97644531 4.44207031 -0.98804688 3.73179688 -1 3 C-1.99 3 -2.98 3 -4 3 C-4.02698189 4.62490954 -4.04638757 6.24994633 -4.0625 7.875 C-4.07410156 8.77992187 -4.08570313 9.68484375 -4.09765625 10.6171875 C-4.16249257 13.0168585 -4.16249257 13.0168585 -3 15 C-4.9375 14.6875 -4.9375 14.6875 -7 14 C-8.25249168 10.24252497 -8.45035914 6.93040706 -8 3 C-5.98696203 -0.39037973 -3.76448625 -0.48262644 0 0 Z " transform="translate(671,82)" style="fill: #353436;"/><path d="M0 0 C15.67599313 -0.21376354 31.59988527 -0.22400776 47 3 C47 3.33 47 3.66 47 4 C31.25921732 4.68881869 15.62664206 2.66040432 0 1 C0 0.67 0 0.34 0 0 Z " transform="translate(149,121)" style="fill: #B1B1B1;"/><path d="M0 0 C3 0.1875 3 0.1875 5 1.1875 C5 4.8175 5 8.4475 5 12.1875 C4.01 12.1875 3.02 12.1875 2 12.1875 C2 8.8875 2 5.5875 2 2.1875 C0.68 2.1875 -0.64 2.1875 -2 2.1875 C-2 5.4875 -2 8.7875 -2 12.1875 C-2.99 12.1875 -3.98 12.1875 -5 12.1875 C-5.05395478 10.56286158 -5.09277195 8.93771459 -5.125 7.3125 C-5.14820313 6.40757813 -5.17140625 5.50265625 -5.1953125 4.5703125 C-4.8846892 0.78070823 -3.68449567 0.23028098 0 0 Z " transform="translate(533,84.8125)" style="fill: #2D2D2E;"/><path d="M0 0 C2.64 0 5.28 0 8 0 C8 0.66 8 1.32 8 2 C6.02 2 4.04 2 2 2 C2 3.32 2 4.64 2 6 C2.78375 6.144375 3.5675 6.28875 4.375 6.4375 C7 7 7 7 9 8 C9.22223194 10.74086056 9.34781139 12.43963721 7.875 14.8125 C5.22464043 16.49106106 3.06753576 16.20450238 0 16 C-0.33 15.01 -0.66 14.02 -1 13 C1.31 13 3.62 13 6 13 C6 11.35 6 9.7 6 8 C4.02 8 2.04 8 0 8 C0 5.36 0 2.72 0 0 Z " transform="translate(620,82)" style="fill: #323134;"/><path d="M0 0 C4.39581876 -0.02950823 8.7916114 -0.04696682 13.1875 -0.0625 C15.02731445 -0.07506836 15.02731445 -0.07506836 16.90429688 -0.08789062 C24.98556584 -0.10921323 32.95353136 0.2498983 41 1 C38.51605813 3.48394187 37.75947429 3.2565526 34.3359375 3.265625 C32.91003296 3.27142578 32.91003296 3.27142578 31.45532227 3.27734375 C30.43881592 3.26832031 29.42230957 3.25929688 28.375 3.25 C26.82993774 3.24419922 26.82993774 3.24419922 25.25366211 3.23828125 C16.71123205 3.1426496 8.43003824 2.37034003 0 1 C0 0.67 0 0.34 0 0 Z " transform="translate(70,100)" style="fill: #1B1B1B;"/><path d="M0 0 C1.65 0 3.3 0 5 0 C5 1.65 5 3.3 5 5 C3.68 5 2.36 5 1 5 C1 8.96 1 12.92 1 17 C-0.32 17 -1.64 17 -3 17 C-3 13.04 -3 9.08 -3 5 C-2.01 5 -1.02 5 0 5 C0 3.35 0 1.7 0 0 Z " transform="translate(573,80)" style="fill: #444446;"/><path d="M0 0 C3.33331439 -0.02937438 6.66659483 -0.04692334 10 -0.0625 C10.93457031 -0.07087891 11.86914062 -0.07925781 12.83203125 -0.08789062 C18.32274401 -0.10708892 23.56866481 0.1865807 29 1 C29 1.33 29 1.66 29 2 C22.8323971 3.09857724 16.81584877 3.11539104 10.5625 3.0625 C9.54478516 3.05798828 8.52707031 3.05347656 7.47851562 3.04882812 C4.98561491 3.03712437 2.49283926 3.02072848 0 3 C0 2.01 0 1.02 0 0 Z " transform="translate(960,87)" style="fill: #1B1B1A;"/><path d="M0 0 C0 1.65 0 3.3 0 5 C-0.33 3.68 -0.66 2.36 -1 1 C-1.66 1 -2.32 1 -3 1 C-2.67 2.32 -2.34 3.64 -2 5 C-10.58 5 -19.16 5 -28 5 C-28 4.67 -28 4.34 -28 4 C-26.39318359 3.80083984 -26.39318359 3.80083984 -24.75390625 3.59765625 C-23.35674231 3.4194944 -21.95960841 3.24109681 -20.5625 3.0625 C-19.85544922 2.97548828 -19.14839844 2.88847656 -18.41992188 2.79882812 C-14.91182032 2.61783809 -14.91182032 2.61783809 -12 1 C-7.90213017 0.39539626 -4.14662899 0 0 0 Z " transform="translate(255,67)" style="fill: #4A4A4A;"/><path d="M0 0 C6.02659527 -0.23633707 11.5693787 0.51303695 17.51171875 1.5 C20.99698821 1.9995683 24.42280623 2.24815623 27.9375 2.4375 C35.17144652 2.87690732 41.96010976 4.29887151 49 6 C49 6.33 49 6.66 49 7 C42.93582086 7.14671401 37.23905802 6.60624711 31.25 5.6875 C30.35128174 5.55432373 29.45256348 5.42114746 28.52661133 5.28393555 C25.68356699 4.86137772 22.84180216 4.43082434 20 4 C18.06127719 3.71040632 16.12247574 3.42133855 14.18359375 3.1328125 C9.4547982 2.42795274 4.7271325 1.71592447 0 1 C0 0.67 0 0.34 0 0 Z " transform="translate(71,110)" style="fill: #9F9F9F;"/><path d="M0 0 C6.13809925 -0.02479809 12.27616905 -0.04290645 18.41430664 -0.05493164 C20.50057483 -0.0599471 22.58683953 -0.06676105 24.6730957 -0.07543945 C27.67920801 -0.08762736 30.68527366 -0.09325631 33.69140625 -0.09765625 C35.08088219 -0.10539818 35.08088219 -0.10539818 36.49842834 -0.11329651 C41.44436665 -0.11372084 46.12445339 0.15677261 51 1 C51 1.66 51 2.32 51 3 C46.71 3 42.42 3 38 3 C38 2.67 38 2.34 38 2 C25.46 1.67 12.92 1.34 0 1 C0 0.67 0 0.34 0 0 Z " transform="translate(200,96)" style="fill: #262626;"/><path d="M0 0 C3.3 0 6.6 0 10 0 C10 1.32 10 2.64 10 4 C7.69 4 5.38 4 3 4 C2.67 5.98 2.34 7.96 2 10 C1.34 10 0.68 10 0 10 C0 9.34 0 8.68 0 8 C-0.99 8.33 -1.98 8.66 -3 9 C-3.66 8.34 -4.32 7.68 -5 7 C-4.01 6.67 -3.02 6.34 -2 6 C-0.77479736 2.99152582 -0.77479736 2.99152582 0 0 Z " transform="translate(615,91)" style="fill: #EDECEF;"/><path d="M0 0 C0.33 0.99 0.66 1.98 1 3 C-1.54030376 3.50806075 -4.08011868 4.0152607 -6.625 4.5 C-9.13198898 4.98065971 -9.13198898 4.98065971 -12 6 C-13.39439664 6.06665376 -14.79169875 6.08538199 -16.1875 6.0625 C-18.0746875 6.0315625 -18.0746875 6.0315625 -20 6 C-18.54134759 2.24263359 -18.54134759 2.24263359 -16.15234375 1.171875 C-10.67290652 0.12817267 -5.5800012 -0.1771429 0 0 Z " transform="translate(162,71)" style="fill: #515151;"/><path d="M0 0 C1.93681161 -0.08107583 3.8745934 -0.13922475 5.8125 -0.1875 C6.89144531 -0.22230469 7.97039062 -0.25710937 9.08203125 -0.29296875 C12 0 12 0 13.875 1.1875 C15.39262151 3.63255688 15.29873534 5.33245951 15.1875 8.1875 C15.16042969 9.08855469 15.13335938 9.98960938 15.10546875 10.91796875 C15.07066406 11.60503906 15.03585937 12.29210937 15 13 C13.68 13 12.36 13 11 13 C11 9.7 11 6.4 11 3 C7.04 2.67 3.08 2.34 -1 2 C-0.67 1.34 -0.34 0.68 0 0 Z " transform="translate(499,84)" style="fill: #515152;"/><path d="M0 0 C0.99 0.33 1.98 0.66 3 1 C3 4.3 3 7.6 3 11 C3.99 11 4.98 11 6 11 C6 11.66 6 12.32 6 13 C5.01 13.33 4.02 13.66 3 14 C2.34 14.66 1.68 15.32 1 16 C-0.9960615 12.67849055 -1.24399211 10.15909894 -1.1875 6.3125 C-1.18105469 5.33925781 -1.17460937 4.36601563 -1.16796875 3.36328125 C-1 1 -1 1 0 0 Z " transform="translate(501,86)" style="fill: #EEEEEF;"/><path d="M0 0 C11.22 0 22.44 0 34 0 C33.67 0.66 33.34 1.32 33 2 C26.50927229 3.38993361 19.60476723 3.12647427 13 3 C13 2.67 13 2.34 13 2 C8.71 1.67 4.42 1.34 0 1 C0 0.67 0 0.34 0 0 Z " transform="translate(170,82)" style="fill: #292929;"/><path d="M0 0 C1.50626953 0.00676758 1.50626953 0.00676758 3.04296875 0.01367188 C5.48704471 0.02531033 7.9309882 0.0416576 10.375 0.0625 C10.045 1.0525 9.715 2.0425 9.375 3.0625 C-0.855 2.7325 -11.085 2.4025 -21.625 2.0625 C-21.625 1.7325 -21.625 1.4025 -21.625 1.0625 C-14.39068401 0.18179203 -7.2831629 -0.06320502 0 0 Z " transform="translate(174.625,68.9375)" style="fill: #9D9D9D;"/><path d="M0 0 C0.82435547 0.03544922 1.64871094 0.07089844 2.49804688 0.10742188 C3.29146484 0.15060547 4.08488281 0.19378906 4.90234375 0.23828125 C5.99083618 0.29495972 5.99083618 0.29495972 7.10131836 0.3527832 C9.0625 0.6875 9.0625 0.6875 12.0625 2.6875 C3.1525 2.6875 -5.7575 2.6875 -14.9375 2.6875 C-9.14737274 -0.20756363 -6.35344585 -0.36093506 0 0 Z " transform="translate(944.9375,79.3125)" style="fill: #B2B2B5;"/><path d="M0 0 C6.27 0 12.54 0 19 0 C18.67 0.99 18.34 1.98 18 3 C12.39 3 6.78 3 1 3 C0.67 2.01 0.34 1.02 0 0 Z " transform="translate(938,102)" style="fill: #868686;"/><path d="M0 0 C16.17 0 32.34 0 49 0 C49 0.33 49 0.66 49 1 C33.82 1 18.64 1 3 1 C3 1.66 3 2.32 3 3 C2.01 2.67 1.02 2.34 0 2 C0 1.34 0 0.68 0 0 Z " transform="translate(127,92)" style="fill: #303030;"/><path d="M0 0 C1.98 0.495 1.98 0.495 4 1 C4 4.3 4 7.6 4 11 C2.35 11 0.7 11 -1 11 C-1.02688151 9.35425434 -1.04634123 7.70838587 -1.0625 6.0625 C-1.07410156 5.14597656 -1.08570313 4.22945313 -1.09765625 3.28515625 C-1 1 -1 1 0 0 Z " transform="translate(667,84)" style="fill: #D2D2D3;"/><path d="M0 0 C0 4.95 0 9.9 0 15 C-0.99 15.33 -1.98 15.66 -3 16 C-3 11.71 -3 7.42 -3 3 C-3.99 2.67 -4.98 2.34 -6 2 C-4 0 -4 0 0 0 Z " transform="translate(614,82)" style="fill: #404043;"/><path d="M0 0 C3.3 0 6.6 0 10 0 C9.15522369 3.37910524 8.14057406 6.49005738 6.9375 9.75 C6.57527344 10.73484375 6.21304688 11.7196875 5.83984375 12.734375 C5.56269531 13.48203125 5.28554688 14.2296875 5 15 C4.01 15 3.02 15 2 15 C2.60745397 10.14036821 4.72758967 6.2594482 7 2 C4.69 2 2.38 2 0 2 C0 1.34 0 0.68 0 0 Z " transform="translate(680,82)" style="fill: #403F44;"/><path d="M0 0 C1.50626953 0.00676758 1.50626953 0.00676758 3.04296875 0.01367188 C5.48704471 0.02531033 7.9309882 0.0416576 10.375 0.0625 C10.375 0.3925 10.375 0.7225 10.375 1.0625 C0.475 1.5575 0.475 1.5575 -9.625 2.0625 C-6.655 2.5575 -6.655 2.5575 -3.625 3.0625 C-3.625 3.3925 -3.625 3.7225 -3.625 4.0625 C-16.29470387 4.4315205 -16.29470387 4.4315205 -21.625 2.0625 C-21.625 1.7325 -21.625 1.4025 -21.625 1.0625 C-14.39068401 0.18179203 -7.2831629 -0.06320502 0 0 Z " transform="translate(155.625,82.9375)" style="fill: #2D2D2D;"/><path d="M0 0 C1.08571289 -0.0309375 1.08571289 -0.0309375 2.19335938 -0.0625 C4.29296875 -0.078125 4.29296875 -0.078125 7.8125 0.25 C8.4725 1.24 9.1325 2.23 9.8125 3.25 C2.2225 3.25 -5.3675 3.25 -13.1875 3.25 C-13.1875 2.59 -13.1875 1.93 -13.1875 1.25 C-8.80226993 0.18169248 -4.49033988 0.03250925 0 0 Z " transform="translate(213.1875,74.75)" style="fill: #414141;"/><path d="M0 0 C0.33 0 0.66 0 1 0 C1 1.98 1 3.96 1 6 C-7.58 6 -16.16 6 -25 6 C-25 5.67 -25 5.34 -25 5 C-17.08 4.67 -9.16 4.34 -1 4 C-0.67 2.68 -0.34 1.36 0 0 Z " transform="translate(252,75)" style="fill: #0B0B0B;"/><path d="M0 0 C5.28 0 10.56 0 16 0 C16 0.66 16 1.32 16 2 C20.29 2.33 24.58 2.66 29 3 C29 3.33 29 3.66 29 4 C22.51877412 4.18343092 16.40111777 3.4800332 10 2.5 C9.03449219 2.35691406 8.06898438 2.21382813 7.07421875 2.06640625 C4.71532665 1.71607574 2.35735455 1.3605065 0 1 C0 0.67 0 0.34 0 0 Z " transform="translate(120,117)" style="fill: #888888;"/><path d="M0 0 C0.33 0 0.66 0 1 0 C1 3.3 1 6.6 1 10 C2.32 10 3.64 10 5 10 C5 10.99 5 11.98 5 13 C3.02 13.66 1.04 14.32 -1 15 C-1 14.67 -1 14.34 -1 14 C-3.97 13.505 -3.97 13.505 -7 13 C-6.67 12.01 -6.34 11.02 -6 10 C-3 11 -3 11 -1 12 C-0.67 8.04 -0.34 4.08 0 0 Z " transform="translate(673,85)" style="fill: #9B9A9F;"/><path d="M0 0 C3.3 0.33 6.6 0.66 10 1 C9.67 1.66 9.34 2.32 9 3 C8.030625 2.979375 7.06125 2.95875 6.0625 2.9375 C3.12534105 2.64381501 3.12534105 2.64381501 2 4 C1.76807135 5.51469448 1.58784762 7.03754562 1.4375 8.5625 C1.35371094 9.38878906 1.26992188 10.21507813 1.18359375 11.06640625 C1.12300781 11.70449219 1.06242188 12.34257813 1 13 C0.01 13 -0.98 13 -2 13 C-2.05416188 11.39620659 -2.09286638 9.79188594 -2.125 8.1875 C-2.14820313 7.29417969 -2.17140625 6.40085937 -2.1953125 5.48046875 C-2 3 -2 3 0 0 Z " transform="translate(527,83)" style="fill: #C0C0C0;"/><path d="M0 0 C2.45898655 -0.08076963 4.91533742 -0.14037143 7.375 -0.1875 C8.07367187 -0.21263672 8.77234375 -0.23777344 9.4921875 -0.26367188 C11.5234375 -0.29296875 11.5234375 -0.29296875 15 0 C15.66 0.99 16.32 1.98 17 3 C11.72 3 6.44 3 1 3 C0.67 2.01 0.34 1.02 0 0 Z " transform="translate(1113,77)" style="fill: #333334;"/><path d="M0 0 C2.97 0.495 2.97 0.495 6 1 C6 3.64 6 6.28 6 9 C4.02 9 2.04 9 0 9 C0 8.34 0 7.68 0 7 C1.65 6.67 3.3 6.34 5 6 C5 5.34 5 4.68 5 4 C3.35 4 1.7 4 0 4 C0 2.68 0 1.36 0 0 Z " transform="translate(998,86)" style="fill: #1C1C1C;"/><path d="M0 0 C0.99 0 1.98 0 3 0 C3 3.3 3 6.6 3 10 C3.66 10.33 4.32 10.66 5 11 C3.1875 11.625 3.1875 11.625 1 12 C0.01 11.34 -0.98 10.68 -2 10 C-1.34 10 -0.68 10 0 10 C0 6.7 0 3.4 0 0 Z " transform="translate(538,87)" style="fill: #AAA9AB;"/><path d="M0 0 C0.33 1.32 0.66 2.64 1 4 C-1.97 3.505 -1.97 3.505 -5 3 C-5 4.32 -5 5.64 -5 7 C-3.35 7 -1.7 7 0 7 C0 7.66 0 8.32 0 9 C-1.65 9.33 -3.3 9.66 -5 10 C-5 10.66 -5 11.32 -5 12 C-4.34 12.33 -3.68 12.66 -3 13 C-3.99 13.33 -4.98 13.66 -6 14 C-6 10.04 -6 6.08 -6 2 C-4.02 2 -2.04 2 0 2 C0 1.34 0 0.68 0 0 Z " transform="translate(1003,83)" style="fill: #0E0E0E;"/><path d="M0 0 C2.97 0.495 2.97 0.495 6 1 C5.401875 1.2475 4.80375 1.495 4.1875 1.75 C1.71352479 3.16370012 0.56629745 4.65055383 -1 7 C-3.66666667 6.33333333 -6.33333333 5.66666667 -9 5 C-9 3.68 -9 2.36 -9 1 C-7.02 1 -5.04 1 -3 1 C-3 1.33 -3 1.66 -3 2 C-4.65 2 -6.3 2 -8 2 C-8 2.66 -8 3.32 -8 4 C-5.36 3.34 -2.72 2.68 0 2 C0 1.34 0 0.68 0 0 Z " transform="translate(631,83)" style="fill: #C7C7C9;"/><path d="M0 0 C8.58077055 -0.24911914 16.58173087 0.30117812 25 2 C25 2.33 25 2.66 25 3 C22.35409986 3.02684679 19.70846904 3.04676357 17.0625 3.0625 C15.93038086 3.07506836 15.93038086 3.07506836 14.77539062 3.08789062 C12.85005687 3.09652441 10.92464419 3.05224333 9 3 C8.67 2.67 8.34 2.34 8 2 C6.65252916 1.76924918 5.29622435 1.58846937 3.9375 1.4375 C2.638125 1.293125 1.33875 1.14875 0 1 C0 0.67 0 0.34 0 0 Z " transform="translate(171,122)" style="fill: #757575;"/><path d="M0 0 C0.99 0.33 1.98 0.66 3 1 C3 3.97 3 6.94 3 10 C3.66 10 4.32 10 5 10 C5 7.03 5 4.06 5 1 C5.33 1 5.66 1 6 1 C6 4.3 6 7.6 6 11 C4.68 11 3.36 11 2 11 C1.67 8.36 1.34 5.72 1 3 C0.67 5.64 0.34 8.28 0 11 C-0.33 11 -0.66 11 -1 11 C-1.02688151 9.35425434 -1.04634123 7.70838587 -1.0625 6.0625 C-1.07410156 5.14597656 -1.08570313 4.22945313 -1.09765625 3.28515625 C-1 1 -1 1 0 0 Z " transform="translate(563,86)" style="fill: #939396;"/><path d="M0 0 C0.99 0.33 1.98 0.66 3 1 C3 3.64 3 6.28 3 9 C1.68 9 0.36 9 -1 9 C-1.09765625 2.84765625 -1.09765625 2.84765625 -1 1 C-0.67 0.67 -0.34 0.34 0 0 Z " transform="translate(520,86)" style="fill: #D2D2D3;"/><path d="M0 0 C0.22223194 2.74086056 0.34781139 4.43963721 -1.125 6.8125 C-3.77535957 8.49106106 -5.93246424 8.20450238 -9 8 C-9.33 7.01 -9.66 6.02 -10 5 C-7.69 5 -5.38 5 -3 5 C-2.855625 4.360625 -2.71125 3.72125 -2.5625 3.0625 C-1.72727273 0 -1.72727273 0 0 0 Z " transform="translate(629,90)" style="fill: #59595B;"/><path d="M0 0 C0 3.63 0 7.26 0 11 C-0.99 11 -1.98 11 -3 11 C-3.02688151 9.35425434 -3.04634123 7.70838587 -3.0625 6.0625 C-3.07410156 5.14597656 -3.08570313 4.22945313 -3.09765625 3.28515625 C-2.97403051 0.39231385 -2.90946437 0 0 0 Z " transform="translate(531,86)" style="fill: #272727;"/><path d="M0 0 C0.33 0 0.66 0 1 0 C1.33 1.65 1.66 3.3 2 5 C2.33 3.35 2.66 1.7 3 0 C3.33 0 3.66 0 4 0 C4 2.64 4 5.28 4 8 C5.65 8.33 7.3 8.66 9 9 C9 9.33 9 9.66 9 10 C3.63157895 10.35789474 3.63157895 10.35789474 1.125 8.9375 C-0.58196395 5.99772876 -0.18799766 3.32129197 0 0 Z " transform="translate(515,87)" style="fill: #4F4F51;"/><path d="M0 0 C5.625 -0.25 5.625 -0.25 9 2 C9 3.32 9 4.64 9 6 C8.34 6 7.68 6 7 6 C6.67 6.66 6.34 7.32 6 8 C5.67 6.35 5.34 4.7 5 3 C3.35 2.67 1.7 2.34 0 2 C0 1.34 0 0.68 0 0 Z " transform="translate(632,82)" style="fill: #414143;"/><path d="M0 0 C3.3 0 6.6 0 10 0 C9.34 1.32 8.68 2.64 8 4 C5.69 3.67 3.38 3.34 1 3 C0.67 2.01 0.34 1.02 0 0 Z " transform="translate(631,95)" style="fill: #717173;"/><path d="M0 0 C0.99 0.33 1.98 0.66 3 1 C3 4.3 3 7.6 3 11 C2.67 11 2.34 11 2 11 C1.67 8.69 1.34 6.38 1 4 C0.67 6.31 0.34 8.62 0 11 C-0.33 11 -0.66 11 -1 11 C-1.02688151 9.35425434 -1.04634123 7.70838587 -1.0625 6.0625 C-1.07410156 5.14597656 -1.08570313 4.22945313 -1.09765625 3.28515625 C-1 1 -1 1 0 0 Z " transform="translate(501,86)" style="fill: #B9B9BA;"/><path d="M0 0 C-0.33 0.99 -0.66 1.98 -1 3 C-3.97 3 -6.94 3 -10 3 C-10 2.34 -10 1.68 -10 1 C-3.71428571 -1.42857143 -3.71428571 -1.42857143 0 0 Z " transform="translate(132,75)" style="fill: #636363;"/><path d="M0 0 C-3.77371512 1.3357457 -6.85831347 0.72408671 -10.75 0.0625 C-12.50570312 -0.22947266 -12.50570312 -0.22947266 -14.296875 -0.52734375 C-15.18890625 -0.68332031 -16.0809375 -0.83929688 -17 -1 C-17 -1.33 -17 -1.66 -17 -2 C-10.6447755 -3.5197276 -6.08291273 -2.1663492 0 0 Z " transform="translate(96,112)" style="fill: #282828;"/><path d="M0 0 C2.00720923 0.28674418 4.0085944 0.61866701 6 1 C5.01 1.495 5.01 1.495 4 2 C4 3.65 4 5.3 4 7 C3.01 7 2.02 7 1 7 C1 5.35 1 3.7 1 2 C0.34 1.67 -0.32 1.34 -1 1 C-0.67 0.67 -0.34 0.34 0 0 Z " transform="translate(543,84)" style="fill: #9F9FA0;"/><path d="M0 0 C3.96 0 7.92 0 12 0 C11.67 0.66 11.34 1.32 11 2 C7.01133873 2.99716532 3.9676931 3.0502717 0 2 C0 1.34 0 0.68 0 0 Z " transform="translate(152,77)" style="fill: #252525;"/><path d="M0 0 C-1.44253657 3.36591866 -3.33264727 5.51047079 -6 8 C-6.75 6.25 -6.75 6.25 -7 4 C-4.66754091 1.00112403 -3.88153854 0 0 0 Z " transform="translate(520,81)" style="fill: #EDEDF0;"/><path d="M0 0 C1.65 0 3.3 0 5 0 C5 1.65 5 3.3 5 5 C3.35 4.67 1.7 4.34 0 4 C0 2.68 0 1.36 0 0 Z " transform="translate(573,80)" style="fill: #1F1F21;"/><path d="M0 0 C5.21979128 -0.1799928 9.07262981 0.02905192 14 2 C14 2.33 14 2.66 14 3 C8.80790596 3.21192221 4.873261 2.5912689 0 1 C0 0.67 0 0.34 0 0 Z " transform="translate(106,113)" style="fill: #242424;"/><path d="M0 0 C0 2.31 0 4.62 0 7 C-0.99 7 -1.98 7 -3 7 C-3.04254356 5.00045254 -3.04080783 2.99958364 -3 1 C-2 0 -2 0 0 0 Z " transform="translate(670,88)" style="fill: #EDEDEF;"/></svg>