<?xml version="1.0" encoding="UTF-8"?>
<!-- Generator: visioncortex VTracer -->
<svg id="svg" version="1.1" xmlns="http://www.w3.org/2000/svg" style="display: block;" viewBox="0 0 266 129"><path d="M0 0 C0.13758943 1.17146052 0.22475366 2.34918469 0.28125 3.52734375 C0.31790771 4.23181641 0.35456543 4.93628906 0.39233398 5.66210938 C0.44562866 6.78842773 0.44562866 6.78842773 0.5 7.9375 C0.58349941 9.48834283 0.66813496 11.03912491 0.75390625 12.58984375 C0.79531738 13.3463623 0.83672852 14.10288086 0.87939453 14.88232422 C0.82777887 27.16889632 0.82777887 27.16889632 5 38 C5.57260818 36.35686347 6.05276737 34.6815947 6.5 33 C6.7578125 32.05125 7.015625 31.1025 7.28125 30.125 C9.05248009 22.4239996 9.28787617 14.81485308 9.51757812 6.94335938 C9.55173828 6.07904297 9.58589844 5.21472656 9.62109375 4.32421875 C9.65867798 3.1499231 9.65867798 3.1499231 9.69702148 1.9519043 C10.32499597 -2.0937492 12.64756759 -2.73028769 16 -1 C17.28448101 4.26468205 17.24761042 9.66876615 17.4375 15.0625 C17.31259419 29.11420262 17.31259419 29.11420262 22 39 C24.66330736 30.33559672 24.83370451 20.52245245 25.60180664 11.50952148 C25.76258964 9.64950612 25.94047234 7.79177263 26.12109375 5.93359375 C26.2183374 4.84103271 26.31558105 3.74847168 26.41577148 2.62280273 C27.03023222 -0.13572282 27.28330971 -1.12766825 30 -2 C33.27663269 1.27663269 33.1080941 5.44923055 33.4296875 9.9140625 C34.44726135 24.19171602 34.44726135 24.19171602 38 38 C38.48377991 36.14703165 38.96178636 34.29255559 39.4375 32.4375 C39.70433594 31.40496094 39.97117187 30.37242188 40.24609375 29.30859375 C41.91440424 21.98704461 42.27106935 14.79974958 42.51757812 7.3203125 C42.55173828 6.54945312 42.58589844 5.77859375 42.62109375 4.984375 C42.65867798 3.94361816 42.65867798 3.94361816 42.69702148 2.88183594 C43.18006676 -0.11841625 43.78127891 -2.2104433 47.05859375 -1.64453125 C49.981935 0.83177995 49.80813111 3.70103432 50.0625 7.3125 C50.20397839 8.83882772 50.3486692 10.36486013 50.49609375 11.890625 C50.60993408 13.11749023 50.60993408 13.11749023 50.72607422 14.36914062 C51.22063794 19.11906811 51.93110575 23.83829375 52.625 28.5625 C52.76043213 29.49682861 52.89586426 30.43115723 53.03540039 31.39379883 C53.35490991 33.5961691 53.67642866 35.7982235 54 38 C55.926138 31.98324486 57.2492588 26.11631778 57.80859375 19.8359375 C57.86326813 19.22647278 57.9179425 18.61700806 57.97427368 17.98907471 C58.19146158 15.47177657 58.39461567 12.95382926 58.58129883 10.43408203 C58.72376397 8.56620567 58.8895731 6.70156999 59.05859375 4.8359375 C59.14423584 3.73813965 59.22987793 2.6403418 59.31811523 1.50927734 C60.16841611 -1.6197568 60.78314742 -2.08134308 64 -2 C66.3366513 0.18403641 66.34641611 2.76921446 66.5625 5.83203125 C66.63597656 6.78972412 66.70945312 7.74741699 66.78515625 8.73413086 C66.85605469 9.74999268 66.92695312 10.76585449 67 11.8125 C67.163964 13.89344388 67.3306277 15.97417683 67.5 18.0546875 C67.5825 19.06885742 67.665 20.08302734 67.75 21.12792969 C68.07931316 24.91117192 68.491055 28.67443745 69 32.4375 C69.2165625 34.07525391 69.2165625 34.07525391 69.4375 35.74609375 C69.69354053 38.32341378 69.69354053 38.32341378 72 38 C72.4249102 35.2328065 72.71141106 32.54411113 72.9296875 29.7578125 C73.08675174 28.0351117 73.24431963 26.31245676 73.40234375 24.58984375 C73.64177272 21.85583045 73.87528103 19.12156578 74.09912109 16.38623047 C74.31799212 13.75835387 74.55987435 11.13338088 74.8046875 8.5078125 C74.86526337 7.68693146 74.92583923 6.86605042 74.98825073 6.02029419 C75.67667994 -1.12108328 75.67667994 -1.12108328 80 -2 C82.6577045 0.2118396 82.58427574 3.96192512 83 7.1875 C83.08048584 7.79392334 83.16097168 8.40034668 83.24389648 9.02514648 C83.50533662 11.01568533 83.7541208 13.00748177 84 15 C84.08781738 15.70608398 84.17563477 16.41216797 84.26611328 17.13964844 C84.35489746 17.85411133 84.44368164 18.56857422 84.53515625 19.3046875 C84.66760742 20.36973511 84.66760742 20.36973511 84.80273438 21.45629883 C84.97225512 22.83078707 85.13904837 24.20561525 85.30273438 25.58081055 C85.59953043 31.94598593 85.59953043 31.94598593 88 36 C89.53984941 30.09940056 90.03026129 23.99364659 90.43359375 17.9296875 C90.50779541 16.85396484 90.58199707 15.77824219 90.65844727 14.66992188 C90.80223324 12.48217053 90.92916856 10.2932433 91.03881836 8.10351562 C91.13948608 6.57887695 91.13948608 6.57887695 91.2421875 5.0234375 C91.31735596 3.64551025 91.31735596 3.64551025 91.39404297 2.23974609 C92.18758356 -0.69334876 93.11322714 -1.22046956 96 -2 C98.79548175 0.79548175 98.66707024 3.72566374 99.0703125 7.4921875 C99.19924393 8.60571091 99.19924393 8.60571091 99.33078003 9.74172974 C99.51118714 11.31320045 99.68743917 12.88515289 99.85986328 14.45751953 C100.12329427 16.85944735 100.39834437 19.25980984 100.67578125 21.66015625 C100.84963973 23.18742259 101.02283848 24.7147642 101.1953125 26.2421875 C101.27653351 26.95897675 101.35775452 27.67576599 101.44143677 28.41427612 C101.7394493 31.14212409 102.00788389 33.73777052 101.92529297 36.48486328 C101.7635862 38.33292887 101.7635862 38.33292887 104 38 C104.54064518 35.90321308 104.54064518 35.90321308 104.78125 33.2421875 C104.89976318 32.22979004 105.01827637 31.21739258 105.14038086 30.17431641 C105.25905518 29.08554199 105.37772949 27.99676758 105.5 26.875 C105.76138416 24.67183528 106.02310164 22.46871008 106.28515625 20.265625 C106.70424724 16.63168652 107.10755603 12.99667954 107.49609375 9.359375 C107.64272951 8.11452438 107.78981478 6.86972656 107.9375 5.625 C108.04964844 4.56539062 108.16179687 3.50578125 108.27734375 2.4140625 C109.17366547 -0.58013654 109.95717671 -1.31868473 113 -2 C115.65660887 1.05578229 115.61871214 4.75616449 116 8.625 C116.16530275 10.14714213 116.33066932 11.66927734 116.49609375 13.19140625 C116.57843262 13.97789551 116.66077148 14.76438477 116.74560547 15.57470703 C117.16498513 19.57290044 117.61006024 23.56793315 118.0625 27.5625 C118.18141602 28.67842529 118.18141602 28.67842529 118.30273438 29.81689453 C118.12675434 33.28222965 118.12675434 33.28222965 120 35 C121.42049982 29.79547964 121.99099178 24.38694075 122.46875 19.02734375 C122.54746338 18.14916992 122.62617676 17.27099609 122.70727539 16.36621094 C122.85855074 14.60609094 122.99870718 12.84497324 123.12670898 11.08300781 C124.30761172 -2.81728597 124.30761172 -2.81728597 129.03320312 -1.3828125 C131.41826072 0.2940701 131.6484344 1.0322136 132.15234375 3.85546875 C132.29913574 4.66032715 132.44592773 5.46518555 132.59716797 6.29443359 C133.34114541 11.29125662 133.98099007 16.29428467 134.5625 21.3125 C134.81154586 23.43385985 135.06275843 25.55496673 135.31640625 27.67578125 C135.42412354 28.60302002 135.53184082 29.53025879 135.64282227 30.4855957 C135.95987873 32.71756052 136.40432139 34.82814243 137 37 C138.0987284 30.80504201 138.97692172 24.65294775 139.47265625 18.37890625 C139.55080566 17.40002441 139.62895508 16.42114258 139.70947266 15.41259766 C139.86002843 13.44828009 139.99925711 11.48305748 140.12646484 9.51708984 C140.19687988 8.60266113 140.26729492 7.68823242 140.33984375 6.74609375 C140.39519287 5.92810303 140.45054199 5.1101123 140.50756836 4.26733398 C141.24370362 0.8779001 142.21250476 -2.41619292 146.12646484 -1.50488281 C148.43198989 0.34698797 148.61586813 1.18372636 148.9765625 4.078125 C149.14514771 5.3161084 149.14514771 5.3161084 149.31713867 6.57910156 C149.41873291 7.46049805 149.52032715 8.34189453 149.625 9.25 C149.74270752 10.14428711 149.86041504 11.03857422 149.98168945 11.95996094 C150.21995433 13.77447707 150.4511889 15.58993056 150.67529297 17.40625 C151.12875413 21.02848416 151.65772202 24.63831284 152.1875 28.25 C152.45908628 30.16656012 152.73024894 32.08318071 153 34 C154.5813478 29.72219965 155.34655418 25.94262378 155.7109375 21.359375 C155.82224155 20.11191874 155.93424064 18.86452434 156.046875 17.6171875 C156.21470306 15.67334363 156.37657838 13.72950147 156.52636719 11.78417969 C156.67537684 9.89071302 156.84764559 8.00051662 157.0234375 6.109375 C157.11544434 4.98499023 157.20745117 3.86060547 157.30224609 2.70214844 C158.13599265 -0.52665033 158.77683253 -1.22985589 162 -2 C164.23004842 0.23004842 164.33984334 0.85975301 164.78125 3.859375 C164.90000488 4.63949951 165.01875977 5.41962402 165.14111328 6.22338867 C165.31876221 7.47406128 165.31876221 7.47406128 165.5 8.75 C165.62745605 9.59731689 165.75491211 10.44463379 165.88623047 11.31762695 C166.48574774 15.33167104 167.05149448 19.35000332 167.6015625 23.37109375 C167.69115234 24.02045898 167.78074219 24.66982422 167.87304688 25.33886719 C168.11218836 27.09349831 168.34152925 28.849457 168.5703125 30.60546875 C168.62397428 33.16404639 168.62397428 33.16404639 170 33 C170.34519802 30.86829523 170.62308406 28.75740346 170.8671875 26.61328125 C171.03216287 25.26883239 171.19754067 23.92443286 171.36328125 22.58007812 C171.62025402 20.45209888 171.87368743 18.32386379 172.11962891 16.19458008 C172.35841935 14.14524129 172.61184011 12.098114 172.8671875 10.05078125 C172.97049881 9.10517082 172.97049881 9.10517082 173.07589722 8.14045715 C174.4105228 -2.31387602 174.4105228 -2.31387602 179.0625 -1.75 C183.92556689 2.64244752 183.53109938 10.8672735 184 17 C184.07347656 15.42798828 184.07347656 15.42798828 184.1484375 13.82421875 C184.22348143 12.44528646 184.29902857 11.0663815 184.375 9.6875 C184.4059375 8.99720703 184.436875 8.30691406 184.46875 7.59570312 C184.52675781 6.59506836 184.52675781 6.59506836 184.5859375 5.57421875 C184.6173584 4.96151123 184.6487793 4.34880371 184.68115234 3.7175293 C185.36006186 0.06046309 186.79718343 -1.42965505 190.5 -1.4375 C191.1084375 -1.45683594 191.716875 -1.47617187 192.34375 -1.49609375 C197.32703281 -0.00345951 196.28740483 7.13174816 196.265625 11.2734375 C196.26753845 12.07480133 196.2694519 12.87616516 196.27142334 13.70181274 C196.27278223 15.39463617 196.26910648 17.08747013 196.26074219 18.78027344 C196.25006639 21.35896499 196.2606328 23.93695546 196.2734375 26.515625 C196.2721153 28.16406403 196.26955167 29.81250262 196.265625 31.4609375 C196.26967346 32.2267514 196.27372192 32.99256531 196.27789307 33.78158569 C196.21337798 41.2254517 195.78499164 48.6154742 186.375 46.375 C178.61920176 41.88480102 178.75047753 30.01048497 178 22 C177.88724731 22.72533936 177.88724731 22.72533936 177.7722168 23.46533203 C177.42088539 25.68697873 177.05431517 27.90585945 176.6875 30.125 C176.56955078 30.88554688 176.45160156 31.64609375 176.33007812 32.4296875 C173.98597041 46.37412315 173.98597041 46.37412315 168 46 C165.42608092 43.15548943 164.36228828 40.48499542 163.375 36.8125 C162.69429298 33.62672383 162.69429298 33.62672383 161 31 C160.19823609 33.9945399 159.56747107 37.01678251 158.9140625 40.046875 C157.25480362 45.40755754 155.10250188 47.52507228 150 44 C148.75370304 41.30438267 148.08969436 38.499978 147.375 35.625 C146.70809838 33.29318344 146.00058438 31.21657235 145 29 C143.50860428 31.56999441 143.25105757 34.4681918 142.7734375 37.359375 C141.79605185 42.79198652 140.18302356 47.7823606 134 45 C131.00641377 41.4718448 130.58515493 38.1303765 130.30859375 33.671875 C130.18579239 31.76023195 130.18579239 31.76023195 128 31 C127.875 28.4375 127.875 28.4375 128 26 C127.89042969 26.79664062 127.78085938 27.59328125 127.66796875 28.4140625 C124.66480273 48.48400124 124.66480273 48.48400124 117 45 C115.19447774 42.61671062 114.12067018 40.39802205 113.25390625 37.5390625 C112.52426932 34.9062617 112.52426932 34.9062617 111 32 C109.90309758 34.30235247 109.40726475 36.65847668 108.84375 39.140625 C107.32765983 44.27848614 105.61331012 47.58052646 100 45 C98.92751715 42.8753795 98.16596983 41.04135185 97.4375 38.8125 C96.36153468 35.88641833 96.36153468 35.88641833 95 34 C93.35801604 36.2094343 92.82358139 38.59645205 92.08984375 41.23046875 C90.66739837 44.84521346 88.68092366 47.05057729 85 44.75 C82.93741504 41.91394568 82.03280666 39.47652854 80.875 36.1875 C80.00302565 33.65009492 80.00302565 33.65009492 79 32 C78.0650733 33.98836524 77.90371625 36.15108677 77.55078125 38.30859375 C76.49785016 43.45376763 73.65420975 48.10981536 68 45 C65.81468822 41.36509807 64.29055202 37.5550344 63.51171875 33.38671875 C63.25841797 32.70029297 63.25841797 32.70029297 63 32 C61.97377724 34.11104861 61.97377724 34.11104861 61.0625 37.125 C58.18331399 45.90487522 58.18331399 45.90487522 52 45 C49.27339519 42.48313403 48.56707988 39.63625816 47.5 36.1875 C46.8968148 34.15828774 46.8968148 34.15828774 46 33 C44.88329227 35.05892987 44.40632738 37.18997836 43.84375 39.45703125 C42.19072495 44.43906508 40.00044929 45.87516848 35 44 C32.70354775 41.70354775 31.81757167 39.55317172 30.9375 36.5 C30.628125 35.675 30.31875 34.85 30 34 C28.86154207 35.40016637 28.86154207 35.40016637 28 38 C25.83452804 43.5219535 22.33501802 47.96446046 16.75 43 C15.15450759 40.26487016 14.61738171 38.52304147 14 35.5 C13.67 34.675 13.34 33.85 13 33 C12.337484 34.63680424 11.77966008 36.31550727 11.25 38 C9.36978794 43.78796622 6.89036281 47.70164084 0.75 43.4375 C-0.89563476 41.14536587 -1.35579929 39.89899773 -2 37.25 C-2.33 36.5075 -2.66 35.765 -3 35 C-4.2535236 36.84501309 -5.05428961 38.78369946 -5.90234375 40.84375 C-7.85036751 44.67047283 -9.99991147 45.75003873 -14 44 C-14.495 43.21625 -14.99 42.4325 -15.5 41.625 C-18.186677 38.71443325 -19.06993756 42.55903867 -21 45 C-33.82823901 46.25153551 -30.83274453 15.37294936 -29 8 C-27.51953125 6.41015625 -27.51953125 6.41015625 -26 5 C-25.67 4.01 -25.34 3.02 -25 2 C-23.44140625 1.12890625 -23.44140625 1.12890625 -21.5625 0.5625 C-20.94503906 0.35753906 -20.32757813 0.15257812 -19.69140625 -0.05859375 C-15.6064552 0.08291726 -15.6553484 5.92204316 -15.4375 9.10546875 C-15.36273438 10.08966797 -15.28796875 11.07386719 -15.2109375 12.08789062 C-15.14132813 13.11076172 -15.07171875 14.13363281 -15 15.1875 C-15.01047483 26.78791662 -15.01047483 26.78791662 -11 37 C-10.20591689 35.4733525 -10.20591689 35.4733525 -9.5 33.4375 C-9.11328125 32.41462891 -9.11328125 32.41462891 -8.71875 31.37109375 C-6.42593424 23.80729393 -6.67901247 15.89344823 -6.48242188 8.05859375 C-6.44826172 7.05441406 -6.41410156 6.05023438 -6.37890625 5.015625 C-6.3538501 4.10071289 -6.32879395 3.18580078 -6.30297852 2.24316406 C-5.79275732 -1.53436402 -2.20536805 -4.41073609 0 0 Z M189.875 9 C189.87242187 9.7425 189.86984375 10.485 189.8671875 11.25 C189.72010712 13.16618875 189.72010712 13.16618875 191 13 C191.16220652 11.16857671 191.16220652 11.16857671 191.125 9 C191.12757813 8.2575 191.13015625 7.515 191.1328125 6.75 C190.77241015 2.00116903 189.86996796 7.55077258 189.875 9 Z M-24.1875 22.125 C-24.19974609 23.17816406 -24.21199219 24.23132813 -24.22460938 25.31640625 C-24.22654297 26.30769531 -24.22847656 27.29898438 -24.23046875 28.3203125 C-24.23457764 29.24086426 -24.23868652 30.16141602 -24.24291992 31.10986328 C-24.23657666 33.51167899 -24.23657666 33.51167899 -22 32 C-21.7031029 29.76486517 -21.7031029 29.76486517 -21.76953125 27.08984375 C-21.77146484 26.10048828 -21.77339844 25.11113281 -21.77539062 24.09179688 C-21.78763672 23.05087891 -21.79988281 22.00996094 -21.8125 20.9375 C-21.81314453 19.89271484 -21.81378906 18.84792969 -21.81445312 17.77148438 C-21.89732651 3.65538472 -24.18274287 14.40894016 -24.1875 22.125 Z M26 30 C27 32 27 32 27 32 Z M157 30 C158 32 158 32 158 32 Z M58 33 C59 35 59 35 59 35 Z M140 33 C141 35 141 35 141 35 Z " transform="translate(51,42)" style="fill: #969390;"/><path d="M0 0 C0.64878713 2.59476278 1.02093674 4.85373437 1.265625 7.4921875 C1.34874939 8.23453644 1.43187378 8.97688538 1.51751709 9.74172974 C1.77911493 12.11797767 2.01455389 14.4960333 2.25 16.875 C2.42282491 18.47023217 2.59728495 20.0652881 2.7734375 21.66015625 C4.02485248 33.21929475 4.02485248 33.21929475 3.92089844 36.48486328 C3.76451215 38.33287999 3.76451215 38.33287999 6 38 C6.54064518 35.90321308 6.54064518 35.90321308 6.78125 33.2421875 C6.89976318 32.22979004 7.01827637 31.21739258 7.14038086 30.17431641 C7.25905518 29.08554199 7.37772949 27.99676758 7.5 26.875 C7.76138416 24.67183528 8.02310164 22.46871008 8.28515625 20.265625 C8.70424724 16.63168652 9.10755603 12.99667954 9.49609375 9.359375 C9.64272951 8.11452438 9.78981478 6.86972656 9.9375 5.625 C10.04964844 4.56539062 10.16179687 3.50578125 10.27734375 2.4140625 C11.17366547 -0.58013654 11.95717671 -1.31868473 15 -2 C17.65660887 1.05578229 17.61871214 4.75616449 18 8.625 C18.16530275 10.14714213 18.33066932 11.66927734 18.49609375 13.19140625 C18.57843262 13.97789551 18.66077148 14.76438477 18.74560547 15.57470703 C19.16498513 19.57290044 19.61006024 23.56793315 20.0625 27.5625 C20.14177734 28.3064502 20.22105469 29.05040039 20.30273438 29.81689453 C20.12675434 33.28222965 20.12675434 33.28222965 22 35 C23.42049982 29.79547964 23.99099178 24.38694075 24.46875 19.02734375 C24.58682007 17.71008301 24.58682007 17.71008301 24.70727539 16.36621094 C24.85855074 14.60609094 24.99870718 12.84497324 25.12670898 11.08300781 C26.30761172 -2.81728597 26.30761172 -2.81728597 31.03320312 -1.3828125 C33.41826072 0.2940701 33.6484344 1.0322136 34.15234375 3.85546875 C34.29913574 4.66032715 34.44592773 5.46518555 34.59716797 6.29443359 C35.34114541 11.29125662 35.98099007 16.29428467 36.5625 21.3125 C36.81154586 23.43385985 37.06275843 25.55496673 37.31640625 27.67578125 C37.42412354 28.60302002 37.53184082 29.53025879 37.64282227 30.4855957 C37.95987873 32.71756052 38.40432139 34.82814243 39 37 C40.11774687 30.36948215 41.07130086 23.8360902 41.5 17.125 C42.42272727 4 42.42272727 4 47 4 C47.58203125 6.40625 47.58203125 6.40625 47.8125 9.5 C47.90144531 10.5209375 47.99039063 11.541875 48.08203125 12.59375 C48 15 48 15 46 15 C45.7910306 17.11250696 45.7910306 17.11250696 45.9375 19.75 C46.29997141 45.35366202 46.29997141 45.35366202 38.4375 46.3125 C33.21467177 43.50020788 32.64829852 39.14832767 32.30859375 33.671875 C32.18579239 31.76023195 32.18579239 31.76023195 30 31 C29.875 28.4375 29.875 28.4375 30 26 C29.89042969 26.79664062 29.78085938 27.59328125 29.66796875 28.4140625 C26.66480273 48.48400124 26.66480273 48.48400124 19 45 C17.19447774 42.61671062 16.12067018 40.39802205 15.25390625 37.5390625 C14.52426932 34.9062617 14.52426932 34.9062617 13 32 C11.90309758 34.30235247 11.40726475 36.65847668 10.84375 39.140625 C9.31884797 44.30834853 7.63190129 47.52280752 2 45 C0.5234375 42.390625 0.5234375 42.390625 -0.625 39.25 C-1.64790228 34.64814815 -1.64790228 34.64814815 -4.640625 35.44140625 C-5.31351563 36.21291016 -5.31351563 36.21291016 -6 37 C-6.2578125 35.32421875 -6.2578125 35.32421875 -6.125 32.6875 C-5.52477638 29.60403677 -5.52477638 29.60403677 -7 28 C-7.10307778 26.63859538 -7.13085568 25.27154988 -7.1328125 23.90625 C-7.13410156 23.04 -7.13539063 22.17375 -7.13671875 21.28125 C-7.13091797 19.90453125 -7.13091797 19.90453125 -7.125 18.5 C-7.12886719 17.613125 -7.13273438 16.72625 -7.13671875 15.8125 C-7.10494601 -5.79296323 -7.10494601 -5.79296323 0 0 Z M42 33 C43 35 43 35 43 35 Z " transform="translate(149,42)" style="fill: #86837F;"/><path d="M0 0 C0.77319336 1.73120117 0.77319336 1.73120117 1.15234375 3.85546875 C1.29913574 4.66032715 1.44592773 5.46518555 1.59716797 6.29443359 C2.34114541 11.29125662 2.98099007 16.29428467 3.5625 21.3125 C3.81154586 23.43385985 4.06275843 25.55496673 4.31640625 27.67578125 C4.47798218 29.0666394 4.47798218 29.0666394 4.64282227 30.4855957 C4.95987873 32.71756052 5.40432139 34.82814243 6 37 C7.11774687 30.36948215 8.07130086 23.8360902 8.5 17.125 C9.42272727 4 9.42272727 4 14 4 C14.58203125 6.40625 14.58203125 6.40625 14.8125 9.5 C14.90144531 10.5209375 14.99039063 11.541875 15.08203125 12.59375 C15 15 15 15 13 15 C12.7910306 17.11250696 12.7910306 17.11250696 12.9375 19.75 C13.29997141 45.35366202 13.29997141 45.35366202 5.4375 46.3125 C0.21467177 43.50020788 -0.35170148 39.14832767 -0.69140625 33.671875 C-0.81420761 31.76023195 -0.81420761 31.76023195 -3 31 C-3.1480105 28.60519004 -3.1857539 26.32793234 -3.125 23.9375 C-3.11597656 23.27427734 -3.10695312 22.61105469 -3.09765625 21.92773438 C-3.07401984 20.28500377 -3.0381474 18.6424577 -3 17 C-3.13277344 18.0828125 -3.26554688 19.165625 -3.40234375 20.28125 C-3.58047287 21.68753249 -3.75887215 23.09378077 -3.9375 24.5 C-4.02451172 25.21542969 -4.11152344 25.93085937 -4.20117188 26.66796875 C-4.88671875 32 -4.88671875 32 -6 32 C-7.12385268 26.16399357 -7.21661722 20.36711565 -7.25 14.4375 C-7.270625 13.51775391 -7.29125 12.59800781 -7.3125 11.65039062 C-7.40945 -5.20678993 -7.40945 -5.20678993 0 0 Z M9 33 C10 35 10 35 10 35 Z " transform="translate(182,42)" style="fill: #84817E;"/><path d="M0 0 C1.28448101 5.26468205 1.24761042 10.66876615 1.4375 16.0625 C1.31259419 30.11420262 1.31259419 30.11420262 6 40 C8.52251718 32.36237855 8.60921278 23.51424722 9.30273438 15.55566406 C9.4177832 14.28480957 9.4177832 14.28480957 9.53515625 12.98828125 C9.600979 12.22040283 9.66680176 11.45252441 9.73461914 10.66137695 C10 9 10 9 11 9 C11.18945312 10.52539063 11.18945312 10.52539063 11.28125 12.65625 C11.31863281 13.43226562 11.35601562 14.20828125 11.39453125 15.0078125 C11.44673828 16.24144531 11.44673828 16.24144531 11.5 17.5 C11.70376197 22.13369802 11.92236456 26.69858365 12.609375 31.2890625 C13.03569964 34.47536192 12.86343104 36.80760665 11.75 39.875 C11.49734375 40.61492187 11.2446875 41.35484375 10.984375 42.1171875 C8.50106573 46.8670092 4.11345106 47.0351751 0.3125 43.375 C-0.99519344 41.00869758 -1.4048123 39.1846093 -1.9375 36.5625 C-2.288125 35.716875 -2.63875 34.87125 -3 34 C-4.27598501 36.71080632 -5.12795659 39.48285738 -6 42.34765625 C-7 45 -7 45 -9 45 C-9 44.34 -9 43.68 -9 43 C-9.66 43 -10.32 43 -11 43 C-12.21451674 39.35644977 -11.33877005 38.50183656 -9.83203125 35.171875 C-6.52870855 26.54911716 -6.66835801 16.78595697 -6.42919922 7.67895508 C-6.40100098 6.84388428 -6.37280273 6.00881348 -6.34375 5.1484375 C-6.32505859 4.39739746 -6.30636719 3.64635742 -6.28710938 2.87255859 C-5.66984841 -1.15328461 -3.28690721 -1.69646824 0 0 Z M10 31 C11 33 11 33 11 33 Z " transform="translate(67,41)" style="fill: #9B9895;"/><path d="M0 0 C0.81219511 3.29315882 1.1864031 6.53643112 1.4296875 9.9140625 C2.44726135 24.19171602 2.44726135 24.19171602 6 38 C8.16082719 29.97833231 8.16082719 29.97833231 9.625 21.8125 C10 19 10 19 11 18 C11.23554535 14.97529856 11.3968097 11.95872731 11.51757812 8.92773438 C11.78599531 4 11.78599531 4 14 4 C16.53942725 11.21391436 14.93663059 19.75073144 14.1875 27.1875 C14.11748779 27.94756348 14.04747559 28.70762695 13.9753418 29.49072266 C13.23619842 36.25134214 11.84709757 47.02096014 3 44 C-0.23005081 41.01841464 -1.12262366 36.9245878 -2.3515625 32.828125 C-2.73242914 30.84292189 -2.73242914 30.84292189 -4 31 C-5.28894593 24.6101191 -5.18361225 18.18393759 -5.1875 11.6875 C-5.19974609 10.59115234 -5.21199219 9.49480469 -5.22460938 8.36523438 C-5.22654297 7.32044922 -5.22847656 6.27566406 -5.23046875 5.19921875 C-5.23457764 4.24877686 -5.23868652 3.29833496 -5.24291992 2.3190918 C-4.81692387 -1.74777906 -2.9295949 -2.9295949 0 0 Z " transform="translate(83,42)" style="fill: #898684;"/><path d="M0 0 C0.30467069 2.70148002 0.39481429 5.17621225 0.36328125 7.8828125 C0.36377975 8.68983612 0.36427826 9.49685974 0.36479187 10.32833862 C0.36244248 12.04508917 0.35266349 13.76184259 0.33618164 15.47851562 C0.31278844 18.09276661 0.31558885 20.70598494 0.32226562 23.3203125 C0.31668232 24.9869852 0.30956836 26.65365361 0.30078125 28.3203125 C0.30214836 29.48785568 0.30214836 29.48785568 0.30354309 30.6789856 C0.20747699 38.14006862 -0.16328668 45.62778888 -9.625 43.375 C-15.04691433 40.23599697 -15.60152424 35.7746327 -15 30 C-14 31.375 -14 31.375 -13 33 C-13 32.175 -13 31.35 -13 30.5 C-13 29.675 -13 28.85 -13 28 C-12.68289062 28.51691406 -12.36578125 29.03382812 -12.0390625 29.56640625 C-11.69617188 30.03949219 -11.35328125 30.51257813 -11 31 C-9.42056728 26.45540585 -9.98095046 20.63067189 -10.046875 15.87109375 C-10.05799316 14.96883057 -10.06911133 14.06656738 -10.08056641 13.13696289 C-10.11022481 11.29341595 -10.15420826 9.45004463 -10.21240234 7.60717773 C-10.2273877 6.75454346 -10.24237305 5.90190918 -10.2578125 5.0234375 C-10.2798877 4.24919434 -10.30196289 3.47495117 -10.32470703 2.67724609 C-10 1 -10 1 -7 1 C-6.69116211 2.46875 -6.69116211 2.46875 -6.77734375 4.5 C-6.79603516 5.221875 -6.81472656 5.94375 -6.83398438 6.6875 C-6.86814453 7.450625 -6.90230469 8.21375 -6.9375 9 C-6.99703115 10.49967822 -7.04831801 11.99971524 -7.08984375 13.5 C-7.13419556 14.50546875 -7.13419556 14.50546875 -7.17944336 15.53125 C-7.20618769 17.33087309 -7.20618769 17.33087309 -5 17 C-4.70786113 14.32858584 -4.53085499 11.74247117 -4.4375 9.0625 C-4.37775863 7.57405022 -4.31415896 6.08574862 -4.24609375 4.59765625 C-4.22216553 3.93258057 -4.1982373 3.26750488 -4.17358398 2.58227539 C-3.84819779 -0.38372729 -3.01182385 0 0 0 Z " transform="translate(247,45)" style="fill: #7B7774;"/><path d="M0 0 C1.27230131 5.15630697 1.55430483 10.44124638 1.94140625 15.72265625 C2.11839763 25.63680056 2.11839763 25.63680056 4.87890625 33.16015625 C6.50230066 26.60316478 7.17199949 19.90379573 7.6328125 13.1796875 C7.87890625 11.16015625 7.87890625 11.16015625 8.87890625 11.16015625 C9.21326853 14.28087086 9.39466806 17.40333849 9.59765625 20.53515625 C9.45665778 23.32587444 9.45665778 23.32587444 10.87890625 23.16015625 C11.1725211 21.11417342 11.32927196 19.06744657 11.5 17.0078125 C11.87890625 15.16015625 11.87890625 15.16015625 13.87890625 14.16015625 C13.97273397 17.49885939 13.32951317 20.85712252 12.87890625 24.16015625 C12.74226563 25.19269531 12.605625 26.22523437 12.46484375 27.2890625 C9.60245087 46.67085835 9.60245087 46.67085835 1.87890625 43.16015625 C-3.47340365 35.38493369 -4.4450105 25.92433594 -4.74267578 16.70532227 C-4.83498263 13.01214725 -4.83498263 13.01214725 -7.12109375 10.16015625 C-7.8117095 5.55943659 -4.42193969 -11.20122006 0 0 Z " transform="translate(166.12109375,43.83984375)" style="fill: #9C9A97;"/><path d="M0 0 C0.57719954 2.53655798 0.8813556 4.74065721 1.0625 7.3125 C1.20397839 8.83882772 1.3486692 10.36486013 1.49609375 11.890625 C1.5719873 12.70853516 1.64788086 13.52644531 1.72607422 14.36914062 C2.22063794 19.11906811 2.93110575 23.83829375 3.625 28.5625 C3.76043213 29.49682861 3.89586426 30.43115723 4.03540039 31.39379883 C4.35490991 33.5961691 4.67642866 35.7982235 5 38 C5.18175781 37.18273437 5.36351563 36.36546875 5.55078125 35.5234375 C5.80214844 34.48445313 6.05351563 33.44546875 6.3125 32.375 C6.67794922 30.80878906 6.67794922 30.80878906 7.05078125 29.2109375 C8 27 8 27 9.55078125 27.3984375 C14.01894308 32.33629829 12.44776152 40.55223848 8 45 C-1.51839943 46.25242098 -4.37855444 32.13273739 -3.5625 24.6875 C-3.11404749 19.86663554 -2.85654432 15.09177303 -2.8125 10.25 C-2.79968994 9.62955811 -2.78687988 9.00911621 -2.77368164 8.36987305 C-2.26266886 4.83997468 -2.26266886 4.83997468 -5 4 C-5.12391638 6.36952293 -5.13783574 8.6349144 -5.0625 11 C-4.88006757 18 -4.88006757 18 -6 18 C-6.26490908 15.24093855 -6.18526057 12.45766978 -6.1875 9.6875 C-6.19974609 8.90181641 -6.21199219 8.11613281 -6.22460938 7.30664062 C-6.22654297 6.54931641 -6.22847656 5.79199219 -6.23046875 5.01171875 C-6.23457764 4.31522217 -6.23868652 3.61872559 -6.24291992 2.90112305 C-5.666501 -1.61000671 -3.71193251 -3.14431305 0 0 Z M9 33 C10 35 10 35 10 35 Z " transform="translate(100,42)" style="fill: #A2A09D;"/></svg>