<?xml version="1.0" encoding="UTF-8"?>
<!-- Generator: visioncortex VTracer -->
<svg id="svg" version="1.1" xmlns="http://www.w3.org/2000/svg" style="display: block;" viewBox="0 0 188 89"><path d="M0 0 C4.20660207 2.49733712 4.20660207 2.49733712 4 -14 C11.46770682 -16.48923561 10.89637162 -7.51814189 12 -2 C15.75226152 0.27437201 15.75226152 0.27437201 16 -13 C23.99666064 -16.99833032 23.58830829 -7.35261271 25 -1 C28.97278785 -0.67120203 28.97278785 -0.67120203 29 -13 C46.31523018 -21.65761509 41.28617254 12.23687323 38 21 C36.68 21 35.36 21 34 21 C31.36 21.66 28.72 22.32 26 23 C23 21 23 21 20 15 C18.68 17.31 17.36 19.62 16 22 C9.24860335 25.37569832 8.53168103 14.72176721 8 11 C4.69763529 10.66924071 4.69763529 10.66924071 5 19 C-1.43399508 27.5786601 -3.2038916 17.990271 -6 11 C-6.99 14.3 -7.98 17.6 -9 21 C-17.26861603 25.13430802 -18 15.69524653 -18 9 C-21.33333333 8.66666667 -21.33333333 8.66666667 -20 17 C-24.76861191 24.94768652 -28.06072938 23.81781186 -31 15 C-32.65 17.31 -34.3 19.62 -36 22 C-41 21 -41 21 -44 14 C-45.65 16.64 -47.3 19.28 -49 22 C-54 21 -54 21 -57 14 C-58.65 16.64 -60.3 19.28 -62 22 C-67 21 -67 21 -69 14 C-71.78446454 13.67313977 -71.78446454 13.67313977 -72 19 C-78.26094518 25.26094518 -79.43643757 22.12712486 -83 15 C-84.65 17.64 -86.3 20.28 -88 23 C-93 21 -93 21 -96 16 C-97.65 17.98 -99.3 19.96 -101 22 C-106 21 -106 21 -109 16 C-110.65 17.98 -112.3 19.96 -114 22 C-128.25510795 22 -127.17589576 1.35179153 -122 -9 C-121.34 -9 -120.68 -9 -120 -9 C-119.67 -9.99 -119.34 -10.98 -119 -12 C-113.62017264 -13.79327579 -113.92709465 -9.63547323 -113 -5 C-113 -6.98 -113 -8.96 -113 -11 C-103.50152257 -20.49847743 -104.08185296 2.43160701 -103 9 C-100.20327976 9.33203244 -100.20327976 9.33203244 -100.5625 4.0625 C-98.22750229 -21.10358642 -93.65062769 -12.53033536 -91 10 C-86.5 10.5 -86.5 10.5 -88 1 C-83.82883639 -26.11256346 -79.75069426 -7.75624837 -78 8 C-73.52949239 3.52949239 -75 -4.09663005 -75 -10 C-66.1801922 -21.75974373 -65.87080766 2.0287475 -65 8 C-61.36021682 10.19256959 -61.36021682 10.19256959 -63 -2 C-57.35067934 -22.71417574 -54.84030179 -9.25474167 -52 4 C-50.01769593 5.98230407 -48.29861331 -9.9097068 -48 -12 C-40.98059843 -16.67960105 -40.17824102 -2.32021706 -39 2 C-34.69011785 2.32998316 -34.69011785 2.32998316 -35 -12 C-26.31985502 -16.34007249 -28.19064178 -5.73917159 -27 2 C-21.90534049 4.54732976 -22.30460862 -8.45541338 -21 -14 C-13.87132762 -12.21783191 -15 -6.37956412 -15 0 C-14.34 0 -13.68 0 -13 0 C-12.505 0.99 -12.505 0.99 -12 2 C-11.01 -2.62 -10.02 -7.24 -9 -12 C-2.79164087 -21.3125387 -1.1526276 -4.0341966 0 0 Z M-1 1 C0 3 0 3 0 3 Z M-40 3 C-39 5 -39 5 -39 5 Z M6 10 C6.66 9.67 7.32 9.34 8 9 C5.7018576 7.47825081 5.7018576 7.47825081 6 10 Z " transform="translate(140,42)" style="fill: #B6B4B3;"/><path d="M0 0 C3.75226152 2.27437201 3.75226152 2.27437201 4 -11 C11.99666064 -14.99833032 11.58830829 -5.35261271 13 1 C16.97278785 1.32879797 16.97278785 1.32879797 17 -11 C34.31523018 -19.65761509 29.28617254 14.23687323 26 23 C24.68 23 23.36 23 22 23 C19.36 23.66 16.72 24.32 14 25 C11 23 11 23 8 17 C6.68 19.31 5.36 21.62 4 24 C-2.75139665 27.37569832 -3.46831897 16.72176721 -4 13 C-7.30236471 12.66924071 -7.30236471 12.66924071 -7 21 C-15.7247286 32.63297147 -18.18412589 10.55237768 -16 4 C-15.67 2.68 -15.34 1.36 -15 0 C-13 0 -13 0 -10 3 C-9.34 -1.95 -8.68 -6.9 -8 -12 C-4.60065366 -15.39934634 -1.16596618 -4.66386471 0 0 Z M-13 3 C-12 5 -12 5 -12 5 Z M-6 12 C-5.34 11.67 -4.68 11.34 -4 11 C-6.2981424 9.47825081 -6.2981424 9.47825081 -6 12 Z " transform="translate(152,40)" style="fill: #908F8B;"/><path d="M0 0 C2.79672024 0.33203244 2.79672024 0.33203244 2.4375 -4.9375 C4.77249771 -30.10358642 9.34937231 -21.53033536 12 1 C16.5 1.5 16.5 1.5 15 -8 C18.42857143 -21.71428571 18.42857143 -21.71428571 21 -5 C21.66 -5 22.32 -5 23 -5 C23 1 23 1 19 0 C19 2.64 19 5.28 19 8 C13.61374449 16.07938326 11.66664581 14.77774302 7 7 C5.35 8.98 3.7 10.96 2 13 C-3 12 -3 12 -6 7 C-7.65 8.98 -9.3 10.96 -11 13 C-25.25510795 13 -24.17589576 -7.64820847 -19 -18 C-18.34 -18 -17.68 -18 -17 -18 C-16.67 -18.99 -16.34 -19.98 -16 -21 C-10.62017264 -22.79327579 -10.92709465 -18.63547323 -10 -14 C-10 -15.98 -10 -17.96 -10 -20 C-0.50152257 -29.49847743 -1.08185296 -6.56839299 0 0 Z " transform="translate(37,51)" style="fill: #A2A09D;"/><path d="M0 0 C-0.99 0.495 -0.99 0.495 -2 1 C-2.99 4.96 -3.98 8.92 -5 13 C-13.38417078 21.38417078 -15 11.31989846 -15 3 C-18.33333333 2.66666667 -18.33333333 2.66666667 -17 11 C-24.23565344 23.0594224 -27 11.90033645 -27 3 C-27.33 0.03 -27.66 -2.94 -28 -6 C-28.33 -8.97 -28.66 -11.94 -29 -15 C-32.47242035 -15.33129458 -32.47242035 -15.33129458 -32 -6 C-37.21502223 -6 -31.80717975 -16.98205063 -31 -19 C-22.74550753 -19 -24 -10.99384499 -24 -4 C-18.90534049 -1.45267024 -19.30460862 -14.45541338 -18 -20 C-10.87132762 -18.21783191 -12 -12.37956412 -12 -6 C-11.34 -6 -10.68 -6 -10 -6 C-9.67 -5.34 -9.34 -4.68 -9 -4 C-8.01 -8.62 -7.02 -13.24 -6 -18 C2.30457382 -30.45686072 0.05449308 -0.65391692 0 0 Z " transform="translate(137,48)" style="fill: #A2A09D;"/><path d="M0 0 C-4.09744679 0 -21.23995246 -2.25334918 -10 -6 C-8.26129589 -14.57546629 -8.26129589 -14.57546629 -11 -10 C-11 -53.43072542 11.35118413 -30.26982435 0 0 Z " transform="translate(178,63)" style="fill: #9D9B98;"/><path d="M0 0 C3.81258657 0.32158794 3.81258657 0.32158794 5 -11 C16.95411167 -11 6.64951916 14.89067318 3 20 C-5.07048069 18.38590386 -5 13.4837291 -5 6 C-8.13137085 5.67001684 -8.13137085 5.67001684 -8 13 C-11.33477117 -0.33908469 -9.84683452 -34.46392083 0 0 Z M-1 1 C0 3 0 3 0 3 Z " transform="translate(101,44)" style="fill: #93908E;"/><path d="M0 0 C0.66 0 1.32 0 2 0 C2.33 0.99 2.66 1.98 3 3 C3.66 2.67 4.32 2.34 5 2 C5.99 2.99 6.98 3.98 8 5 C8.66 4.67 9.32 4.34 10 4 C10 7 10 7 8 8 C8.33 8.66 8.66 9.32 9 10 C7 12 7 12 4 7 C2.35 8.98 0.7 10.96 -1 13 C-15.25510795 13 -14.17589576 -7.64820847 -9 -18 C-8.34 -18 -7.68 -18 -7 -18 C-6.67 -18.99 -6.34 -19.98 -6 -21 C2.95807335 -25.47903667 0.41635111 -3.74715998 0 0 Z " transform="translate(27,51)" style="fill: #9E9B98;"/><path d="M0 0 C3.29352333 2.05098771 3.29352333 2.05098771 4 -8 C5 -8 5 -8 6 -1 C5.34 -1 4.68 -1 4 -1 C4.66 -0.34 5.32 0.32 6 1 C7.24242314 8.45453886 7.52383725 29.15479657 -3 16 C-3 13.03 -3 10.06 -3 7 C-3.33 4.03 -3.66 1.06 -4 -2 C-4.33 -4.97 -4.66 -7.94 -5 -11 C-8.47242035 -11.33129458 -8.47242035 -11.33129458 -8 -2 C-11.80283349 -2 0 -37.84523129 0 0 Z " transform="translate(113,44)" style="fill: #979491;"/><path d="M0 0 C0.99 0 1.98 0 3 0 C3 2.97 3 5.94 3 9 C3.66 8.34 4.32 7.68 5 7 C4 16 4 16 0 17 C0.2971365 22.24806947 0.2971365 22.24806947 4 23 C-1.86786227 24.95595409 -2.46238163 21.07523674 -5 16 C-5.66 17.32 -6.32 18.64 -7 20 C-8 17 -8 17 -7 14 C-6.72999823 8.32996285 -6.88675419 -8.56622906 -8 -3 C-12.83782232 -3 -10.2981892 -14 0 0 Z " transform="translate(165,41)" style="fill: #ADABA9;"/><path d="M0 0 C1.16666667 1.5 1.16666667 1.5 3 -1 C5 2 5 2 5 9 C5.33 7.35 5.66 5.7 6 4 C13.57838421 4 3.35992853 17.46010721 3 18 C-2 17 -2 17 -5 10 C-5.66 10.66 -6.32 11.32 -7 12 C-6 4 -6 4 -2 6 C-0.66666667 -2.5 -0.66666667 -2.5 -5 -2 C-5.66 -4.97 -6.32 -7.94 -7 -11 C-7.66 -7.7 -8.32 -4.4 -9 -1 C-17.90186023 3.45093012 -7.87335122 -17.62570662 0 0 Z " transform="translate(88,46)" style="fill: #A7A3A1;"/><path d="M0 0 C0.99 0 1.98 0 3 0 C4 11 4 11 3 8 C-1.66410059 5.89059961 -1.66410059 5.89059961 -3 18 C-8.5158853 23.5158853 -9.30392514 16.87252402 -10 12 C-10.99 11.01 -11.98 10.02 -13 9 C-13 0.4828816 -11.56052797 -2.90131992 -8 6 C-5.15450318 7.82098966 -5.15450318 7.82098966 -5 1 C-1.8340081 -16.50607287 -1.8340081 -16.50607287 0 0 Z " transform="translate(83,44)" style="fill: #928E8B;"/><path d="M0 0 C2.33075929 1.57882876 2.33075929 1.57882876 4 -2 C1.81447964 20.47963801 1.81447964 20.47963801 -1 5 C-3.95899409 4.67120203 -3.95899409 4.67120203 -4 11 C-6 10 -6 10 -6 -5 C-9.16666667 -5.33333333 -9.16666667 -5.33333333 -8 2 C-9.485 7.445 -9.485 7.445 -11 13 C-10.34 13 -9.68 13 -9 13 C-12.03266766 28.16333829 -14 2.4702942 -14 0 C-12.68 0.99 -11.36 1.98 -10 3 C-9.34 -1.95 -8.68 -6.9 -8 -12 C-4.60065366 -15.39934634 -1.16596618 -4.66386471 0 0 Z M-13 3 C-12 5 -12 5 -12 5 Z " transform="translate(152,40)" style="fill: #BBBAB5;"/><path d="M0 0 C-3 1 -3 1 -5 -3 C-5.66 -2.34 -6.32 -1.68 -7 -1 C-7 -2.65 -7 -4.3 -7 -6 C-7.66 -6 -8.32 -6 -9 -6 C-9 -49.59380418 -1.06521705 -19.17390692 0 0 Z " transform="translate(36,57)" style="fill: #999695;"/><path d="M0 0 C-0.66 0 -1.32 0 -2 0 C-1.67 3.63 -1.34 7.26 -1 11 C-4 8 -4 8 -5 2 C-5.66 2.66 -6.32 3.32 -7 4 C-7 -6 -7 -6 -5 -6 C-5 -10.62 -5 -15.24 -5 -20 C4.47991045 -26.3199403 2.99668096 -5.99336193 0 0 Z " transform="translate(25,51)" style="fill: #89817E;"/><path d="M0 0 C0.66 0.66 1.32 1.32 2 2 C4 5 4 5 2 11 C2.99 11 3.98 11 5 11 C6.48195281 21.37366965 3.71923049 18 -6 18 C-7 13 -7 13 -4 12 C-2.26129589 3.42453371 -2.26129589 3.42453371 -5 8 C-5 0.70971606 -4.68997588 -25.79486736 0 0 Z " transform="translate(172,45)" style="fill: #7C7774;"/><path d="M0 0 C-0.33 -0.66 -0.66 -1.32 -1 -2 C-2.98 -2.66 -4.96 -3.32 -7 -4 C-9.49332387 -6.49332387 -11.00892302 -9.99107698 -8 -13 C-8 -16.63 -8 -20.26 -8 -24 C-5.33333333 -32 -0.443215 -8.42108494 0 0 Z " transform="translate(126,55)" style="fill: #9D9A97;"/><path d="M0 0 C0.99 0 1.98 0 3 0 C3 2.31 3 4.62 3 7 C3.33 8.32 3.66 9.64 4 11 C0.76344953 23.94620189 -2.91506762 1.36804033 -3 1 C-3.66 0.67 -4.32 0.34 -5 0 C-5.66 -2.64 -6.32 -5.28 -7 -8 C-7.66 -5.36 -8.32 -2.72 -9 0 C-14.45402498 -2.72701249 -11.75009357 -16 0 0 Z M-1 1 C0 3 0 3 0 3 Z " transform="translate(101,44)" style="fill: #C5C2C2;"/><path d="M0 0 C-0.33 -1.32 -0.66 -2.64 -1 -4 C-5.40572699 -4.49613894 -5.40572699 -4.49613894 -3 4 C-2.34 4 -1.68 4 -1 4 C1 12 1 12 -1 14 C-1.66 11.69 -2.32 9.38 -3 7 C-5.42163702 6.68377223 -5.42163702 6.68377223 -6 10 C-5.67 2.41 -5.34 -5.18 -5 -13 C-7.42163702 -13.31622777 -7.42163702 -13.31622777 -8 -10 C-14.39024051 -10 -6.22958126 -25.81324627 0 0 Z " transform="translate(74,49)" style="fill: #B9B8B7;"/><path d="M0 0 C0.66 0.33 1.32 0.66 2 1 C2.66 2.65 3.32 4.3 4 6 C4.33 6 4.66 6 5 6 C2.81804464 21.27368754 -0.3428325 8.22884248 -1 1 C-1.66 1 -2.32 1 -3 1 C-3.66 -2.96 -4.32 -6.92 -5 -11 C-8.47242035 -11.33129458 -8.47242035 -11.33129458 -8 -2 C-11.80283349 -2 0 -37.84523129 0 0 Z " transform="translate(113,44)" style="fill: #C3C1C0;"/><path d="M0 0 C0.66 0 1.32 0 2 0 C2 6 2 6 -2 5 C-2 7.64 -2 10.28 -2 13 C-6 19 -6 19 -10 17 C-9.34 16.67 -8.68 16.34 -8 16 C-7.67 14.35 -7.34 12.7 -7 11 C-6.34 11.33 -5.68 11.66 -5 12 C-3.50128702 6.67696283 -3.50128702 6.67696283 -5 4 C-5 -10.36760774 -2.01247633 -20.12476326 0 0 Z " transform="translate(58,46)" style="fill: #898683;"/><path d="M0 0 C-0.66 0.33 -1.32 0.66 -2 1 C-2.66 2.32 -3.32 3.64 -4 5 C-4.33 -0.28 -4.66 -5.56 -5 -11 C-5.66 -8.03 -6.32 -5.06 -7 -2 C-9.79606266 -2 3.65011185 -43.80134216 0 0 Z " transform="translate(137,48)" style="fill: #B4B4B2;"/><path d="M0 0 C0.32402814 11.15350392 0.32402814 11.15350392 5.0625 4.75 C12.96858363 4.75 4.64241325 16.64344899 3.0625 18.75 C-4.63772996 14.89988502 -5.48617788 5.39603365 -2.9375 -2.25 C-1.20455315 -9.1817874 -0.95346899 -6.35645992 0 0 Z " transform="translate(138.9375,46.25)" style="fill: #92908D;"/><path d="M0 0 C-2.24680483 6.7404145 -8 16.01942943 -8 3 C-6.68 2.67 -5.36 2.34 -4 2 C-1.79791847 -5.16499158 -1.79791847 -5.16499158 -4 -5 C-2.57794514 -22.06465827 1.68032384 -35.28680059 0 0 Z " transform="translate(159,55)" style="fill: #837F7E;"/><path d="M0 0 C-0.33 0 -0.66 0 -1 0 C-1.33 2.31 -1.66 4.62 -2 7 C-4 7 -4 7 -4 -4 C-8.16666667 -4.33333333 -8.16666667 -4.33333333 -6 9 C-8 9 -8 9 -10 6 C-10.33 6 -10.66 6 -11 6 C-11 -5.57378668 0 -14.66061193 0 0 Z " transform="translate(179,35)" style="fill: #C2C1BF;"/><path d="M0 0 C-5 2 -5 2 -7 -9 C-6.34 -7.68 -5.68 -6.36 -5 -5 C-1.06840574 -4.50680304 -1.06840574 -4.50680304 -1 -11 C-1.33 -11 -1.66 -11 -2 -11 C-2 -42.22211488 3.7181115 -16.73150177 0 0 Z " transform="translate(67,63)" style="fill: #86827F;"/><path d="M0 0 C0.66 1.65 1.32 3.3 2 5 C0.41177573 14.52934562 0.11599073 11.92792587 -1 3 C-1.24822148 -2.49029034 -1.24822148 -2.49029034 -5 -2 C-5.66 -4.97 -6.32 -7.94 -7 -11 C-7.66 -7.7 -8.32 -4.4 -9 -1 C-17.90186023 3.45093012 -7.87335122 -17.62570662 0 0 Z " transform="translate(88,46)" style="fill: #C5C5C4;"/><path d="M0 0 C0.66 -0.33 1.32 -0.66 2 -1 C3 10 3 10 0 11 C0 9.35 0 7.7 0 6 C-4.10780062 5.50502525 -4.10780062 5.50502525 -4 13 C-6.47260932 3.10956271 -6.24707489 -24.98829956 0 0 Z " transform="translate(97,44)" style="fill: #7E7A79;"/><path d="M0 0 C-0.66 0 -1.32 0 -2 0 C-1.63936201 5.74813012 -1.63936201 5.74813012 1 8 C1 14.60742774 -0.47198299 22.34805955 -4 10 C-4 5.69686693 0 -31.31197869 0 0 Z " transform="translate(20,45)" style="fill: #B3ADA7;"/><path d="M0 0 C2.33075929 1.57882876 2.33075929 1.57882876 4 -2 C1.81447964 20.47963801 1.81447964 20.47963801 -1 5 C-1.66 5 -2.32 5 -3 5 C-5.53804027 -7.69020137 -2.64098574 -15.84591444 0 0 Z " transform="translate(152,40)" style="fill: #C9C9C7;"/></svg>